<svg width="1920" height="1080" viewBox="0 0 1920 1080" fill="none" xmlns="http://www.w3.org/2000/svg">
<path opacity="0.3" d="M1003.53 259.432C1185.05 51.0112 1533.43 -85.0808 1692.21 58.167C1850.99 201.414 1794.38 668.924 1557.41 759.131C1709.61 1135.14 1354.5 1370.98 962.351 896.184C847.607 704.126 822.003 467.853 1003.53 259.432Z" fill="white"/>
<path opacity="0.3" d="M1126.88 272.605C1308.41 64.1835 1656.78 -71.9086 1815.57 71.3392C1974.35 214.586 1917.74 682.096 1680.77 772.302C1832.97 1148.31 1477.86 1384.15 1085.7 909.355C970.966 717.298 945.362 481.025 1126.88 272.605Z" fill="white"/>
<path opacity="0.3" d="M1245.86 294.135C1427.38 85.7141 1775.77 -50.378 1934.55 92.869C2093.33 236.117 2036.72 703.628 1799.75 793.831C1951.96 1169.84 1596.85 1405.68 1204.69 930.884C1089.94 738.832 1064.34 502.556 1245.86 294.135Z" fill="white"/>
<g opacity="0.3">
<path opacity="0.35" d="M562.66 218C493.55 402.233 325.729 520.04 106.765 579.805C-112.199 639.571 -319.627 442.511 -319.627 218C-319.627 -6.51062 -140.401 -188.512 80.685 -188.512C301.772 -188.512 646.044 -4.27962 562.66 218Z" fill="white"/>
<path opacity="0.35" d="M601.033 155.513C531.923 339.746 364.102 457.552 145.138 517.318C-73.8261 577.083 -281.254 380.024 -281.254 155.513C-281.254 -68.9981 -102.028 -251 119.058 -251C340.145 -251 684.417 -66.7671 601.033 155.513Z" fill="white"/>
<path opacity="0.5" d="M28.3713 1039.12C219.238 1039.12 373.966 881.646 373.966 687.387C373.966 493.129 219.238 335.652 28.3713 335.652C-162.495 335.652 -317.223 493.129 -317.223 687.387C-317.223 881.646 -162.495 1039.12 28.3713 1039.12Z" stroke="white" stroke-width="10"/>
<path opacity="0.3" d="M109.451 546.987L109.339 547.011L109.229 547.042C11.1466 575.015 -75.2891 520.656 -137.673 433.664C-200.033 346.703 -237.507 228.126 -237.507 130.502C-237.507 -64.2959 -82.3507 -222.21 109.046 -222.21C205.187 -222.21 290.778 -196.673 352.259 -145.307C413.634 -94.0292 451.366 -16.6979 451.366 87.8242C451.366 185.309 412.495 289.874 350.152 375.27C287.803 460.675 202.3 526.476 109.451 546.987Z" stroke="url(#paint0_linear)" stroke-width="8"/>
<path opacity="0.3" d="M-7.60907 988.485C183.522 988.485 338.465 830.789 338.465 636.261C338.465 441.733 183.522 284.037 -7.60907 284.037C-198.74 284.037 -353.683 441.733 -353.683 636.261C-353.683 830.789 -198.74 988.485 -7.60907 988.485Z" stroke="url(#paint1_linear)" stroke-width="9"/>
</g>
<path d="M43.99 423.212C53.6248 427.702 65.0109 423.391 69.4216 413.585C73.8323 403.779 69.5973 392.191 59.9625 387.702C50.3277 383.213 38.9417 387.523 34.531 397.329C30.1203 407.135 34.3553 418.723 43.99 423.212Z" stroke="white" stroke-width="5.56471"/>
<mask id="mask0" mask-type="alpha" maskUnits="userSpaceOnUse" x="33" y="710" width="43" height="43">
<path d="M47.3111 710.905L75.14 744.905L33.2628 752.785L47.3111 710.905Z" fill="white"/>
</mask>
<g mask="url(#mask0)">
<path d="M47.3111 710.905L80.4787 682.782L31.2885 622.69L6.45745 696.709L47.3111 710.905ZM75.1401 744.905L82.9873 788.109L155.524 774.46L108.308 716.779L75.1401 744.905ZM33.2628 752.784L-7.59083 738.588L-31.4252 809.629L41.1101 795.989L33.2628 752.784ZM14.1436 739.027L41.9734 773.025L108.308 716.779L80.4787 682.782L14.1436 739.027ZM67.2928 701.698L25.4156 709.577L41.1101 795.989L82.9873 788.109L67.2928 701.698ZM74.1165 766.981L88.1648 725.103L6.45745 696.709L-7.59083 738.588L74.1165 766.981Z" fill="white"/>
</g>
<mask id="mask1" mask-type="alpha" maskUnits="userSpaceOnUse" x="449" y="305" width="29" height="27">
<path d="M460.014 305.206L477.613 326.672L449.861 331.184L460.014 305.206Z" fill="white"/>
</mask>
<g mask="url(#mask1)">
<path d="M460.014 305.206L485.796 283.313L449.66 239.233L428.815 292.575L460.014 305.206ZM477.613 326.672L482.908 360.417L541.231 350.936L503.393 304.78L477.613 326.672ZM449.861 331.184L418.662 318.555L396.835 374.411L455.158 364.929L449.861 331.184ZM434.233 327.098L451.831 348.565L503.393 304.78L485.796 283.313L434.233 327.098ZM472.316 292.927L444.566 297.439L455.158 364.929L482.908 360.417L472.316 292.927ZM481.06 343.813L491.213 317.835L428.815 292.575L418.662 318.555L481.06 343.813Z" fill="white"/>
</g>
<mask id="mask2" mask-type="alpha" maskUnits="userSpaceOnUse" x="740" y="70" width="44" height="40">
<path d="M783.064 109.401L740.835 104.238L765.422 70.0063L783.064 109.401Z" fill="white"/>
</mask>
<g mask="url(#mask2)">
<path d="M783.064 109.401L777.913 153.023L854.217 162.35L822.348 91.179L783.064 109.401ZM740.835 104.238L705.983 78.3055L662.449 138.909L735.683 147.861L740.835 104.238ZM765.422 70.0064L804.706 51.7845L774.114 -16.53L730.58 44.0731L765.422 70.0064ZM788.216 65.7778L745.977 60.6147L735.683 147.861L777.913 153.023L788.216 65.7778ZM775.677 130.171L800.274 95.9387L730.58 44.0731L705.983 78.3055L775.677 130.171ZM726.138 88.2274L743.78 127.622L822.348 91.179L804.706 51.7845L726.138 88.2274Z" fill="white"/>
</g>
<mask id="mask3" mask-type="alpha" maskUnits="userSpaceOnUse" x="532" y="753" width="28" height="26">
<path d="M559.619 778.766L532.933 775.524L549.697 753.341L559.619 778.766Z" fill="white"/>
</mask>
<g mask="url(#mask3)">
<path d="M559.619 778.766L555.639 812.695L611.643 819.5L590.823 766.151L559.619 778.766ZM532.933 775.524L506.32 754.679L470.306 802.326L528.953 809.453L532.933 775.524ZM549.697 753.341L580.902 740.727L559.098 684.86L523.085 732.505L549.697 753.341ZM563.598 744.827L536.912 741.586L528.953 809.453L555.639 812.695L563.598 744.827ZM559.544 796.36L576.309 774.177L523.085 732.505L506.32 754.679L559.544 796.36ZM518.493 765.956L528.414 791.381L590.823 766.151L580.902 740.727L518.493 765.956Z" fill="white"/>
</g>
<defs>
<linearGradient id="paint0_linear" x1="106.929" y1="-226.116" x2="106.929" y2="558.351" gradientUnits="userSpaceOnUse">
<stop offset="0.364583" stop-color="white"/>
<stop offset="0.90625" stop-color="white" stop-opacity="0"/>
</linearGradient>
<linearGradient id="paint1_linear" x1="-7.60905" y1="279.643" x2="-7.60905" y2="992.883" gradientUnits="userSpaceOnUse">
<stop offset="0.0729167" stop-color="white"/>
<stop offset="0.890625" stop-color="white" stop-opacity="0"/>
</linearGradient>
</defs>
</svg>
