<svg width="1920" height="827" viewBox="0 0 1920 827" fill="none" xmlns="http://www.w3.org/2000/svg">
    <circle opacity="0.2" cx="-21.1001" cy="236.9" r="73.8999" fill="#F43D3D"/>
    <circle opacity="0.2" cx="1888.14" cy="132.141" r="92.141" fill="#5FEE7F"/>
    <circle opacity="0.2" cx="30.8999" cy="236.9" r="73.8999" fill="#FF0000"/>
    <path opacity="0.2" d="M2215 483.53C2215 669.258 2076.12 812.338 1897.89 812.338C1799.2 665.005 1492.37 723.046 1492.37 537.318C1492.37 351.589 1820.71 431.613 1908.18 296.441C2086.41 296.441 2215 297.801 2215 483.53Z" fill="#5FEE7F"/>
    <g opacity="0.5">
        <path opacity="0.3" d="M1241.71 103.192C1330.85 242.905 1245.83 611.366 1113.06 675.886C980.281 740.411 624.783 631.522 586.794 484.886C274.102 507.202 138.977 270.789 560.897 131.474C725.621 99.5119 1083.59 -129.481 1241.71 103.192Z" fill="#729AFF"/>
        <path opacity="0.3" d="M1033.67 328.822C1171 464.221 1229.55 680.375 1096.77 744.895C964.001 809.42 608.5 700.531 570.511 553.895C257.819 576.211 122.693 339.797 544.613 200.483C709.342 168.521 896.347 193.42 1033.67 328.822Z" fill="#3F3CDC"/>
        <path opacity="0.3" d="M1000.84 391.379C1138.16 526.778 1196.71 742.937 1063.94 807.457C931.168 871.977 575.667 763.093 537.677 616.451C224.985 638.773 89.8596 402.359 511.78 263.044C676.508 231.081 863.513 255.981 1000.84 391.379Z" fill="#36BAFE"/>
    </g>
</svg>
