<svg width="1920" height="833" viewBox="0 0 1920 833" fill="none" xmlns="http://www.w3.org/2000/svg">
    <circle opacity="0.2" cx="1886.5" cy="98.5" r="98.5" fill="white"/>
    <circle opacity="0.2" cx="39" cy="217" r="79" fill="white"/>
    <path opacity="0.2" d="M2268 474.5C2268 673.046 2119.54 826 1929 826C1823.5 668.5 1495.5 730.546 1495.5 532C1495.5 333.454 1846.5 419 1940 274.5C2130.54 274.5 2268 275.954 2268 474.5Z" fill="white"/>
    <circle opacity="0.2" cx="-20" cy="218" r="79" fill="white"/>
    <g opacity="0.5">
        <path opacity="0.3" d="M1241.71 109.192C1330.85 248.905 1245.83 617.366 1113.06 681.886C980.281 746.411 624.783 637.522 586.794 490.886C274.102 513.202 138.977 276.789 560.897 137.474C725.621 105.512 1083.59 -123.481 1241.71 109.192Z" fill="white"/>
        <path opacity="0.3" d="M1033.67 334.822C1171 470.221 1229.55 686.375 1096.77 750.895C964.001 815.42 608.5 706.531 570.511 559.895C257.819 582.211 122.693 345.797 544.614 206.483C709.342 174.521 896.347 199.42 1033.67 334.822Z" fill="white"/>
        <path opacity="0.3" d="M1000.84 397.379C1138.16 532.778 1196.71 748.937 1063.94 813.457C931.168 877.977 575.667 769.093 537.677 622.451C224.985 644.773 89.8596 408.359 511.78 269.044C676.508 237.081 863.513 261.981 1000.84 397.379Z" fill="white"/>
    </g>
</svg>
