<svg width="103" height="87" viewBox="0 0 103 87" fill="none" xmlns="http://www.w3.org/2000/svg">
    <path d="M98.0952 0.276611H4.90477C2.20706 0.276611 0 2.48387 0 5.18138V70.1696C0 72.8671 2.20706 75.0743 4.90477 75.0743H40.4643V83.0446H30.6548C29.6395 83.0446 28.8155 83.8673 28.8155 84.8839C28.8155 85.8992 29.6395 86.7232 30.6548 86.7232H73.5716C74.5869 86.7232 75.4109 85.8992 75.4109 84.8839C75.4109 83.8673 74.5869 83.0446 73.5716 83.0446H62.5359V75.0743H98.0954C100.793 75.0743 103 72.8673 103 70.1696V5.18138C103 2.48387 100.793 0.276611 98.0952 0.276611ZM3.67863 5.18138C3.67863 4.51691 4.2403 3.95524 4.90477 3.95524H98.0954C98.7599 3.95524 99.3216 4.51691 99.3216 5.18138V57.2946H3.67863V5.18138ZM58.8571 83.0446H44.1427V75.0743H58.8571V83.0446ZM99.3216 70.1698C99.3216 70.8342 98.7599 71.3959 98.0952 71.3959H4.90477C4.2403 71.3959 3.67863 70.8342 3.67863 70.1698V60.9734H99.3216V70.1698Z" fill="#0CB6DC"/>
    <path d="M77.0993 10.5508H49.1951C46.7414 10.558 44.7635 12.5359 44.7563 14.9908V21.5865H25.8988C23.4439 21.5927 21.4662 23.5716 21.4587 26.0265V44.0527C21.466 46.5064 23.4437 48.4854 25.8986 48.4916H25.8887L29.7329 48.5099V53.0027C29.7329 53.7237 30.1546 54.3785 30.8108 54.6776C31.4666 54.9756 32.2381 54.8627 32.7813 54.3883L39.5169 48.5099L53.807 48.4916C56.2583 48.4843 58.236 46.5064 58.2434 44.0527V37.4668L63.4817 37.473L70.2172 43.3514C70.7603 43.826 71.5304 43.9389 72.1876 43.6407C72.8435 43.3416 73.2655 42.6868 73.2655 41.9658V37.473L77.1083 37.4547H77.0997C79.5534 37.4485 81.5323 35.4695 81.5397 33.0158V14.9908C81.5321 12.5374 79.553 10.5582 77.0993 10.5508ZM54.567 44.0529C54.567 44.2603 54.4861 44.4416 54.3413 44.5889C54.1954 44.7323 54.0128 44.8132 53.8054 44.8146L38.8237 44.8341C38.3835 44.8341 37.9482 44.9984 37.6173 45.2877L33.4114 48.9577V46.6818C33.4114 45.6714 32.591 44.8474 31.5807 44.8425L25.9073 44.8156H25.8986C25.6902 44.8156 25.5085 44.7347 25.3615 44.5899C25.218 44.444 25.1358 44.2624 25.1358 44.0539L25.1372 26.0265C25.1372 25.8181 25.218 25.6365 25.3629 25.4906C25.5087 25.3472 25.6914 25.2663 25.9 25.2649H53.8056C54.013 25.2649 54.1942 25.3458 54.3415 25.4906C54.4849 25.6365 54.5672 25.8181 54.5672 26.0265V44.0529H54.567ZM77.8659 33.0171C77.8659 33.2245 77.7851 33.4057 77.6402 33.553C77.4944 33.6964 77.3117 33.7773 77.1031 33.7787H77.0932L71.4198 33.8056C70.4107 33.8105 69.5903 34.6345 69.5903 35.645V37.9208L65.3844 34.2496C65.0521 33.9603 64.6182 33.797 64.1778 33.796L58.2442 33.7897V26.0267C58.237 23.573 56.2591 21.5941 53.8054 21.5867H48.4345V14.991C48.4345 14.7826 48.5154 14.601 48.6602 14.4551C48.806 14.3117 48.9887 14.2308 49.1961 14.2294H77.1031C77.3115 14.2294 77.4932 14.3103 77.6402 14.4551C77.7836 14.601 77.8659 14.7826 77.8659 14.991V33.0171Z" fill="#0CB6DC"/>
    <path d="M33.7194 40.7411C34.7353 40.7411 35.5588 39.9176 35.5588 38.9018C35.5588 37.886 34.7353 37.0625 33.7194 37.0625C32.7036 37.0625 31.8801 37.886 31.8801 38.9018C31.8801 39.9176 32.7036 40.7411 33.7194 40.7411Z" fill="#0CB6DC"/>
    <path d="M39.8513 40.7411C40.8671 40.7411 41.6906 39.9176 41.6906 38.9018C41.6906 37.886 40.8671 37.0625 39.8513 37.0625C38.8354 37.0625 38.012 37.886 38.012 38.9018C38.012 39.9176 38.8354 40.7411 39.8513 40.7411Z" fill="#0CB6DC"/>
    <path d="M45.9831 40.7411C46.9989 40.7411 47.8224 39.9176 47.8224 38.9018C47.8224 37.886 46.9989 37.0625 45.9831 37.0625C44.9673 37.0625 44.1438 37.886 44.1438 38.9018C44.1438 39.9176 44.9673 40.7411 45.9831 40.7411Z" fill="#0CB6DC"/>
</svg>
