<svg width="39" height="42" viewBox="0 0 39 42" fill="none" xmlns="http://www.w3.org/2000/svg">
    <mask id="path-1-outside-1" maskUnits="userSpaceOnUse" x="0" y="0" width="39" height="42" fill="black">
        <rect fill="white" width="39" height="42"/>
        <path d="M18.8563 41.0091C18.1856 40.7983 17.6707 40.3743 17.3785 39.7922C17.0565 39.1507 17.0009 38.5008 17.218 37.9135C17.4874 37.1844 18.1338 36.6051 18.9018 36.4043C19.2136 36.3228 19.8424 36.3257 20.1315 36.41C20.86 36.6224 21.5033 37.2008 21.7419 37.8579L21.8189 38.07L22.0436 38.0575C22.5439 38.0295 23.9639 37.7139 24.9022 37.4223C26.0174 37.0756 27.4613 36.4327 28.5181 35.8121C29.5602 35.2002 30.4133 34.5759 31.3863 33.713C31.6781 33.4542 31.9295 33.2377 31.9449 33.2318C31.9604 33.2259 32.1046 33.3513 32.2653 33.5104C32.6085 33.85 32.6394 33.7616 31.9659 34.3662C29.2798 36.7775 25.9974 38.3611 22.5438 38.912L21.8309 39.0258L21.778 39.2705C21.6009 40.0901 20.8936 40.8111 20.0565 41.0253C19.7279 41.1093 19.1503 41.1016 18.8563 41.0091V41.0091ZM20.1084 40.1142C20.4288 39.9701 20.6977 39.7097 20.8595 39.3869C20.9802 39.1462 20.9972 39.0709 20.9972 38.7784C20.9972 38.5 20.9775 38.4032 20.8785 38.1949C20.6773 37.7717 20.343 37.4885 19.8931 37.36C18.8186 37.0532 17.7373 38.1372 18.0919 39.1657C18.2877 39.7337 18.604 40.0506 19.1152 40.1914C19.421 40.2756 19.8181 40.2447 20.1084 40.1142ZM13.5823 38.1981C11.4711 37.5019 9.59842 36.4841 7.82431 35.0688C7.19966 34.5705 5.73963 33.1445 5.27686 32.5807C5.09082 32.3541 4.89965 32.1226 4.85205 32.0663L4.76548 31.964L4.55545 32.0358C4.24234 32.1428 3.64313 32.1648 3.30732 32.0816C2.17551 31.8012 1.39585 30.8268 1.38918 29.6842C1.38704 29.319 1.51944 28.7999 1.68618 28.5196C1.9534 28.0704 2.42531 27.7049 2.98282 27.5153C3.45356 27.3552 3.77167 27.329 4.20292 27.4148C5.40106 27.6532 6.21007 28.6203 6.20589 29.8091C6.20383 30.3918 6.03389 30.8687 5.6696 31.3139C5.60043 31.3984 5.55066 31.4863 5.55901 31.5092C5.60611 31.6384 6.42933 32.5481 7.05432 33.1617C8.52824 34.6087 9.90666 35.588 11.7342 36.4865C12.5841 36.9043 14.0106 37.4491 14.5674 37.5685C14.6432 37.5848 14.7051 37.6031 14.7051 37.6093C14.7051 37.6156 14.6871 37.6749 14.6651 37.7413C14.643 37.8076 14.585 37.9977 14.5361 38.1637C14.4873 38.3296 14.4338 38.465 14.4173 38.4645C14.4008 38.464 14.0251 38.3441 13.5823 38.1981ZM4.36575 31.1957C4.96742 31.0048 5.41147 30.2188 5.29947 29.5429C5.15495 28.6707 4.25834 28.1618 3.34579 28.4341C3.09157 28.5099 3.00402 28.5617 2.81234 28.75C1.98023 29.5673 2.29366 30.7893 3.4333 31.1709C3.76546 31.2822 4.0678 31.2902 4.36575 31.1956V31.1957ZM34.574 32.426C34.0206 32.3718 33.5354 32.1273 33.1535 31.71C32.3759 30.8605 32.2867 29.6928 32.9275 28.7518C33.4131 28.0386 34.1799 27.6913 35.1563 27.7423L35.5871 27.7648L35.7013 27.4864C36.2763 26.0852 36.6609 24.6491 36.8737 23.1088C37.0028 22.1741 37.0137 19.9593 36.8936 19.0512C36.8031 18.3665 36.6403 17.4726 36.526 17.0331C36.4814 16.8617 36.4585 16.7101 36.475 16.6963C36.5351 16.6462 37.3509 16.4528 37.3782 16.4823C37.4142 16.5212 37.6472 17.4886 37.7312 17.9483C37.9286 19.0275 38.0318 20.4645 37.9913 21.569C37.9046 23.9348 37.4979 25.7922 36.5634 28.0903C36.5102 28.2211 36.5135 28.2279 36.7459 28.4671C36.876 28.6011 37.0307 28.8041 37.0895 28.9183C37.2089 29.1496 37.3313 29.7647 37.3313 30.1333C37.3313 30.8814 36.8311 31.7345 36.1661 32.1204C35.704 32.3886 35.1935 32.4866 34.574 32.426H34.574ZM35.643 31.4006C35.9763 31.2394 36.1401 31.0758 36.3333 30.7112C36.4654 30.4622 36.4839 30.3902 36.4839 30.1256C36.4839 29.2322 35.8608 28.6022 34.9773 28.6022C33.9124 28.6022 33.1678 29.7401 33.6118 30.6888C33.885 31.2727 34.3774 31.57 35.0286 31.5443C35.3127 31.5332 35.4219 31.5076 35.643 31.4006ZM10.6381 29.4866C10.6384 29.3778 10.6669 28.9143 10.7013 28.4565C10.7358 27.9988 10.7641 27.6102 10.7643 27.593C10.7645 27.5759 10.0496 27.5618 9.17571 27.5618H7.5868V27.2844C7.5868 26.7071 7.96338 23.2824 8.07712 22.8254C8.2219 22.2437 8.66844 21.4661 9.0765 21.0851C9.48878 20.7002 9.77867 20.5625 11.3054 20.0266C12.1039 19.7464 12.7641 19.5246 12.7726 19.5338C12.781 19.543 13.0207 19.9953 13.3052 20.539C13.5897 21.0826 13.8352 21.5266 13.8507 21.5256C13.8662 21.5246 14.4509 21.3215 15.15 21.074C15.8492 20.8266 16.4369 20.6377 16.456 20.6543C16.4752 20.6709 17.0696 21.7403 17.7768 23.0307L19.0628 25.3769H19.5142H19.9657L21.2517 23.0307C21.9589 21.7403 22.5533 20.6702 22.5725 20.6528C22.5917 20.6354 23.1793 20.8242 23.8785 21.0723C24.5776 21.3205 25.1623 21.5244 25.1778 21.5254C25.1933 21.5265 25.4388 21.0826 25.7233 20.539C26.0078 19.9953 26.2476 19.5429 26.2561 19.5336C26.2924 19.494 28.9529 20.4319 29.2873 20.6021C29.6832 20.8037 30.1183 21.1603 30.3532 21.4757C30.5053 21.6799 30.8303 22.4142 30.9487 22.8212C31.0168 23.0551 31.0335 23.1513 31.188 24.1998C31.2762 24.7983 31.3752 25.8091 31.4215 26.5838C31.4365 26.8356 31.4644 27.1071 31.4834 27.1872C31.5024 27.2674 31.5298 27.3844 31.5442 27.4473L31.5704 27.5618H29.9807C29.1064 27.5618 28.3911 27.5758 28.3913 27.593C28.3915 27.6102 28.4198 27.9988 28.4543 28.4565C28.4887 28.9143 28.5172 29.3778 28.5175 29.4866L28.5181 29.6842H19.5778H10.6376L10.6382 29.4866H10.6381ZM27.3739 28.6334C27.3738 28.4903 27.1313 26.1464 27.038 25.3852C26.9432 24.6118 26.8755 24.3983 26.4484 23.5278C26.3525 23.3321 25.9085 22.91 25.6185 22.7386C25.4225 22.6228 22.9733 21.7516 22.945 21.7876C22.9406 21.7932 22.3886 22.8092 21.7185 24.0452C21.0483 25.2812 20.4805 26.3162 20.4568 26.3453C20.4237 26.3857 20.1911 26.3954 19.4634 26.3869L18.5133 26.3757L17.2691 24.0868C16.441 22.5634 16.0048 21.8014 15.9649 21.8086C15.813 21.8357 13.6228 22.6579 13.4244 22.7623C13.1171 22.924 12.5541 23.4857 12.3868 23.7976C12.1696 24.2023 12.001 24.754 11.9546 25.2118C11.9314 25.4399 11.8742 25.8794 11.8274 26.1884C11.7535 26.6765 11.6742 27.447 11.5951 28.4461L11.5729 28.7271H19.4735H27.3741L27.374 28.6334L27.3739 28.6334ZM30.5093 26.5526C30.5088 26.3599 30.3812 25.0182 30.2964 24.3157C30.1825 23.3717 30.0891 22.9819 29.8697 22.5361C29.6564 22.1027 29.2768 21.7067 28.8734 21.4968C28.5441 21.3255 26.8251 20.6848 26.7636 20.7105C26.7381 20.7212 26.5743 21.0049 26.3995 21.341L26.0818 21.9522L26.187 22.0207C26.8014 22.4205 27.1847 22.8416 27.519 23.4841C27.8474 24.1152 27.9402 24.4679 28.0726 25.5871C28.1347 26.1124 28.193 26.5656 28.2022 26.5942C28.215 26.6341 28.4851 26.6462 29.3642 26.6462H30.5095L30.5094 26.5526H30.5093ZM10.9147 25.8555C10.966 25.5007 11.0214 25.0719 11.0378 24.9026C11.1051 24.2074 11.5246 23.2088 11.9715 22.68C12.1719 22.4429 12.6545 22.0465 12.9446 21.8807C13.0106 21.843 12.9853 21.7769 12.693 21.2257C12.5143 20.8885 12.3506 20.6021 12.3293 20.5892C12.2871 20.5635 10.5161 21.1892 10.2377 21.3282C9.97124 21.4612 9.61463 21.7526 9.43468 21.9844C9.22835 22.2501 8.97405 22.8286 8.88546 23.2336C8.7969 23.6386 8.62174 25.1314 8.5399 26.1787L8.51302 26.5227L9.66725 26.5117L10.8215 26.5006L10.9147 25.8555ZM1.76836 26.1589C1.7085 26.0637 1.38535 24.662 1.2756 24.0213C1.05395 22.7276 1.00215 22.1453 1.00004 20.9239C0.99893 20.278 1.02133 19.5879 1.05275 19.3009C1.23534 17.6321 1.65286 15.9496 2.29245 14.305L2.39029 14.0534L2.19257 13.8592C1.38499 13.066 1.22857 11.8138 1.82571 10.9223C2.27594 10.2501 2.91581 9.88914 3.73641 9.84457C4.89261 9.78177 5.78817 10.3581 6.21718 11.4411C6.36421 11.8122 6.3827 12.4666 6.25642 12.8295C5.97387 13.6413 5.43451 14.1741 4.62447 14.4415C4.49425 14.4845 4.2361 14.5088 3.84182 14.5153L3.25349 14.5248L3.19325 14.6655C3.02258 15.0642 2.65688 16.1886 2.50895 16.7696C2.12563 18.2749 1.97872 19.4911 1.97947 21.1528C1.98029 22.7804 2.12821 24.0484 2.46281 25.2937C2.53661 25.5684 2.60559 25.8305 2.61611 25.8763C2.6329 25.9495 2.58984 25.9717 2.26156 26.0597C2.05604 26.1148 1.86599 26.1676 1.83921 26.177C1.81244 26.1864 1.78056 26.1783 1.76836 26.1589V26.1589ZM4.59077 13.4604C4.70242 13.4118 4.8959 13.2771 5.02074 13.1611C5.50203 12.7141 5.58992 12.1146 5.26868 11.4702C4.87581 10.6822 3.84599 10.4358 3.09705 10.9506C2.21995 11.5536 2.22993 12.7599 3.11665 13.3202C3.44903 13.5302 3.6381 13.5808 4.02763 13.5642C4.27529 13.5537 4.45118 13.5212 4.59077 13.4604ZM18.6456 20.5911C17.9511 20.439 17.3223 20.1344 16.7742 19.6848L16.5765 19.5225L16.2446 19.599C15.7876 19.7042 14.9695 19.7022 14.5357 19.5948C13.1683 19.2561 12.1787 18.2999 11.8196 16.9703C11.689 16.4869 11.6882 15.6874 11.8177 15.2016C12.2258 13.6713 13.5717 12.575 15.1738 12.4679C15.7695 12.428 16.4317 12.5803 17.0799 12.9062L17.3957 13.065L17.6744 12.9283C17.8278 12.8531 18.1233 12.7401 18.3312 12.6772C18.6873 12.5693 18.7559 12.5627 19.5142 12.5627C20.2724 12.5627 20.3413 12.5694 20.6968 12.677C20.9044 12.7399 21.1977 12.852 21.3485 12.9262L21.6227 13.061L22.0517 12.8498C22.6347 12.5628 23.0191 12.4753 23.6878 12.4775C24.3171 12.4796 24.7505 12.5761 25.2767 12.8315C26.0148 13.1897 26.5419 13.7062 26.9099 14.4317C27.2058 15.0152 27.2973 15.3894 27.3016 16.034C27.3043 16.4401 27.2843 16.6363 27.2108 16.9287C26.7239 18.8647 24.7609 20.0373 22.7565 19.5896L22.453 19.5217L22.2547 19.6844C21.7889 20.0666 21.2241 20.3621 20.6371 20.5307C20.2215 20.6501 19.0738 20.6849 18.6456 20.5911L18.6456 20.5911ZM20.253 19.6705C21.7163 19.3163 22.7518 18.0387 22.7549 16.5836C22.7568 15.6839 22.4456 14.9688 21.7642 14.3068C21.104 13.6655 20.4397 13.396 19.5142 13.394C18.9015 13.3926 18.6199 13.4576 18.0524 13.731C17.7074 13.8972 17.5922 13.982 17.2456 14.324C16.8001 14.7636 16.5766 15.1247 16.3933 15.701C16.3098 15.9636 16.2941 16.1023 16.2941 16.575C16.2941 17.2082 16.3701 17.5316 16.6368 18.0315C17.0521 18.8104 17.8352 19.4231 18.7119 19.655C19.0969 19.7569 19.8642 19.7646 20.253 19.6705V19.6705ZM24.4546 18.6422C24.8977 18.4958 25.2482 18.2842 25.5619 17.9738C26.2101 17.3326 26.4936 16.4853 26.3434 15.6386C26.2115 14.8946 25.7054 14.1606 25.0579 13.7743C24.5257 13.4568 23.7876 13.3076 23.2566 13.4102C23.0341 13.4532 22.4913 13.6578 22.4238 13.7242C22.4132 13.7345 22.4913 13.8427 22.5973 13.9645C23.7173 15.2521 23.9382 16.9295 23.1818 18.4014C23.1105 18.54 23.0522 18.6714 23.0522 18.6935C23.0522 18.8213 24.0199 18.7859 24.4546 18.6422ZM15.9479 18.6736C15.9994 18.6542 15.9801 18.5902 15.8443 18.3302C15.0968 16.8988 15.3081 15.2156 16.3928 13.9596C16.5182 13.8144 16.6045 13.6799 16.5845 13.6607C16.5646 13.6415 16.3957 13.574 16.2093 13.5107C15.9156 13.411 15.8053 13.3956 15.3831 13.3956C14.9603 13.3956 14.851 13.4109 14.5572 13.511C13.5667 13.8484 12.8617 14.6497 12.6854 15.6386C12.5319 16.4994 12.8111 17.3452 13.4562 17.9741C13.775 18.285 14.1858 18.5215 14.6012 18.6334C14.8106 18.6899 15.8245 18.7201 15.9479 18.6736ZM34.6453 14.7637C34.0166 14.5942 33.3479 14.0616 33.0937 13.5283C32.8384 12.9924 32.7819 12.4423 32.9253 11.8893C33.0333 11.4727 33.1754 11.1861 33.3955 10.9404C33.5975 10.7151 33.6182 10.7761 33.1396 10.1868C31.0378 7.59865 28.1088 5.63998 24.8742 4.65959C24.5363 4.55717 24.1488 4.44937 24.0132 4.42003C23.8249 4.37932 23.7705 4.35116 23.7834 4.30114C23.9765 3.55295 24.0071 3.46568 24.0769 3.46568C24.196 3.46568 25.4104 3.82249 25.8911 3.99872C27.8137 4.70359 29.4665 5.62552 31.1121 6.91101C31.844 7.48271 33.3637 8.97885 33.9368 9.69191L34.3752 10.2375L34.6283 10.1601C34.9378 10.0655 35.5165 10.0579 35.8464 10.1441C36.4898 10.3123 37.1579 10.8388 37.4165 11.3815C37.5667 11.6969 37.6685 12.1306 37.6695 12.46C37.6706 12.7681 37.4944 13.4401 37.347 13.6911C37.182 13.9718 36.7614 14.3664 36.462 14.5213C35.8971 14.8135 35.1833 14.9088 34.6453 14.7637V14.7637ZM35.8267 13.7576C36.0864 13.6747 36.4618 13.321 36.6133 13.0167C36.7014 12.8398 36.7167 12.7495 36.7158 12.4133C36.7147 12.0872 36.6978 11.9841 36.6181 11.825C36.4575 11.5045 36.2518 11.3049 35.9116 11.1398C35.6106 10.9937 35.5841 10.9884 35.242 11.006C34.6388 11.0371 34.2065 11.3242 33.9484 11.865C33.7882 12.2008 33.7877 12.6665 33.9473 13.0009C34.2869 13.7125 35.0307 14.012 35.8267 13.7576H35.8267ZM6.59785 8.67447L6.26765 8.34823L6.76833 7.87809C7.04371 7.61951 7.54549 7.1901 7.88339 6.92384C10.515 4.85016 13.714 3.50692 17.03 3.08315C17.1165 3.07209 17.1412 3.0284 17.2087 2.76659C17.42 1.94682 18.0509 1.30516 18.8756 1.07131C19.1767 0.985921 19.7583 0.975442 20.0863 1.0495C21.674 1.40803 22.4303 3.20105 21.5902 4.61512C21.4083 4.92137 20.9967 5.299 20.6539 5.47411C19.3895 6.12006 17.9509 5.61389 17.3394 4.30791C17.2268 4.06749 17.1796 4.0067 17.1053 4.0067C16.933 4.0067 15.8002 4.21519 15.2823 4.34224C12.9818 4.90652 10.7972 5.92918 8.94267 7.30988C8.355 7.74741 8.0473 8.00309 7.45279 8.54788C7.181 8.79694 6.95175 9.00071 6.94335 9.00071C6.93494 9.00071 6.77947 8.8539 6.59785 8.67447ZM19.9644 4.77547C20.6241 4.54928 21.0704 3.88907 21.0025 3.23966C20.895 2.21175 19.7495 1.59997 18.8168 2.07235C18.3432 2.31224 18.0101 2.84302 18.0101 3.35779C18.0101 3.95202 18.4281 4.53186 19.0207 4.75949C19.266 4.85369 19.7141 4.86128 19.9644 4.77547V4.77547Z"/>
    </mask>
    <path d="M18.8563 41.0091C18.1856 40.7983 17.6707 40.3743 17.3785 39.7922C17.0565 39.1507 17.0009 38.5008 17.218 37.9135C17.4874 37.1844 18.1338 36.6051 18.9018 36.4043C19.2136 36.3228 19.8424 36.3257 20.1315 36.41C20.86 36.6224 21.5033 37.2008 21.7419 37.8579L21.8189 38.07L22.0436 38.0575C22.5439 38.0295 23.9639 37.7139 24.9022 37.4223C26.0174 37.0756 27.4613 36.4327 28.5181 35.8121C29.5602 35.2002 30.4133 34.5759 31.3863 33.713C31.6781 33.4542 31.9295 33.2377 31.9449 33.2318C31.9604 33.2259 32.1046 33.3513 32.2653 33.5104C32.6085 33.85 32.6394 33.7616 31.9659 34.3662C29.2798 36.7775 25.9974 38.3611 22.5438 38.912L21.8309 39.0258L21.778 39.2705C21.6009 40.0901 20.8936 40.8111 20.0565 41.0253C19.7279 41.1093 19.1503 41.1016 18.8563 41.0091V41.0091ZM20.1084 40.1142C20.4288 39.9701 20.6977 39.7097 20.8595 39.3869C20.9802 39.1462 20.9972 39.0709 20.9972 38.7784C20.9972 38.5 20.9775 38.4032 20.8785 38.1949C20.6773 37.7717 20.343 37.4885 19.8931 37.36C18.8186 37.0532 17.7373 38.1372 18.0919 39.1657C18.2877 39.7337 18.604 40.0506 19.1152 40.1914C19.421 40.2756 19.8181 40.2447 20.1084 40.1142ZM13.5823 38.1981C11.4711 37.5019 9.59842 36.4841 7.82431 35.0688C7.19966 34.5705 5.73963 33.1445 5.27686 32.5807C5.09082 32.3541 4.89965 32.1226 4.85205 32.0663L4.76548 31.964L4.55545 32.0358C4.24234 32.1428 3.64313 32.1648 3.30732 32.0816C2.17551 31.8012 1.39585 30.8268 1.38918 29.6842C1.38704 29.319 1.51944 28.7999 1.68618 28.5196C1.9534 28.0704 2.42531 27.7049 2.98282 27.5153C3.45356 27.3552 3.77167 27.329 4.20292 27.4148C5.40106 27.6532 6.21007 28.6203 6.20589 29.8091C6.20383 30.3918 6.03389 30.8687 5.6696 31.3139C5.60043 31.3984 5.55066 31.4863 5.55901 31.5092C5.60611 31.6384 6.42933 32.5481 7.05432 33.1617C8.52824 34.6087 9.90666 35.588 11.7342 36.4865C12.5841 36.9043 14.0106 37.4491 14.5674 37.5685C14.6432 37.5848 14.7051 37.6031 14.7051 37.6093C14.7051 37.6156 14.6871 37.6749 14.6651 37.7413C14.643 37.8076 14.585 37.9977 14.5361 38.1637C14.4873 38.3296 14.4338 38.465 14.4173 38.4645C14.4008 38.464 14.0251 38.3441 13.5823 38.1981ZM4.36575 31.1957C4.96742 31.0048 5.41147 30.2188 5.29947 29.5429C5.15495 28.6707 4.25834 28.1618 3.34579 28.4341C3.09157 28.5099 3.00402 28.5617 2.81234 28.75C1.98023 29.5673 2.29366 30.7893 3.4333 31.1709C3.76546 31.2822 4.0678 31.2902 4.36575 31.1956V31.1957ZM34.574 32.426C34.0206 32.3718 33.5354 32.1273 33.1535 31.71C32.3759 30.8605 32.2867 29.6928 32.9275 28.7518C33.4131 28.0386 34.1799 27.6913 35.1563 27.7423L35.5871 27.7648L35.7013 27.4864C36.2763 26.0852 36.6609 24.6491 36.8737 23.1088C37.0028 22.1741 37.0137 19.9593 36.8936 19.0512C36.8031 18.3665 36.6403 17.4726 36.526 17.0331C36.4814 16.8617 36.4585 16.7101 36.475 16.6963C36.5351 16.6462 37.3509 16.4528 37.3782 16.4823C37.4142 16.5212 37.6472 17.4886 37.7312 17.9483C37.9286 19.0275 38.0318 20.4645 37.9913 21.569C37.9046 23.9348 37.4979 25.7922 36.5634 28.0903C36.5102 28.2211 36.5135 28.2279 36.7459 28.4671C36.876 28.6011 37.0307 28.8041 37.0895 28.9183C37.2089 29.1496 37.3313 29.7647 37.3313 30.1333C37.3313 30.8814 36.8311 31.7345 36.1661 32.1204C35.704 32.3886 35.1935 32.4866 34.574 32.426H34.574ZM35.643 31.4006C35.9763 31.2394 36.1401 31.0758 36.3333 30.7112C36.4654 30.4622 36.4839 30.3902 36.4839 30.1256C36.4839 29.2322 35.8608 28.6022 34.9773 28.6022C33.9124 28.6022 33.1678 29.7401 33.6118 30.6888C33.885 31.2727 34.3774 31.57 35.0286 31.5443C35.3127 31.5332 35.4219 31.5076 35.643 31.4006ZM10.6381 29.4866C10.6384 29.3778 10.6669 28.9143 10.7013 28.4565C10.7358 27.9988 10.7641 27.6102 10.7643 27.593C10.7645 27.5759 10.0496 27.5618 9.17571 27.5618H7.5868V27.2844C7.5868 26.7071 7.96338 23.2824 8.07712 22.8254C8.2219 22.2437 8.66844 21.4661 9.0765 21.0851C9.48878 20.7002 9.77867 20.5625 11.3054 20.0266C12.1039 19.7464 12.7641 19.5246 12.7726 19.5338C12.781 19.543 13.0207 19.9953 13.3052 20.539C13.5897 21.0826 13.8352 21.5266 13.8507 21.5256C13.8662 21.5246 14.4509 21.3215 15.15 21.074C15.8492 20.8266 16.4369 20.6377 16.456 20.6543C16.4752 20.6709 17.0696 21.7403 17.7768 23.0307L19.0628 25.3769H19.5142H19.9657L21.2517 23.0307C21.9589 21.7403 22.5533 20.6702 22.5725 20.6528C22.5917 20.6354 23.1793 20.8242 23.8785 21.0723C24.5776 21.3205 25.1623 21.5244 25.1778 21.5254C25.1933 21.5265 25.4388 21.0826 25.7233 20.539C26.0078 19.9953 26.2476 19.5429 26.2561 19.5336C26.2924 19.494 28.9529 20.4319 29.2873 20.6021C29.6832 20.8037 30.1183 21.1603 30.3532 21.4757C30.5053 21.6799 30.8303 22.4142 30.9487 22.8212C31.0168 23.0551 31.0335 23.1513 31.188 24.1998C31.2762 24.7983 31.3752 25.8091 31.4215 26.5838C31.4365 26.8356 31.4644 27.1071 31.4834 27.1872C31.5024 27.2674 31.5298 27.3844 31.5442 27.4473L31.5704 27.5618H29.9807C29.1064 27.5618 28.3911 27.5758 28.3913 27.593C28.3915 27.6102 28.4198 27.9988 28.4543 28.4565C28.4887 28.9143 28.5172 29.3778 28.5175 29.4866L28.5181 29.6842H19.5778H10.6376L10.6382 29.4866H10.6381ZM27.3739 28.6334C27.3738 28.4903 27.1313 26.1464 27.038 25.3852C26.9432 24.6118 26.8755 24.3983 26.4484 23.5278C26.3525 23.3321 25.9085 22.91 25.6185 22.7386C25.4225 22.6228 22.9733 21.7516 22.945 21.7876C22.9406 21.7932 22.3886 22.8092 21.7185 24.0452C21.0483 25.2812 20.4805 26.3162 20.4568 26.3453C20.4237 26.3857 20.1911 26.3954 19.4634 26.3869L18.5133 26.3757L17.2691 24.0868C16.441 22.5634 16.0048 21.8014 15.9649 21.8086C15.813 21.8357 13.6228 22.6579 13.4244 22.7623C13.1171 22.924 12.5541 23.4857 12.3868 23.7976C12.1696 24.2023 12.001 24.754 11.9546 25.2118C11.9314 25.4399 11.8742 25.8794 11.8274 26.1884C11.7535 26.6765 11.6742 27.447 11.5951 28.4461L11.5729 28.7271H19.4735H27.3741L27.374 28.6334L27.3739 28.6334ZM30.5093 26.5526C30.5088 26.3599 30.3812 25.0182 30.2964 24.3157C30.1825 23.3717 30.0891 22.9819 29.8697 22.5361C29.6564 22.1027 29.2768 21.7067 28.8734 21.4968C28.5441 21.3255 26.8251 20.6848 26.7636 20.7105C26.7381 20.7212 26.5743 21.0049 26.3995 21.341L26.0818 21.9522L26.187 22.0207C26.8014 22.4205 27.1847 22.8416 27.519 23.4841C27.8474 24.1152 27.9402 24.4679 28.0726 25.5871C28.1347 26.1124 28.193 26.5656 28.2022 26.5942C28.215 26.6341 28.4851 26.6462 29.3642 26.6462H30.5095L30.5094 26.5526H30.5093ZM10.9147 25.8555C10.966 25.5007 11.0214 25.0719 11.0378 24.9026C11.1051 24.2074 11.5246 23.2088 11.9715 22.68C12.1719 22.4429 12.6545 22.0465 12.9446 21.8807C13.0106 21.843 12.9853 21.7769 12.693 21.2257C12.5143 20.8885 12.3506 20.6021 12.3293 20.5892C12.2871 20.5635 10.5161 21.1892 10.2377 21.3282C9.97124 21.4612 9.61463 21.7526 9.43468 21.9844C9.22835 22.2501 8.97405 22.8286 8.88546 23.2336C8.7969 23.6386 8.62174 25.1314 8.5399 26.1787L8.51302 26.5227L9.66725 26.5117L10.8215 26.5006L10.9147 25.8555ZM1.76836 26.1589C1.7085 26.0637 1.38535 24.662 1.2756 24.0213C1.05395 22.7276 1.00215 22.1453 1.00004 20.9239C0.99893 20.278 1.02133 19.5879 1.05275 19.3009C1.23534 17.6321 1.65286 15.9496 2.29245 14.305L2.39029 14.0534L2.19257 13.8592C1.38499 13.066 1.22857 11.8138 1.82571 10.9223C2.27594 10.2501 2.91581 9.88914 3.73641 9.84457C4.89261 9.78177 5.78817 10.3581 6.21718 11.4411C6.36421 11.8122 6.3827 12.4666 6.25642 12.8295C5.97387 13.6413 5.43451 14.1741 4.62447 14.4415C4.49425 14.4845 4.2361 14.5088 3.84182 14.5153L3.25349 14.5248L3.19325 14.6655C3.02258 15.0642 2.65688 16.1886 2.50895 16.7696C2.12563 18.2749 1.97872 19.4911 1.97947 21.1528C1.98029 22.7804 2.12821 24.0484 2.46281 25.2937C2.53661 25.5684 2.60559 25.8305 2.61611 25.8763C2.6329 25.9495 2.58984 25.9717 2.26156 26.0597C2.05604 26.1148 1.86599 26.1676 1.83921 26.177C1.81244 26.1864 1.78056 26.1783 1.76836 26.1589V26.1589ZM4.59077 13.4604C4.70242 13.4118 4.8959 13.2771 5.02074 13.1611C5.50203 12.7141 5.58992 12.1146 5.26868 11.4702C4.87581 10.6822 3.84599 10.4358 3.09705 10.9506C2.21995 11.5536 2.22993 12.7599 3.11665 13.3202C3.44903 13.5302 3.6381 13.5808 4.02763 13.5642C4.27529 13.5537 4.45118 13.5212 4.59077 13.4604ZM18.6456 20.5911C17.9511 20.439 17.3223 20.1344 16.7742 19.6848L16.5765 19.5225L16.2446 19.599C15.7876 19.7042 14.9695 19.7022 14.5357 19.5948C13.1683 19.2561 12.1787 18.2999 11.8196 16.9703C11.689 16.4869 11.6882 15.6874 11.8177 15.2016C12.2258 13.6713 13.5717 12.575 15.1738 12.4679C15.7695 12.428 16.4317 12.5803 17.0799 12.9062L17.3957 13.065L17.6744 12.9283C17.8278 12.8531 18.1233 12.7401 18.3312 12.6772C18.6873 12.5693 18.7559 12.5627 19.5142 12.5627C20.2724 12.5627 20.3413 12.5694 20.6968 12.677C20.9044 12.7399 21.1977 12.852 21.3485 12.9262L21.6227 13.061L22.0517 12.8498C22.6347 12.5628 23.0191 12.4753 23.6878 12.4775C24.3171 12.4796 24.7505 12.5761 25.2767 12.8315C26.0148 13.1897 26.5419 13.7062 26.9099 14.4317C27.2058 15.0152 27.2973 15.3894 27.3016 16.034C27.3043 16.4401 27.2843 16.6363 27.2108 16.9287C26.7239 18.8647 24.7609 20.0373 22.7565 19.5896L22.453 19.5217L22.2547 19.6844C21.7889 20.0666 21.2241 20.3621 20.6371 20.5307C20.2215 20.6501 19.0738 20.6849 18.6456 20.5911L18.6456 20.5911ZM20.253 19.6705C21.7163 19.3163 22.7518 18.0387 22.7549 16.5836C22.7568 15.6839 22.4456 14.9688 21.7642 14.3068C21.104 13.6655 20.4397 13.396 19.5142 13.394C18.9015 13.3926 18.6199 13.4576 18.0524 13.731C17.7074 13.8972 17.5922 13.982 17.2456 14.324C16.8001 14.7636 16.5766 15.1247 16.3933 15.701C16.3098 15.9636 16.2941 16.1023 16.2941 16.575C16.2941 17.2082 16.3701 17.5316 16.6368 18.0315C17.0521 18.8104 17.8352 19.4231 18.7119 19.655C19.0969 19.7569 19.8642 19.7646 20.253 19.6705V19.6705ZM24.4546 18.6422C24.8977 18.4958 25.2482 18.2842 25.5619 17.9738C26.2101 17.3326 26.4936 16.4853 26.3434 15.6386C26.2115 14.8946 25.7054 14.1606 25.0579 13.7743C24.5257 13.4568 23.7876 13.3076 23.2566 13.4102C23.0341 13.4532 22.4913 13.6578 22.4238 13.7242C22.4132 13.7345 22.4913 13.8427 22.5973 13.9645C23.7173 15.2521 23.9382 16.9295 23.1818 18.4014C23.1105 18.54 23.0522 18.6714 23.0522 18.6935C23.0522 18.8213 24.0199 18.7859 24.4546 18.6422ZM15.9479 18.6736C15.9994 18.6542 15.9801 18.5902 15.8443 18.3302C15.0968 16.8988 15.3081 15.2156 16.3928 13.9596C16.5182 13.8144 16.6045 13.6799 16.5845 13.6607C16.5646 13.6415 16.3957 13.574 16.2093 13.5107C15.9156 13.411 15.8053 13.3956 15.3831 13.3956C14.9603 13.3956 14.851 13.4109 14.5572 13.511C13.5667 13.8484 12.8617 14.6497 12.6854 15.6386C12.5319 16.4994 12.8111 17.3452 13.4562 17.9741C13.775 18.285 14.1858 18.5215 14.6012 18.6334C14.8106 18.6899 15.8245 18.7201 15.9479 18.6736ZM34.6453 14.7637C34.0166 14.5942 33.3479 14.0616 33.0937 13.5283C32.8384 12.9924 32.7819 12.4423 32.9253 11.8893C33.0333 11.4727 33.1754 11.1861 33.3955 10.9404C33.5975 10.7151 33.6182 10.7761 33.1396 10.1868C31.0378 7.59865 28.1088 5.63998 24.8742 4.65959C24.5363 4.55717 24.1488 4.44937 24.0132 4.42003C23.8249 4.37932 23.7705 4.35116 23.7834 4.30114C23.9765 3.55295 24.0071 3.46568 24.0769 3.46568C24.196 3.46568 25.4104 3.82249 25.8911 3.99872C27.8137 4.70359 29.4665 5.62552 31.1121 6.91101C31.844 7.48271 33.3637 8.97885 33.9368 9.69191L34.3752 10.2375L34.6283 10.1601C34.9378 10.0655 35.5165 10.0579 35.8464 10.1441C36.4898 10.3123 37.1579 10.8388 37.4165 11.3815C37.5667 11.6969 37.6685 12.1306 37.6695 12.46C37.6706 12.7681 37.4944 13.4401 37.347 13.6911C37.182 13.9718 36.7614 14.3664 36.462 14.5213C35.8971 14.8135 35.1833 14.9088 34.6453 14.7637V14.7637ZM35.8267 13.7576C36.0864 13.6747 36.4618 13.321 36.6133 13.0167C36.7014 12.8398 36.7167 12.7495 36.7158 12.4133C36.7147 12.0872 36.6978 11.9841 36.6181 11.825C36.4575 11.5045 36.2518 11.3049 35.9116 11.1398C35.6106 10.9937 35.5841 10.9884 35.242 11.006C34.6388 11.0371 34.2065 11.3242 33.9484 11.865C33.7882 12.2008 33.7877 12.6665 33.9473 13.0009C34.2869 13.7125 35.0307 14.012 35.8267 13.7576H35.8267ZM6.59785 8.67447L6.26765 8.34823L6.76833 7.87809C7.04371 7.61951 7.54549 7.1901 7.88339 6.92384C10.515 4.85016 13.714 3.50692 17.03 3.08315C17.1165 3.07209 17.1412 3.0284 17.2087 2.76659C17.42 1.94682 18.0509 1.30516 18.8756 1.07131C19.1767 0.985921 19.7583 0.975442 20.0863 1.0495C21.674 1.40803 22.4303 3.20105 21.5902 4.61512C21.4083 4.92137 20.9967 5.299 20.6539 5.47411C19.3895 6.12006 17.9509 5.61389 17.3394 4.30791C17.2268 4.06749 17.1796 4.0067 17.1053 4.0067C16.933 4.0067 15.8002 4.21519 15.2823 4.34224C12.9818 4.90652 10.7972 5.92918 8.94267 7.30988C8.355 7.74741 8.0473 8.00309 7.45279 8.54788C7.181 8.79694 6.95175 9.00071 6.94335 9.00071C6.93494 9.00071 6.77947 8.8539 6.59785 8.67447ZM19.9644 4.77547C20.6241 4.54928 21.0704 3.88907 21.0025 3.23966C20.895 2.21175 19.7495 1.59997 18.8168 2.07235C18.3432 2.31224 18.0101 2.84302 18.0101 3.35779C18.0101 3.95202 18.4281 4.53186 19.0207 4.75949C19.266 4.85369 19.7141 4.86128 19.9644 4.77547V4.77547Z" fill="#8982D8"/>
    <path d="M18.8563 41.0091C18.1856 40.7983 17.6707 40.3743 17.3785 39.7922C17.0565 39.1507 17.0009 38.5008 17.218 37.9135C17.4874 37.1844 18.1338 36.6051 18.9018 36.4043C19.2136 36.3228 19.8424 36.3257 20.1315 36.41C20.86 36.6224 21.5033 37.2008 21.7419 37.8579L21.8189 38.07L22.0436 38.0575C22.5439 38.0295 23.9639 37.7139 24.9022 37.4223C26.0174 37.0756 27.4613 36.4327 28.5181 35.8121C29.5602 35.2002 30.4133 34.5759 31.3863 33.713C31.6781 33.4542 31.9295 33.2377 31.9449 33.2318C31.9604 33.2259 32.1046 33.3513 32.2653 33.5104C32.6085 33.85 32.6394 33.7616 31.9659 34.3662C29.2798 36.7775 25.9974 38.3611 22.5438 38.912L21.8309 39.0258L21.778 39.2705C21.6009 40.0901 20.8936 40.8111 20.0565 41.0253C19.7279 41.1093 19.1503 41.1016 18.8563 41.0091V41.0091ZM20.1084 40.1142C20.4288 39.9701 20.6977 39.7097 20.8595 39.3869C20.9802 39.1462 20.9972 39.0709 20.9972 38.7784C20.9972 38.5 20.9775 38.4032 20.8785 38.1949C20.6773 37.7717 20.343 37.4885 19.8931 37.36C18.8186 37.0532 17.7373 38.1372 18.0919 39.1657C18.2877 39.7337 18.604 40.0506 19.1152 40.1914C19.421 40.2756 19.8181 40.2447 20.1084 40.1142ZM13.5823 38.1981C11.4711 37.5019 9.59842 36.4841 7.82431 35.0688C7.19966 34.5705 5.73963 33.1445 5.27686 32.5807C5.09082 32.3541 4.89965 32.1226 4.85205 32.0663L4.76548 31.964L4.55545 32.0358C4.24234 32.1428 3.64313 32.1648 3.30732 32.0816C2.17551 31.8012 1.39585 30.8268 1.38918 29.6842C1.38704 29.319 1.51944 28.7999 1.68618 28.5196C1.9534 28.0704 2.42531 27.7049 2.98282 27.5153C3.45356 27.3552 3.77167 27.329 4.20292 27.4148C5.40106 27.6532 6.21007 28.6203 6.20589 29.8091C6.20383 30.3918 6.03389 30.8687 5.6696 31.3139C5.60043 31.3984 5.55066 31.4863 5.55901 31.5092C5.60611 31.6384 6.42933 32.5481 7.05432 33.1617C8.52824 34.6087 9.90666 35.588 11.7342 36.4865C12.5841 36.9043 14.0106 37.4491 14.5674 37.5685C14.6432 37.5848 14.7051 37.6031 14.7051 37.6093C14.7051 37.6156 14.6871 37.6749 14.6651 37.7413C14.643 37.8076 14.585 37.9977 14.5361 38.1637C14.4873 38.3296 14.4338 38.465 14.4173 38.4645C14.4008 38.464 14.0251 38.3441 13.5823 38.1981ZM4.36575 31.1957C4.96742 31.0048 5.41147 30.2188 5.29947 29.5429C5.15495 28.6707 4.25834 28.1618 3.34579 28.4341C3.09157 28.5099 3.00402 28.5617 2.81234 28.75C1.98023 29.5673 2.29366 30.7893 3.4333 31.1709C3.76546 31.2822 4.0678 31.2902 4.36575 31.1956V31.1957ZM34.574 32.426C34.0206 32.3718 33.5354 32.1273 33.1535 31.71C32.3759 30.8605 32.2867 29.6928 32.9275 28.7518C33.4131 28.0386 34.1799 27.6913 35.1563 27.7423L35.5871 27.7648L35.7013 27.4864C36.2763 26.0852 36.6609 24.6491 36.8737 23.1088C37.0028 22.1741 37.0137 19.9593 36.8936 19.0512C36.8031 18.3665 36.6403 17.4726 36.526 17.0331C36.4814 16.8617 36.4585 16.7101 36.475 16.6963C36.5351 16.6462 37.3509 16.4528 37.3782 16.4823C37.4142 16.5212 37.6472 17.4886 37.7312 17.9483C37.9286 19.0275 38.0318 20.4645 37.9913 21.569C37.9046 23.9348 37.4979 25.7922 36.5634 28.0903C36.5102 28.2211 36.5135 28.2279 36.7459 28.4671C36.876 28.6011 37.0307 28.8041 37.0895 28.9183C37.2089 29.1496 37.3313 29.7647 37.3313 30.1333C37.3313 30.8814 36.8311 31.7345 36.1661 32.1204C35.704 32.3886 35.1935 32.4866 34.574 32.426H34.574ZM35.643 31.4006C35.9763 31.2394 36.1401 31.0758 36.3333 30.7112C36.4654 30.4622 36.4839 30.3902 36.4839 30.1256C36.4839 29.2322 35.8608 28.6022 34.9773 28.6022C33.9124 28.6022 33.1678 29.7401 33.6118 30.6888C33.885 31.2727 34.3774 31.57 35.0286 31.5443C35.3127 31.5332 35.4219 31.5076 35.643 31.4006ZM10.6381 29.4866C10.6384 29.3778 10.6669 28.9143 10.7013 28.4565C10.7358 27.9988 10.7641 27.6102 10.7643 27.593C10.7645 27.5759 10.0496 27.5618 9.17571 27.5618H7.5868V27.2844C7.5868 26.7071 7.96338 23.2824 8.07712 22.8254C8.2219 22.2437 8.66844 21.4661 9.0765 21.0851C9.48878 20.7002 9.77867 20.5625 11.3054 20.0266C12.1039 19.7464 12.7641 19.5246 12.7726 19.5338C12.781 19.543 13.0207 19.9953 13.3052 20.539C13.5897 21.0826 13.8352 21.5266 13.8507 21.5256C13.8662 21.5246 14.4509 21.3215 15.15 21.074C15.8492 20.8266 16.4369 20.6377 16.456 20.6543C16.4752 20.6709 17.0696 21.7403 17.7768 23.0307L19.0628 25.3769H19.5142H19.9657L21.2517 23.0307C21.9589 21.7403 22.5533 20.6702 22.5725 20.6528C22.5917 20.6354 23.1793 20.8242 23.8785 21.0723C24.5776 21.3205 25.1623 21.5244 25.1778 21.5254C25.1933 21.5265 25.4388 21.0826 25.7233 20.539C26.0078 19.9953 26.2476 19.5429 26.2561 19.5336C26.2924 19.494 28.9529 20.4319 29.2873 20.6021C29.6832 20.8037 30.1183 21.1603 30.3532 21.4757C30.5053 21.6799 30.8303 22.4142 30.9487 22.8212C31.0168 23.0551 31.0335 23.1513 31.188 24.1998C31.2762 24.7983 31.3752 25.8091 31.4215 26.5838C31.4365 26.8356 31.4644 27.1071 31.4834 27.1872C31.5024 27.2674 31.5298 27.3844 31.5442 27.4473L31.5704 27.5618H29.9807C29.1064 27.5618 28.3911 27.5758 28.3913 27.593C28.3915 27.6102 28.4198 27.9988 28.4543 28.4565C28.4887 28.9143 28.5172 29.3778 28.5175 29.4866L28.5181 29.6842H19.5778H10.6376L10.6382 29.4866H10.6381ZM27.3739 28.6334C27.3738 28.4903 27.1313 26.1464 27.038 25.3852C26.9432 24.6118 26.8755 24.3983 26.4484 23.5278C26.3525 23.3321 25.9085 22.91 25.6185 22.7386C25.4225 22.6228 22.9733 21.7516 22.945 21.7876C22.9406 21.7932 22.3886 22.8092 21.7185 24.0452C21.0483 25.2812 20.4805 26.3162 20.4568 26.3453C20.4237 26.3857 20.1911 26.3954 19.4634 26.3869L18.5133 26.3757L17.2691 24.0868C16.441 22.5634 16.0048 21.8014 15.9649 21.8086C15.813 21.8357 13.6228 22.6579 13.4244 22.7623C13.1171 22.924 12.5541 23.4857 12.3868 23.7976C12.1696 24.2023 12.001 24.754 11.9546 25.2118C11.9314 25.4399 11.8742 25.8794 11.8274 26.1884C11.7535 26.6765 11.6742 27.447 11.5951 28.4461L11.5729 28.7271H19.4735H27.3741L27.374 28.6334L27.3739 28.6334ZM30.5093 26.5526C30.5088 26.3599 30.3812 25.0182 30.2964 24.3157C30.1825 23.3717 30.0891 22.9819 29.8697 22.5361C29.6564 22.1027 29.2768 21.7067 28.8734 21.4968C28.5441 21.3255 26.8251 20.6848 26.7636 20.7105C26.7381 20.7212 26.5743 21.0049 26.3995 21.341L26.0818 21.9522L26.187 22.0207C26.8014 22.4205 27.1847 22.8416 27.519 23.4841C27.8474 24.1152 27.9402 24.4679 28.0726 25.5871C28.1347 26.1124 28.193 26.5656 28.2022 26.5942C28.215 26.6341 28.4851 26.6462 29.3642 26.6462H30.5095L30.5094 26.5526H30.5093ZM10.9147 25.8555C10.966 25.5007 11.0214 25.0719 11.0378 24.9026C11.1051 24.2074 11.5246 23.2088 11.9715 22.68C12.1719 22.4429 12.6545 22.0465 12.9446 21.8807C13.0106 21.843 12.9853 21.7769 12.693 21.2257C12.5143 20.8885 12.3506 20.6021 12.3293 20.5892C12.2871 20.5635 10.5161 21.1892 10.2377 21.3282C9.97124 21.4612 9.61463 21.7526 9.43468 21.9844C9.22835 22.2501 8.97405 22.8286 8.88546 23.2336C8.7969 23.6386 8.62174 25.1314 8.5399 26.1787L8.51302 26.5227L9.66725 26.5117L10.8215 26.5006L10.9147 25.8555ZM1.76836 26.1589C1.7085 26.0637 1.38535 24.662 1.2756 24.0213C1.05395 22.7276 1.00215 22.1453 1.00004 20.9239C0.99893 20.278 1.02133 19.5879 1.05275 19.3009C1.23534 17.6321 1.65286 15.9496 2.29245 14.305L2.39029 14.0534L2.19257 13.8592C1.38499 13.066 1.22857 11.8138 1.82571 10.9223C2.27594 10.2501 2.91581 9.88914 3.73641 9.84457C4.89261 9.78177 5.78817 10.3581 6.21718 11.4411C6.36421 11.8122 6.3827 12.4666 6.25642 12.8295C5.97387 13.6413 5.43451 14.1741 4.62447 14.4415C4.49425 14.4845 4.2361 14.5088 3.84182 14.5153L3.25349 14.5248L3.19325 14.6655C3.02258 15.0642 2.65688 16.1886 2.50895 16.7696C2.12563 18.2749 1.97872 19.4911 1.97947 21.1528C1.98029 22.7804 2.12821 24.0484 2.46281 25.2937C2.53661 25.5684 2.60559 25.8305 2.61611 25.8763C2.6329 25.9495 2.58984 25.9717 2.26156 26.0597C2.05604 26.1148 1.86599 26.1676 1.83921 26.177C1.81244 26.1864 1.78056 26.1783 1.76836 26.1589V26.1589ZM4.59077 13.4604C4.70242 13.4118 4.8959 13.2771 5.02074 13.1611C5.50203 12.7141 5.58992 12.1146 5.26868 11.4702C4.87581 10.6822 3.84599 10.4358 3.09705 10.9506C2.21995 11.5536 2.22993 12.7599 3.11665 13.3202C3.44903 13.5302 3.6381 13.5808 4.02763 13.5642C4.27529 13.5537 4.45118 13.5212 4.59077 13.4604ZM18.6456 20.5911C17.9511 20.439 17.3223 20.1344 16.7742 19.6848L16.5765 19.5225L16.2446 19.599C15.7876 19.7042 14.9695 19.7022 14.5357 19.5948C13.1683 19.2561 12.1787 18.2999 11.8196 16.9703C11.689 16.4869 11.6882 15.6874 11.8177 15.2016C12.2258 13.6713 13.5717 12.575 15.1738 12.4679C15.7695 12.428 16.4317 12.5803 17.0799 12.9062L17.3957 13.065L17.6744 12.9283C17.8278 12.8531 18.1233 12.7401 18.3312 12.6772C18.6873 12.5693 18.7559 12.5627 19.5142 12.5627C20.2724 12.5627 20.3413 12.5694 20.6968 12.677C20.9044 12.7399 21.1977 12.852 21.3485 12.9262L21.6227 13.061L22.0517 12.8498C22.6347 12.5628 23.0191 12.4753 23.6878 12.4775C24.3171 12.4796 24.7505 12.5761 25.2767 12.8315C26.0148 13.1897 26.5419 13.7062 26.9099 14.4317C27.2058 15.0152 27.2973 15.3894 27.3016 16.034C27.3043 16.4401 27.2843 16.6363 27.2108 16.9287C26.7239 18.8647 24.7609 20.0373 22.7565 19.5896L22.453 19.5217L22.2547 19.6844C21.7889 20.0666 21.2241 20.3621 20.6371 20.5307C20.2215 20.6501 19.0738 20.6849 18.6456 20.5911L18.6456 20.5911ZM20.253 19.6705C21.7163 19.3163 22.7518 18.0387 22.7549 16.5836C22.7568 15.6839 22.4456 14.9688 21.7642 14.3068C21.104 13.6655 20.4397 13.396 19.5142 13.394C18.9015 13.3926 18.6199 13.4576 18.0524 13.731C17.7074 13.8972 17.5922 13.982 17.2456 14.324C16.8001 14.7636 16.5766 15.1247 16.3933 15.701C16.3098 15.9636 16.2941 16.1023 16.2941 16.575C16.2941 17.2082 16.3701 17.5316 16.6368 18.0315C17.0521 18.8104 17.8352 19.4231 18.7119 19.655C19.0969 19.7569 19.8642 19.7646 20.253 19.6705V19.6705ZM24.4546 18.6422C24.8977 18.4958 25.2482 18.2842 25.5619 17.9738C26.2101 17.3326 26.4936 16.4853 26.3434 15.6386C26.2115 14.8946 25.7054 14.1606 25.0579 13.7743C24.5257 13.4568 23.7876 13.3076 23.2566 13.4102C23.0341 13.4532 22.4913 13.6578 22.4238 13.7242C22.4132 13.7345 22.4913 13.8427 22.5973 13.9645C23.7173 15.2521 23.9382 16.9295 23.1818 18.4014C23.1105 18.54 23.0522 18.6714 23.0522 18.6935C23.0522 18.8213 24.0199 18.7859 24.4546 18.6422ZM15.9479 18.6736C15.9994 18.6542 15.9801 18.5902 15.8443 18.3302C15.0968 16.8988 15.3081 15.2156 16.3928 13.9596C16.5182 13.8144 16.6045 13.6799 16.5845 13.6607C16.5646 13.6415 16.3957 13.574 16.2093 13.5107C15.9156 13.411 15.8053 13.3956 15.3831 13.3956C14.9603 13.3956 14.851 13.4109 14.5572 13.511C13.5667 13.8484 12.8617 14.6497 12.6854 15.6386C12.5319 16.4994 12.8111 17.3452 13.4562 17.9741C13.775 18.285 14.1858 18.5215 14.6012 18.6334C14.8106 18.6899 15.8245 18.7201 15.9479 18.6736ZM34.6453 14.7637C34.0166 14.5942 33.3479 14.0616 33.0937 13.5283C32.8384 12.9924 32.7819 12.4423 32.9253 11.8893C33.0333 11.4727 33.1754 11.1861 33.3955 10.9404C33.5975 10.7151 33.6182 10.7761 33.1396 10.1868C31.0378 7.59865 28.1088 5.63998 24.8742 4.65959C24.5363 4.55717 24.1488 4.44937 24.0132 4.42003C23.8249 4.37932 23.7705 4.35116 23.7834 4.30114C23.9765 3.55295 24.0071 3.46568 24.0769 3.46568C24.196 3.46568 25.4104 3.82249 25.8911 3.99872C27.8137 4.70359 29.4665 5.62552 31.1121 6.91101C31.844 7.48271 33.3637 8.97885 33.9368 9.69191L34.3752 10.2375L34.6283 10.1601C34.9378 10.0655 35.5165 10.0579 35.8464 10.1441C36.4898 10.3123 37.1579 10.8388 37.4165 11.3815C37.5667 11.6969 37.6685 12.1306 37.6695 12.46C37.6706 12.7681 37.4944 13.4401 37.347 13.6911C37.182 13.9718 36.7614 14.3664 36.462 14.5213C35.8971 14.8135 35.1833 14.9088 34.6453 14.7637V14.7637ZM35.8267 13.7576C36.0864 13.6747 36.4618 13.321 36.6133 13.0167C36.7014 12.8398 36.7167 12.7495 36.7158 12.4133C36.7147 12.0872 36.6978 11.9841 36.6181 11.825C36.4575 11.5045 36.2518 11.3049 35.9116 11.1398C35.6106 10.9937 35.5841 10.9884 35.242 11.006C34.6388 11.0371 34.2065 11.3242 33.9484 11.865C33.7882 12.2008 33.7877 12.6665 33.9473 13.0009C34.2869 13.7125 35.0307 14.012 35.8267 13.7576H35.8267ZM6.59785 8.67447L6.26765 8.34823L6.76833 7.87809C7.04371 7.61951 7.54549 7.1901 7.88339 6.92384C10.515 4.85016 13.714 3.50692 17.03 3.08315C17.1165 3.07209 17.1412 3.0284 17.2087 2.76659C17.42 1.94682 18.0509 1.30516 18.8756 1.07131C19.1767 0.985921 19.7583 0.975442 20.0863 1.0495C21.674 1.40803 22.4303 3.20105 21.5902 4.61512C21.4083 4.92137 20.9967 5.299 20.6539 5.47411C19.3895 6.12006 17.9509 5.61389 17.3394 4.30791C17.2268 4.06749 17.1796 4.0067 17.1053 4.0067C16.933 4.0067 15.8002 4.21519 15.2823 4.34224C12.9818 4.90652 10.7972 5.92918 8.94267 7.30988C8.355 7.74741 8.0473 8.00309 7.45279 8.54788C7.181 8.79694 6.95175 9.00071 6.94335 9.00071C6.93494 9.00071 6.77947 8.8539 6.59785 8.67447ZM19.9644 4.77547C20.6241 4.54928 21.0704 3.88907 21.0025 3.23966C20.895 2.21175 19.7495 1.59997 18.8168 2.07235C18.3432 2.31224 18.0101 2.84302 18.0101 3.35779C18.0101 3.95202 18.4281 4.53186 19.0207 4.75949C19.266 4.85369 19.7141 4.86128 19.9644 4.77547V4.77547Z" stroke="#8982D8" mask="url(#path-1-outside-1)"/>
</svg>
