<svg width="298" height="298" viewBox="0 0 298 298" fill="none" xmlns="http://www.w3.org/2000/svg">
    <path d="M104.682 248.896C159.828 273.435 224.426 248.624 248.966 193.478C273.505 138.332 248.694 73.7339 193.548 49.1941C138.402 24.6544 73.8039 49.4657 49.2641 104.612C24.7244 159.758 49.5357 224.356 104.682 248.896Z" fill="#A8ADF0"/>
    <path d="M193.55 49.1948C189.136 47.2305 184.66 45.5863 180.15 44.2446C226.302 72.428 245.495 131.156 222.919 181.887C200.344 232.619 143.868 257.674 92.0358 242.255C96.0519 244.708 100.269 246.932 104.684 248.896C159.83 273.436 224.428 248.625 248.968 193.479C273.507 138.333 248.696 73.7347 193.55 49.1948Z" fill="#989FEC"/>
    <path d="M236.852 121.814L236.916 120.345C236.917 120.302 236.902 120.26 236.874 120.228L235.898 119.128C227.858 110.068 214.149 102.614 201.797 96.5182L187.635 90.216C187.475 90.1449 187.33 90.3395 187.443 90.4723L210.328 117.364C210.457 117.516 210.258 117.719 210.102 117.595C198.539 108.357 186.092 100.746 173.041 94.9387C160.032 89.1496 146.093 85.0059 131.539 82.5971C131.341 82.564 131.361 82.2771 131.562 82.2742L167.864 81.762C168.04 81.7596 168.089 81.5197 167.928 81.448L152.617 74.6344C139.82 69.5397 125.105 64.3441 112.993 64.4372L111.522 64.4483C111.479 64.4486 111.438 64.4653 111.408 64.4955L110.358 65.5263C88.4207 87.0663 65.7528 130.118 56.5124 159.295L56.0274 160.825L56.7866 162.24C67.3362 181.898 86.017 197.905 98.8082 205.639L100.462 206.639C101 206.964 101.69 206.877 102.131 206.429L121.434 186.792C122.036 186.18 121.925 185.169 121.204 184.703L118.687 183.074C109.911 177.393 98.2911 167.514 91.5517 152.241C91.4078 151.915 91.8156 151.624 92.0709 151.874C92.837 152.623 93.6725 153.468 94.5333 154.339C96.6439 156.474 98.8268 158.682 100.369 159.859C111.203 168.131 122.84 175.06 134.982 180.463L135.078 180.247L135.104 180.258L135.009 180.475C147.126 185.867 160.063 189.874 173.459 192.384C175.366 192.741 178.468 192.885 181.467 193.024C182.69 193.08 183.877 193.135 184.945 193.202C185.302 193.225 185.359 193.723 185.02 193.834C169.221 199.024 154.092 196.986 143.975 194.259L141.081 193.479C140.253 193.256 139.427 193.849 139.375 194.705L137.685 222.25C137.646 222.877 138.044 223.449 138.646 223.631L140.498 224.19C154.805 228.515 179.199 231.677 200.866 226.355L202.426 225.971L203.238 224.587C218.728 198.19 235.536 152.53 236.852 121.814ZM116.276 145.008C104.889 141.111 99.816 127.907 105.666 117.387C110.15 109.323 119.92 105.57 128.65 108.558C140.038 112.455 145.111 125.659 139.261 136.179C134.776 144.242 125.006 147.996 116.276 145.008ZM177.055 172.054C165.667 168.157 160.595 154.953 166.445 144.433C170.929 136.369 180.699 132.616 189.429 135.604C200.817 139.502 205.889 152.706 200.04 163.225C195.554 171.289 185.784 175.042 177.055 172.054Z" fill="white"/>
    <path d="M254.339 108.525C243.531 80.3842 222.411 58.1373 194.871 45.882C167.33 33.6267 136.665 32.8293 108.525 43.6384C80.3843 54.4461 58.1377 75.5659 45.8821 103.107C33.6266 130.647 32.8294 161.312 43.6381 189.453C54.4462 217.593 75.566 239.84 103.107 252.095C130.648 264.351 161.312 265.148 189.453 254.339C217.593 243.531 239.84 222.411 252.095 194.871C264.351 167.33 265.148 136.665 254.339 108.525ZM106.005 245.583C52.7419 221.882 28.6923 159.267 52.394 106.004C76.0956 52.7417 138.71 28.6922 191.973 52.3938C245.236 76.0955 269.285 138.71 245.584 191.973C221.882 245.236 159.267 269.285 106.005 245.583Z" fill="white"/>
    <path d="M213.667 194.865C209.278 205.249 204.556 214.829 199.96 222.663C180.222 227.512 156.667 225.107 141.598 220.551L142.986 197.929C153.724 200.824 170.969 203.226 188.805 196.531C190.337 195.955 191.281 194.412 191.093 192.786C190.906 191.161 189.636 189.873 188.014 189.66C186.356 189.444 184.067 189.338 181.643 189.226C178.906 189.099 175.804 188.956 174.16 188.647C161.052 186.191 148.401 182.273 136.555 177.001C136.547 176.998 136.528 176.989 136.528 176.989L136.502 176.978C124.655 171.706 113.276 164.93 102.676 156.837C101.347 155.822 99.1634 153.614 97.2375 151.666C95.5964 150.006 94.0429 148.434 92.7957 147.35C91.6357 146.34 89.9569 146.065 88.6124 146.811C87.0256 147.691 86.3687 149.586 87.016 151.235C94.0067 169.031 107.305 180.234 116.623 186.265L100.776 202.385C87.3053 194.241 69.7481 178.351 60.1372 160.442C69.2127 131.788 91.5724 89.2991 113.023 68.2376C124.131 68.1526 138.236 72.9999 151.211 78.1653L126.685 78.5457C124.823 78.5741 123.296 80.0329 123.182 81.8919C123.069 83.7513 124.406 85.3841 126.251 85.6392C142.175 87.8423 157.397 92.1394 171.495 98.4127C185.592 104.686 198.975 113.118 211.271 123.473C212.695 124.67 214.804 124.573 216.109 123.244C217.415 121.915 217.476 119.806 216.25 118.402L200.114 99.927C212.638 106.108 225.681 113.342 233.054 121.651C232.35 138.078 227.066 158.997 219.934 178.822C219.299 180.587 220.139 182.541 221.853 183.304L221.865 183.309C223.771 184.157 225.996 183.206 226.703 181.242C234.262 160.243 239.741 138.047 240.226 120.489C240.25 119.629 239.963 118.79 239.416 118.126C229.351 105.894 209.324 96.3592 193.232 88.6965C191.263 87.7589 189.36 86.853 187.554 85.9784C186.029 85.2457 184.195 85.6777 183.168 87.0245C182.14 88.3709 182.203 90.2549 183.317 91.5305L191.182 100.537C185.715 97.3284 180.111 94.4442 174.392 91.8993C168.673 89.3545 162.779 87.1213 156.736 85.2079L168.692 85.0223C170.385 84.9962 171.827 83.7814 172.139 82.1167C172.452 80.4518 171.548 78.804 169.98 78.1582C168.121 77.4019 166.175 76.5941 164.159 75.759C147.695 68.9339 127.205 60.4393 111.381 61.1507C110.522 61.1892 109.705 61.5375 109.082 62.1303C85.847 84.2654 62.2637 129.145 52.8875 159.746C52.6154 160.633 52.7003 161.591 53.1234 162.416C63.8484 183.341 84.2158 201.377 99.6425 209.97C99.7367 210.023 99.8325 210.07 99.9292 210.113C101.276 210.713 102.869 210.422 103.918 209.355L124.853 188.058C125.88 187.015 126.187 185.418 125.528 184.019C125.206 183.334 124.646 182.791 123.989 182.414C119.198 179.668 112.201 174.938 105.757 167.869C114.637 173.965 123.969 179.203 133.604 183.49L133.63 183.502C133.63 183.502 133.63 183.502 133.63 183.502L133.657 183.514C143.247 187.782 153.339 191.198 163.761 193.709C154.286 193.617 146.149 191.594 140.922 189.88C140.203 189.644 139.425 189.591 138.7 189.808C137.218 190.253 136.235 191.55 136.146 193.012L134.314 222.879C134.222 224.373 135.073 225.752 136.42 226.352C136.517 226.395 136.617 226.434 136.719 226.469C153.43 232.178 180.463 235.234 203.187 229.194C204.083 228.956 204.851 228.378 205.328 227.582C210.378 219.159 215.531 208.841 220.273 197.658C221.037 195.857 220.214 193.774 218.428 192.979C216.593 192.163 214.448 193.015 213.667 194.865Z" fill="white"/>
    <path d="M131.639 106.162C120.269 101.102 106.901 106.236 101.842 117.606C96.7819 128.977 101.916 142.344 113.287 147.404C124.657 152.464 138.025 147.33 143.084 135.959C148.144 124.589 143.01 111.221 131.639 106.162ZM116.184 140.892C108.405 137.43 104.891 128.284 108.353 120.504C111.816 112.724 120.962 109.211 128.742 112.673C136.521 116.135 140.035 125.281 136.572 133.062C133.11 140.842 123.964 144.354 116.184 140.892Z" fill="white"/>
    <path d="M192.418 133.208C181.048 128.148 167.68 133.282 162.621 144.653C157.561 156.023 162.695 169.391 174.066 174.451C185.436 179.51 198.804 174.376 203.863 163.006C208.923 151.635 203.789 138.268 192.418 133.208ZM176.963 167.939C169.184 164.477 165.67 155.331 169.133 147.551C172.595 139.77 181.741 136.258 189.521 139.72C197.3 143.182 200.814 152.328 197.352 160.108C193.889 167.888 184.743 171.4 176.963 167.939Z" fill="white"/>
</svg>
