<svg width="97" height="97" viewBox="0 0 97 97" fill="none" xmlns="http://www.w3.org/2000/svg">
    <path d="M83.8075 53.7659C83.9026 58.8096 83.715 63.5854 83.2611 67.624C76.0737 73.1975 66.0063 76.4994 59.017 77.3784L55.4687 67.8773C60.3854 67.1074 67.8726 64.9522 73.9466 58.9698C74.4682 58.4559 74.5731 57.6532 74.2007 57.0228C73.8286 56.3923 73.0749 56.097 72.3732 56.3049C71.656 56.5181 70.7008 56.8914 69.6894 57.2865C68.5476 57.7325 67.2534 58.2381 66.5249 58.4111C60.7192 59.7918 54.8345 60.4915 49.0322 60.4915C49.0284 60.4915 49.0189 60.4915 49.0189 60.4915H49.0063C43.2041 60.4915 37.3191 59.7916 31.5134 58.4111C30.7851 58.2381 29.4908 57.7325 28.349 57.2865C27.3761 56.9064 26.4551 56.5466 25.7479 56.33C25.09 56.1283 24.3536 56.3213 23.9396 56.8707C23.4509 57.5191 23.5273 58.4137 24.0919 58.97C30.1874 64.9735 37.6624 67.1342 42.5687 67.9049L39.0229 77.3782C32.034 76.4992 21.9653 73.1972 14.778 67.6238C13.2754 54.2583 14.6868 32.8198 19.6248 20.3069C24.1504 18.2514 30.7991 17.6669 37.0433 17.4181L27.0854 22.0357C26.3292 22.3861 25.9706 23.2601 26.2622 24.0409C26.5541 24.8217 27.3978 25.246 28.1985 25.0146C35.1095 23.0183 42.1146 22.0057 49.0193 22.0057C55.924 22.0057 62.9293 23.0183 69.8401 25.0146C70.64 25.245 71.4845 24.8215 71.7765 24.0409C72.0684 23.2601 71.7098 22.3865 70.9533 22.0357L60.9953 17.4181C67.2398 17.6669 73.8882 18.2514 78.4139 20.3069C81.1146 27.1508 82.7602 36.6643 83.4513 46.067C83.5126 46.904 84.2117 47.5501 85.0509 47.5501H85.0568C85.9907 47.5501 86.7271 46.7563 86.6588 45.825C85.9289 35.8648 84.1306 25.7936 81.135 18.527C80.9882 18.1713 80.7179 17.8803 80.3735 17.7083C74.0334 14.5388 64.1115 14.284 56.1386 14.0788C55.163 14.0538 54.22 14.0297 53.3225 14.0007C52.5658 13.9786 51.8949 14.4887 51.7197 15.2263C51.5445 15.9637 51.9128 16.7226 52.6005 17.0413L57.4546 19.2923C54.6359 18.9753 51.8199 18.8157 49.0189 18.8157C46.218 18.8157 43.4018 18.9751 40.5831 19.2923L45.4372 17.0413C46.1249 16.7226 46.4931 15.9637 46.318 15.2263C46.143 14.4887 45.4739 13.9794 44.7152 14.0007C43.8176 14.0297 42.8749 14.0536 41.899 14.0788C33.9263 14.2838 24.0041 14.5386 17.6642 17.7083C17.3199 17.8803 17.0495 18.1713 16.9027 18.527C11.4304 31.8035 9.95363 54.4419 11.6876 68.6585C11.7377 69.0706 11.9466 69.4465 12.2697 69.7069C20.4612 76.3104 32.0693 79.979 39.9394 80.6854C39.9875 80.6899 40.0353 80.6917 40.0826 80.6917C40.7423 80.6917 41.3408 80.2829 41.5753 79.656L46.2598 67.1407C46.4896 66.5272 46.3247 65.8186 45.8009 65.3665C45.5445 65.1452 45.2168 65.0248 44.8799 64.9903C42.4216 64.7392 38.7004 64.0785 34.7799 62.3608C39.5192 63.2378 44.2875 63.6813 49.0063 63.6813H49.0189C49.0191 63.6813 49.0193 63.6813 49.0193 63.6813H49.0322C53.7294 63.6813 58.4766 63.2419 63.1944 62.3726C59.304 64.0586 55.6092 64.7118 53.1607 64.9621C52.8238 64.9966 52.4959 65.1166 52.2391 65.3371C51.7142 65.7882 51.5485 66.4974 51.7779 67.1115L56.4624 79.655C56.6967 80.2827 57.2954 80.6919 57.9555 80.6919C58.003 80.6919 58.0509 80.6897 58.0989 80.6856C65.9692 79.9791 77.5773 76.3106 85.7685 69.7071C86.0917 69.4467 86.3004 69.0707 86.3507 68.6587C86.8827 64.2963 87.1121 59.1404 87.0166 53.7057C87.0013 52.8307 86.286 52.1288 85.4109 52.1288C84.5126 52.129 83.7906 52.8673 83.8075 53.7659Z" fill="#4984C7"/>
    <path d="M34.1352 32.4246C28.5662 32.4246 24.0352 36.9556 24.0352 42.5246C24.0352 48.0936 28.5662 52.6246 34.1352 52.6246C39.7042 52.6246 44.2352 48.0936 44.2352 42.5246C44.2352 36.9556 39.7042 32.4246 34.1352 32.4246ZM34.1352 49.4352C30.3248 49.4352 27.2245 46.3351 27.2245 42.5246C27.2245 38.714 30.3248 35.614 34.1352 35.614C37.9455 35.614 41.0458 38.714 41.0458 42.5246C41.0458 46.3351 37.9455 49.4352 34.1352 49.4352Z" fill="#4984C7"/>
    <path d="M63.9037 32.4246C58.3347 32.4246 53.8037 36.9556 53.8037 42.5246C53.8037 48.0936 58.3347 52.6246 63.9037 52.6246C69.4727 52.6246 74.0037 48.0936 74.0037 42.5246C74.0037 36.9556 69.4727 32.4246 63.9037 32.4246ZM63.9037 49.4352C60.0933 49.4352 56.9931 46.3351 56.9931 42.5246C56.9931 38.714 60.0933 35.614 63.9037 35.614C67.7141 35.614 70.8143 38.714 70.8143 42.5246C70.8143 46.3351 67.7139 49.4352 63.9037 49.4352Z" fill="#4984C7"/>
    <path d="M81.9317 97H74.7768C73.2572 97 72.0254 95.7682 72.0254 94.2486C72.0254 92.729 73.2572 91.4971 74.7768 91.4971H81.9317C87.2059 91.4971 91.4972 87.206 91.4972 81.9317V15.0683C91.4972 9.79416 87.206 5.50286 81.9317 5.50286H40.6125C39.0929 5.50286 37.8611 4.27103 37.8611 2.75143C37.8611 1.23182 39.0929 0 40.6125 0H81.9317C90.2405 0 97 6.7595 97 15.0683V81.9317C97 90.2405 90.2405 97 81.9317 97Z" fill="#4984C7"/>
    <path d="M54.8832 97H15.0683C6.7595 97 0 90.2405 0 81.9317V15.0683C0 6.7595 6.7595 0 15.0683 0H21.2604C22.78 0 24.0119 1.23182 24.0119 2.75143C24.0119 4.27103 22.78 5.50286 21.2604 5.50286H15.0683C9.79416 5.50286 5.50286 9.79397 5.50286 15.0683V81.9317C5.50286 87.2058 9.79397 91.4971 15.0683 91.4971H54.8832C56.4028 91.4971 57.6347 92.729 57.6347 94.2486C57.6347 95.7682 56.4028 97 54.8832 97Z" fill="#4984C7"/>
</svg>
