<svg width="40" height="47" viewBox="0 0 40 47" fill="none" xmlns="http://www.w3.org/2000/svg">
    <path d="M17.0035 42L20.007 39.0035L23.0035 42.007L20 45.0035L17.0035 42Z" stroke="#FF7A00" stroke-width="2"/>
    <path d="M4.5 7H2C1.44772 7 1 6.55228 1 6V2C1 1.44772 1.44772 1 2 1H38C38.5523 1 39 1.44772 39 2V6C39 6.55228 38.5523 7 38 7H35.5M4.5 7L16.7208 19.7097C16.9 19.896 17 20.1443 17 20.4028V29.5858C17 30.1077 17.631 30.369 18 30V30L21.7287 26.6936C21.9428 26.5038 22.0653 26.2315 22.0653 25.9454V20.8103C22.0653 20.5445 22.171 20.2897 22.3592 20.1021L35.5 7M4.5 7H35.5" stroke="#FF7A00" stroke-width="2"/>
</svg>
