<svg width="970" height="744" viewBox="0 0 970 744" fill="none" xmlns="http://www.w3.org/2000/svg">
    <path d="M856.146 722.067C852.234 712.093 885.205 631.801 913.118 643.83C941.031 655.858 882.712 697.497 861.298 724.404L856.146 722.067Z" fill="white"/>
    <path d="M907.841 642.616C909.156 642.668 910.465 642.899 911.766 643.32C907.79 645.857 903.869 649.193 900.055 653.084C899.279 653.876 898.511 654.709 897.743 655.544C897.872 654.175 897.976 652.567 897.931 650.78C897.889 649.117 897.73 647.341 897.346 645.633C900.829 643.593 904.354 642.478 907.841 642.616H907.841ZM913.963 644.259C922.619 648.478 921.933 655.902 916.335 664.935C913.001 663.8 909.757 663.367 906.703 663.433C899.433 663.592 893.283 666.471 889.323 668.887C891.906 665.385 894.571 662.03 897.3 658.92H897.31L897.314 658.905C898.66 657.371 900.015 655.874 901.385 654.476C905.524 650.255 909.751 646.754 913.964 644.259L913.963 644.259ZM895.619 646.752C895.875 648.081 896.014 649.465 896.048 650.817C896.141 654.487 895.651 657.357 895.532 658.022C889.188 665.319 883.204 673.854 877.9 682.348C877.733 682.616 877.582 682.877 877.416 683.146C877.504 681.96 877.571 680.67 877.535 679.246C877.458 676.194 876.968 672.78 875.429 670.1C881.465 660.278 888.423 651.617 895.619 646.752H895.619ZM906.881 665.355C909.535 665.316 912.345 665.707 915.224 666.625C909.307 675.456 899.197 685.637 888.861 695.766C887.029 695.196 885.258 694.896 883.58 694.841C880.036 694.724 876.877 695.602 874.273 696.838C872.689 697.59 871.376 698.458 870.206 699.322C872.971 694.271 876.077 688.86 879.486 683.401C881.549 680.097 883.741 676.816 885.987 673.58C886.377 673.235 895.221 665.525 906.881 665.355V665.355ZM874.263 672.022C875.198 674.152 875.589 676.787 875.652 679.298C875.757 683.417 875.068 687.008 875.068 687.008L875.086 687.013C871.708 692.654 868.655 698.119 866.031 703.08C866.019 703.094 865.93 703.193 865.93 703.193L865.957 703.217C860.558 713.433 857.485 720.214 856.568 722.259L856.148 722.066C854.103 716.852 862.144 692.434 874.264 672.022L874.263 672.022ZM883.502 696.753C884.698 696.79 885.962 697.01 887.258 697.338C877.496 706.884 867.738 716.315 861.301 724.402L858.304 723.042C859.227 720.983 862.255 714.305 867.579 704.222C868.06 703.662 870.722 700.685 875.068 698.623C877.463 697.486 880.299 696.655 883.502 696.753V696.753Z" fill="#3DB19D"/>
    <path opacity="0.295079" d="M338.742 735.529C353.26 735.529 365.029 733.165 365.029 730.25C365.029 727.335 353.26 724.972 338.742 724.972C324.225 724.972 312.456 727.335 312.456 730.25C312.456 733.165 324.225 735.529 338.742 735.529Z" fill="#6F7889"/>
    <path opacity="0.295079" d="M744.847 743.68C796.337 743.68 838.078 739.017 838.078 733.264C838.078 727.512 796.337 722.849 744.847 722.849C693.357 722.849 651.616 727.512 651.616 733.264C651.616 739.017 693.357 743.68 744.847 743.68Z" fill="#6F7889"/>
    <path opacity="0.295079" d="M501.325 743.68C552.816 743.68 594.557 739.017 594.557 733.264C594.557 727.512 552.816 722.849 501.325 722.849C449.835 722.849 408.094 727.512 408.094 733.264C408.094 739.017 449.835 743.68 501.325 743.68Z" fill="#6F7889"/>
    <path d="M837.597 25.1714H622.619C619.214 25.1714 616.453 28.0234 616.453 31.5414V166.081C616.453 169.599 619.214 172.451 622.619 172.451H837.597C841.003 172.451 843.763 169.599 843.763 166.081V31.5414C843.763 28.0234 841.003 25.1714 837.597 25.1714Z" fill="#707886"/>
    <path d="M736.535 52.7007C736.426 52.7007 736.317 52.7076 736.235 52.7283C736.069 52.7558 736.204 52.7922 736.535 52.7922C736.866 52.7922 737.003 52.7647 736.837 52.7283C736.754 52.7102 736.644 52.7007 736.535 52.7007ZM735.586 52.8378C735.54 52.8357 735.488 52.8446 735.439 52.8653C735.332 52.9109 735.363 52.9476 735.519 52.9476C735.66 52.9545 735.741 52.92 735.696 52.8745C735.67 52.8469 735.632 52.8379 735.586 52.8379L735.586 52.8378ZM734.957 52.8926C734.889 52.8857 734.723 52.8962 734.458 52.9202C734.016 52.9567 733.63 53.0197 733.6 53.048C733.5 53.1413 734.448 53.0756 734.861 52.9548C734.993 52.9182 735.024 52.9 734.957 52.8908L734.957 52.8926ZM731.578 53.3312C731.578 53.2581 730.013 53.4974 728.919 53.7268C727.723 53.9789 727.332 53.9863 727.26 53.7634C727.154 53.4363 719.95 56.7638 717.448 58.2955C716.392 58.9415 714.508 60.3417 714.361 60.589C714.227 60.8137 714.032 60.7242 714.032 60.4391C714.032 60.0526 713.938 60.0892 713.377 60.6812C713.107 60.9672 711.963 62.0697 710.836 63.1337C708.405 65.4271 707.314 66.7014 706.771 67.8775C706.551 68.3572 706.285 68.7428 706.176 68.7428C705.983 68.7428 705.352 70.0483 704.383 72.4514C703.854 73.7614 703.189 74.627 702.794 74.5203C702.581 74.4654 702.436 74.6756 701.933 75.7838C700.583 78.7586 698.256 85.6233 698.456 86.0404C698.512 86.1565 698.595 89.864 698.641 94.2794C698.727 102.409 698.753 102.863 699.316 105.838C701.02 114.831 705.445 123.273 712.018 130.067C716.933 135.148 722.203 138.548 727.967 140.351C730.496 141.143 732.12 141.367 735.395 141.379C737.226 141.386 737.256 141.38 736.602 141.193L736.604 141.191C736.235 141.085 734.969 140.812 733.791 140.586C730.02 139.861 729.067 139.383 726.952 137.156C726.138 136.298 725.425 135.597 725.367 135.597C725.31 135.597 725.393 135.817 725.557 136.088C725.718 136.359 725.829 136.604 725.802 136.631C725.7 136.736 723.799 135.739 723.194 135.262C722.846 134.987 722.27 134.655 721.915 134.524C721.205 134.264 721.13 134.107 721.534 133.729C721.682 133.591 721.803 133.433 721.803 133.379C721.803 133.324 721.477 133.114 721.08 132.913C720.371 132.554 718.453 130.662 718.453 130.32C718.453 130.215 718.261 130.19 717.861 130.247C717.304 130.329 717.243 130.301 716.839 129.825C716.116 128.974 715.46 127.822 715.161 126.881C714.924 126.139 714.858 126.038 714.779 126.293C714.727 126.462 714.641 126.601 714.586 126.601C714.472 126.601 712.455 123.77 711.639 122.462C711.015 121.461 710.911 120.904 711.37 121.029C711.564 121.083 711.443 120.902 710.994 120.468C710.096 119.6 709.899 119.21 710.193 118.874C710.316 118.734 710.418 118.587 710.418 118.546C710.418 118.51 710.151 118.063 709.826 117.562C709.221 116.629 708.499 115.176 708.335 114.56L708.243 114.216L708.627 114.579C709.081 115.009 709.606 115.307 709.713 115.196C709.829 115.076 709.024 113.279 708.464 112.408C707.875 111.491 707.544 111.241 706.697 111.082C705.836 110.92 705.366 110.364 704.752 108.777C704.206 107.37 704.156 107.087 704.458 107.087C704.614 107.087 704.556 106.869 704.205 106.15C703.762 105.24 703.752 105.186 703.852 104.13C703.95 103.097 703.936 103.007 703.558 102.251C702.963 101.06 702.735 99.2523 702.832 96.4977C702.933 93.6249 703.657 86.405 703.92 85.633C704.033 85.304 704.726 83.7913 705.461 82.273C706.197 80.7547 706.766 79.458 706.725 79.3897C706.684 79.3166 706.534 79.2636 706.391 79.2636C706.013 79.2636 706.061 79.1165 706.755 78.137C708.418 75.7905 711.643 72.354 713.553 70.895C714.859 69.8965 716.214 69.1835 717.018 69.0726C717.477 69.0087 717.733 68.8862 717.922 68.6377C718.317 68.1197 718.242 68.0201 717.691 68.3262C717.419 68.477 717.166 68.5692 717.131 68.5326C716.931 68.3262 719.086 66.5239 720.06 66.0822C720.392 65.9314 721.224 65.7268 721.91 65.6254C723.621 65.3732 723.829 65.3156 724.213 64.9913L724.547 64.7081L724.045 64.7903C723.769 64.8359 723.323 64.9118 723.054 64.9621C722.289 65.1037 722.617 64.7885 723.512 64.5217C724.228 64.3088 724.755 64.0438 727.049 62.7412C728.149 62.1172 731.445 61.3363 731.445 61.7005C731.445 61.7736 731.376 61.8248 731.29 61.8248C731.205 61.8248 731.167 61.8524 731.209 61.9071C731.25 61.9436 731.521 61.9251 731.809 61.834C732.916 61.5261 735.644 61.3863 737.513 61.5407C742.332 61.9381 745.886 63.1513 748.792 65.3918C753.808 69.2582 757.581 75.3882 758.339 80.9C758.462 81.79 758.609 82.5522 758.666 82.5946C758.724 82.6312 758.775 84.2568 758.781 86.1937C758.791 89.4628 758.697 90.8321 758.38 91.9639C758.204 92.5907 758.329 92.5267 758.645 91.8268L758.91 91.2375L758.837 92.2473C758.786 92.9545 758.595 93.7413 758.192 94.8767C757.628 96.4666 757.605 96.5042 756.994 96.8416C756.236 97.2591 755.961 97.8153 755.914 99.0181C755.889 99.7116 755.817 99.9452 755.55 100.24C754.943 100.908 751.792 103.688 750.964 104.284C749.81 105.117 749.414 105.084 750.222 104.22C750.99 103.402 750.411 103.739 749.319 104.747C748.733 105.287 748.017 105.857 747.726 106.01C746.91 106.441 745.718 106.833 745.671 106.685C745.645 106.612 745.37 106.667 745.054 106.817C743.255 107.639 740.409 107.782 738.074 107.167C736.531 106.76 734.202 105.618 732.985 104.669C731.79 103.738 730.201 102.054 729.437 100.913C728.013 98.7835 727.066 96.1093 726.928 93.817C726.876 92.9453 726.81 92.5959 726.73 92.7451C726.664 92.8676 726.544 92.9663 726.463 92.9663C726.36 92.9663 726.343 92.5414 726.405 91.5474C726.792 85.3598 730.561 80.6432 736.236 79.2473C737.872 78.8453 740.219 78.8718 741.894 79.3113C743.537 79.7444 744.48 80.1848 745.824 81.1482C746.848 81.8819 746.886 81.8965 746.446 81.4058C744.565 79.3076 742.44 77.985 740 77.3904C738.754 77.0862 736.427 77.0825 735.084 77.3836C732.249 78.0167 729.253 80.0982 728.076 82.2534C727.847 82.6736 727.517 83.1122 727.343 83.2303C726.805 83.594 726.017 84.978 725.491 86.4787C725.215 87.2682 724.809 88.3014 724.59 88.7759C724.22 89.5772 724.186 89.784 724.117 91.6829C723.878 98.1787 725.891 102.099 732.022 107.083C732.724 107.654 733.324 108.218 733.356 108.336C733.426 108.593 735.616 109.313 737.627 109.742C739.72 110.188 743.669 110.185 745.699 109.735C749.674 108.856 752.89 107.04 756.212 103.799C757.053 102.978 757.86 102.222 758.002 102.117C758.239 101.943 758.25 101.95 758.126 102.19C758.007 102.42 757.966 103.209 758.073 103.209C758.231 103.209 758.502 102.115 758.483 101.56C758.463 100.927 758.857 99.8457 759.337 99.2301C759.536 98.9734 759.607 99.0108 759.967 99.5572L760.296 100.055L760.472 99.2448C760.569 98.7989 761.036 97.5938 761.508 96.5661C762.424 94.5706 762.787 93.3788 762.787 92.3662C762.787 91.7175 762.996 91.402 763.202 91.7385C763.277 91.8592 763.322 91.5987 763.329 91.0286L763.34 90.1305L763.635 90.9181C763.797 91.3512 763.959 91.7358 763.993 91.7705C764.029 91.7981 764.065 91.2954 764.073 90.6366C764.089 89.5997 764.163 89.2276 764.642 87.8702L765.195 86.3016L764.794 86.393C764.446 86.4753 764.376 86.4386 764.259 86.1189C764.184 85.9179 764.087 85.3277 764.04 84.8079C763.964 83.9655 763.984 83.8343 764.227 83.6191L764.502 83.3779L764.134 82.8535C763.749 82.3043 763.127 80.4873 763.224 80.1949C763.254 80.1008 763.474 80.352 763.713 80.7513C763.952 81.1515 764.196 81.4777 764.256 81.4777C764.315 81.4777 764.252 80.9642 764.113 80.3365C763.975 79.7079 763.792 78.7898 763.708 78.295C763.547 77.3529 763.14 76.3558 762.916 76.3558C762.844 76.3558 762.786 76.4499 762.786 76.5633C762.786 76.6775 762.727 76.7716 762.655 76.7716C762.426 76.7716 762.146 76.1749 761.983 75.3453C761.788 74.3451 761.914 74.1252 762.612 74.2425C762.989 74.3064 763.134 74.27 763.282 74.0597C763.468 73.8011 763.476 73.8003 763.682 74.0777C764.324 74.9284 765.866 78.8946 766.476 81.2649C766.611 81.7912 766.743 82.1558 766.769 82.0754C766.83 81.8872 766.23 79.4435 765.719 77.797C765.481 77.0286 765.299 76.0936 765.262 75.4469C765.226 74.8566 765.165 74.2594 765.123 74.1212C764.994 73.7046 765.316 73.8389 765.6 74.3204C766.308 75.5213 765.356 72.7742 764.389 70.829C762.083 66.1905 757.72 61.4553 753.478 58.9892L752.808 58.6L753.402 59.2423C753.729 59.5959 753.96 59.9221 753.914 59.9687C753.829 60.06 752.773 59.3702 752.222 58.8659C752.047 58.706 751.763 58.3442 751.589 58.0627C751.091 57.2569 750.174 57.0799 748.578 57.4799L747.696 57.7009L746.493 57.0769C744.803 56.1998 743.964 55.8647 741.457 55.0647C740.249 54.6791 739.156 54.3227 739.029 54.2725C738.834 54.1902 738.812 54.2449 738.886 54.5447C738.988 54.9614 738.98 54.9632 737.962 54.7512C737.339 54.6224 736.957 54.6361 735.831 54.8335C735.076 54.965 734.096 55.0509 733.654 55.0244L732.85 54.9788L733.62 54.7267C734.044 54.5887 734.391 54.4644 734.391 54.4516C734.391 54.406 732.186 54.31 731.074 54.3073C729.905 54.3052 729.902 54.2797 730.942 53.7262C731.292 53.537 731.578 53.3635 731.578 53.3388L731.578 53.3312ZM734.39 53.8154C733.914 53.8074 733.877 53.8976 734.517 54.0018C734.816 54.0566 735.061 54.158 735.061 54.2321C735.061 54.3764 735.584 54.2596 735.78 54.0694C735.844 54.0054 735.493 53.9132 735.003 53.8593C734.756 53.8317 734.548 53.8227 734.39 53.8137V53.8154ZM700.841 71.8837C700.768 71.8657 700.679 71.8758 700.591 71.8906C700.333 71.9362 700.256 72.0624 700.2 72.4881C700.159 72.7805 700.039 73.21 699.926 73.4431C699.68 73.9539 699.745 73.9703 700.299 73.5345C700.718 73.2037 701.151 72.2247 700.994 71.9622C700.968 71.9256 700.915 71.8982 700.841 71.8799L700.841 71.8837ZM698.595 78.6291C698.483 78.5131 697.987 79.4386 697.958 79.8178C697.942 80.0078 697.942 80.4427 697.958 80.7855L697.983 81.4087L698.169 80.8878C698.271 80.6009 698.424 79.9924 698.511 79.5347H698.51C698.597 79.077 698.637 78.6686 698.598 78.6293L698.595 78.6291ZM749.346 88.2722C749.235 88.2791 749.105 88.4385 748.98 88.7784C748.83 89.1859 749.197 90.3809 749.446 90.2958C749.528 90.2682 749.611 89.8773 749.63 89.4269H749.628C749.659 88.685 749.53 88.2633 749.345 88.2728L749.346 88.2722ZM763.275 92.5815C763.26 92.6181 763.229 92.8145 763.181 93.1973C763.122 93.666 763.012 94.2852 762.936 94.5704C762.859 94.8555 762.847 95.0309 762.91 94.9606C762.971 94.8875 763.089 94.5421 763.174 94.1839C763.258 93.8267 763.319 93.2666 763.309 92.9386C763.299 92.6719 763.294 92.5449 763.279 92.5805L763.275 92.5815ZM764.906 92.8337C764.896 92.8268 764.88 92.8311 764.865 92.8517C764.829 92.8883 764.651 93.6923 764.467 94.6393C764.284 95.5862 763.952 96.9171 763.729 97.5975C763.293 98.9229 763.293 98.9213 763.377 98.9213C763.408 98.9213 763.652 98.2425 763.92 97.413C764.466 95.72 765.051 92.951 764.904 92.8371L764.906 92.8337ZM747.234 94.4863C747.157 94.4588 746.826 94.8682 746.434 95.496C745.789 96.5273 745.759 96.9395 746.314 97.1395C746.535 97.2217 746.715 97.3514 746.715 97.4318C746.715 97.7598 747.232 97.0599 747.687 96.1171C747.953 95.5643 748.213 94.9248 748.265 94.6965C748.317 94.4681 748.125 94.7421 747.839 95.315C747.435 96.1172 747.198 96.4194 746.782 96.6626C745.852 97.2063 745.842 97.135 746.648 95.6729C746.979 95.0717 747.25 94.5558 747.25 94.5262C747.25 94.4986 747.247 94.4896 747.235 94.4896L747.234 94.4863ZM742.396 99.4347C742.293 99.4366 742.15 99.4527 741.993 99.4803C741.68 99.5442 740.806 99.5972 740.051 99.6009C738.153 99.6078 738.23 99.8823 740.286 100.439C741.253 100.7 741.201 100.712 741.993 100.05C742.306 99.7873 742.562 99.5278 742.562 99.4712C742.562 99.4436 742.498 99.4346 742.395 99.4346L742.396 99.4347ZM724.86 99.7663C724.845 99.7584 724.829 99.7594 724.807 99.7844C724.709 99.8867 725.052 100.723 725.638 101.806C726.145 102.743 726.323 102.863 726.064 102.094C725.976 101.834 725.675 101.254 725.394 100.804C725.113 100.355 724.881 99.9227 724.881 99.8457C724.881 99.8091 724.871 99.7817 724.861 99.7634L724.86 99.7663ZM723.597 101.782C723.571 101.8 723.556 101.837 723.531 101.899C723.327 102.437 723.424 102.694 724.335 104.014C725.558 105.784 726.535 106.864 726.077 105.942C725.992 105.77 725.577 105.04 725.155 104.317C724.733 103.593 724.218 102.693 724.01 102.316C723.766 101.872 723.667 101.727 723.597 101.783L723.597 101.782ZM725.495 103.223C725.354 103.372 726.562 104.954 727.758 106.188C730.397 108.914 734.289 111.072 738.143 111.944C739.478 112.246 742.656 112.229 743.568 111.916V111.918C744.076 111.744 743.998 111.727 742.027 111.631C737.663 111.418 735.492 110.752 733.851 109.122C733.56 108.834 733.321 108.67 733.321 108.757C733.321 109.288 730.701 107.601 728.972 105.956L727.905 104.94L728.567 105.835C728.932 106.327 729.478 106.997 729.78 107.323C730.081 107.649 730.291 107.915 730.246 107.915C730.032 107.915 728.388 106.319 727.256 105.01C725.964 103.516 725.584 103.13 725.494 103.224L725.495 103.223Z" fill="white"/>
    <path d="M827.906 547.841C906.312 495.383 928.721 387.174 877.958 306.149C827.194 225.125 722.481 201.968 644.075 254.427C565.669 306.885 543.26 415.094 594.024 496.118C644.787 577.143 749.5 600.3 827.906 547.841Z" stroke="#707886" stroke-width="0.788227" stroke-linecap="round" stroke-linejoin="round" stroke-dasharray="1.58 1.58"/>
    <path d="M748.434 122.08H179.018C172.764 122.08 167.694 127.319 167.694 133.782V485.274C167.694 491.736 172.764 496.975 179.018 496.975H748.434C754.688 496.975 759.757 491.736 759.757 485.274V133.782C759.757 127.319 754.688 122.08 748.434 122.08Z" fill="#4A91BB"/>
    <path d="M564.403 389.316C564.403 389.316 568.45 378.211 567.756 370.08C567.277 364.46 574.102 368.883 572.693 379.021C572.693 379.021 574.11 383.124 593.151 378.001C596.338 377.144 595.545 383.782 581.295 385.979C576.713 386.684 574.087 388.704 572.631 391.119C569.561 396.215 568.806 397.659 568.806 397.659L564.403 389.316Z" fill="#FAD2BA"/>
    <path d="M587.054 380.43C587.054 380.43 590.673 375.854 591.739 372.649C592.272 371.046 589.473 370.594 586.018 376.104C582.562 381.615 575.726 381.257 575.726 381.257L587.054 380.43Z" fill="#FAD2BA"/>
    <path d="M321.296 345.505L358.223 299.296L402.328 281.261L484.744 312.257L551.387 275.928L613.349 316.078L643.393 249.913L708.14 223.873" stroke="white" stroke-width="1.49194" stroke-linecap="round" stroke-linejoin="round"/>
    <path d="M411.239 419.987C411.239 419.987 407.896 473.803 420.098 475.154C432.3 476.504 448.715 464.787 448.715 464.787L445.455 444.373L437.319 448.414C437.319 448.414 442.72 428.831 440.79 423.819C438.859 418.807 411.239 419.987 411.239 419.987V419.987Z" fill="#915DB9"/>
    <path d="M762.845 328.463C762.845 328.463 762.845 340.04 767.817 359.596C772.788 379.153 740.593 363.036 740.593 363.036L738.251 358.324C738.251 358.324 741.383 355.662 739.76 342.748C738.138 329.835 762.845 328.463 762.845 328.463Z" fill="#FAD2BA"/>
    <path d="M771.663 358.385C771.663 358.385 770.193 348.802 758.889 354.549C747.586 360.296 743.659 354.699 740.756 354.785C737.854 354.868 736.315 359.817 736.315 359.817L714.939 495.323L771.513 512.95L785.312 496.294L771.663 358.385Z" fill="#FEB661"/>
    <path d="M133.105 721.54C137.017 711.565 104.045 631.273 76.1324 643.302C48.2196 655.331 106.538 696.97 127.953 723.877L133.105 721.54Z" fill="white"/>
    <path d="M81.4102 642.089C80.0953 642.141 78.7858 642.371 77.4855 642.792C81.4606 645.33 85.3816 648.666 89.1957 652.556C89.9722 653.348 90.7401 654.182 91.5076 655.016C91.3787 653.648 91.2751 652.04 91.3202 650.252C91.3623 648.59 91.5214 646.814 91.9051 645.106C88.4222 643.065 84.8971 641.951 81.4102 642.089H81.4102ZM75.2878 643.732C66.6321 647.951 67.3178 655.375 72.9165 664.407C76.25 663.273 79.4944 662.839 82.5479 662.906C89.8181 663.065 95.9681 665.944 99.9282 668.359C97.3445 664.857 94.6797 661.503 91.9508 658.392H91.9415L91.9368 658.378C90.5907 656.844 89.2364 655.347 87.8658 653.949C83.7275 649.728 79.4996 646.227 75.2875 643.732L75.2878 643.732ZM93.6322 646.225C93.3762 647.553 93.237 648.937 93.2027 650.29C93.1096 653.96 93.6003 656.829 93.719 657.495C100.063 664.791 106.047 673.327 111.351 681.82C111.518 682.089 111.669 682.35 111.835 682.618C111.747 681.432 111.68 680.143 111.716 678.718C111.793 675.667 112.283 672.253 113.822 669.573C107.786 659.75 100.828 651.089 93.6321 646.225H93.6322ZM82.3697 664.828C79.7158 664.789 76.9057 665.179 74.0268 666.098C79.9436 674.929 90.0543 685.109 100.39 695.239C102.222 694.669 103.993 694.369 105.671 694.313C109.215 694.196 112.374 695.074 114.978 696.311C116.562 697.063 117.875 697.931 119.045 698.794C116.28 693.744 113.174 688.333 109.765 682.873C107.702 679.57 105.51 676.289 103.264 673.053C102.874 672.708 94.0296 664.998 82.3697 664.828V664.828ZM114.988 671.494C114.053 673.625 113.662 676.26 113.599 678.77C113.494 682.89 114.183 686.48 114.183 686.48L114.165 686.485C117.543 692.127 120.596 697.591 123.22 702.553C123.232 702.567 123.321 702.666 123.321 702.666L123.294 702.69C128.693 712.906 131.766 719.686 132.683 721.732L133.103 721.538C135.148 716.324 127.107 691.906 114.987 671.495L114.988 671.494ZM105.749 696.226C104.553 696.262 103.289 696.483 101.993 696.811C111.755 706.357 121.513 715.787 127.95 723.875L130.947 722.515C130.024 720.456 126.996 713.777 121.672 703.695C121.191 703.135 118.529 700.158 114.183 698.095C111.788 696.958 108.952 696.127 105.749 696.226V696.226Z" fill="#3DB19D"/>
    <path d="M110.589 585.483C102.733 585.317 97.9892 588.064 95.5527 592.953C97.8492 588.407 102.167 585.734 109.145 585.554C113.389 591.484 117.083 598.778 120.225 606.994C121.263 609.709 122.222 612.544 123.149 615.427L123.145 615.455L123.163 615.46C125.037 621.292 126.697 627.408 128.153 633.676C122.554 625.627 111.421 613.621 94.1869 611.891C94.3292 612.832 94.5256 613.821 94.7077 614.799C118.806 617.741 130.003 642.222 130.003 642.222C131.146 647.885 132.161 653.59 133.028 659.229C134.471 668.617 135.538 677.764 136.354 686.217C135.287 684.377 133.981 682.405 132.319 680.466C128.219 675.68 122.05 671.2 113.413 670.088C113.823 671.099 114.222 672.103 114.633 673.115C121.738 674.405 126.72 678.245 130.245 682.359C134.964 687.867 136.808 693.597 137.085 694.512C138.446 711.225 138.69 721.974 138.753 725.339L141.508 725.349C141.449 722.017 141.207 711.069 139.817 694.083L139.881 694.064C139.881 694.064 139.807 693.85 139.799 693.813C139.12 685.565 138.154 676.384 136.856 666.769L136.893 666.778C136.893 666.778 138.02 661.534 140.52 656.07C142.043 652.742 144.077 649.446 146.551 647.156C150.83 679.747 148.297 714.854 143.253 723.913C153.25 706.202 153.509 586.39 110.589 585.483L110.589 585.483ZM112.668 585.681C119.925 586.521 125.873 590.89 130.702 597.599C129.21 599.656 127.973 601.937 126.964 604.143C125.878 606.516 125.101 608.74 124.492 610.658C123.941 609.069 123.39 607.483 122.802 605.946C119.911 598.387 116.555 591.515 112.668 585.681V585.681ZM95.4522 593.155C95.2337 593.611 95.0336 594.085 94.8536 594.577C95.0359 594.086 95.2312 593.61 95.4522 593.155ZM94.6937 595.011C94.5283 595.502 94.3803 596.007 94.2505 596.532C94.382 596.01 94.5268 595.5 94.6937 595.011ZM93.6657 599.969C93.6634 600.002 93.6563 600.035 93.6517 600.068C93.654 600.035 93.661 600.002 93.6657 599.969ZM132.374 600.176C139.24 611.103 143.621 626.97 146.094 643.836C142.488 646.498 139.869 650.793 138.017 654.842C137.153 656.729 136.501 658.499 135.942 660.144C135.873 659.685 135.826 659.245 135.755 658.784C133.505 644.145 130.374 629.027 126.046 615.356C126.262 614.405 127.236 610.252 129.468 605.375C130.289 603.58 131.268 601.804 132.374 600.176H132.374ZM94.8674 615.71C95.0727 616.757 95.3151 617.837 95.5618 618.921C95.316 617.837 95.0718 616.756 94.8674 615.71ZM96.8046 623.935C97.0072 624.692 97.1942 625.431 97.4123 626.201C97.1949 625.432 97.0064 624.69 96.8046 623.935ZM98.6367 630.323C98.7832 630.801 98.9286 631.272 99.0799 631.754C98.9288 631.272 98.783 630.8 98.6367 630.323ZM100.528 636.235C100.604 636.46 100.685 636.688 100.761 636.914C100.685 636.688 100.604 636.46 100.528 636.235ZM108.78 658.572C109.07 659.309 109.364 660.048 109.657 660.786C109.365 660.05 109.069 659.307 108.78 658.572ZM143.234 723.96C143.22 723.985 143.203 724.002 143.189 724.026C143.203 724.002 143.22 723.985 143.234 723.96Z" fill="white"/>
    <path d="M110.563 585.532C111.276 585.55 111.979 585.596 112.669 585.678C111.979 585.596 111.277 585.546 110.563 585.532ZM112.669 585.678C116.556 591.511 119.912 598.384 122.803 605.943C123.391 607.48 123.942 609.066 124.494 610.655C125.102 608.736 125.879 606.513 126.965 604.139C127.974 601.934 129.211 599.652 130.703 597.595C125.874 590.887 119.927 586.518 112.669 585.678ZM109.146 585.551C95.1084 585.913 91.8153 596.336 94.1512 611.883C111.406 613.599 122.55 625.619 128.153 633.673C126.698 627.405 125.038 621.289 123.164 615.457L123.146 615.452L123.151 615.425C122.224 612.542 121.265 609.707 120.227 606.992C117.084 598.774 113.388 591.478 109.143 585.547L109.146 585.551ZM130.726 597.624C131.3 598.426 131.832 599.308 132.375 600.174C131.832 599.309 131.301 598.424 130.726 597.624ZM132.375 600.174C131.27 601.801 130.29 603.577 129.469 605.372C127.238 610.249 126.263 614.402 126.047 615.353C130.375 629.024 133.506 644.142 135.756 658.782C135.827 659.242 135.875 659.683 135.944 660.141C136.502 658.496 137.155 656.726 138.018 654.839C139.871 650.79 142.49 646.495 146.096 643.833C143.623 626.967 139.242 611.1 132.375 600.174H132.375ZM94.672 614.791C97.5447 630.27 105.285 650.137 113.359 670.076C122.026 671.175 128.211 675.666 132.32 680.463C133.982 682.402 135.288 684.374 136.355 686.214C135.539 677.761 134.472 668.614 133.028 659.225C132.162 653.586 131.147 647.882 130.004 642.219C130.004 642.219 118.796 617.713 94.672 614.791ZM146.109 643.918C146.262 644.962 146.405 646.008 146.544 647.058C146.406 646.008 146.262 644.962 146.109 643.918ZM146.557 647.148C144.081 649.439 142.045 652.736 140.521 656.067C138.021 661.531 136.893 666.775 136.893 666.775L136.858 666.766C138.156 676.382 139.122 685.562 139.8 693.811C139.809 693.847 139.88 694.061 139.88 694.061L139.818 694.079C141.211 711.108 141.45 722.096 141.509 725.397H142.189C147.921 719.651 151.123 681.958 146.553 647.148L146.557 647.148ZM114.579 673.097C122.22 691.908 129.927 710.569 133.937 725.383L138.753 725.392C138.691 722.058 138.451 711.268 137.085 694.509C136.809 693.594 134.965 687.864 130.246 682.356C126.711 678.23 121.714 674.377 114.579 673.097V673.097Z" fill="#3DB19D"/>
    <path d="M170.542 732.035H0.875549C0.875549 732.035 1.7491 723.971 17.7955 718.336C33.8418 712.701 32.9946 701.388 40.6385 695.916C48.2824 690.444 60.8753 690.607 69.2874 700.648C77.6995 710.689 80.9524 713.128 89.5169 707.194C98.0815 701.26 108.526 695.847 120.74 708.566C132.954 721.284 138.406 726.356 146.108 721.252C153.81 716.148 166.675 718.884 170.542 732.035V732.035Z" fill="#707787"/>
    <path d="M878.661 586.011C886.517 585.845 891.261 588.591 893.698 593.48C891.401 588.934 887.083 586.261 880.105 586.081C875.861 592.012 872.168 599.306 869.025 607.522C867.987 610.237 867.028 613.072 866.101 615.954L866.106 615.983L866.087 615.988C864.213 621.82 862.553 627.935 861.098 634.203C866.697 626.155 877.829 614.148 895.063 612.418C894.921 613.36 894.725 614.348 894.543 615.326C870.445 618.269 859.247 642.749 859.247 642.749C858.104 648.413 857.089 654.117 856.223 659.756C854.78 669.145 853.713 678.292 852.896 686.744C853.963 684.904 855.27 682.932 856.931 680.993C861.031 676.207 867.2 671.727 875.837 670.615C875.428 671.627 875.028 672.631 874.617 673.642C867.512 674.932 862.53 678.772 859.005 682.887C854.286 688.394 852.442 694.125 852.165 695.04C850.804 711.753 850.56 722.501 850.498 725.867L847.743 725.876C847.802 722.545 848.043 711.597 849.433 694.61L849.369 694.591C849.369 694.591 849.443 694.377 849.452 694.341C850.13 686.092 851.096 676.912 852.394 667.296L852.358 667.306C852.358 667.306 851.23 662.062 848.73 656.597C847.207 653.269 845.173 649.974 842.699 647.683C838.42 680.274 840.953 715.381 845.998 724.441C836 706.73 835.741 586.917 878.661 586.011L878.661 586.011ZM876.582 586.209C869.325 587.049 863.377 591.418 858.549 598.126C860.041 600.183 861.277 602.465 862.286 604.67C863.372 607.044 864.15 609.267 864.758 611.186C865.309 609.597 865.86 608.011 866.448 606.473C869.339 598.914 872.696 592.042 876.582 586.209V586.209ZM893.798 593.683C894.017 594.138 894.217 594.613 894.397 595.104C894.214 594.614 894.019 594.137 893.798 593.683ZM894.557 595.538C894.722 596.03 894.87 596.535 895 597.059C894.868 596.537 894.724 596.027 894.557 595.538ZM895.585 600.496C895.587 600.529 895.594 600.562 895.599 600.595C895.596 600.562 895.589 600.529 895.585 600.496ZM856.876 600.704C850.01 611.631 845.629 627.497 843.156 644.364C846.762 647.026 849.381 651.32 851.234 655.369C852.097 657.256 852.749 659.026 853.308 660.672C853.377 660.213 853.425 659.772 853.495 659.312C855.746 644.673 858.877 629.555 863.204 615.883C862.989 614.932 862.014 610.779 859.782 605.902C858.961 604.108 857.982 602.331 856.876 600.704H856.876ZM894.383 616.238C894.178 617.284 893.935 618.364 893.689 619.448C893.934 618.365 894.179 617.284 894.383 616.238ZM892.446 624.462C892.243 625.219 892.056 625.958 891.838 626.729C892.055 625.96 892.244 625.218 892.446 624.462ZM890.614 630.851C890.467 631.328 890.322 631.8 890.17 632.281C890.322 631.8 890.467 631.328 890.614 630.851ZM888.722 636.762C888.646 636.988 888.566 637.215 888.489 637.442C888.566 637.215 888.646 636.988 888.722 636.762ZM880.47 659.099C880.181 659.836 879.886 660.575 879.593 661.314C879.886 660.577 880.181 659.834 880.47 659.099ZM846.016 724.488C846.03 724.513 846.048 724.529 846.062 724.554C846.048 724.529 846.03 724.512 846.016 724.488Z" fill="white"/>
    <path d="M878.688 586.059C877.974 586.078 877.272 586.123 876.581 586.206C877.272 586.123 877.974 586.074 878.688 586.059ZM876.581 586.206C872.695 592.039 869.338 598.912 866.447 606.47C865.859 608.008 865.308 609.593 864.757 611.182C864.149 609.264 863.371 607.04 862.285 604.667C861.276 602.461 860.04 600.18 858.548 598.123C863.376 591.415 869.324 587.045 876.581 586.206ZM880.104 586.079C894.142 586.44 897.435 596.864 895.099 612.411C877.844 614.127 866.7 626.146 861.097 634.2C862.553 627.932 864.212 621.817 866.086 615.985L866.104 615.98L866.099 615.952C867.026 613.07 867.985 610.235 869.024 607.52C872.167 599.301 875.863 592.006 880.108 586.075L880.104 586.079ZM858.525 598.152C857.95 598.954 857.419 599.836 856.875 600.701C857.418 599.837 857.95 598.952 858.525 598.152ZM856.875 600.701C857.981 602.329 858.96 604.105 859.781 605.9C862.013 610.777 862.988 614.93 863.204 615.881C858.876 629.552 855.745 644.67 853.494 659.309C853.424 659.77 853.376 660.21 853.307 660.669C852.748 659.024 852.096 657.253 851.233 655.367C849.38 651.317 846.761 647.023 843.155 644.361C845.628 627.494 850.009 611.628 856.875 600.701H856.875ZM894.579 615.319C891.706 630.798 883.966 650.665 875.891 670.603C867.225 671.703 861.04 676.194 856.93 680.99C855.269 682.929 853.963 684.901 852.896 686.741C853.712 678.289 854.779 669.142 856.222 659.753C857.089 654.114 858.103 648.41 859.247 642.746C859.247 642.746 870.455 618.241 894.579 615.319ZM843.141 644.446C842.988 645.49 842.846 646.536 842.707 647.586C842.845 646.535 842.988 645.49 843.141 644.446ZM842.694 647.675C845.17 649.966 847.206 653.264 848.729 656.594C851.23 662.059 852.357 667.303 852.357 667.303L852.393 667.294C851.095 676.909 850.129 686.09 849.45 694.338C849.441 694.375 849.371 694.589 849.371 694.589L849.433 694.607C848.039 711.635 847.8 722.623 847.742 725.925H847.061C841.329 720.179 838.127 682.486 842.698 647.675L842.694 647.675ZM874.672 673.625C867.031 692.436 859.323 711.097 855.313 725.911L850.498 725.92C850.559 722.586 850.8 711.795 852.165 695.037C852.442 694.121 854.286 688.391 859.005 682.884C862.54 678.758 867.536 674.905 874.672 673.625V673.625Z" fill="#3DB19D"/>
    <path d="M829.449 732.035H899.599C905.85 723.577 894.861 718.278 885.217 718.278C869.273 718.278 865.598 726.527 858.86 721.668C847.207 713.264 833.316 718.884 829.449 732.035V732.035Z" fill="#707787"/>
    <path d="M409.462 167.987C444.364 167.987 472.657 138.749 472.657 102.682C472.657 66.614 444.364 37.3756 409.462 37.3756C374.559 37.3756 346.266 66.614 346.266 102.682C346.266 138.749 374.559 167.987 409.462 167.987Z" stroke="white" stroke-width="2.51302" stroke-linecap="round" stroke-linejoin="round"/>
    <path d="M699.048 716.988C699.048 716.988 702.817 728.153 699.593 732.02H665.635C665.635 732.02 663.863 727.238 682.151 726.334C682.151 726.334 688.465 722.276 690.017 714.911L699.048 716.988Z" fill="#FB5957"/>
    <path d="M821.713 719.335C821.713 719.335 825.482 730.501 822.258 734.367H788.3C788.3 734.367 786.528 729.585 804.816 728.681C804.816 728.681 811.13 724.623 812.682 717.258L821.713 719.335Z" fill="#FB5957"/>
    <path d="M714.939 495.323C714.939 495.323 684.769 583.027 686.674 715.491C686.674 715.491 692.311 720.882 701.273 717.047C701.273 717.047 722.421 599.614 752.194 539.709C752.194 539.709 768.399 623.359 808.524 720.278C808.524 720.278 816.093 725.576 823.508 720.278C823.508 720.278 796.565 600.401 807.055 496.594L714.939 495.323Z" fill="#4A91BB"/>
    <path d="M869.454 422.869C869.454 422.869 870.437 415.294 868.847 410.327C867.748 406.894 872.686 408.573 873.232 415.126C873.232 415.126 874.709 417.463 886.012 411.244C887.903 410.204 888.343 414.475 879.652 418.106C876.858 419.273 875.484 420.951 874.907 422.69C873.689 426.358 873.417 427.38 873.417 427.38L869.454 422.869Z" fill="#FAD2BA"/>
    <path d="M882.46 413.714C882.46 413.714 884.096 410.292 884.315 408.128C884.425 407.045 882.595 407.207 881.196 411.185C879.796 415.163 875.435 416.022 875.435 416.022L882.46 413.714Z" fill="#FAD2BA"/>
    <path d="M771.663 358.385C771.663 358.385 747.282 474.832 776.354 522.673C776.354 522.673 803.716 525.712 814.062 510.524C824.407 495.337 804.704 467.309 806.346 444.491C806.346 444.491 813.451 454.311 821.343 473.013C841.738 502.436 872.2 435.487 874.119 425.713L869.715 421.389C869.715 421.389 854.293 430.537 837.449 451.704C837.449 451.704 843.397 360.759 771.663 358.385V358.385Z" fill="#707886"/>
    <path d="M624.923 359.856C624.923 359.856 623.329 350.996 627.796 344.436C632.263 337.877 623.227 342.203 621.454 347.667C621.454 347.667 619.573 347.534 615.214 344.425C611.601 341.851 610.514 347.418 612.628 348.055C612.628 348.055 610.937 347.277 610.892 350.41C610.846 353.543 610.12 357.388 612.335 358.242C614.55 359.096 619.326 358.475 620.221 361.584C621.116 364.693 624.923 359.856 624.923 359.856Z" fill="#FAD2BA"/>
    <path d="M736.315 359.817C736.315 359.817 725.099 472.703 733.576 515.248C733.576 515.248 705.065 526.088 701.26 501.597C697.454 477.106 720.152 400.924 712.2 400.924C704.247 400.924 681.389 428.168 660.542 426.747C639.695 425.325 634.311 415.664 619.982 361.766L625.413 357.956C625.413 357.956 650.193 382.228 655.817 400.631C655.817 400.631 707.356 357.754 736.315 359.817V359.817Z" fill="#707886"/>
    <path d="M726.94 301.287C726.94 301.287 721.617 330.396 734.412 344.497C747.207 358.599 769.764 320.24 769.764 320.24L757.723 299.199L726.94 301.287Z" fill="#FAD2BA"/>
    <path d="M719.878 295.465C719.878 295.465 724.886 308.996 744.478 304.246C764.07 299.497 760.671 314.169 758.294 318.942C755.916 323.714 756.02 325.075 757.134 326.28C758.702 327.976 764.228 319.023 765.574 321.656C766.882 324.216 756.169 332.194 757.722 334.293C759.275 336.393 767.063 329.938 771.585 324.157C776.108 318.376 777.226 306.01 770.984 303.443C770.984 303.443 774.705 283.936 752.333 286.641C729.961 289.346 735.806 277.135 726.623 276.983C717.44 276.83 714.232 285.037 719.878 295.465V295.465Z" fill="#707886"/>
    <path d="M752.039 545.356C752.039 545.356 749.37 525.238 749.037 517.317" stroke="white" stroke-width="0.28459" stroke-linecap="round" stroke-linejoin="round"/>
    <path d="M768.839 360.396C768.839 360.396 745.73 373.181 738.211 362.001" stroke="white" stroke-width="0.28459" stroke-linecap="round" stroke-linejoin="round"/>
    <path d="M804.017 503.51C804.017 503.51 785.199 504.89 781.667 486.902" stroke="white" stroke-width="0.28459" stroke-linecap="round" stroke-linejoin="round"/>
    <path d="M740.941 347.812C740.941 347.812 750.947 347.681 756.834 337.951" stroke="white" stroke-width="0.28459" stroke-linecap="round" stroke-linejoin="round"/>
    <path d="M733.576 515.248C733.576 515.248 705.065 526.088 701.26 501.597C697.454 477.106 720.152 400.924 712.2 400.924C704.247 400.924 681.389 428.168 660.542 426.747C639.695 425.325 634.311 415.664 619.982 361.766L625.413 357.956C625.413 357.956 650.193 382.228 655.817 400.631C655.817 400.631 707.356 357.754 736.315 359.817" stroke="white" stroke-width="0.28459" stroke-linecap="round" stroke-linejoin="round"/>
    <path d="M764.579 288.071C761.788 286.659 757.856 285.973 752.333 286.641C729.961 289.346 735.806 277.135 726.623 276.983C717.44 276.83 714.232 285.037 719.878 295.465C719.878 295.465 721.463 299.747 726.337 302.647" stroke="white" stroke-width="0.28459" stroke-linecap="round" stroke-linejoin="round"/>
    <path d="M411.239 419.987C411.239 419.987 407.896 473.803 420.098 475.154C432.3 476.504 448.715 464.787 448.715 464.787L445.455 444.373L437.319 448.414C437.319 448.414 442.72 428.831 440.79 423.819C438.859 418.807 411.239 419.987 411.239 419.987V419.987Z" stroke="white" stroke-width="0.28459" stroke-linecap="round" stroke-linejoin="round"/>
    <path d="M491.941 360.071C491.941 360.071 521.918 368.096 544.464 424.525C544.464 424.525 554.206 403.639 564.571 389.138L571.64 391.778C571.64 391.778 568.011 456.337 546.62 456.125C525.228 455.913 510.894 420.758 510.894 420.758C510.894 420.758 514.309 461.594 510.54 476.54H447.367C447.367 476.54 444.371 423.712 437.001 418.689L491.941 360.071Z" fill="#915DB9"/>
    <path d="M530.893 710.498C530.893 710.498 539.541 724.622 546.372 727.259C553.203 729.896 533.202 728.604 533.202 728.604L516.204 722.228C516.204 722.228 515.666 715.519 519.51 712.053C523.354 708.587 530.893 710.498 530.893 710.498Z" fill="#FAD2BA"/>
    <path d="M464.291 710.558C464.291 710.558 472.94 724.682 479.771 727.319C486.602 729.956 466.601 728.664 466.601 728.664L449.603 722.288C449.603 722.288 448.992 713.988 452.836 710.522C456.68 707.056 464.291 710.559 464.291 710.559V710.558Z" fill="#FAD2BA"/>
    <path d="M448.376 718.603C448.376 718.603 470.858 729.589 473.514 727.584C476.169 725.578 474.612 722.985 474.612 722.985C474.612 722.985 487.688 731.044 493.503 730.99C499.318 730.935 487.633 736.837 478.181 734.687C468.729 732.537 455.254 727.217 455.254 727.217L455.526 733.99L452.133 733.953C452.133 733.953 453.192 730.456 449.683 725.909C446.173 721.362 448.376 718.607 448.376 718.607V718.603Z" fill="#915DB9"/>
    <path d="M510.54 476.54C510.54 476.54 537.547 511.515 530.893 710.498C530.893 710.498 526.498 715.888 519.51 712.053C519.51 712.053 504.809 600.204 483.374 552.569C483.374 552.569 475.08 610.353 464.291 710.558C464.291 710.558 458.39 715.856 452.609 710.558C452.609 710.558 417.687 526.042 447.367 476.54H510.54Z" fill="#FB5957"/>
    <path d="M447.367 476.54C447.367 476.54 444.371 423.712 437.001 418.689L491.941 360.071C491.941 360.071 521.918 368.096 544.464 424.525C544.464 424.525 554.206 403.639 564.571 389.138L571.64 391.779C571.64 391.779 568.011 456.337 546.62 456.125C525.228 455.913 510.894 420.758 510.894 420.758C510.894 420.758 514.309 461.594 510.539 476.54" stroke="white" stroke-width="0.28459" stroke-linecap="round" stroke-linejoin="round"/>
    <path d="M501.053 307.713C501.053 307.713 512.211 353.294 491.114 352.695C470.016 352.095 483.077 321.492 483.077 321.492L501.053 307.713Z" fill="#FAD2BA"/>
    <path d="M503.923 301.337C503.923 301.337 507.207 309.712 491.451 324.426C475.695 339.14 505.523 342.141 491.895 365.766C478.267 389.392 496.433 423.059 455.752 432.08C415.07 441.101 368.201 403.732 418.703 357.913C443.791 335.153 435.014 321.611 453.002 298.069C466.267 280.707 495.609 279.171 503.923 301.337H503.923Z" fill="#707886"/>
    <path d="M484.671 557.668C482.005 549.378 471.282 533.663 471.858 510.301" stroke="white" stroke-width="0.28459" stroke-linecap="round" stroke-linejoin="round"/>
    <path d="M514.977 718.543C514.977 718.543 537.459 729.529 540.115 727.523C542.77 725.518 541.213 722.925 541.213 722.925C541.213 722.925 554.289 730.984 560.104 730.93C565.92 730.875 554.234 736.777 544.782 734.627C535.33 732.477 521.855 727.157 521.855 727.157L522.128 733.93L518.735 733.893C518.735 733.893 519.794 730.396 516.284 725.849C512.775 721.302 514.977 718.546 514.977 718.546L514.977 718.543Z" fill="#915DB9"/>
    <path d="M867.382 321.904C882.099 321.904 894.03 309.575 894.03 294.367C894.03 279.158 882.099 266.829 867.382 266.829C852.665 266.829 840.735 279.158 840.735 294.367C840.735 309.575 852.665 321.904 867.382 321.904Z" fill="white"/>
    <path d="M867.356 266.829C860.456 266.836 853.842 269.741 848.965 274.904C844.089 280.068 841.35 287.068 841.35 294.367C841.35 299.644 842.783 304.811 845.48 309.251C848.177 313.692 852.023 317.219 856.56 319.412V285.505H859.667H875.094V268.066C872.596 267.246 869.996 266.829 867.38 266.829C867.372 266.829 867.364 266.829 867.356 266.829V266.829ZM878.2 269.321V319.412C882.738 317.219 886.584 313.692 889.281 309.251C891.977 304.811 893.411 299.644 893.411 294.367C893.411 289.089 891.977 283.923 889.281 279.482C886.584 275.042 882.738 271.515 878.2 269.321V269.321ZM859.667 288.715V320.667C862.165 321.487 864.765 321.904 867.38 321.904C869.996 321.904 872.596 321.487 875.094 320.667V288.715H859.667Z" fill="#3DB19E"/>
    <path d="M207.385 252.146C262.556 252.146 307.281 205.927 307.281 148.913C307.281 91.8997 262.556 45.681 207.385 45.681C152.213 45.681 107.488 91.8997 107.488 148.913C107.488 205.927 152.213 252.146 207.385 252.146Z" fill="white"/>
    <path d="M207.385 234.039C252.879 234.039 289.759 195.927 289.759 148.913C289.759 101.9 252.879 63.788 207.385 63.788C161.89 63.788 125.01 101.9 125.01 148.913C125.01 195.927 161.89 234.039 207.385 234.039Z" fill="#4A91BB"/>
    <path d="M243.824 188.433L242.732 188.417L242.472 188.369L242.212 188.321L241.691 188.151L241.17 187.981L240.658 187.717L240.146 187.453L239.604 186.923L239.061 186.394L238.739 185.77L238.417 185.146L238.269 184.562L238.123 183.979L238.176 177.609L238.229 171.24H238.255H238.282L239.043 171.078L239.805 170.917L240.037 170.863L240.27 170.808L240.252 177.341L240.235 183.874L240.49 184.412L240.746 184.95L241.243 185.453L241.74 185.955L242.339 186.189L242.938 186.422L243.719 186.477L244.5 186.532L245.379 186.36L246.258 186.188L246.991 185.826L247.725 185.464L248.181 185.068L248.638 184.67L248.99 184.193L249.341 183.716L249.531 183.256L249.72 182.795L249.855 182.257L249.99 181.719L250.052 176.565L250.114 171.411L251.048 171.169L251.981 170.926L251.999 170.941L252.016 170.957L251.924 179.327L251.832 187.696L251.806 187.722L251.779 187.749L251.104 187.88L250.428 188.012L250.194 188.067L249.96 188.122V186.419V184.716L249.57 185.399L249.18 186.081L248.51 186.728L247.841 187.375L247.103 187.738L246.365 188.1L245.64 188.259L244.915 188.418L243.824 188.433ZM204.017 188.226L203.901 188.231L203.839 187.666L203.777 187.102L203.777 181.33L203.776 175.558L203.677 175.288L203.578 175.019L203.208 174.596L202.838 174.173L202.293 173.926L201.747 173.68L200.858 173.632L199.969 173.584L199.402 173.706L198.834 173.827L198.294 174.087L197.753 174.347L197.27 174.806L196.787 175.265L196.597 175.651L196.407 176.037L196.336 181.733L196.265 187.429L194.33 187.778L192.394 188.129L192.263 188.126L192.132 188.123L192.159 176.488L192.186 164.853L194.058 164.398L195.931 163.943L196.166 163.939L196.4 163.935V167.091V170.247L195.38 171.311L194.361 172.375L194.005 172.858L193.648 173.341L193.802 173.216L193.957 173.091L195.362 172.005L196.766 170.918L197.289 170.651L197.811 170.383L198.589 170.21L199.367 170.038L200.668 170.035L201.968 170.032L202.593 170.162L203.217 170.29L203.892 170.512L204.568 170.733L205.389 171.168L206.211 171.604L206.824 172.191L207.439 172.779L207.694 173.231L207.95 173.683L207.923 180.603L207.896 187.523L206.024 187.869L204.151 188.214L204.035 188.219L204.017 188.226ZM265.896 188.231H265.804L263.219 184.468L260.635 180.704L260.573 180.786L260.511 180.868L258.501 183.717L256.491 186.567L255.932 187.349L255.374 188.131L254.744 187.673L254.114 187.216L254.07 187.091L254.025 186.966L256.791 183.023L259.557 179.08L259.486 178.953L259.416 178.826L257.061 175.6L254.706 172.375L254.626 172.236L254.546 172.097L254.836 171.86L255.124 171.622L255.506 171.329L255.888 171.036L258.26 174.205L260.633 177.375H260.65H260.668L262.746 174.369L264.824 171.364L264.903 171.36L264.983 171.356L265.603 171.912L266.223 172.469L266.179 172.595L266.135 172.721L263.978 175.774L261.821 178.827L261.722 178.958L261.623 179.09L264.432 183.169L267.241 187.249L266.628 187.741L266.014 188.234H265.922L265.896 188.231ZM154.713 187.966L153.569 188.003L153.076 187.908L152.584 187.814L152.037 187.63L151.489 187.447L150.761 187.061L150.031 186.676L149.346 185.972L148.661 185.27L148.281 184.464L147.901 183.657L147.723 182.959L147.545 182.261L147.547 180.863L147.548 179.466L147.781 178.778L148.014 178.091L148.36 177.541L148.706 176.991L149.109 176.594L149.511 176.196L150.123 175.818L150.734 175.439L151.528 175.173L152.321 174.906L152.945 174.777L153.57 174.648L154.818 174.632L156.067 174.616L156.803 174.855L157.539 175.093L158.042 175.489L158.544 175.886L158.473 175.309L158.402 174.733L158.226 174.424L158.049 174.115L157.731 173.912L157.414 173.707L156.799 173.542L156.185 173.377H155.281H154.377L153.145 173.594L151.912 173.811L150.787 174.088L149.662 174.366L149.626 174.329L149.591 174.292L149.945 172.304L150.3 170.316L150.353 170.083L150.406 169.849L151.316 169.633L152.227 169.416L152.955 169.305L153.684 169.194L154.776 169.13L155.869 169.066L156.974 169.189L158.079 169.313L158.846 169.532L159.612 169.752L160.237 170.092L160.861 170.432L161.44 171.026L162.02 171.619L162.296 172.21L162.573 172.801L162.729 173.446L162.884 174.091L162.911 175.112L162.938 176.134L162.911 181.728L162.884 187.323L161.142 187.616L159.399 187.909L159.217 187.907L159.035 187.906V187.593V187.28L159.41 186.815L159.786 186.349L160.229 185.703L160.672 185.057L161.018 184.412L161.364 183.767L160.086 185.134L158.809 186.502L158.167 186.938L157.525 187.373L156.694 187.648L155.862 187.922L154.713 187.966ZM154.925 184.033L155.345 184.037L155.958 183.871L156.571 183.706L157.084 183.417L157.596 183.128L157.941 182.713L158.286 182.296L158.408 181.773L158.529 181.249L158.459 180.895L158.388 180.54L158.202 180.164L158.016 179.787L157.72 179.498L157.424 179.209L156.8 178.914L156.176 178.619L155.334 178.572L154.492 178.524L153.892 178.705L153.292 178.885L152.914 179.135L152.537 179.385L152.256 179.693L151.976 180.001L151.814 180.401L151.652 180.801V181.223V181.644L151.944 182.22L152.236 182.797L152.751 183.202L153.265 183.608L153.889 183.815L154.514 184.022L154.933 184.026L154.925 184.033ZM165.82 187.94L165.481 188.005V179.051V170.098L167.224 169.796L168.966 169.495L169.252 169.44L169.537 169.385V170.711V172.036L170.252 171.262L170.966 170.488L171.526 170.223L172.086 169.958L172.71 169.792L173.334 169.628L174.322 169.522L175.311 169.415L175.903 169.413L176.496 169.411L176.165 170.232L175.834 171.053L175.262 172.351L174.69 173.649L173.894 173.776L173.098 173.903L172.697 174.035L172.298 174.167L171.763 174.477L171.228 174.788L170.794 175.236L170.36 175.685L170.185 176.015L170.009 176.344L169.956 181.719L169.903 187.095L168.031 187.479L166.158 187.862L165.82 187.94ZM184.209 187.956L182.908 187.993L182.26 187.899L181.612 187.804L180.978 187.636L180.345 187.468L179.656 187.183L178.968 186.897L178.355 186.528L177.742 186.156L177.022 185.453L176.301 184.75L175.839 183.984L175.376 183.217L175.117 182.506L174.858 181.795L174.684 180.841L174.511 179.887L174.573 178.274L174.634 176.662L174.799 175.976L174.963 175.291L175.237 174.578L175.512 173.866L175.87 173.275L176.229 172.683L176.713 172.159L177.197 171.635L177.874 171.176L178.551 170.716L179.191 170.448L179.832 170.179L180.491 170.009L181.151 169.839L182.191 169.724L183.231 169.61L184.22 169.674L185.208 169.738L186.11 169.937L187.012 170.135L187.804 170.476L188.597 170.816L189.346 171.327L190.096 171.838L190.382 172.154L190.667 172.47L189.304 174.105L187.94 175.74L187.591 175.424L187.242 175.108L186.795 174.84L186.349 174.573L185.673 174.335L184.998 174.098L184.113 174.094L183.229 174.091L182.657 174.228L182.085 174.366L181.344 174.728L180.603 175.09L180.026 175.734L179.448 176.378L179.221 176.999L178.995 177.621L178.942 178.427L178.889 179.234L179.054 179.961L179.219 180.688L179.494 181.248L179.769 181.809L180.407 182.467L181.044 183.124L181.735 183.464L182.425 183.804L183.192 183.926L183.958 184.049L184.719 183.915L185.481 183.782L186.176 183.422L186.871 183.062L187.443 182.535L188.015 182.007L189.41 183.376L190.804 184.745L190.294 185.31L189.784 185.874L189.148 186.344L188.513 186.813L187.848 187.135L187.182 187.456L186.35 187.681L185.518 187.907L184.218 187.944L184.209 187.956ZM233.654 187.972L233.42 188.036L233.482 181.755L233.544 175.474L233.275 174.87L233.007 174.267L232.573 173.78L232.139 173.293L231.69 173.02L231.24 172.749L230.637 172.586L230.033 172.423L229.3 172.426L228.567 172.428L227.838 172.585L227.11 172.742L226.249 173.181L225.387 173.62L224.716 174.27L224.045 174.919L223.723 175.594L223.402 176.27L223.34 181.865L223.278 187.46L222.353 187.697L221.428 187.934L221.366 187.869L221.305 187.805L221.375 179.478L221.446 171.151L222.29 170.977L223.135 170.804L223.278 170.804L223.421 170.804L223.377 172.471L223.333 174.137H223.35H223.368L223.765 173.435L224.162 172.733L224.688 172.218L225.214 171.704L225.722 171.397L226.231 171.09L226.919 170.825L227.608 170.56L229.065 170.512L230.521 170.465L231.223 170.635L231.926 170.805L232.56 171.136L233.193 171.466L233.647 171.898L234.102 172.33L234.431 172.86L234.76 173.39L234.956 174.044L235.154 174.699V178.435V182.171L235.092 184.92L235.03 187.668L234.448 187.788L233.867 187.908L233.632 187.972L233.654 187.972ZM216.65 187.861L216.474 187.916L216.518 181.971L216.563 176.026L216.624 173.734L216.686 171.443L217.272 171.172L217.859 170.9L218.107 170.8L218.356 170.699L218.294 174.115L218.232 177.532L218.17 182.547L218.108 187.562L217.471 187.687L216.833 187.812L216.65 187.861ZM211.529 187.757L211.226 187.821L211.288 183.32L211.35 178.819L211.412 171.642L211.474 164.465L211.848 164.364L212.221 164.264L212.834 164.102L213.446 163.94L213.384 168.262L213.322 172.583L213.26 180.02L213.198 187.457L212.511 187.575L211.823 187.693L211.529 187.757ZM218.066 166.165L217.434 166.711L216.889 166.072L216.344 165.434L216.398 165.352L216.451 165.27L217.074 164.763L217.697 164.257L218.199 164.857L218.7 165.456V165.538V165.62L218.066 166.165ZM175.183 163.733L174.845 163.946V163.898V163.851L176.313 161.12L177.781 158.39L180.877 152.584L183.973 146.779L186.261 142.424L188.549 138.07L189.748 135.758L190.946 133.447L192.401 130.598L193.856 127.749L195.606 124.254L197.356 120.76L198.684 117.942L200.011 115.124L201.161 116.016L202.311 116.908L203.638 117.722L204.964 118.536L206.447 119.301L207.93 120.068L208.785 120.441L209.64 120.814H209.684H209.728L208.388 119.788L207.049 118.752L206.476 118.259L205.904 117.767L205.02 116.959L204.136 116.151L202.601 114.598L201.066 113.045V112.95V112.855L201.91 110.948L202.753 109.042L203.741 106.677L204.728 104.312L205.644 102L206.562 99.6884L207.931 96.1942L209.299 92.7L209.37 92.6269L209.441 92.5538L209.845 93.5474L210.248 94.5412L212.246 99.3794L214.244 104.218L215.078 106.153L215.912 108.088L216.975 110.453L218.037 112.819L220.195 117.343L222.352 121.867L224.361 125.89L226.369 129.913L228.865 134.805L231.361 139.697L232.92 142.708L234.479 145.718L235.1 146.928L235.722 148.137L234.992 147.702L234.262 147.268L233.032 146.698L231.802 146.129L230.449 145.627L229.096 145.126L227.857 144.749L226.617 144.373L226.582 144.41L226.546 144.446L227.823 145.175L229.099 145.904L230.4 146.76L231.7 147.617L232.793 148.437L233.885 149.258L236.018 151.024L238.15 152.789L240.995 158.219L243.84 163.649L243.893 163.792L243.946 163.934L242.203 162.909L240.461 161.884L238.318 160.692L236.175 159.499L233.834 158.303L231.493 157.106L229.88 156.37L228.267 155.634L226.707 154.988L225.146 154.343L223.145 153.652L221.143 152.96L219.302 152.482L217.462 152.004H217.27H217.077L217.024 151.863L216.971 151.721L217.124 150.815L217.277 149.908L217.339 148.457L217.4 147.005L217.282 145.715L217.164 144.425L216.954 143.35L216.745 142.275L216.394 141.183L216.043 140.092L215.608 139.194L215.173 138.296L214.727 137.597L214.28 136.898L213.555 136.145L212.829 135.392L212.264 135.042L211.699 134.691L211.096 134.473L210.493 134.254L209.833 134.19L209.174 134.126L208.518 134.256L207.863 134.387L207.103 134.771L206.343 135.154L205.585 135.886L204.827 136.618L204.282 137.431L203.738 138.245L203.283 139.237L202.829 140.23L202.571 141.051L202.312 141.872L202.101 142.879L201.891 143.886L201.767 145.114L201.643 146.341L201.705 147.963L201.767 149.584L201.934 150.552L202.101 151.519L202.154 151.686L202.207 151.852L200.881 152.151L199.554 152.449L197.893 152.936L196.233 153.423L194.824 153.937L193.415 154.45L192.167 154.959L190.918 155.468L189.254 156.221L187.589 156.975L185.508 158.016L183.427 159.058L181.035 160.381L178.642 161.705L177.081 162.617L175.52 163.528L175.183 163.733Z" fill="white"/>
    <path d="M219.727 283.139C219.727 277.965 215.668 273.771 210.661 273.771C205.655 273.771 201.596 277.965 201.596 283.139V431.89C201.596 437.063 205.655 441.258 210.661 441.258C215.668 441.258 219.727 437.063 219.727 431.89V283.139Z" fill="white"/>
    <path d="M255.988 337.466C255.988 332.292 251.929 328.098 246.923 328.098C241.916 328.098 237.857 332.292 237.857 337.466V431.889C237.857 437.063 241.916 441.257 246.923 441.257C251.929 441.257 255.988 437.063 255.988 431.889V337.466Z" fill="white"/>
    <path d="M292.249 312.794C292.249 307.62 288.191 303.426 283.184 303.426C278.177 303.426 274.119 307.62 274.119 312.794V431.889C274.119 437.063 278.177 441.257 283.184 441.257C288.191 441.257 292.249 437.063 292.249 431.889V312.794Z" fill="white"/>
    <path d="M328.51 395.165C328.51 389.992 324.452 385.797 319.445 385.797C314.438 385.797 310.38 389.992 310.38 395.165V431.889C310.38 437.063 314.438 441.257 319.445 441.257C324.452 441.257 328.51 437.063 328.51 431.889V395.165Z" fill="white"/>
    <path d="M345.896 458.204H100.596C97.0214 458.204 94.1233 461.199 94.1233 464.893V530.466C94.1233 534.16 97.0214 537.155 100.596 537.155H345.896C349.471 537.155 352.369 534.16 352.369 530.466V464.893C352.369 461.199 349.471 458.204 345.896 458.204Z" fill="#FEB661"/>
    <path d="M327.274 507.048C332.281 507.048 336.34 502.853 336.34 497.68C336.34 492.506 332.281 488.312 327.274 488.312H119.218C114.211 488.312 110.153 492.506 110.153 497.68C110.153 502.853 114.211 507.048 119.218 507.048H327.274Z" fill="white"/>
    <path d="M119.217 488.309C114.194 488.309 110.152 492.492 110.152 497.682C110.152 500.159 111.091 502.389 112.601 504.061L121.405 488.309H119.217ZM133.545 488.309L123.073 507.049H135.213L145.685 488.309H133.545ZM157.82 488.309L147.348 507.049H159.487L169.959 488.309H157.82ZM182.099 488.309L171.627 507.049H183.767L194.239 488.309H182.099ZM206.379 488.309L195.907 507.049H208.046L218.518 488.309H206.379ZM230.658 488.309L220.186 507.049H232.326L242.798 488.309H230.658ZM254.938 488.309L244.465 507.049H256.605L267.077 488.309H254.938ZM279.217 488.309L268.745 507.049H280.885L291.357 488.309H279.217ZM303.496 488.309L293.024 507.049H305.164L315.636 488.309H303.496ZM327.744 488.362L317.304 507.05H327.273C328.102 507.05 328.888 506.895 329.649 506.682L336.009 495.298C335.028 491.432 331.749 488.577 327.744 488.362Z" fill="#707886"/>
    <path d="M164.657 558.335C174.82 558.335 183.059 549.821 183.059 539.319C183.059 528.817 174.82 520.303 164.657 520.303C154.494 520.303 146.255 528.817 146.255 539.319C146.255 549.821 154.494 558.335 164.657 558.335Z" fill="#4A91BB"/>
    <path d="M597.454 436.877L589.782 437.623V470.37L597.364 469.157V455.349L599.741 458.894L605.006 466.824L606.841 469.624L607.654 470.634L609.91 469.934L615.506 468.131C615.396 467.051 613.865 465.548 613.234 464.679C611.34 462.067 609.541 459.378 607.669 456.748C607.029 455.85 606.373 454.958 605.758 454.043C605.629 453.851 605.181 453.415 605.201 453.172C605.227 452.862 605.732 452.42 605.909 452.177C606.481 451.388 607.097 450.633 607.669 449.844C609.471 447.36 611.345 444.925 613.189 442.474C613.898 441.532 615.304 440.266 615.596 439.115L609.82 437.732L607.488 437.265L606.676 438.275L604.871 440.794L599.681 447.978L597.454 451.15H597.364L597.454 436.877ZM580.02 444.849C579.929 444.853 579.843 444.875 579.763 444.931C578.863 445.538 578.087 446.632 577.326 447.419C577.089 447.665 576.558 448.041 576.634 448.445C576.728 448.941 577.227 449.506 577.477 449.938C578.089 450.998 578.715 452.05 579.327 453.11C579.56 453.514 580.293 454.312 580.094 454.789C579.764 455.58 579.329 456.298 579.041 457.121C578.941 457.411 578.865 457.937 578.59 458.101C578.153 458.362 577.371 458.352 576.875 458.46C575.792 458.692 574.712 458.941 573.626 459.158C573.169 459.251 572.086 459.294 571.926 459.827C571.769 460.352 571.911 461.143 571.911 461.693C571.911 462.293 571.617 464.117 572.03 464.554C572.343 464.885 573.206 464.928 573.625 465.036C574.767 465.331 575.913 465.612 577.055 465.907C577.447 466.008 578.083 466.04 578.409 466.296C578.692 466.518 578.724 467.056 578.83 467.385C579.131 468.319 579.766 469.265 579.988 470.184C580.081 470.565 579.422 471.261 579.236 471.583C578.612 472.663 577.89 473.696 577.235 474.755C576.986 475.159 576.482 475.67 576.423 476.155C576.368 476.613 576.776 476.893 577.055 477.181C577.775 477.926 578.669 479.288 579.582 479.747C579.897 479.905 580.231 479.608 580.485 479.451C581.331 478.929 582.166 478.388 583.012 477.865L584.908 476.684C585.119 476.553 585.464 476.218 585.72 476.232C586.053 476.248 586.504 476.645 586.803 476.791C587.505 477.134 588.523 477.237 589.15 477.693C589.495 477.944 589.525 478.828 589.601 479.233C589.847 480.536 590.088 481.858 590.383 483.151C590.498 483.656 590.491 484.612 591.06 484.815C591.545 484.987 592.336 484.831 592.851 484.831C593.435 484.831 594.857 485.104 595.348 484.783C595.758 484.515 595.799 483.772 595.904 483.337C596.235 481.97 596.551 480.599 596.882 479.232C596.974 478.849 597.025 477.916 597.364 477.693C598.122 477.192 599.251 477.027 600.072 476.604C600.394 476.438 600.782 476.092 601.155 476.262C602.592 476.923 603.994 478.172 605.307 479.077C605.682 479.335 606.447 480.1 606.931 479.947C607.436 479.787 607.921 479.048 608.285 478.672C608.818 478.121 609.968 477.303 610.165 476.526C610.252 476.189 609.888 475.769 609.729 475.5C609.28 474.741 608.828 473.481 608.179 472.903C607.78 472.545 607.405 473.167 607.021 472.608C606.325 471.593 605.68 470.537 604.975 469.529C604.705 469.142 604.501 468.55 604.043 468.409C603.413 470.177 601.785 471.749 600.342 472.826C593.416 477.996 583.198 474.032 581.328 465.331C580.537 461.652 581.411 457.744 583.674 454.788C584.47 453.75 585.406 452.887 586.442 452.114C586.885 451.784 587.927 451.499 588.202 451.041C588.333 450.825 588.249 450.37 588.249 450.123V447.791C587.591 447.934 586.664 448.777 586.052 448.755C585.674 448.739 585.041 448.1 584.728 447.884C583.651 447.142 582.558 446.42 581.479 445.676C581.129 445.435 580.511 444.825 580.021 444.847L580.02 444.849Z" fill="#FAFEFF"/>
    <path d="M620.558 60.619C636.505 60.619 649.433 47.2595 649.433 30.7797C649.433 14.2999 636.505 0.94043 620.558 0.94043C604.61 0.94043 591.683 14.2999 591.683 30.7797C591.683 47.2595 604.61 60.619 620.558 60.619Z" fill="#4A91BB"/>
    <path d="M630.073 13.611C627.308 14.0797 625.161 15.9901 624.532 18.887C624.153 20.6327 624.265 23.8578 626.743 23.6029C627.678 23.5034 628.569 22.9551 629.304 22.3881C630.926 21.135 632.412 19.3941 633.172 17.4319C633.485 16.6233 633.748 15.5696 633.347 14.7413C632.805 13.6196 631.149 13.4285 630.072 13.6121L630.073 13.611ZM619.743 14.8468C617.353 15.2753 617.095 18.2909 617.694 20.2551C617.938 21.0564 618.543 22.52 619.572 22.3625C620.295 22.2511 620.775 21.4468 621.075 20.8284C621.679 19.5863 622.128 17.9917 621.903 16.594C621.711 15.4052 620.963 14.6278 619.743 14.8468H619.743ZM613.212 17.5828C610.891 18.1209 611.272 21.1 612.231 22.6811C612.601 23.2896 613.333 24.2718 614.151 24.0743C614.784 23.9217 615.033 23.0728 615.17 22.5046C615.46 21.2934 615.433 19.8767 614.978 18.7112C614.679 17.9447 614.052 17.3877 613.212 17.5832L613.212 17.5828ZM608.388 21.8166C608.116 21.8805 607.88 21.9938 607.663 22.1692C606.176 23.3754 607.083 25.7566 608.303 26.8007C608.702 27.1424 609.276 27.6284 609.84 27.517C610.551 27.3762 610.651 26.477 610.651 25.8581C610.651 24.7425 610.441 23.5266 609.81 22.5939C609.483 22.1097 608.998 21.6958 608.389 21.8173L608.388 21.8166ZM621.493 25.0815C620.571 25.2377 619.641 25.2688 618.718 25.479C614.92 26.3424 610.53 28.5586 609.387 32.7398C608.797 34.8965 609.233 37.138 610.128 39.1358C611.587 42.3921 614.21 45.0172 617.352 46.513C619.215 47.3993 621.474 47.7645 623.456 47.1197C625.875 46.333 627.893 44.411 628.952 42.047C629.462 40.9091 630.015 39.2004 628.493 38.6651C628.232 38.5738 627.956 38.5052 627.682 38.4778C626.564 38.3664 625.315 38.5692 624.31 39.0818C623.911 39.2865 623.513 39.5121 623.289 39.9297C623.071 40.3344 623.237 40.8123 623.196 41.253C623.113 42.1128 622.593 42.9552 621.748 43.1756C620.345 43.5419 618.529 42.1741 618.12 40.8118C617.634 39.193 619.601 37.8713 620.681 37.1067C622.376 35.9067 624.199 34.9142 625.846 33.6379C626.833 32.8723 627.804 31.9821 628.396 30.8431C628.618 30.4146 628.794 29.9162 628.835 29.4316C628.876 28.9638 628.886 28.5271 628.774 28.0642C628.215 25.7758 625.447 25.3012 623.541 25.1053C622.9 25.0413 622.133 24.9738 621.493 25.0777V25.0815Z" fill="white"/>
    <path d="M614.01 136.194H618.885V137.303H612.646V127.017H614.01V136.194ZM621.647 137.303H620.34V129.659H621.647V137.303ZM620.234 127.632C620.234 127.42 620.297 127.241 620.425 127.095C620.556 126.949 620.75 126.876 621.004 126.876C621.258 126.876 621.451 126.949 621.583 127.095C621.715 127.241 621.781 127.42 621.781 127.632C621.781 127.844 621.715 128.02 621.583 128.162C621.451 128.303 621.258 128.374 621.004 128.374C620.75 128.374 620.556 128.303 620.425 128.162C620.297 128.02 620.234 127.844 620.234 127.632ZM624.981 129.659L625.024 130.62C625.608 129.885 626.371 129.518 627.313 129.518C628.928 129.518 629.743 130.429 629.757 132.252V137.303H628.45V132.245C628.445 131.694 628.318 131.287 628.069 131.023C627.824 130.759 627.44 130.627 626.917 130.627C626.493 130.627 626.121 130.74 625.801 130.966C625.481 131.192 625.231 131.489 625.052 131.856V137.303H623.745V129.659H624.981ZM636.447 136.547C635.938 137.145 635.192 137.445 634.208 137.445C633.393 137.445 632.771 137.209 632.343 136.738C631.919 136.262 631.704 135.561 631.7 134.633V129.659H633.007V134.597C633.007 135.756 633.478 136.335 634.42 136.335C635.418 136.335 636.082 135.963 636.412 135.219V129.659H637.719V137.303H636.475L636.447 136.547ZM642.275 132.45L643.971 129.659H645.497L642.996 133.439L645.575 137.303H644.063L642.297 134.442L640.53 137.303H639.012L641.59 133.439L639.089 129.659H640.601L642.275 132.45Z" fill="white"/>
    <path d="M348.419 85.7791C350.567 77.4952 354.273 69.7297 359.325 62.9258C364.377 56.1219 370.677 50.413 377.864 46.1249C385.051 41.8369 392.985 39.0537 401.213 37.9343C409.441 36.8149 417.802 37.3812 425.818 39.6009" stroke="#FEB661" stroke-width="2.51302" stroke-linecap="round" stroke-linejoin="round"/>
    <path d="M472.657 102.614C472.657 102.636 472.657 102.658 472.657 102.68" stroke="#FEB661" stroke-width="2.51302" stroke-linecap="round" stroke-linejoin="round"/>
    <path d="M144.94 234.124C155.64 234.124 164.315 225.16 164.315 214.102C164.315 203.044 155.64 194.08 144.94 194.08C134.239 194.08 125.565 203.044 125.565 214.102C125.565 225.16 134.239 234.124 144.94 234.124Z" fill="#FEB661"/>
    <path d="M561.36 638.412C566.774 638.412 571.164 633.876 571.164 628.28C571.164 622.685 566.774 618.149 561.36 618.149C555.945 618.149 551.556 622.685 551.556 628.28C551.556 633.876 555.945 638.412 561.36 638.412Z" fill="#76B898" stroke="#FAFEFF" stroke-width="0.28459" stroke-linecap="round" stroke-linejoin="round"/>
    <path d="M383.976 527.996C389.391 527.996 393.78 523.46 393.78 517.864C393.78 512.269 389.391 507.733 383.976 507.733C378.562 507.733 374.172 512.269 374.172 517.864C374.172 523.46 378.562 527.996 383.976 527.996Z" fill="#76B898" stroke="#FAFEFF" stroke-width="0.28459" stroke-linecap="round" stroke-linejoin="round"/>
    <path d="M318.249 495.776C319.638 495.776 320.764 494.612 320.764 493.177C320.764 491.741 319.638 490.578 318.249 490.578H128.243C126.854 490.578 125.728 491.741 125.728 493.177C125.728 494.612 126.854 495.776 128.243 495.776H318.249Z" fill="white"/>
    <path d="M485.758 388.895C483.872 407.434 484.182 425.776 455.752 432.08C415.07 441.101 368.201 403.732 418.703 357.913C443.791 335.153 435.014 321.611 453.002 298.069C466.267 280.707 495.609 279.171 503.923 301.337H503.923C503.923 301.337 507.207 309.712 491.451 324.426" stroke="white" stroke-width="0.28459"/>
    <path d="M358.536 314.059C365.861 314.059 371.799 307.923 371.799 300.353C371.799 292.784 365.861 286.647 358.536 286.647C351.211 286.647 345.273 292.784 345.273 300.353C345.273 307.923 351.211 314.059 358.536 314.059Z" fill="white"/>
    <path d="M358.536 306.218C361.67 306.218 364.211 303.592 364.211 300.353C364.211 297.114 361.67 294.488 358.536 294.488C355.401 294.488 352.86 297.114 352.86 300.353C352.86 303.592 355.401 306.218 358.536 306.218Z" fill="#4A91BB"/>
    <path d="M402.572 294.907C409.897 294.907 415.835 288.771 415.835 281.201C415.835 273.632 409.897 267.496 402.572 267.496C395.248 267.496 389.31 273.632 389.31 281.201C389.31 288.771 395.248 294.907 402.572 294.907Z" fill="white"/>
    <path d="M402.573 287.066C405.707 287.066 408.248 284.44 408.248 281.201C408.248 277.962 405.707 275.336 402.573 275.336C399.438 275.336 396.897 277.962 396.897 281.201C396.897 284.44 399.438 287.066 402.573 287.066Z" fill="#4A91BB"/>
    <path d="M552.376 290.032C559.701 290.032 565.639 283.895 565.639 276.326C565.639 268.757 559.701 262.62 552.376 262.62C545.051 262.62 539.113 268.757 539.113 276.326C539.113 283.895 545.051 290.032 552.376 290.032Z" fill="white"/>
    <path d="M552.376 282.191C555.511 282.191 558.052 279.565 558.052 276.326C558.052 273.087 555.511 270.461 552.376 270.461C549.242 270.461 546.701 273.087 546.701 276.326C546.701 279.565 549.242 282.191 552.376 282.191Z" fill="#4A91BB"/>
    <path d="M612.363 326.527C619.687 326.527 625.625 320.391 625.625 312.821C625.625 305.252 619.687 299.116 612.363 299.116C605.038 299.116 599.1 305.252 599.1 312.821C599.1 320.391 605.038 326.527 612.363 326.527Z" fill="white"/>
    <path d="M612.363 318.686C615.497 318.686 618.038 316.061 618.038 312.821C618.038 309.582 615.497 306.957 612.363 306.957C609.228 306.957 606.687 309.582 606.687 312.821C606.687 316.061 609.228 318.686 612.363 318.686Z" fill="#4A91BB"/>
    <path d="M644.963 263.551C652.288 263.551 658.226 257.415 658.226 249.846C658.226 242.276 652.288 236.14 644.963 236.14C637.638 236.14 631.7 242.276 631.7 249.846C631.7 257.415 637.638 263.551 644.963 263.551Z" fill="white"/>
    <path d="M644.963 255.711C648.097 255.711 650.638 253.085 650.638 249.846C650.638 246.607 648.097 243.981 644.963 243.981C641.828 243.981 639.287 246.607 639.287 249.846C639.287 253.085 641.828 255.711 644.963 255.711Z" fill="#4A91BB"/>
    <path d="M210.661 289.761C214.279 289.761 217.212 286.73 217.212 282.992C217.212 279.253 214.279 276.222 210.661 276.222C207.043 276.222 204.11 279.253 204.11 282.992C204.11 286.73 207.043 289.761 210.661 289.761Z" fill="#FB5957"/>
    <path d="M246.923 344.387C250.541 344.387 253.474 341.356 253.474 337.618C253.474 333.879 250.541 330.848 246.923 330.848C243.304 330.848 240.371 333.879 240.371 337.618C240.371 341.356 243.304 344.387 246.923 344.387Z" fill="#3DB19D"/>
    <path d="M283.184 319.38C286.802 319.38 289.735 316.349 289.735 312.61C289.735 308.871 286.802 305.84 283.184 305.84C279.566 305.84 276.632 308.871 276.632 312.61C276.632 316.349 279.566 319.38 283.184 319.38Z" fill="#FEB661"/>
    <path d="M319.445 401.729C323.063 401.729 325.996 398.698 325.996 394.959C325.996 391.22 323.063 388.189 319.445 388.189C315.827 388.189 312.894 391.22 312.894 394.959C312.894 398.698 315.827 401.729 319.445 401.729Z" fill="#905DB9"/>
    <path d="M289.557 629.816C286.398 629.346 283.782 628.713 282.463 628.098C282.114 627.936 281.4 627.63 280.875 627.422C278.593 626.513 275.151 624 272.633 621.404C271.036 619.757 269.354 617.279 268.091 614.71C267.138 612.773 265.956 609.413 266.155 609.207C266.208 609.152 266.164 608.984 266.059 608.844C265.854 608.588 265.763 608.094 265.417 605.337C264.898 601.201 265.715 595.012 267.114 592.485C267.229 592.275 267.324 591.95 267.324 591.761C267.324 591.557 267.42 591.48 267.569 591.573C267.717 591.673 267.756 591.628 267.665 591.481C267.48 591.171 268.319 589.444 269.812 587.063C271.201 584.847 274.623 581.269 276.747 579.81C280.765 577.051 285.307 575.394 289.663 575.099C292.15 574.93 296.592 575.209 296.404 575.521C296.316 575.66 296.369 575.686 296.521 575.585C297.342 575.06 304.653 577.986 306.402 579.538C306.723 579.823 307.051 580.056 307.131 580.056C307.383 580.056 308.298 580.969 308.245 581.166C308.21 581.266 308.316 581.304 308.47 581.239C308.829 581.097 312.54 585.055 313.511 586.615C315.186 589.308 315.607 590.085 316.314 591.797C321.159 603.514 317.203 617.592 307.025 624.848C306.094 625.512 305.189 626.109 305.014 626.174C304.84 626.238 304.458 626.455 304.167 626.656C303.876 626.856 303.114 627.239 302.473 627.507C301.833 627.776 301.118 628.086 300.885 628.198C300.112 628.568 297.313 629.263 295.223 629.604C293.334 629.912 290.876 629.999 289.557 629.803L289.557 629.816ZM302.194 622.187C303.722 621.717 304.486 620.554 304.481 618.703C304.477 617.014 303.89 615.95 302.61 615.309C298.705 613.356 295.268 618.401 298.402 621.486C299.438 622.505 300.509 622.704 302.194 622.187V622.187ZM273.888 621.859C273.888 621.738 273.791 621.64 273.663 621.64C273.54 621.64 273.498 621.74 273.567 621.859C273.638 621.979 273.74 622.078 273.791 622.078C273.844 622.078 273.888 621.978 273.888 621.859ZM294.33 618.328C295.492 618.149 295.972 617.981 296.044 617.726C296.35 616.635 297.162 615.379 297.976 614.737C299.138 613.82 300.854 613.375 301.847 613.733C302.226 613.87 302.612 613.981 302.704 613.981C302.933 613.981 305.438 610.79 305.438 610.497C305.438 610.369 305.545 610.261 305.672 610.261C305.802 610.261 305.856 610.125 305.794 609.958C305.733 609.791 305.803 609.472 305.953 609.247C306.58 608.304 307.699 603.699 307.382 603.371C307.32 603.307 306.12 603.259 304.71 603.259H302.146L301.867 604.517C301.604 605.702 301.055 607.173 300.786 607.416C300.724 607.471 300.55 607.796 300.409 608.128C300.267 608.459 300.056 608.73 299.937 608.73C299.818 608.73 299.721 608.829 299.721 608.957C299.721 609.285 298.069 610.846 297.057 611.474C295.404 612.499 293.898 612.887 291.589 612.882C289.919 612.878 289.25 612.783 288.528 612.444C287.326 611.881 287.288 611.887 286.924 612.723C286.753 613.114 286.184 614.198 285.662 615.131L284.71 616.827L285.281 617.126C287.65 618.363 291.115 618.823 294.331 618.329L294.33 618.328ZM284.05 614.57C284.051 614.471 284.139 614.444 284.228 614.506C284.324 614.57 284.405 614.496 284.405 614.333C284.405 614.176 284.754 613.453 285.181 612.728C285.965 611.395 286.119 610.917 285.764 610.917C285.576 610.917 284.638 609.953 283.531 608.62C282.824 607.768 282.077 606.178 282.249 605.891C282.319 605.767 282.293 605.665 282.187 605.665C281.835 605.665 281.574 604.033 281.624 602.144C281.677 599.985 281.896 598.909 282.182 599.353C282.303 599.539 282.32 599.417 282.226 599.013C282.116 598.523 282.138 598.418 282.359 598.554C282.542 598.67 282.583 598.646 282.482 598.481C282.246 598.086 283.735 595.743 284.928 594.634L286.002 593.636L284.683 591.332C283.186 588.719 283.113 588.69 281.624 590.104C279.326 592.288 277.821 594.613 276.974 597.288L276.615 598.424L277.211 599.113C277.89 599.9 278.518 601.357 278.535 602.185C278.553 603.195 277.887 605.073 277.285 605.696C276.657 606.345 276.248 607.126 276.68 606.85C276.844 606.75 276.88 606.813 276.791 607.057C276.72 607.257 276.737 607.421 276.844 607.421C276.951 607.421 276.975 607.633 276.906 607.893C276.817 608.216 276.861 608.314 277.032 608.208C277.169 608.116 277.28 608.171 277.284 608.339C277.293 608.794 278.591 611.265 279.288 612.162C280.243 613.39 280.66 613.83 281.935 614.953L283.099 615.978L283.575 615.365C283.837 615.028 284.051 614.673 284.052 614.575L284.05 614.57ZM275.14 605.895C276.281 605.293 277.013 604.31 277.181 603.151C277.381 601.767 277.137 600.742 276.423 599.895C276.082 599.494 275.844 599.123 275.893 599.072C276 598.961 275.71 598.913 273.964 598.75C272.504 598.614 271.648 598.938 270.805 599.943C270.15 600.724 269.778 602.153 269.989 603.074C270.085 603.477 270.163 603.872 270.169 603.954C270.205 604.402 271.225 605.45 272.018 605.856C273.156 606.438 274.089 606.45 275.139 605.903L275.14 605.895ZM306.496 601.533C307.436 601.401 307.448 601.389 307.384 600.634C307.135 597.746 305.425 593.845 303.386 591.512C302.798 590.84 302.741 590.821 301.83 591.033C300.317 591.385 298.438 590.795 297.382 589.638C296.896 589.105 296.121 587.584 296.121 587.161C296.121 586.933 295.631 586.673 294.957 586.543C294.84 586.527 293.934 586.425 292.945 586.33C290.817 586.127 288.841 586.403 286.699 587.212C285.883 587.519 285.062 587.782 284.873 587.793C284.58 587.809 284.601 587.931 285.015 588.59C285.282 589.016 285.878 590.096 286.339 590.99C286.838 591.957 287.363 592.688 287.637 592.793C287.891 592.892 288.045 592.884 287.983 592.782C287.806 592.486 290.449 591.884 291.93 591.884C292.664 591.883 293.929 592.087 294.745 592.337C296.333 592.823 298.594 594.25 298.499 594.704C298.463 594.856 298.534 594.924 298.635 594.857C298.9 594.688 300.236 596.252 300.797 597.389C301.417 598.644 302.051 600.588 302.051 601.232C302.051 601.749 302.086 601.758 303.798 601.714C304.759 601.698 305.974 601.614 306.498 601.536L306.496 601.533ZM302.982 589.291C303.437 588.97 303.913 588.512 304.041 588.271C304.168 588.03 304.322 587.784 304.38 587.724C304.442 587.669 304.515 587.146 304.548 586.572C304.685 584.168 303.055 582.357 300.768 582.37C299.782 582.374 299.422 582.488 298.79 582.987C298.365 583.321 297.859 583.846 297.666 584.15C297.23 584.837 297.084 587.394 297.452 587.883C299.144 590.129 301.09 590.625 302.982 589.292L302.982 589.291Z" fill="#FB5957"/>
    <path d="M832.518 105.027C832.518 102.785 830.759 100.968 828.59 100.968C826.421 100.968 824.662 102.785 824.662 105.027V156.628C824.662 158.869 826.421 160.687 828.59 160.687C830.759 160.687 832.518 158.869 832.518 156.628V105.027Z" fill="white"/>
    <path d="M816.083 57.4642C816.083 55.2225 814.325 53.4053 812.155 53.4053C809.986 53.4053 808.228 55.2225 808.228 57.4642V156.628C808.228 158.869 809.986 160.687 812.155 160.687C814.325 160.687 816.083 158.869 816.083 156.628V57.4642Z" fill="white"/>
    <path d="M819.16 228.514C824.575 228.514 828.964 223.978 828.964 218.383C828.964 212.788 824.575 208.252 819.16 208.252C813.745 208.252 809.356 212.788 809.356 218.383C809.356 223.978 813.745 228.514 819.16 228.514Z" fill="#4A91BB"/>
    <path d="M322.842 731.262C322.681 730.828 322.886 729.246 323.236 728.187C323.399 727.7 323.504 727.273 323.471 727.239C323.436 727.202 323 727.358 322.498 727.58C321.302 728.11 320.46 728.119 320.46 727.595C320.46 727.386 320.917 726.51 321.474 725.651L322.487 724.088L322.496 721.495C322.513 718.528 322.839 716.888 323.847 714.768L324.486 713.426L323.003 712.005C320.763 709.859 317.532 707.76 312.123 704.935C306.911 702.214 305.788 701.559 305.788 701.246C305.788 700.945 306.02 700.999 307.553 701.667C308.334 702.006 309.624 702.534 310.42 702.84C315.117 704.647 318.134 706.073 320.376 707.547C321.917 708.56 324.286 710.439 324.981 711.201C325.653 711.936 325.735 711.945 326.824 711.401C328.197 710.716 330.137 710.685 333.197 711.3C334.63 711.588 336.237 711.91 336.768 712.015C338.222 712.303 340.352 712.421 341.104 712.254C342.386 711.972 342.952 710.083 342.605 707.243C342.49 706.305 342.457 705.288 342.534 704.983C342.661 704.458 343.635 703.645 344.139 703.644C344.679 703.642 345.616 704.8 346.336 706.357C346.826 707.418 347.221 708.031 347.415 708.031C347.642 708.031 347.688 707.914 347.595 707.583C347.313 706.589 347.264 703.352 347.524 702.852C348.23 701.489 349.756 701.637 350.391 703.13C350.581 703.577 350.826 704.775 350.935 705.791C351.158 707.875 351.215 708.032 351.749 708.032C352.562 708.032 356.718 709.108 358.098 709.675C360.026 710.468 361.576 711.476 362.092 712.271C362.722 713.243 362.821 714.19 362.37 714.94C361.754 715.963 361.08 716.422 355.591 719.552C352.664 721.221 352.503 721.334 352.503 721.722C352.503 722.291 353.315 723.754 354.34 725.029C355.474 726.441 355.607 726.852 355.035 727.168C354.765 727.317 354.208 727.223 352.863 726.798C349.528 725.745 349.503 725.755 350.85 727.585C351.955 729.086 352.357 729.904 352.217 730.361C352.076 730.818 351.495 730.988 350.79 730.779C349.971 730.537 346.919 729.25 345.94 728.735C345.09 728.288 344.964 728.28 340.149 728.348C335.854 728.412 330.283 728.183 328.459 727.875C327.942 727.784 327.634 727.975 326.046 729.33C323.269 731.701 323.055 731.83 322.842 731.258L322.842 731.262ZM354.708 718.152C355.872 717.094 355.837 716.537 354.673 717.54C353.862 718.237 353.306 719.008 353.613 719.008C353.701 719.008 354.193 718.623 354.711 718.152L354.708 718.152ZM354.095 716.402C354.871 716.008 355.278 715.617 354.911 715.617C354.591 715.617 352.36 716.803 352.125 717.099C351.859 717.432 351.879 717.436 352.511 717.162C352.878 717.002 353.591 716.661 354.095 716.405L354.095 716.402ZM352.309 713.444C352.309 713.347 352.078 713.206 351.794 713.133C351.51 713.06 350.987 712.671 350.632 712.27L349.987 711.541L350.113 712.233C350.297 713.237 350.7 713.622 351.568 713.622C351.976 713.622 352.309 713.539 352.309 713.444L352.309 713.444ZM352.797 712.02C353.52 711.194 352.448 709.932 351.623 710.639C351.208 710.996 351.285 711.762 351.773 712.115C352.322 712.511 352.371 712.507 352.797 712.021L352.797 712.02ZM360.524 709.358C360.697 708.648 361.898 706.345 362.256 706.038C362.852 705.526 362.728 706.042 361.822 707.849C360.903 709.68 360.266 710.421 360.524 709.358H360.524ZM359.311 708.016C359.373 707.092 359.539 706.068 359.676 705.741C359.926 705.146 359.927 705.147 359.989 706.208C360.06 707.415 359.723 709.36 359.408 709.561C359.258 709.657 359.23 709.207 359.311 708.016L359.311 708.016Z" fill="#707787"/>
</svg>
