<svg width="970" height="744" viewBox="0 0 970 744" fill="none" xmlns="http://www.w3.org/2000/svg">
    <path d="M907.913 642.351C909.229 642.4 910.538 642.635 911.838 643.055C907.863 645.592 903.942 648.929 900.128 652.819C899.351 653.611 898.582 654.443 897.815 655.279C897.957 653.912 898.052 652.303 898.005 650.515C897.957 648.852 897.815 647.077 897.42 645.369C900.903 643.329 904.428 642.214 907.915 642.352L907.913 642.351ZM914.036 643.992C922.691 648.212 922.006 655.635 916.407 664.668C913.074 663.533 909.829 663.1 906.776 663.166C899.505 663.337 893.355 666.204 889.395 668.62C891.979 665.117 894.644 661.763 897.373 658.652H897.377L897.381 658.638C898.727 657.104 900.081 655.607 901.452 654.209C905.59 649.988 909.818 646.487 914.03 643.991L914.036 643.992ZM895.691 646.486C895.95 647.814 896.086 649.198 896.12 650.551C896.214 654.22 895.722 657.09 895.604 657.756C889.26 665.052 883.276 673.587 877.973 682.081C877.807 682.348 877.653 682.612 877.488 682.878C877.582 681.692 877.654 680.403 877.606 678.978C877.512 675.927 877.038 672.513 875.5 669.833C881.536 660.01 888.494 651.349 895.69 646.485L895.691 646.486ZM906.954 665.088C909.608 665.04 912.418 665.439 915.297 666.358C909.38 675.189 899.269 685.37 888.934 695.499C887.102 694.929 885.33 694.629 883.652 694.575C880.109 694.452 876.949 695.336 874.345 696.573C872.759 697.327 871.449 698.193 870.279 699.057C873.043 694.006 876.149 688.595 879.558 683.136C881.62 679.832 883.813 676.552 886.06 673.315C886.451 672.971 895.294 665.26 906.954 665.09V665.088ZM874.336 671.755C875.271 673.886 875.661 676.521 875.725 679.031C875.844 683.15 875.14 686.741 875.14 686.741L875.163 686.745C871.785 692.387 868.732 697.851 866.108 702.812C866.098 702.826 866.013 702.935 866.013 702.935L866.027 702.949C860.628 713.166 857.555 719.946 856.638 721.991L856.218 721.796C854.173 716.582 862.214 692.163 874.334 671.752L874.336 671.755ZM883.575 696.486C884.77 696.535 886.035 696.745 887.33 697.071C877.569 706.617 867.81 716.047 861.374 724.135L858.376 722.775C859.302 720.715 862.327 714.037 867.651 703.955C868.132 703.395 870.795 700.418 875.14 698.355C877.536 697.218 880.371 696.386 883.575 696.486Z" fill="#75B998"/>
    <path d="M338.817 735.263C353.335 735.263 365.103 732.9 365.103 729.985C365.103 727.069 353.335 724.706 338.817 724.706C324.3 724.706 312.531 727.069 312.531 729.985C312.531 732.9 324.3 735.263 338.817 735.263Z" fill="#75B998"/>
    <path d="M744.922 743.414C796.413 743.414 838.154 738.75 838.154 732.998C838.154 727.246 796.413 722.583 744.922 722.583C693.432 722.583 651.691 727.246 651.691 732.998C651.691 738.75 693.432 743.414 744.922 743.414Z" fill="#75B998"/>
    <path d="M501.4 743.414C552.89 743.414 594.632 738.75 594.632 732.998C594.632 727.246 552.89 722.583 501.4 722.583C449.91 722.583 408.169 727.246 408.169 732.998C408.169 738.75 449.91 743.414 501.4 743.414Z" fill="#75B998"/>
    <path d="M837.673 24.9047H622.695C619.289 24.9047 616.529 27.7566 616.529 31.2747V165.814C616.529 169.332 619.289 172.184 622.695 172.184H837.673C841.079 172.184 843.839 169.332 843.839 165.814V31.2747C843.839 27.7566 841.079 24.9047 837.673 24.9047Z" fill="white"/>
    <path d="M736.61 52.4343C736.491 52.4343 736.397 52.4411 736.312 52.4518C736.146 52.4693 736.263 52.5286 736.61 52.5286C736.941 52.5286 737.078 52.5106 736.913 52.4518C736.818 52.4343 736.724 52.4343 736.61 52.4343ZM735.661 52.5807C735.612 52.5786 735.566 52.5875 735.495 52.5982C735.376 52.6463 735.4 52.696 735.589 52.696C735.731 52.7028 735.802 52.6779 735.779 52.6192C735.765 52.6017 735.705 52.5711 735.661 52.5711V52.5807ZM735.031 52.6288C734.957 52.622 734.794 52.6323 734.534 52.6468C734.092 52.695 733.705 52.7445 733.675 52.7932C733.58 52.8909 734.522 52.8107 734.936 52.6954C735.078 52.6472 735.102 52.6473 735.031 52.6191L735.031 52.6288ZM731.653 53.067C731.653 52.9907 730.088 53.2382 728.993 53.4631C727.796 53.7149 727.405 53.7254 727.334 53.5112C727.216 53.1831 720.024 56.5118 717.522 58.0435C716.466 58.6893 714.583 60.0908 714.435 60.3379C714.293 60.5578 714.106 60.4842 714.106 60.1915C714.106 59.8021 714.011 59.8413 713.45 60.4363C713.181 60.7225 712.037 61.8256 710.909 62.8889C708.479 65.1809 707.387 66.4567 706.845 67.6327C706.632 68.112 706.357 68.4985 706.249 68.4985C706.059 68.4985 705.425 69.8048 704.457 72.2073C703.927 73.5183 703.264 74.3818 702.866 74.2766C702.653 74.2285 702.509 74.4478 702.007 75.5412C700.655 78.5161 698.33 85.3806 698.529 85.7977C698.578 85.9202 698.671 89.6213 698.719 94.0366C698.814 102.166 698.838 102.62 699.394 105.595C701.098 114.589 705.523 123.03 712.095 129.825C717.01 134.906 722.281 138.305 728.044 140.109C730.573 140.901 732.198 141.124 735.473 141.139C737.303 141.144 737.333 141.139 736.68 140.943L736.682 140.942C736.312 140.819 735.049 140.563 733.869 140.335C730.098 139.611 729.145 139.134 727.031 136.906C726.216 136.048 725.504 135.345 725.445 135.345C725.396 135.345 725.468 135.565 725.635 135.837C725.8 136.106 725.906 136.351 725.881 136.381C725.762 136.503 723.878 135.49 723.272 135.011C722.924 134.737 722.346 134.404 721.994 134.272C721.284 134.01 721.208 133.854 721.615 133.477C721.781 133.331 721.883 133.182 721.883 133.127C721.883 133.079 721.556 132.863 721.159 132.662C720.449 132.305 718.531 130.409 718.531 130.069C718.531 129.947 718.343 129.923 717.94 129.993C717.383 130.091 717.322 130.041 716.92 129.57C716.196 128.718 715.54 127.567 715.241 126.626C715.004 125.883 714.939 125.783 714.86 126.037C714.811 126.208 714.718 126.345 714.67 126.345C714.552 126.345 712.537 123.514 711.723 122.206C711.1 121.205 710.996 120.647 711.455 120.772C711.645 120.82 711.529 120.65 711.079 120.213C710.182 119.344 709.985 118.953 710.279 118.618C710.421 118.471 710.516 118.332 710.516 118.29C710.516 118.241 710.248 117.807 709.924 117.304C709.319 116.372 708.599 114.919 708.433 114.302L708.339 113.958L708.722 114.319C709.173 114.747 709.702 115.048 709.808 114.935C709.927 114.813 709.117 113.018 708.559 112.147C707.969 111.229 707.638 110.98 706.793 110.821C705.931 110.65 705.463 110.105 704.847 108.517C704.303 107.111 704.251 106.827 704.555 106.827C704.721 106.827 704.65 106.632 704.302 105.89C703.857 104.98 703.847 104.926 703.949 103.872C704.043 102.84 704.043 102.749 703.657 101.994C703.061 100.802 702.833 98.9946 702.93 96.2398C703.049 93.3672 703.756 86.1473 704.019 85.3753C704.138 85.0451 704.826 83.5334 705.56 82.0154C706.296 80.4964 706.864 79.2003 706.824 79.1321C706.776 79.0553 706.635 79.0095 706.493 79.0095C706.117 79.0095 706.162 78.8632 706.857 77.8843C708.521 75.5386 711.746 72.1012 713.655 70.6421C714.962 69.6441 716.317 68.9299 717.12 68.8199C717.579 68.7436 717.835 68.6248 718.025 68.3864C718.42 67.8708 718.344 67.7674 717.788 68.0755C717.516 68.2467 717.262 68.3202 717.227 68.2705C717.037 68.0755 719.182 66.2623 720.157 65.82C720.488 65.6487 721.319 65.465 722.008 65.3627C723.717 65.1108 723.925 65.0545 724.311 64.7293L724.644 64.4453L724.142 64.543C723.865 64.5912 723.418 64.6656 723.15 64.7143C722.383 64.8606 722.712 64.5192 723.607 64.2741C724.324 64.0791 724.849 63.7977 727.144 62.4935C728.245 61.8677 731.541 61.0895 731.541 61.4539C731.541 61.5306 731.467 61.5764 731.375 61.5764C731.281 61.5764 731.257 61.5939 731.281 61.6741C731.329 61.7223 731.593 61.6916 731.881 61.5978C732.989 61.2896 735.717 61.1501 737.585 61.304C742.405 61.7001 745.958 62.9135 748.864 65.1553C753.88 69.0217 757.653 75.1518 758.412 80.6637C758.53 81.5544 758.681 82.3147 758.738 82.3563C758.787 82.4045 758.857 84.0171 758.857 85.9551C758.861 89.2245 758.762 90.5938 758.454 91.7253C758.264 92.3539 758.406 92.2879 758.718 91.579L758.983 90.9896L758.909 91.9998C758.861 92.7088 758.667 93.4944 758.263 94.6293C757.699 96.2193 757.676 96.2559 757.063 96.5959C756.306 97.014 756.028 97.5695 755.984 98.7705C755.96 99.4651 755.889 99.6976 755.619 99.9935C755.01 100.664 751.861 103.442 751.033 104.038C749.878 104.873 749.483 104.835 750.293 103.961C751.062 103.143 750.482 103.479 749.391 104.488C748.804 105.028 748.089 105.598 747.795 105.752C746.981 106.18 745.788 106.574 745.739 106.428C745.725 106.352 745.438 106.41 745.123 106.574C743.324 107.396 740.478 107.538 738.143 106.922C736.6 106.516 734.271 105.371 733.054 104.424C731.859 103.492 730.269 101.809 729.506 100.668C728.081 98.537 727.136 95.8637 726.997 93.5716C726.948 92.698 726.878 92.351 726.808 92.4978C726.734 92.6203 726.618 92.7177 726.54 92.7177C726.422 92.7177 726.422 92.2919 726.466 91.299C726.854 85.1115 730.622 80.3948 736.298 78.9989C737.933 78.5981 740.28 78.6219 741.955 79.0756C743.598 79.5091 744.541 79.9462 745.885 80.9125C746.91 81.6463 746.948 81.6607 746.508 81.1717C744.628 79.0755 742.502 77.7509 740.061 77.1566C738.816 76.8505 736.488 76.8505 735.146 77.1498C732.31 77.7831 729.315 79.8643 728.138 82.0196C727.9 82.4406 727.577 82.8778 727.406 82.9956C726.869 83.3601 726.081 84.742 725.555 86.2439C725.278 87.0342 724.871 88.0661 724.654 88.5431C724.283 89.3429 724.249 89.5508 724.181 91.45C723.942 97.9457 725.956 101.866 732.086 106.85C732.789 107.42 733.388 107.985 733.421 108.103C733.495 108.359 735.681 109.081 737.692 109.507C739.784 109.951 743.733 109.95 745.763 109.5C749.739 108.621 752.955 106.804 756.277 103.563C757.12 102.742 757.925 101.988 758.067 101.881C758.304 101.686 758.315 101.709 758.208 101.957C758.09 102.177 758.042 102.977 758.16 102.977C758.326 102.977 758.588 101.884 758.572 101.329C758.553 100.695 758.945 99.6141 759.423 98.9976C759.612 98.7413 759.692 98.7777 760.056 99.3257L760.384 99.8252L760.574 99.0158C760.668 98.5709 761.137 97.3647 761.611 96.3374C762.526 94.3414 762.889 93.15 762.889 92.1374C762.889 91.4897 763.078 91.1735 763.303 91.5117C763.377 91.6342 763.421 91.3653 763.444 90.7998L763.454 89.9024L763.75 90.6898C763.916 91.1232 764.074 91.5069 764.11 91.5432C764.159 91.5607 764.184 91.0687 764.205 90.4106C764.228 89.376 764.299 89.0018 764.775 87.6442L765.329 86.0763L764.926 86.1741C764.578 86.2718 764.507 86.2222 764.391 85.9006C764.316 85.7055 764.202 85.1103 764.178 84.5895C764.104 83.7485 764.129 83.6159 764.368 83.4007L764.642 83.1559L764.273 82.6326C763.889 82.0843 763.267 80.2673 763.362 79.974C763.41 79.8762 763.613 80.1452 763.851 80.5289C764.091 80.9297 764.337 81.255 764.393 81.255C764.467 81.255 764.39 80.7413 764.252 80.1129C764.11 79.4814 763.929 78.5669 763.847 78.0703C763.681 77.1289 763.279 76.1331 763.056 76.1331C762.982 76.1331 762.915 76.2308 762.915 76.3291C762.915 76.4516 762.867 76.5242 762.773 76.5242C762.537 76.5242 762.265 75.9272 762.101 75.0981C761.912 74.0978 762.027 73.8777 762.731 73.9951C763.107 74.0717 763.254 74.013 763.401 73.8C763.59 73.5409 763.59 73.5377 763.801 73.8175C764.445 74.669 765.983 78.6342 766.595 81.0047C766.736 81.5309 766.862 81.8954 766.888 81.8141C766.962 81.619 766.351 79.1822 765.84 77.5355C765.601 76.7672 765.421 75.8331 765.383 75.1849C765.335 74.5956 765.288 73.9961 765.241 73.8591C765.1 73.443 765.43 73.5779 765.719 74.0542C766.427 75.2551 765.476 72.5083 764.51 70.5626C762.204 65.9239 757.841 61.1889 753.598 58.7228L752.928 58.3334L753.523 58.9744C753.849 59.3265 754.081 59.6546 754.036 59.7006C753.942 59.7983 752.895 59.1036 752.344 58.5975C752.155 58.4262 751.887 58.0761 751.71 57.7948C751.213 56.9901 750.294 56.8114 748.699 57.2102L747.815 57.4301L746.613 56.8044C744.923 55.929 744.084 55.5936 741.577 54.7913C740.37 54.4077 739.276 54.048 739.149 54.0011C738.959 53.9034 738.936 53.9831 739.008 54.2728C739.126 54.6889 739.102 54.6909 738.082 54.4678C737.46 54.3215 737.076 54.3453 735.952 54.5655C735.197 54.7119 734.217 54.7606 733.774 54.7606L732.971 54.7124L733.741 54.4606C734.165 54.3143 734.51 54.1966 734.51 54.1871C734.51 54.1389 732.306 54.0407 731.193 54.0407C730.024 54.0385 730.022 54.0232 731.052 53.4591C731.402 53.2641 731.689 53.0974 731.689 53.0696L731.653 53.067ZM734.464 53.5511C733.988 53.5443 733.95 53.6488 734.605 53.7472C734.903 53.7954 735.15 53.9184 735.15 53.9671C735.15 54.1135 735.673 53.9851 735.869 53.7959C735.943 53.7191 735.581 53.6246 735.093 53.6009C734.845 53.5834 734.639 53.5527 734.48 53.5527L734.464 53.5511ZM700.915 71.6196C700.841 71.6021 700.75 71.6129 700.664 71.6265C700.406 71.6746 700.328 71.7977 700.274 72.2234C700.226 72.5173 700.108 72.9448 700 73.1802C699.754 73.6892 699.81 73.7084 700.371 73.278C700.791 72.9449 701.221 71.9668 701.065 71.7052C701.042 71.657 700.97 71.6284 700.899 71.6075L700.915 71.6196ZM698.669 78.3649C698.551 78.2423 698.061 79.1743 698.03 79.5536C698.017 79.7486 698.017 80.1793 698.03 80.5198L698.053 81.1436L698.243 80.6222C698.362 80.3361 698.498 79.7267 698.586 79.2671H698.585C698.679 78.8098 698.726 78.4012 698.679 78.3601L698.669 78.3649ZM749.42 88.0079C749.301 88.0147 749.178 88.1791 749.053 88.514C748.887 88.9226 749.266 90.1162 749.519 90.033C749.614 90.0155 749.685 89.6149 749.708 89.1643H749.706C749.755 88.4209 749.612 88.0024 749.422 88.0097L749.42 88.0079ZM763.349 92.3173C763.335 92.3655 763.301 92.5621 763.255 92.9335C763.18 93.4033 763.066 94.022 763.008 94.3056C762.934 94.5896 762.914 94.7677 762.985 94.697C763.06 94.6202 763.175 94.2789 763.248 93.9191C763.342 93.5623 763.414 93.0016 763.389 92.6741C763.385 92.4101 763.366 92.2799 763.341 92.3173H763.349ZM764.977 92.5691C764.973 92.5623 764.964 92.5666 764.929 92.5866C764.881 92.6348 764.716 93.4257 764.531 94.3747C764.341 95.3209 764.016 96.6519 763.792 97.3328C763.357 98.6586 763.357 98.6586 763.439 98.6586C763.488 98.6586 763.714 97.9812 763.981 97.1494C764.528 95.4568 765.112 92.6874 764.966 92.5736L764.977 92.5691ZM747.305 94.2202C747.211 94.2026 746.896 94.6038 746.505 95.2304C745.859 96.2626 745.831 96.6735 746.387 96.874C746.6 96.9717 746.79 97.0702 746.79 97.1679C746.79 97.496 747.308 96.7956 747.76 95.852C748.025 95.299 748.288 94.6582 748.338 94.4308C748.386 94.2109 748.196 94.479 747.912 95.0498C747.508 95.8525 747.271 96.1554 746.857 96.3976C745.926 96.9429 745.917 96.8693 746.715 95.4069C747.046 94.8051 747.319 94.2891 747.319 94.2597C747.319 94.2422 747.315 94.2116 747.305 94.2116L747.305 94.2202ZM742.467 99.1687C742.349 99.1704 742.221 99.1862 742.065 99.2168C741.753 99.2936 740.877 99.3394 740.121 99.3394C738.223 99.3462 738.299 99.6206 740.359 100.176C741.324 100.438 741.274 100.447 742.068 99.7862C742.38 99.5221 742.636 99.2648 742.636 99.2064C742.636 99.1889 742.562 99.1582 742.47 99.1582L742.467 99.1687ZM724.932 99.5018C724.913 99.495 724.883 99.4949 724.883 99.5192C724.789 99.617 725.127 100.459 725.714 101.54C726.22 102.476 726.398 102.596 726.139 101.829C726.045 101.566 725.752 100.99 725.469 100.539C725.188 100.09 724.958 99.6593 724.958 99.5806C724.958 99.5325 724.954 99.5039 724.935 99.4829L724.932 99.5018ZM723.668 101.517C723.644 101.535 723.619 101.565 723.593 101.64C723.404 102.178 723.475 102.432 724.398 103.756C725.622 105.524 726.597 106.606 726.14 105.685C726.046 105.514 725.641 104.783 725.22 104.061C724.798 103.337 724.282 102.437 724.074 102.06C723.83 101.618 723.731 101.471 723.662 101.528L723.668 101.517ZM725.566 102.958C725.424 103.104 726.633 104.69 727.829 105.924C730.468 108.649 734.36 110.807 738.213 111.679C739.548 111.982 742.727 111.963 743.638 111.661V111.663C744.147 111.468 744.069 111.468 742.097 111.377C737.733 111.182 735.562 110.499 733.921 108.868C733.631 108.579 733.391 108.415 733.391 108.503C733.391 109.034 730.772 107.346 729.042 105.702L727.975 104.687L728.638 105.582C729.002 106.074 729.549 106.744 729.85 107.07C730.151 107.398 730.361 107.662 730.316 107.662C730.103 107.662 728.458 106.065 727.327 104.757C726.034 103.262 725.653 102.876 725.566 102.971L725.566 102.958Z" fill="#3D4045"/>
    <path d="M827.982 547.575C906.388 495.116 928.797 386.907 878.033 305.883C827.27 224.859 722.557 201.702 644.15 254.16C565.744 306.619 543.335 414.828 594.099 495.852C644.862 576.876 749.575 600.033 827.982 547.575Z" stroke="white" stroke-width="0.8678" stroke-linecap="round" stroke-linejoin="round" stroke-dasharray="1.74 1.74"/>
    <path d="M748.51 121.814H179.092C172.838 121.814 167.769 127.053 167.769 133.516V485.008C167.769 491.47 172.838 496.709 179.092 496.709H748.51C754.763 496.709 759.833 491.47 759.833 485.008V133.516C759.833 127.053 754.763 121.814 748.51 121.814Z" fill="#75B998"/>
    <path d="M564.478 389.05C564.478 389.05 568.525 377.945 567.831 369.814C567.352 364.194 574.178 368.617 572.768 378.755C572.768 378.755 574.185 382.858 593.227 377.735C596.413 376.878 595.62 383.517 581.37 385.713C576.788 386.418 574.162 388.438 572.706 390.853C569.636 395.949 568.881 397.393 568.881 397.393L564.478 389.05Z" fill="white"/>
    <path d="M587.129 380.164C587.129 380.164 590.749 375.588 591.815 372.383C592.348 370.78 589.548 370.328 586.093 375.838C582.638 381.349 575.801 380.99 575.801 380.99L587.129 380.164Z" fill="white"/>
    <path d="M321.371 345.239L358.297 299.03L402.402 280.994L484.819 311.991L551.462 275.662L613.425 315.812L643.468 249.647L708.215 223.607" stroke="white" stroke-width="1.6424" stroke-linecap="round" stroke-linejoin="round"/>
    <path d="M411.314 419.721C411.314 419.721 407.97 473.537 420.172 474.888C432.375 476.238 448.789 464.521 448.789 464.521L445.529 444.107L437.393 448.148C437.393 448.148 442.795 428.565 440.864 423.553C438.933 418.541 411.314 419.721 411.314 419.721V419.721Z" fill="white"/>
    <path d="M762.92 328.197C762.92 328.197 762.92 339.774 767.892 359.331C772.863 378.887 740.668 362.77 740.668 362.77L738.327 358.059C738.327 358.059 741.459 355.396 739.837 342.483C738.213 329.569 762.922 328.197 762.922 328.197H762.92Z" fill="white"/>
    <path d="M771.738 358.119C771.738 358.119 770.268 348.536 758.965 354.283C747.661 360.03 743.734 354.429 740.832 354.528C737.929 354.625 736.39 359.56 736.39 359.56L715.014 495.066L771.588 512.693L785.387 496.037L771.738 358.119Z" fill="#75B998"/>
    <path d="M81.4868 641.823C80.173 641.872 78.8624 642.107 77.562 642.528C81.5371 645.065 85.4581 648.401 89.2723 652.292C90.049 653.084 90.8179 653.916 91.5849 654.752C91.4432 653.384 91.348 651.775 91.395 649.987C91.4417 648.324 91.5849 646.549 91.9802 644.841C88.4974 642.799 84.9722 641.686 81.4853 641.824L81.4868 641.823ZM75.3643 643.467C66.7089 647.686 67.3944 655.11 72.993 664.143C76.3267 663.008 79.5709 662.575 82.6245 662.641C89.8946 662.812 96.0448 665.679 100.005 668.094C97.4211 664.592 94.7564 661.238 92.0275 658.127H92.0174L92.014 658.112C90.6672 656.579 89.3135 655.082 87.943 653.683C83.8047 649.462 79.5769 645.961 75.3646 643.466L75.3643 643.467ZM93.7087 645.96C93.4505 647.288 93.3134 648.672 93.2801 650.025C93.1855 653.695 93.6772 656.564 93.7957 657.23C100.14 664.527 106.124 673.062 111.427 681.556C111.593 681.823 111.745 682.087 111.912 682.353C111.818 681.166 111.747 679.877 111.794 678.453C111.888 675.402 112.362 671.988 113.898 669.307C107.862 659.485 100.904 650.824 93.7076 645.96L93.7087 645.96ZM82.4461 664.563C79.7922 664.514 76.9823 664.913 74.1034 665.832C80.0202 674.664 90.1308 684.844 100.466 694.974C102.298 694.404 104.07 694.103 105.748 694.05C109.291 693.927 112.451 694.81 115.055 696.048C116.641 696.799 117.951 697.667 119.121 698.532C116.357 693.481 113.251 688.07 109.842 682.611C107.778 679.307 105.587 676.027 103.34 672.79C102.95 672.447 94.1062 664.735 82.4461 664.565V664.563ZM115.064 671.23C114.129 673.36 113.739 675.996 113.675 678.506C113.556 682.625 114.26 686.216 114.26 686.216L114.243 686.22C117.621 691.861 120.674 697.325 123.299 702.287C123.309 702.301 123.393 702.409 123.393 702.409L123.376 702.424C128.775 712.64 131.848 719.42 132.765 721.466L133.184 721.27C135.229 716.056 127.188 691.638 115.068 671.227L115.064 671.23ZM105.826 695.961C104.628 696.01 103.365 696.217 102.07 696.548C111.831 706.094 121.59 715.525 128.027 723.612L131.024 722.252C130.098 720.193 127.073 713.515 121.748 703.432C121.268 702.872 118.605 699.895 114.26 697.833C111.864 696.695 109.029 695.864 105.826 695.962V695.961Z" fill="#75B998"/>
    <path d="M110.637 585.269C111.35 585.284 112.052 585.346 112.741 585.416C112.052 585.318 111.347 585.269 110.637 585.269ZM112.741 585.416C116.628 591.249 119.984 598.122 122.875 605.681C123.462 607.217 124.013 608.804 124.565 610.393C125.173 608.472 125.952 606.251 127.037 603.877C128.045 601.671 129.283 599.39 130.774 597.333C125.945 590.625 119.998 586.256 112.74 585.416H112.741ZM109.218 585.293C95.1803 585.654 91.8871 596.078 94.2228 611.624C111.478 613.341 122.622 625.36 128.225 633.414C126.77 627.146 125.11 621.031 123.236 615.199L123.219 615.195L123.222 615.181C122.297 612.298 121.336 609.463 120.299 606.748C117.155 598.529 113.459 591.234 109.214 585.303L109.218 585.293ZM130.797 597.366C131.371 598.168 131.903 599.049 132.447 599.915C131.905 599.052 131.373 598.166 130.797 597.366ZM132.447 599.915C131.342 601.542 130.362 603.319 129.542 605.113C127.31 609.991 126.335 614.144 126.119 615.095C130.447 628.766 133.578 643.884 135.829 658.523C135.903 658.985 135.947 659.426 136.018 659.881C136.577 658.235 137.228 656.466 138.092 654.579C139.945 650.53 142.564 646.235 146.17 643.573C143.697 626.706 139.316 610.84 132.449 599.913L132.447 599.915ZM94.744 614.533C97.6171 630.011 105.357 649.878 113.432 669.817C122.098 670.918 128.283 675.408 132.393 680.205C134.054 682.142 135.36 684.115 136.427 685.955C135.61 677.503 134.545 668.356 133.101 658.967C132.234 653.328 131.219 647.624 130.076 641.96C130.076 641.96 118.868 617.455 94.744 614.533ZM146.182 643.66C146.348 644.704 146.478 645.751 146.615 646.8C146.473 645.75 146.333 644.706 146.182 643.66ZM146.629 646.889C144.153 649.181 142.117 652.478 140.593 655.808C138.093 661.273 136.966 666.517 136.966 666.517L136.919 666.512C138.216 676.128 139.182 685.308 139.862 693.557C139.872 693.605 139.956 693.808 139.956 693.808L139.882 693.823C141.276 710.851 141.515 721.839 141.572 725.141H142.253C147.986 719.395 151.187 681.702 146.617 646.891L146.629 646.889ZM114.651 672.839C122.292 691.65 130 710.311 134.009 725.125L138.825 725.13C138.751 721.796 138.523 711.005 137.156 694.246C136.88 693.332 135.036 687.601 130.317 682.093C126.782 677.968 121.785 674.115 114.65 672.834L114.651 672.839Z" fill="#75B998"/>
    <path d="M170.616 731.77H0.949219C0.949219 731.77 1.82228 723.705 17.8692 718.07C33.9155 712.435 33.0684 701.122 40.7121 695.65C48.3562 690.178 60.9491 690.341 69.3612 700.382C77.7734 710.424 81.0262 712.863 89.5907 706.929C98.1552 700.994 108.6 695.582 120.814 708.298C133.028 721.017 138.48 726.089 146.182 720.985C153.884 715.881 166.749 718.617 170.616 731.768V731.77Z" fill="white"/>
    <path d="M878.763 585.797C878.05 585.811 877.347 585.874 876.659 585.943C877.35 585.846 878.053 585.797 878.763 585.797ZM876.659 585.943C872.772 591.776 869.415 598.649 866.525 606.208C865.938 607.744 865.386 609.331 864.835 610.92C864.223 609 863.448 606.778 862.363 604.404C861.354 602.198 860.116 599.917 858.625 597.86C863.454 591.152 869.401 586.783 876.659 585.943H876.659ZM880.181 585.821C894.219 586.183 897.512 596.606 895.176 612.153C877.921 613.87 866.777 625.888 861.174 633.942C862.63 627.675 864.289 621.559 866.164 615.727L866.187 615.723L866.183 615.709C867.109 612.826 868.07 609.991 869.108 607.276C872.251 599.057 875.947 591.762 880.192 585.831L880.181 585.821ZM858.602 597.894C858.029 598.696 857.497 599.577 856.952 600.443C857.494 599.58 858.027 598.694 858.602 597.894ZM856.952 600.443C858.058 602.07 859.038 603.847 859.858 605.642C862.09 610.519 863.065 614.672 863.28 615.623C858.953 629.294 855.822 644.412 853.571 659.051C853.497 659.513 853.453 659.954 853.383 660.411C852.824 658.765 852.173 656.996 851.309 655.109C849.456 651.06 846.837 646.765 843.231 644.103C845.704 627.237 850.085 611.371 856.952 600.444L856.952 600.443ZM894.655 615.061C891.783 630.54 884.043 650.407 875.968 670.345C867.301 671.446 861.117 675.936 857.007 680.733C855.345 682.67 854.04 684.644 852.973 686.484C853.789 678.031 854.855 668.884 856.299 659.495C857.166 653.856 858.178 648.152 859.324 642.488C859.324 642.488 870.532 617.983 894.655 615.061V615.061ZM843.218 644.188C843.052 645.233 842.923 646.279 842.785 647.328C842.926 646.278 843.066 645.234 843.218 644.188ZM842.77 647.418C845.247 649.71 847.282 653.006 848.806 656.337C851.307 661.801 852.434 667.045 852.434 667.045L852.482 667.04C851.185 676.656 850.219 685.836 849.54 694.085C849.535 694.134 849.445 694.336 849.445 694.336L849.52 694.351C848.125 711.379 847.886 722.367 847.83 725.669H847.148C841.416 719.923 838.214 682.23 842.784 647.419L842.77 647.418ZM874.749 673.367C867.107 692.178 859.4 710.84 855.39 725.653L850.574 725.658C850.648 722.324 850.877 711.533 852.243 694.775C852.52 693.857 854.364 688.129 859.083 682.621C862.617 678.496 867.614 674.643 874.75 673.362L874.749 673.367Z" fill="#75B998"/>
    <path d="M829.524 731.769H899.675C905.925 723.312 894.936 718.012 885.292 718.012C869.349 718.012 865.673 726.261 858.935 721.402C847.282 712.998 833.391 718.618 829.524 731.769V731.769Z" fill="white"/>
    <path d="M409.536 167.721C444.438 167.721 472.732 138.482 472.732 102.415C472.732 66.3473 444.438 37.1088 409.536 37.1088C374.634 37.1088 346.34 66.3473 346.34 102.415C346.34 138.482 374.634 167.721 409.536 167.721Z" stroke="#3D4045" stroke-width="2.76646" stroke-linecap="round" stroke-linejoin="round"/>
    <path d="M699.123 716.723C699.123 716.723 702.892 727.888 699.668 731.754H665.709C665.709 731.754 663.937 726.972 682.226 726.068C682.226 726.068 688.54 722.01 690.092 714.645L699.123 716.723Z" fill="white"/>
    <path d="M821.789 719.07C821.789 719.07 825.558 730.235 822.333 734.101H788.375C788.375 734.101 786.602 729.32 804.891 728.415C804.891 728.415 811.205 724.357 812.757 716.992L821.789 719.07Z" fill="white"/>
    <path d="M715.014 495.057C715.014 495.057 684.844 582.761 686.749 715.225C686.749 715.225 692.386 720.616 701.348 716.781C701.348 716.781 722.496 599.349 752.27 539.444C752.27 539.444 768.474 623.093 808.6 720.013C808.6 720.013 816.168 725.31 823.584 720.013C823.584 720.013 796.64 600.135 807.131 496.328L715.014 495.057Z" fill="white" stroke="#3D4045" stroke-width="0.313391" stroke-linecap="round" stroke-linejoin="round"/>
    <path d="M869.5 422.616C869.5 422.616 870.504 415.049 868.924 410.094C867.832 406.669 872.773 408.333 873.303 414.875C873.303 414.875 874.775 417.205 886.109 410.966C888.006 409.922 888.436 414.186 879.724 417.834C876.923 419.006 875.543 420.685 874.961 422.423C873.732 426.089 873.457 427.11 873.457 427.11L869.5 422.616Z" fill="white"/>
    <path d="M882.534 413.437C882.534 413.437 884.178 410.019 884.403 407.859C884.515 406.779 882.684 406.945 881.274 410.917C879.864 414.888 875.498 415.756 875.498 415.756L882.534 413.437Z" fill="white"/>
    <path d="M771.738 358.119C771.738 358.119 747.357 474.566 776.43 522.407C776.43 522.407 803.791 525.446 814.137 510.258C824.483 495.071 804.779 467.043 806.422 444.225C806.422 444.225 813.527 454.045 821.419 472.747C841.814 502.17 872.276 435.221 874.195 425.447L869.791 421.123C869.791 421.123 854.369 430.27 837.524 451.438C837.524 451.438 843.472 360.492 771.738 358.119Z" fill="white" stroke="#3D4045" stroke-width="0.313391" stroke-linecap="round" stroke-linejoin="round"/>
    <path d="M624.999 359.589C624.999 359.589 623.403 350.729 627.871 344.17C632.338 337.61 623.302 341.937 621.529 347.4C621.529 347.4 619.65 347.254 615.289 344.159C611.676 341.584 610.589 347.151 612.703 347.789C612.703 347.789 611.013 347.011 610.968 350.144C610.92 353.277 610.197 357.122 612.409 357.976C614.625 358.83 619.4 358.221 620.296 361.318C621.19 364.427 624.998 359.589 624.998 359.589L624.999 359.589Z" fill="white"/>
    <path d="M736.39 359.551C736.39 359.551 725.175 472.437 733.651 514.982C733.651 514.982 705.14 525.822 701.335 501.331C697.529 476.84 720.228 400.658 712.275 400.658C704.322 400.658 681.464 427.902 660.617 426.48C639.77 425.059 634.386 415.398 620.057 361.499L625.488 357.69C625.488 357.69 650.268 381.962 655.892 400.364C655.892 400.364 707.431 357.487 736.39 359.551V359.551Z" fill="white" stroke="#3D4045" stroke-width="0.313391" stroke-linecap="round" stroke-linejoin="round"/>
    <path d="M727.015 301.021C727.015 301.021 721.692 330.13 734.487 344.231C747.282 358.333 769.839 319.974 769.839 319.974L757.798 298.933L727.015 301.021Z" fill="white"/>
    <path d="M719.953 295.199C719.953 295.199 724.961 308.73 744.553 303.98C764.145 299.23 760.747 313.903 758.369 318.676C755.991 323.448 756.094 324.809 757.209 326.014C758.776 327.709 764.303 318.757 765.649 321.39C766.958 323.95 756.245 331.928 757.798 334.028C759.353 336.126 767.138 329.672 771.661 323.891C776.184 318.11 777.302 305.744 771.06 303.177C771.06 303.177 774.781 283.67 752.409 286.375C730.037 289.08 735.882 276.869 726.699 276.716C717.516 276.545 714.308 284.771 719.954 295.199H719.953Z" fill="#3D4045"/>
    <path d="M752.832 544.671C752.832 544.671 750.164 524.553 749.83 516.632" stroke="#3D4045" stroke-width="0.313391" stroke-linecap="round" stroke-linejoin="round"/>
    <path d="M768.914 360.13C768.914 360.13 745.805 372.915 738.286 361.737" stroke="#3D4045" stroke-width="0.313291" stroke-linecap="round" stroke-linejoin="round"/>
    <path d="M804.091 503.244C804.091 503.244 785.273 504.624 781.742 486.637" stroke="#3D4045" stroke-width="0.313291" stroke-linecap="round" stroke-linejoin="round"/>
    <path d="M741.016 347.546C741.016 347.546 751.022 347.4 756.91 337.685" stroke="#3D4045" stroke-width="0.313291" stroke-linecap="round" stroke-linejoin="round"/>
    <path d="M764.655 287.804C761.864 286.393 757.931 285.708 752.408 286.373C730.036 289.079 735.881 276.868 726.698 276.715C717.515 276.544 714.307 284.769 719.953 295.198C719.953 295.198 721.539 299.48 726.412 302.38" stroke="#323943" stroke-width="0.313291" stroke-linecap="round" stroke-linejoin="round"/>
    <path d="M411.314 419.721C411.314 419.721 407.97 473.537 420.172 474.888C432.375 476.238 448.789 464.521 448.789 464.521L445.529 444.107L437.393 448.148C437.393 448.148 442.795 428.565 440.864 423.553C438.933 418.541 411.314 419.721 411.314 419.721V419.721Z" stroke="#3D4045" stroke-width="0.313291" stroke-linecap="round" stroke-linejoin="round"/>
    <path d="M492.016 359.805C492.016 359.805 521.992 367.83 544.539 424.259C544.539 424.259 554.281 403.373 564.645 388.872L571.715 391.513C571.715 391.513 568.086 456.071 546.694 455.859C525.303 455.663 510.968 420.492 510.968 420.492C510.968 420.492 514.383 461.328 510.614 476.274H447.441C447.441 476.274 444.446 423.446 437.075 418.423L492.016 359.805Z" fill="white"/>
    <path d="M530.967 710.232C530.967 710.232 539.616 724.356 546.447 726.993C553.277 729.63 533.277 728.339 533.277 728.339L516.278 721.962C516.278 721.962 515.743 715.253 519.585 711.787C523.428 708.322 530.967 710.232 530.967 710.232V710.232Z" fill="white"/>
    <path d="M464.366 710.292C464.366 710.292 473.014 724.416 479.845 727.053C486.676 729.69 466.675 728.398 466.675 728.398L449.677 722.022C449.677 722.022 449.069 713.722 452.91 710.257C456.754 706.791 464.366 710.305 464.366 710.305V710.292Z" fill="white"/>
    <path d="M448.45 718.337C448.45 718.337 470.933 729.323 473.588 727.318C476.244 725.312 474.686 722.719 474.686 722.719C474.686 722.719 487.762 730.779 493.578 730.724C499.393 730.676 487.708 736.571 478.256 734.421C468.803 732.271 455.328 726.951 455.328 726.951L455.6 733.724L452.208 733.676C452.208 733.676 453.266 730.179 449.757 725.632C446.248 721.086 448.45 718.331 448.45 718.331L448.45 718.337Z" fill="white"/>
    <path d="M510.614 476.274C510.614 476.274 537.621 511.249 530.967 710.232C530.967 710.232 526.572 715.622 519.585 711.788C519.585 711.788 504.884 599.938 483.448 552.303C483.448 552.303 475.154 610.087 464.366 710.292C464.366 710.292 458.465 715.59 452.684 710.292C452.684 710.292 417.761 525.776 447.441 476.274H510.614Z" fill="white" stroke="#3D4045" stroke-width="0.313391" stroke-linecap="round" stroke-linejoin="round"/>
    <path d="M447.441 476.274C447.441 476.274 444.446 423.446 437.075 418.423L492.016 359.805C492.016 359.805 521.992 367.83 544.539 424.259C544.539 424.259 554.281 403.373 564.645 388.872L571.715 391.513C571.715 391.513 568.086 456.071 546.694 455.859C525.303 455.663 510.968 420.492 510.968 420.492C510.968 420.492 514.383 461.328 510.614 476.274" stroke="#3D4045" stroke-width="0.313291" stroke-linecap="round" stroke-linejoin="round"/>
    <path d="M501.128 307.447C501.128 307.447 512.286 353.028 491.188 352.429C470.091 351.83 483.152 321.226 483.152 321.226L501.128 307.447Z" fill="white"/>
    <path d="M503.998 301.07C503.998 301.07 507.281 309.446 491.525 324.159C475.769 338.873 505.597 341.875 491.971 365.5C478.343 389.125 496.509 422.793 455.827 431.814C415.145 440.835 368.276 403.465 418.779 357.647C443.866 334.886 435.09 321.345 453.078 297.802C466.343 280.441 495.685 278.904 503.999 301.07H503.998Z" fill="#3D4045"/>
    <path d="M485.113 556.443C482.448 548.153 471.724 532.438 472.301 509.076" stroke="#3D4045" stroke-width="0.313291" stroke-linecap="round" stroke-linejoin="round"/>
    <path d="M515.052 718.277C515.052 718.277 537.534 729.264 540.19 727.258C542.845 725.252 541.288 722.66 541.288 722.66C541.288 722.66 554.364 730.719 560.179 730.664C565.994 730.616 554.309 736.511 544.857 734.361C535.405 732.211 521.93 726.892 521.93 726.892L522.202 733.664L518.809 733.616C518.809 733.616 519.867 730.119 516.358 725.572C512.849 721.025 515.052 718.269 515.052 718.269L515.052 718.277Z" fill="white"/>
    <path d="M867.458 321.638C882.175 321.638 894.106 309.309 894.106 294.101C894.106 278.892 882.175 266.563 867.458 266.563C852.741 266.563 840.811 278.892 840.811 294.101C840.811 309.309 852.741 321.638 867.458 321.638Z" fill="#3D4045"/>
    <path d="M867.433 266.563C860.534 266.57 853.919 269.475 849.043 274.638C844.166 279.802 841.427 286.802 841.427 294.101C841.427 299.378 842.861 304.545 845.558 308.985C848.254 313.426 852.1 316.953 856.638 319.147V285.239H859.744H875.171V267.8C872.673 266.98 870.073 266.563 867.458 266.563C867.45 266.563 867.442 266.563 867.435 266.563L867.433 266.563ZM878.278 269.055V319.147C882.815 316.953 886.661 313.426 889.358 308.985C892.055 304.545 893.488 299.378 893.488 294.101C893.488 288.823 892.054 283.657 889.358 279.216C886.661 274.776 882.815 271.249 878.278 269.055ZM859.744 288.449V320.401C862.242 321.221 864.842 321.638 867.458 321.639C870.073 321.638 872.673 321.221 875.171 320.401V288.449H859.744Z" fill="#75B998"/>
    <path d="M207.459 251.879C262.631 251.879 307.356 205.66 307.356 148.647C307.356 91.6331 262.631 45.4144 207.459 45.4144C152.288 45.4144 107.562 91.6331 107.562 148.647C107.562 205.66 152.288 251.879 207.459 251.879Z" fill="white"/>
    <path d="M207.459 239.014C255.755 239.014 294.906 198.555 294.906 148.647C294.906 98.7389 255.755 58.2804 207.459 58.2804C159.163 58.2804 120.012 98.7389 120.012 148.647C120.012 198.555 159.163 239.014 207.459 239.014Z" fill="#3C3F44"/>
    <path d="M243.898 188.166L242.807 188.152L242.549 188.103L242.29 188.054L241.77 187.883L241.25 187.712L240.739 187.449L240.228 187.185L239.686 186.654L239.144 186.126L238.822 185.499L238.5 184.874L238.334 184.289L238.169 183.704L238.215 177.335L238.261 170.965H238.28H238.299L239.061 170.794L239.823 170.623L240.06 170.575L240.297 170.528L240.278 177.061L240.259 183.594L240.514 184.133L240.773 184.67L241.267 185.175L241.764 185.679L242.365 185.924L242.966 186.168L243.747 186.216L244.529 186.264L245.409 186.092L246.29 185.921L247.024 185.56L247.758 185.198L248.213 184.802L248.669 184.406L249.022 183.929L249.372 183.453L249.561 182.991L249.75 182.529L249.892 181.99L250.034 181.452L250.108 176.299L250.182 171.145L251.114 170.9L252.047 170.656L252.066 170.672L252.085 170.688L251.99 179.057L251.896 187.426L251.877 187.441L251.858 187.455L251.181 187.602L250.505 187.748L250.268 187.797L250.031 187.845V186.144V184.441L249.64 185.123L249.249 185.806L248.579 186.451L247.909 187.097L247.17 187.459L246.431 187.821L245.704 187.992L244.977 188.163L243.898 188.166ZM204.091 187.97L203.972 187.975L203.898 187.409L203.824 186.843L203.823 181.071L203.822 175.299L203.727 175.031L203.633 174.762L203.263 174.339L202.894 173.916L202.35 173.669L201.805 173.422L200.917 173.374L200.03 173.327L199.464 173.449L198.895 173.572L198.356 173.83L197.814 174.093L197.331 174.553L196.848 175.013L196.659 175.4L196.47 175.786L196.396 181.482L196.322 187.178L194.385 187.528L192.449 187.878L192.307 187.875L192.166 187.872L192.183 176.237L192.2 164.602L194.072 164.146L195.945 163.691L196.181 163.688L196.418 163.684V166.84V169.996L195.398 171.06L194.378 172.124L194.021 172.608L193.663 173.09L193.829 172.968L193.995 172.845L195.398 171.759L196.802 170.673L197.325 170.406L197.848 170.139L198.625 169.968L199.401 169.797L200.703 169.793L202.005 169.791L202.627 169.937L203.249 170.083L203.926 170.303L204.602 170.523L205.424 170.958L206.245 171.393L206.858 171.982L207.471 172.57L207.726 173.022L207.984 173.475L207.967 180.395L207.95 187.315L206.078 187.663L204.206 188.008L204.087 188.013L204.091 187.97ZM265.97 187.975H265.875L263.291 184.211L260.707 180.447L260.633 180.545L260.558 180.643L258.549 183.492L256.539 186.341L255.981 187.124L255.423 187.907L254.793 187.447L254.164 186.989L254.117 186.867L254.071 186.744L256.837 182.801L259.603 178.858L259.529 178.735L259.455 178.613L257.1 175.387L254.745 172.162L254.65 172.015L254.556 171.869L254.845 171.625L255.133 171.38L255.515 171.086L255.896 170.792L258.269 173.961L260.642 177.13H260.66H260.679L262.758 174.125L264.836 171.12L264.93 171.116L265.025 171.113L265.642 171.667L266.262 172.222L266.216 172.345L266.17 172.467L264.014 175.52L261.858 178.573L261.763 178.72L261.669 178.866L264.477 182.946L267.286 187.025L266.673 187.517L266.06 188.009H265.966L265.97 187.975ZM154.787 187.711L153.642 187.759L153.152 187.662L152.659 187.564L152.112 187.368L151.565 187.173L150.836 186.786L150.107 186.403L149.421 185.699L148.735 184.996L148.356 184.189L147.977 183.381L147.788 182.682L147.598 181.983L147.599 180.584L147.6 179.184L147.837 178.498L148.074 177.811L148.419 177.26L148.765 176.71L149.167 176.314L149.57 175.918L150.181 175.539L150.794 175.16L151.589 174.896L152.382 174.632L153.004 174.485L153.629 174.339L154.876 174.323L156.124 174.307L156.86 174.551L157.596 174.796L158.098 175.192L158.599 175.588L158.525 175.011L158.451 174.434L158.262 174.126L158.073 173.818L157.755 173.622L157.438 173.426L156.825 173.255L156.212 173.083H155.307H154.403L153.17 173.28L151.937 173.475L150.812 173.751L149.688 174.028L149.641 173.981L149.595 173.933L149.95 171.944L150.306 169.956L150.352 169.711L150.399 169.467L151.31 169.27L152.221 169.075L152.948 168.952L153.676 168.83L154.768 168.753L155.859 168.676L156.964 168.798L158.069 168.921L158.834 169.141L159.601 169.36L160.226 169.701L160.851 170.041L161.428 170.633L162.006 171.225L162.283 171.817L162.56 172.407L162.726 173.05L162.891 173.696L162.908 174.718L162.925 175.74L162.908 181.335L162.891 186.93L161.149 187.224L159.405 187.518L159.216 187.516L159.026 187.515V187.202V186.889L159.4 186.424L159.776 185.957L160.219 185.311L160.661 184.665L161.006 184.019L161.352 183.376L160.076 184.744L158.798 186.111L158.156 186.546L157.513 186.981L156.679 187.255L155.846 187.528L154.787 187.711ZM155 183.777L155.419 183.781L156.031 183.61L156.643 183.438L157.156 183.15L157.67 182.861L158.014 182.445L158.357 182.027L158.476 181.504L158.594 180.981L158.52 180.626L158.446 180.271L158.256 179.894L158.066 179.518L157.77 179.226L157.474 178.936L156.849 178.64L156.227 178.346L155.384 178.298L154.542 178.251L153.941 178.447L153.34 178.642L152.964 178.892L152.588 179.143L152.307 179.452L152.025 179.76L151.859 180.161L151.694 180.562V180.983V181.404L151.987 181.981L152.278 182.558L152.794 182.963L153.307 183.369L153.932 183.565L154.555 183.76L154.973 183.764L155 183.777ZM165.894 187.685L165.555 187.762V178.809V169.855L167.3 169.552L169.044 169.251L169.33 169.204L169.616 169.156V170.482V171.808L170.331 171.032L171.046 170.257L171.607 169.989L172.168 169.725L172.79 169.554L173.415 169.383L174.404 169.261L175.394 169.138L175.986 169.135L176.577 169.134L176.246 169.956L175.914 170.777L175.341 172.076L174.771 173.375L173.973 173.521L173.175 173.644L172.775 173.79L172.375 173.936L171.84 174.248L171.305 174.559L170.871 175.006L170.436 175.456L170.247 175.786L170.058 176.116L170.011 181.492L169.964 186.868L168.092 187.251L166.22 187.633L165.894 187.685ZM184.284 187.7L182.982 187.748L182.333 187.65L181.687 187.553L181.052 187.382L180.418 187.21L179.729 186.926L179.041 186.642L178.428 186.273L177.817 185.901L177.094 185.196L176.372 184.492L175.911 183.727L175.449 182.961L175.189 182.253L174.931 181.544L174.741 180.587L174.552 179.633L174.626 178.021L174.701 176.409L174.866 175.724L175.032 175.039L175.307 174.327L175.582 173.613L175.942 173.023L176.302 172.434L176.787 171.911L177.27 171.388L177.946 170.928L178.623 170.468L179.265 170.2L179.906 169.933L180.567 169.762L181.227 169.591L182.266 169.468L183.307 169.346L184.297 169.423L185.286 169.5L186.188 169.695L187.09 169.89L187.882 170.231L188.676 170.573L189.426 171.082L190.176 171.591L190.462 171.906L190.748 172.222L189.385 173.859L188.022 175.495L187.673 175.179L187.325 174.864L186.878 174.597L186.431 174.328L185.754 174.083L185.077 173.839L184.192 173.835L183.307 173.832L182.737 173.978L182.167 174.125L181.426 174.486L180.685 174.848L180.108 175.491L179.53 176.134L179.293 176.755L179.056 177.376L179.009 178.183L178.963 178.991L179.128 179.717L179.294 180.443L179.569 181.001L179.844 181.561L180.481 182.219L181.118 182.877L181.807 183.217L182.498 183.56L183.265 183.683L184.03 183.805L184.792 183.659L185.553 183.512L186.247 183.152L186.94 182.793L187.511 182.264L188.081 181.736L189.478 183.103L190.872 184.471L190.361 185.036L189.851 185.602L189.214 186.072L188.58 186.541L187.916 186.862L187.251 187.182L186.418 187.402L185.584 187.622L184.285 187.67L184.284 187.7ZM233.729 187.714L233.492 187.791L233.566 181.509L233.64 175.228L233.373 174.624L233.105 174.022L232.669 173.535L232.236 173.048L231.786 172.777L231.336 172.508L230.73 172.337L230.125 172.166L229.393 172.168L228.662 172.17L227.933 172.341L227.207 172.512L226.345 172.95L225.483 173.389L224.81 174.037L224.138 174.688L223.816 175.363L223.494 176.039L223.42 181.634L223.345 187.229L222.419 187.474L221.494 187.718L221.419 187.642L221.345 187.565L221.419 179.237L221.494 170.91L222.339 170.714L223.181 170.519L223.323 170.519H223.465L223.418 172.185L223.371 173.851H223.388H223.405L223.803 173.147L224.201 172.444L224.728 171.931L225.256 171.417L225.765 171.111L226.275 170.802L226.963 170.538L227.652 170.274L229.108 170.227L230.564 170.179L231.264 170.35L231.967 170.521L232.601 170.854L233.234 171.188L233.688 171.619L234.143 172.049L234.472 172.58L234.8 173.111L234.989 173.765L235.179 174.42V178.156V181.892L235.105 184.641L235.031 187.389L234.448 187.512L233.866 187.634L233.629 187.712L233.729 187.714ZM216.725 187.592L216.535 187.64L216.582 181.695L216.629 175.75L216.703 173.458L216.777 171.166L217.364 170.895L217.951 170.626L218.199 170.528L218.448 170.43L218.374 173.847L218.3 177.263L218.225 182.278L218.151 187.294L217.514 187.416L216.877 187.539L216.725 187.592ZM211.604 187.469L211.301 187.546L211.375 183.045L211.449 178.544L211.524 171.367L211.598 164.19L211.972 164.092L212.346 163.995L212.959 163.824L213.57 163.652L213.496 167.974L213.421 172.295L213.347 179.732L213.273 187.169L212.584 187.292L211.898 187.414L211.604 187.469ZM218.14 165.877L217.508 166.425L216.964 165.787L216.419 165.149L216.466 165.051L216.513 164.953L217.135 164.447L217.757 163.941L218.256 164.54L218.755 165.139V165.237V165.335L218.14 165.877ZM175.258 163.445L174.919 163.641V163.593V163.545L176.389 160.815L177.859 158.084L180.955 152.279L184.051 146.473L186.338 142.119L188.626 137.764L189.824 135.453L191.022 133.141L192.478 130.292L193.933 127.443L195.683 123.949L197.432 120.455L198.76 117.637L200.087 114.819L201.238 115.709L202.388 116.6L203.714 117.414L205.039 118.229L206.521 118.994L208.003 119.759L208.857 120.133L209.712 120.507H209.758H209.805L208.465 119.476L207.126 118.441L206.555 117.95L205.985 117.458L205.1 116.65L204.215 115.843L202.681 114.29L201.147 112.736V112.639V112.541L201.993 110.635L202.838 108.73L203.825 106.365L204.812 103.999L205.73 101.688L206.649 99.3765L208.017 95.8822L209.385 92.3881L209.459 92.3114L209.534 92.2351L209.938 93.2282L210.341 94.2213L212.339 99.0597L214.336 103.898L215.17 105.833L216.003 107.767L217.066 110.133L218.128 112.498L220.285 117.022L222.441 121.546L224.451 125.569L226.46 129.593L228.956 134.485L231.452 139.376L233.012 142.387L234.569 145.397L235.189 146.605L235.81 147.814L235.081 147.38L234.352 146.947L233.121 146.376L231.89 145.806L230.536 145.305L229.182 144.804L227.942 144.426L226.704 144.049L226.657 144.095L226.611 144.14L227.886 144.869L229.165 145.599L230.464 146.455L231.766 147.311L232.857 148.133L233.948 148.955L236.081 150.721L238.214 152.487L241.058 157.917L243.903 163.346L243.949 163.493L243.996 163.639L242.251 162.614L240.507 161.589L238.362 160.396L236.22 159.202L233.879 158.003L231.538 156.807L229.926 156.072L228.314 155.335L226.754 154.692L225.194 154.046L223.194 153.354L221.192 152.662L219.35 152.185L217.509 151.709H217.319H217.129L217.083 151.562L217.036 151.416L217.202 150.509L217.367 149.601L217.442 148.15L217.516 146.7L217.397 145.411L217.279 144.122L217.09 143.048L216.9 141.975L216.55 140.884L216.2 139.793L215.765 138.895L215.332 137.998L214.885 137.299L214.437 136.599L213.711 135.848L212.984 135.097L212.418 134.747L211.853 134.397L211.249 134.202L210.645 133.982L209.985 133.905L209.325 133.828L208.671 133.975L208.016 134.121L207.256 134.505L206.496 134.888L205.736 135.619L204.975 136.35L204.431 137.162L203.887 137.975L203.432 138.968L202.978 139.961L202.719 140.783L202.461 141.605L202.271 142.61L202.083 143.618L201.941 144.846L201.799 146.074L201.874 147.695L201.948 149.317L202.113 150.283L202.303 151.249L202.35 151.42L202.397 151.591L201.071 151.89L199.746 152.189L198.084 152.676L196.422 153.163L195.014 153.677L193.606 154.19L192.358 154.696L191.111 155.205L189.444 155.961L187.778 156.714L185.697 157.753L183.617 158.793L181.224 160.116L178.831 161.44L177.271 162.352L175.711 163.265L175.258 163.445Z" fill="#75B998"/>
    <path d="M219.801 282.872C219.801 277.699 215.742 273.504 210.736 273.504C205.729 273.504 201.67 277.699 201.67 282.872V431.623C201.67 436.797 205.729 440.991 210.736 440.991C215.742 440.991 219.801 436.797 219.801 431.623V282.872Z" fill="#3C3F44"/>
    <path d="M256.062 337.2C256.062 332.026 252.004 327.832 246.997 327.832C241.99 327.832 237.932 332.026 237.932 337.2V431.623C237.932 436.797 241.99 440.991 246.997 440.991C252.004 440.991 256.062 436.797 256.062 431.623V337.2Z" fill="#3C3F44"/>
    <path d="M292.323 312.528C292.323 307.354 288.265 303.16 283.258 303.16C278.252 303.16 274.193 307.354 274.193 312.528V431.623C274.193 436.797 278.252 440.991 283.258 440.991C288.265 440.991 292.323 436.797 292.323 431.623V312.528Z" fill="#3C3F44"/>
    <path d="M328.585 394.899C328.585 389.725 324.526 385.531 319.519 385.531C314.513 385.531 310.454 389.725 310.454 394.899V431.623C310.454 436.797 314.513 440.991 319.519 440.991C324.526 440.991 328.585 436.797 328.585 431.623V394.899Z" fill="#3C3F44"/>
    <path d="M345.971 473.665H100.671C97.0957 473.665 94.1976 476.66 94.1976 480.354V545.927C94.1976 549.621 97.0957 552.616 100.671 552.616H345.971C349.546 552.616 352.444 549.621 352.444 545.927V480.354C352.444 476.66 349.546 473.665 345.971 473.665Z" fill="white"/>
    <path d="M327.349 522.508C332.356 522.508 336.415 518.314 336.415 513.14C336.415 507.967 332.356 503.772 327.349 503.772H119.293C114.286 503.772 110.227 507.967 110.227 513.14C110.227 518.314 114.286 522.508 119.293 522.508H327.349Z" fill="#3D4045"/>
    <path d="M118.595 503.708C113.539 503.708 109.469 507.919 109.469 513.143C109.469 515.637 110.416 517.882 111.935 519.565L120.798 503.708H118.595ZM133.019 503.708L122.477 522.574H134.698L145.24 503.708H133.019ZM157.457 503.708L146.915 522.574H159.136L169.678 503.708H157.457ZM181.899 503.708L171.357 522.574H183.578L194.12 503.708H181.899ZM206.341 503.708L195.799 522.574H208.02L218.562 503.708H206.341ZM230.783 503.708L220.241 522.574H232.462L243.004 503.708H230.783ZM255.225 503.708L244.683 522.574H256.904L267.446 503.708H255.225ZM279.667 503.708L269.125 522.574H281.346L291.888 503.708H279.667ZM304.109 503.708L293.567 522.574H305.788L316.33 503.708H304.109ZM328.519 503.757L318.009 522.57H328.045C328.879 522.57 329.671 522.399 330.437 522.198L336.84 510.738C335.851 506.842 332.551 503.968 328.519 503.753V503.757Z" fill="white"/>
    <path d="M167.276 574.035C177.439 574.035 185.677 565.522 185.677 555.019C185.677 544.517 177.439 536.003 167.276 536.003C157.113 536.003 148.874 544.517 148.874 555.019C148.874 565.522 157.113 574.035 167.276 574.035Z" fill="#75B998"/>
    <path d="M597.529 436.611L589.857 437.357V470.104L597.439 468.891V455.083L599.815 458.629L605.081 466.559L606.915 469.358L607.727 470.368L609.986 469.669L615.581 467.864C615.463 466.785 613.941 465.281 613.309 464.412C611.413 461.8 609.615 459.111 607.744 456.481C607.102 455.584 606.446 454.691 605.833 453.776C605.692 453.58 605.258 453.147 605.277 452.905C605.291 452.597 605.807 452.152 605.984 451.912C606.555 451.122 607.172 450.369 607.743 449.578C609.544 447.094 611.419 444.659 613.263 442.208C613.971 441.267 615.377 439.999 615.67 438.849L609.894 437.465L607.562 436.998L606.75 438.008L604.944 440.527L599.754 447.711L597.53 450.883H597.435L597.529 436.611ZM580.095 444.582C580 444.586 579.905 444.597 579.84 444.68C578.94 445.287 578.164 446.38 577.402 447.168C577.163 447.415 576.636 447.791 576.711 448.195C576.806 448.692 577.306 449.257 577.554 449.687C578.165 450.746 578.792 451.801 579.405 452.859C579.642 453.263 580.371 454.06 580.172 454.54C579.843 455.332 579.405 456.049 579.118 456.873C579 457.162 578.928 457.69 578.667 457.854C578.229 458.117 577.448 458.105 576.953 458.211C575.871 458.455 574.79 458.693 573.704 458.91C573.247 459.008 572.163 459.057 572.004 459.578C571.838 460.101 571.99 460.894 571.99 461.444C571.99 462.043 571.697 463.868 572.109 464.306C572.421 464.639 573.283 464.68 573.702 464.788C574.843 465.083 575.988 465.363 577.131 465.658C577.524 465.756 578.161 465.805 578.485 466.047C578.77 466.267 578.8 466.805 578.907 467.135C579.208 468.07 579.842 469.016 580.064 469.934C580.159 470.316 579.499 471.01 579.312 471.336C578.689 472.414 577.965 473.449 577.312 474.508C577.06 474.911 576.556 475.422 576.5 475.909C576.451 476.367 576.853 476.648 577.132 476.936C577.851 477.683 578.746 479.043 579.659 479.502C579.974 479.673 580.31 479.356 580.561 479.206C581.406 478.683 582.242 478.142 583.088 477.621L584.984 476.44C585.174 476.294 585.541 475.973 585.796 475.987C586.13 476.002 586.579 476.401 586.88 476.547C587.581 476.892 588.599 476.992 589.226 477.449C589.569 477.701 589.602 478.584 589.676 478.988C589.922 480.292 590.164 481.613 590.458 482.906C590.576 483.412 590.576 484.367 591.134 484.57C591.62 484.741 592.41 484.584 592.924 484.584C593.509 484.584 594.931 484.856 595.421 484.536C595.833 484.267 595.872 483.525 595.977 483.09C596.308 481.722 596.626 480.352 596.955 478.985C597.049 478.602 597.096 477.669 597.438 477.446C598.198 476.945 599.324 476.781 600.146 476.358C600.468 476.187 600.856 475.847 601.227 476.015C602.664 476.676 604.067 477.926 605.379 478.83C605.753 479.089 606.52 479.855 607.005 479.701C607.51 479.53 607.997 478.8 608.362 478.424C608.892 477.874 610.045 477.054 610.241 476.279C610.336 475.941 609.964 475.523 609.806 475.251C609.356 474.493 608.907 473.233 608.256 472.655C607.856 472.298 607.482 472.919 607.098 472.359C606.402 471.344 605.756 470.29 605.051 469.281C604.782 468.892 604.578 468.302 604.118 468.163C603.489 469.929 601.86 471.502 600.418 472.579C593.492 477.749 583.274 473.785 581.403 465.084C580.612 461.406 581.497 457.497 583.749 454.542C584.544 453.504 585.481 452.641 586.517 451.867C586.959 451.537 588.001 451.251 588.275 450.794C588.417 450.598 588.324 450.121 588.324 449.876V447.543C587.666 447.689 586.738 448.528 586.127 448.506C585.749 448.492 585.117 447.851 584.804 447.636C583.725 446.892 582.634 446.17 581.555 445.427C581.205 445.182 580.587 444.575 580.097 444.595L580.095 444.582Z" fill="white"/>
    <path d="M620.633 60.3523C636.58 60.3523 649.508 46.9928 649.508 30.513C649.508 14.0332 636.58 0.673706 620.633 0.673706C604.685 0.673706 591.758 14.0332 591.758 30.513C591.758 46.9928 604.685 60.3523 620.633 60.3523Z" fill="#75B998"/>
    <path d="M630.148 13.3445C627.383 13.8114 625.236 15.7245 624.607 18.6204C624.228 20.3669 624.342 23.5915 626.818 23.3366C627.753 23.2389 628.645 22.688 629.379 22.1209C631.001 20.8685 632.486 19.1273 633.247 17.1648C633.558 16.3573 633.821 15.3034 633.436 14.4742C632.895 13.3539 631.24 13.1607 630.161 13.3465L630.148 13.3445ZM619.832 14.5818C617.442 15.0095 617.185 18.0256 617.782 19.9899C618.026 20.7898 618.629 22.2549 619.659 22.0959C620.383 21.9734 620.861 21.1813 621.162 20.5622C621.767 19.3221 622.215 17.7256 621.991 16.3281C621.801 15.1392 621.051 14.3614 619.83 14.5815L619.832 14.5818ZM613.299 17.3174C610.977 17.8551 611.358 20.8346 612.319 22.4157C612.689 23.0251 613.422 24.008 614.239 23.8099C614.871 23.6387 615.122 22.8095 615.257 22.242C615.547 21.0312 615.519 19.6142 615.067 18.4487C614.769 17.6834 614.141 17.1254 613.301 17.3211L613.299 17.3174ZM608.478 21.5544C608.206 21.6311 607.969 21.7494 607.751 21.9064C606.264 23.1123 607.173 25.494 608.393 26.538C608.789 26.8804 609.365 27.3675 609.929 27.2527C610.641 27.1063 610.738 26.2131 610.738 25.5943C610.738 24.4789 610.549 23.2632 609.895 22.3301C609.566 21.8459 609.083 21.4327 608.473 21.5523L608.478 21.5544ZM621.577 24.8168C620.654 24.988 619.724 25.0118 618.802 25.2129C615.004 26.0758 610.614 28.2926 609.471 32.4738C608.881 34.6313 609.305 36.872 610.212 38.8697C611.67 42.1259 614.294 44.7512 617.436 46.2469C619.299 47.1329 621.558 47.4968 623.54 46.8535C625.958 46.0661 627.976 44.1445 629.036 41.7807C629.547 40.6433 630.098 38.9342 628.577 38.3988C628.317 38.301 628.042 38.2276 627.768 38.2038C626.648 38.0813 625.4 38.3015 624.395 38.8085C623.997 39.0035 623.597 39.2362 623.375 39.6571C623.162 40.0628 623.327 40.5373 623.281 40.9804C623.186 41.8414 622.677 42.6828 621.835 42.9029C620.431 43.2703 618.615 41.9026 618.206 40.5401C617.718 38.9209 619.686 37.5995 620.768 36.8351C622.462 35.6366 624.286 34.6435 625.932 33.3662C626.919 32.6008 627.89 31.7103 628.483 30.5714C628.696 30.1437 628.881 29.6443 628.92 29.16C628.969 28.6931 628.969 28.2549 628.846 27.7927C628.288 25.5032 625.519 25.0296 623.614 24.834C622.97 24.7577 622.205 24.6876 621.564 24.8165L621.577 24.8168Z" fill="white"/>
    <path d="M543.51 137.816H548.877V139.037H542.009V127.714H543.51V137.816ZM552.182 139.037H550.689V127.714H552.182V139.037ZM556.055 130.622L556.101 131.68C556.744 130.871 557.584 130.467 558.621 130.467C560.4 130.467 561.296 131.47 561.312 133.476V139.037H559.873V133.469C559.868 132.862 559.728 132.414 559.453 132.123C559.184 131.833 558.761 131.688 558.186 131.688C557.719 131.688 557.309 131.812 556.957 132.061C556.604 132.31 556.33 132.636 556.133 133.041V139.037H554.694V130.622H556.055ZM568.677 138.205C568.117 138.863 567.295 139.193 566.212 139.193C565.315 139.193 564.63 138.933 564.158 138.415C563.692 137.891 563.456 137.119 563.451 136.097V130.622H564.889V136.058C564.889 137.334 565.408 137.972 566.445 137.972C567.544 137.972 568.275 137.562 568.638 136.743V130.622H570.077V139.037H568.708L568.677 138.205ZM575.093 133.694L576.959 130.622H578.639L575.886 134.783L578.725 139.037H577.061L575.116 135.887L573.172 139.037H571.5L574.339 134.783L571.586 130.622H573.25L575.093 133.694Z" fill="white"/>
    <path d="M348.494 85.5123C350.642 77.2285 354.347 69.4629 359.4 62.659C364.452 55.8551 370.751 50.1462 377.938 45.8581C385.125 41.5701 393.06 38.7869 401.288 37.6675C409.516 36.5481 417.876 37.1144 425.893 39.334" stroke="white" stroke-width="2.76646" stroke-linecap="round" stroke-linejoin="round"/>
    <path d="M472.731 95.6934C471.023 95.6936 469.385 96.3948 468.178 97.6428C466.97 98.8908 466.291 100.583 466.291 102.348V102.417C466.291 103.291 466.458 104.157 466.782 104.965C467.106 105.773 467.581 106.507 468.18 107.125C468.779 107.743 469.489 108.233 470.271 108.567C471.053 108.901 471.891 109.072 472.738 109.072C474.446 109.07 476.083 108.367 477.289 107.117C478.496 105.868 479.172 104.175 479.171 102.41V102.342C479.169 100.578 478.49 98.887 477.282 97.6405C476.075 96.3939 474.438 95.6936 472.731 95.6934V95.6934Z" fill="#75B998"/>
    <path d="M150.802 239.345C161.503 239.345 170.177 230.381 170.177 219.323C170.177 208.265 161.503 199.301 150.802 199.301C140.101 199.301 131.427 208.265 131.427 219.323C131.427 230.381 140.101 239.345 150.802 239.345Z" fill="#75B998"/>
    <path d="M561.435 638.146C566.849 638.146 571.239 633.61 571.239 628.014C571.239 622.419 566.849 617.883 561.435 617.883C556.02 617.883 551.63 622.419 551.63 628.014C551.63 633.61 556.02 638.146 561.435 638.146Z" fill="white"/>
    <path d="M384.051 527.729C389.466 527.729 393.855 523.193 393.855 517.598C393.855 512.002 389.466 507.466 384.051 507.466C378.636 507.466 374.247 512.002 374.247 517.598C374.247 523.193 378.636 527.729 384.051 527.729Z" fill="white"/>
    <path d="M358.611 313.792C365.935 313.792 371.873 307.656 371.873 300.086C371.873 292.517 365.935 286.381 358.611 286.381C351.286 286.381 345.348 292.517 345.348 300.086C345.348 307.656 351.286 313.792 358.611 313.792Z" fill="white"/>
    <path d="M358.611 305.952C361.745 305.952 364.286 303.326 364.286 300.087C364.286 296.848 361.745 294.222 358.611 294.222C355.476 294.222 352.935 296.848 352.935 300.087C352.935 303.326 355.476 305.952 358.611 305.952Z" fill="#707787"/>
    <path d="M402.647 294.641C409.972 294.641 415.91 288.505 415.91 280.935C415.91 273.366 409.972 267.229 402.647 267.229C395.323 267.229 389.385 273.366 389.385 280.935C389.385 288.505 395.323 294.641 402.647 294.641Z" fill="white"/>
    <path d="M402.648 286.8C405.782 286.8 408.323 284.174 408.323 280.935C408.323 277.696 405.782 275.07 402.648 275.07C399.513 275.07 396.972 277.696 396.972 280.935C396.972 284.174 399.513 286.8 402.648 286.8Z" fill="#707787"/>
    <path d="M552.451 289.765C559.776 289.765 565.714 283.629 565.714 276.059C565.714 268.49 559.776 262.353 552.451 262.353C545.126 262.353 539.188 268.49 539.188 276.059C539.188 283.629 545.126 289.765 552.451 289.765Z" fill="white"/>
    <path d="M552.451 281.924C555.586 281.924 558.127 279.298 558.127 276.059C558.127 272.82 555.586 270.194 552.451 270.194C549.317 270.194 546.776 272.82 546.776 276.059C546.776 279.298 549.317 281.924 552.451 281.924Z" fill="#707787"/>
    <path d="M612.438 326.26C619.763 326.26 625.7 320.124 625.7 312.554C625.7 304.985 619.763 298.849 612.438 298.849C605.113 298.849 599.175 304.985 599.175 312.554C599.175 320.124 605.113 326.26 612.438 326.26Z" fill="white"/>
    <path d="M612.438 318.419C615.572 318.419 618.113 315.793 618.113 312.554C618.113 309.315 615.572 306.689 612.438 306.689C609.303 306.689 606.762 309.315 606.762 312.554C606.762 315.793 609.303 318.419 612.438 318.419Z" fill="#707787"/>
    <path d="M645.038 263.285C652.363 263.285 658.301 257.148 658.301 249.579C658.301 242.009 652.363 235.873 645.038 235.873C637.713 235.873 631.775 242.009 631.775 249.579C631.775 257.148 637.713 263.285 645.038 263.285Z" fill="white"/>
    <path d="M645.038 255.444C648.172 255.444 650.713 252.818 650.713 249.579C650.713 246.34 648.172 243.714 645.038 243.714C641.903 243.714 639.362 246.34 639.362 249.579C639.362 252.818 641.903 255.444 645.038 255.444Z" fill="#707787"/>
    <path d="M210.736 289.495C214.354 289.495 217.287 286.464 217.287 282.725C217.287 278.986 214.354 275.955 210.736 275.955C207.117 275.955 204.184 278.986 204.184 282.725C204.184 286.464 207.117 289.495 210.736 289.495Z" fill="white"/>
    <path d="M246.997 344.121C250.615 344.121 253.548 341.09 253.548 337.351C253.548 333.612 250.615 330.581 246.997 330.581C243.379 330.581 240.446 333.612 240.446 337.351C240.446 341.09 243.379 344.121 246.997 344.121Z" fill="white"/>
    <path d="M283.258 319.113C286.876 319.113 289.809 316.082 289.809 312.343C289.809 308.604 286.876 305.573 283.258 305.573C279.64 305.573 276.707 308.604 276.707 312.343C276.707 316.082 279.64 319.113 283.258 319.113Z" fill="white"/>
    <path d="M319.519 401.463C323.138 401.463 326.071 398.432 326.071 394.693C326.071 390.954 323.138 387.923 319.519 387.923C315.901 387.923 312.968 390.954 312.968 394.693C312.968 398.432 315.901 401.463 319.519 401.463Z" fill="white"/>
    <path d="M289.631 629.55C286.472 629.081 283.857 628.447 282.538 627.833C282.19 627.662 281.473 627.366 280.95 627.157C278.668 626.248 275.225 623.736 272.708 621.14C271.11 619.491 269.428 617.015 268.165 614.446C267.211 612.509 266.03 609.148 266.229 608.942C266.275 608.894 266.237 608.723 266.134 608.581C265.945 608.323 265.836 607.829 265.491 605.073C264.972 600.937 265.789 594.748 267.188 592.221C267.306 592.025 267.378 591.685 267.378 591.496C267.378 591.301 267.472 591.218 267.624 591.301C267.79 591.399 267.814 591.35 267.718 591.203C267.529 590.892 268.372 589.166 269.863 586.785C271.255 584.569 274.674 580.991 276.798 579.532C280.816 576.773 285.359 575.116 289.714 574.821C292.202 574.649 296.643 574.944 296.455 575.243C296.361 575.39 296.409 575.414 296.574 575.321C297.395 574.797 304.706 577.72 306.455 579.274C306.777 579.558 307.104 579.793 307.184 579.793C307.437 579.793 308.351 580.705 308.299 580.903C308.252 581.001 308.373 581.05 308.536 580.98C308.896 580.834 312.606 584.796 313.577 586.357C315.25 589.049 315.674 589.827 316.38 591.538C321.225 603.255 317.268 617.334 307.092 624.59C306.161 625.254 305.255 625.849 305.08 625.915C304.89 625.993 304.523 626.197 304.232 626.397C303.942 626.593 303.179 626.982 302.538 627.249C301.896 627.515 301.181 627.829 300.949 627.939C300.178 628.308 297.378 629.005 295.287 629.345C293.399 629.653 290.941 629.739 289.621 629.541L289.631 629.55ZM302.268 621.921C303.795 621.451 304.559 620.287 304.555 618.437C304.551 616.749 303.963 615.684 302.685 615.043C298.78 613.089 295.343 618.135 298.476 621.22C299.513 622.24 300.583 622.438 302.269 621.922L302.268 621.921ZM273.962 621.593C273.962 621.47 273.868 621.397 273.725 621.397C273.607 621.397 273.559 621.495 273.631 621.593C273.705 621.716 273.82 621.813 273.868 621.813C273.914 621.813 273.962 621.715 273.962 621.593ZM294.404 618.063C295.566 617.867 296.047 617.715 296.118 617.461C296.425 616.37 297.235 615.113 298.052 614.472C299.214 613.554 300.929 613.109 301.922 613.469C302.301 613.615 302.687 613.719 302.779 613.719C303.016 613.719 305.513 610.527 305.513 610.235C305.513 610.089 305.632 609.991 305.75 609.991C305.892 609.991 305.94 609.844 305.869 609.69C305.794 609.519 305.877 609.203 306.034 608.978C306.661 608.034 307.781 603.43 307.464 603.103C307.39 603.025 306.202 602.98 304.792 602.98H302.229L301.949 604.237C301.686 605.424 301.137 606.894 300.867 607.136C300.793 607.185 300.63 607.518 300.492 607.848C300.35 608.181 300.139 608.45 300.02 608.45C299.902 608.45 299.807 608.548 299.807 608.67C299.807 608.998 298.155 610.56 297.143 611.186C295.491 612.211 293.984 612.6 291.675 612.592C290.006 612.589 289.336 612.495 288.615 612.154C287.415 611.592 287.374 611.6 287.01 612.432C286.82 612.824 286.271 613.908 285.748 614.839L284.797 616.535L285.367 616.833C287.735 618.071 291.2 618.531 294.416 618.037L294.404 618.063ZM284.125 614.305C284.125 614.207 284.219 614.182 284.314 614.228C284.408 614.305 284.503 614.223 284.503 614.056C284.503 613.885 284.851 613.178 285.28 612.452C286.063 611.119 286.217 610.642 285.862 610.642C285.673 610.642 284.738 609.678 283.63 608.345C282.923 607.493 282.175 605.904 282.35 605.616C282.424 605.493 282.396 605.396 282.276 605.396C281.923 605.396 281.663 603.764 281.712 601.875C281.758 599.715 281.984 598.64 282.27 599.084C282.389 599.281 282.412 599.162 282.316 598.742C282.198 598.254 282.222 598.148 282.458 598.282C282.648 598.405 282.671 598.38 282.576 598.205C282.339 597.808 283.829 595.466 285.023 594.357L286.098 593.359L284.779 591.055C283.283 588.442 283.21 588.413 281.721 589.827C279.422 592.011 277.917 594.336 277.07 597.011L276.71 598.146L277.306 598.836C277.986 599.623 278.613 601.079 278.63 601.907C278.648 602.918 277.981 604.796 277.38 605.419C276.753 606.067 276.341 606.85 276.774 606.573C276.94 606.476 276.964 606.525 276.893 606.769C276.819 606.965 276.847 607.134 276.939 607.134C277.058 607.134 277.081 607.33 277.013 607.603C276.919 607.926 276.967 608.026 277.155 607.919C277.296 607.821 277.403 607.87 277.406 608.065C277.414 608.52 278.714 610.991 279.41 611.887C280.367 613.118 280.781 613.556 282.057 614.679L283.222 615.706L283.697 615.092C283.958 614.754 284.173 614.399 284.173 614.302L284.125 614.305ZM275.214 605.629C276.355 605.028 277.086 604.044 277.254 602.885C277.444 601.503 277.208 600.476 276.497 599.629C276.156 599.228 275.919 598.856 275.967 598.804C276.085 598.682 275.778 598.633 274.037 598.484C272.577 598.338 271.723 598.68 270.879 599.678C270.225 600.46 269.851 601.889 270.062 602.808C270.157 603.212 270.252 603.606 270.252 603.687C270.298 604.135 271.308 605.181 272.101 605.587C273.239 606.169 274.169 606.181 275.221 605.636L275.214 605.629ZM306.571 601.267C307.51 601.121 307.522 601.121 307.456 600.37C307.208 597.481 305.498 593.58 303.458 591.247C302.871 590.576 302.812 590.557 301.903 590.767C300.388 591.117 298.51 590.523 297.455 589.373C296.967 588.84 296.193 587.318 296.193 586.896C296.193 586.676 295.704 586.408 295.029 586.277C294.91 586.262 294.006 586.155 293.017 586.082C290.889 585.885 288.913 586.159 286.77 586.962C285.956 587.27 285.134 587.532 284.945 587.543C284.652 587.558 284.676 587.69 285.087 588.338C285.354 588.764 285.949 589.845 286.41 590.738C286.907 591.704 287.435 592.436 287.707 592.541C287.962 592.638 288.116 592.638 288.052 592.536C287.862 592.24 290.518 591.638 291.999 591.638C292.733 591.638 293.997 591.834 294.814 592.094C296.403 592.581 298.664 594.006 298.568 594.461C298.522 594.632 298.614 594.681 298.709 594.633C298.974 594.461 300.309 596.029 300.873 597.165C301.493 598.42 302.125 600.364 302.125 601.008C302.125 601.523 302.171 601.534 303.872 601.49C304.835 601.476 306.049 601.393 306.572 601.295L306.571 601.267ZM303.057 589.025C303.511 588.705 303.987 588.245 304.115 588.005C304.256 587.761 304.396 587.518 304.453 587.457C304.528 587.408 304.595 586.877 304.643 586.305C304.785 583.9 303.15 582.089 300.863 582.103C299.876 582.106 299.516 582.225 298.884 582.719C298.46 583.054 297.954 583.577 297.762 583.881C297.327 584.568 297.18 587.125 297.549 587.614C299.241 589.86 301.186 590.355 303.078 589.02L303.057 589.025Z" fill="white"/>
    <path d="M832.594 104.759C832.594 102.518 830.835 100.7 828.666 100.7C826.497 100.7 824.738 102.518 824.738 104.759V156.36C824.738 158.602 826.497 160.419 828.666 160.419C830.835 160.419 832.594 158.602 832.594 156.36V104.759Z" fill="#3D4045"/>
    <path d="M816.159 57.1976C816.159 54.9559 814.4 53.1387 812.231 53.1387C810.062 53.1387 808.303 54.9559 808.303 57.1976V156.361C808.303 158.603 810.062 160.42 812.231 160.42C814.4 160.42 816.159 158.603 816.159 156.361V57.1976Z" fill="#3D4045"/>
    <path d="M819.235 228.248C824.65 228.248 829.039 223.712 829.039 218.116C829.039 212.521 824.65 207.985 819.235 207.985C813.821 207.985 809.431 212.521 809.431 218.116C809.431 223.712 813.821 228.248 819.235 228.248Z" fill="white"/>
    <path d="M322.916 730.996C322.75 730.564 322.962 728.981 323.311 727.921C323.477 727.434 323.579 727.007 323.548 726.972C323.502 726.924 323.077 727.095 322.576 727.315C321.38 727.846 320.538 727.855 320.538 727.33C320.538 727.134 320.992 726.244 321.551 725.385L322.564 723.822L322.573 721.229C322.591 718.262 322.916 716.622 323.924 714.502L324.563 713.159L323.081 711.738C320.842 709.592 317.611 707.492 312.201 704.668C306.99 701.946 305.867 701.292 305.867 700.979C305.867 700.676 306.104 700.732 307.633 701.4C308.414 701.74 309.704 702.269 310.5 702.574C315.196 704.38 318.213 705.807 320.455 707.281C321.996 708.293 324.365 710.173 325.061 710.935C325.733 711.671 325.814 711.681 326.902 711.13C328.275 710.445 330.215 710.417 333.275 711.033C334.71 711.321 336.315 711.642 336.846 711.747C338.3 712.036 340.43 712.153 341.182 711.992C342.463 711.71 343.031 709.82 342.683 706.98C342.564 706.041 342.517 705.026 342.609 704.72C342.75 704.194 343.709 703.382 344.214 703.382C344.753 703.381 345.691 704.537 346.41 706.096C346.9 707.158 347.293 707.772 347.489 707.772C347.726 707.772 347.762 707.649 347.679 707.322C347.398 706.329 347.348 703.091 347.605 702.591C348.311 701.231 349.837 701.378 350.472 702.87C350.662 703.318 350.907 704.516 351.017 705.531C351.23 707.615 351.298 707.772 351.831 707.772C352.643 707.772 356.799 708.845 358.179 709.415C360.109 710.208 361.658 711.216 362.174 712.011C362.804 712.982 362.903 713.931 362.451 714.68C361.838 715.703 361.163 716.162 355.672 719.291C352.745 720.962 352.584 721.072 352.584 721.464C352.584 722.034 353.396 723.496 354.42 724.771C355.554 726.182 355.689 726.593 355.114 726.909C354.844 727.055 354.288 726.957 352.941 726.54C349.606 725.485 349.58 725.498 350.927 727.327C352.032 728.829 352.434 729.646 352.292 730.103C352.151 730.56 351.57 730.729 350.865 730.521C350.046 730.276 346.994 728.992 346.015 728.476C345.168 728.028 345.04 728.021 340.224 728.088C335.929 728.165 330.358 727.917 328.534 727.615C328.018 727.517 327.708 727.713 326.121 729.071C323.344 731.441 323.13 731.57 322.917 730.998L322.916 730.996ZM354.783 717.886C355.945 716.827 355.91 716.272 354.737 717.275C353.928 717.972 353.371 718.742 353.676 718.742C353.771 718.742 354.256 718.359 354.775 717.886H354.783ZM354.17 716.135C354.947 715.74 355.354 715.349 354.987 715.349C354.665 715.349 352.436 716.536 352.201 716.831C351.936 717.165 351.955 717.169 352.587 716.908C352.954 716.737 353.666 716.407 354.171 716.152L354.17 716.135ZM352.383 713.178C352.383 713.08 352.146 712.933 351.867 712.866C351.583 712.789 351.063 712.404 350.707 712.003L350.061 711.274L350.203 711.967C350.393 712.97 350.79 713.356 351.656 713.356C352.065 713.356 352.397 713.259 352.397 713.16L352.383 713.178ZM352.873 711.754C353.597 710.927 352.525 709.665 351.699 710.372C351.285 710.727 351.363 711.495 351.864 711.849C352.412 712.245 352.463 712.24 352.889 711.752L352.873 711.754ZM360.6 709.092C360.789 708.38 361.972 706.078 362.332 705.772C362.928 705.26 362.805 705.775 361.899 707.582C360.978 709.414 360.344 710.153 360.599 709.091L360.6 709.092ZM359.388 707.749C359.462 706.825 359.625 705.802 359.754 705.474C360.005 704.88 360.005 704.882 360.066 705.941C360.14 707.147 359.802 709.093 359.484 709.295C359.318 709.392 359.294 708.94 359.389 707.749L359.388 707.749Z" fill="white"/>
</svg>
