<svg width="95" height="95" viewBox="0 0 95 95" fill="none" xmlns="http://www.w3.org/2000/svg">
    <path d="M63.8607 69.8105H31.1389C27.8531 69.8105 25.1894 67.1468 25.1894 63.8609V31.1391C25.1894 27.8533 27.8531 25.1896 31.1389 25.1896H63.8609C67.1467 25.1896 69.8104 27.8533 69.8104 31.1391V63.8611C69.8103 67.1468 67.1466 69.8105 63.8607 69.8105Z" fill="#4BD7C8"/>
    <path d="M63.8607 65.3484H31.1389C30.3175 65.3484 29.6516 64.6825 29.6516 63.8611V31.1391C29.6516 30.3177 30.3175 29.6517 31.1389 29.6517H63.8609C64.6823 29.6517 65.3482 30.3177 65.3482 31.1391V63.8611C65.3482 64.6825 64.6823 65.3484 63.8607 65.3484Z" fill="#99E9DF"/>
    <path d="M7.34116 38.5752C8.98382 38.5752 10.3155 37.2436 10.3155 35.6009C10.3155 33.9582 8.98382 32.6266 7.34116 32.6266C5.69849 32.6266 4.36685 33.9582 4.36685 35.6009C4.36685 37.2436 5.69849 38.5752 7.34116 38.5752Z" fill="#4BD7C8"/>
    <path d="M87.6594 62.3733C89.3021 62.3733 90.6338 61.0416 90.6338 59.399C90.6338 57.7563 89.3021 56.4247 87.6594 56.4247C86.0168 56.4247 84.6851 57.7563 84.6851 59.399C84.6851 61.0416 86.0168 62.3733 87.6594 62.3733Z" fill="#4BD7C8"/>
    <path d="M4.36626 75.7587C6.00892 75.7587 7.34056 74.427 7.34056 72.7844C7.34056 71.1417 6.00892 69.8101 4.36626 69.8101C2.72359 69.8101 1.39195 71.1417 1.39195 72.7844C1.39195 74.427 2.72359 75.7587 4.36626 75.7587Z" fill="#99E9DF"/>
    <path d="M90.6337 25.1899C92.2764 25.1899 93.608 23.8583 93.608 22.2156C93.608 20.573 92.2764 19.2413 90.6337 19.2413C88.991 19.2413 87.6594 20.573 87.6594 22.2156C87.6594 23.8583 88.991 25.1899 90.6337 25.1899Z" fill="#99E9DF"/>
    <path d="M59.3989 10.3156C61.0416 10.3156 62.3732 8.98391 62.3732 7.34125C62.3732 5.69859 61.0416 4.36694 59.3989 4.36694C57.7563 4.36694 56.4246 5.69859 56.4246 7.34125C56.4246 8.98391 57.7563 10.3156 59.3989 10.3156Z" fill="#4BD7C8"/>
    <path d="M35.6008 90.6339C37.2434 90.6339 38.5751 89.3023 38.5751 87.6596C38.5751 86.0169 37.2434 84.6853 35.6008 84.6853C33.9581 84.6853 32.6265 86.0169 32.6265 87.6596C32.6265 89.3023 33.9581 90.6339 35.6008 90.6339Z" fill="#4BD7C8"/>
    <path d="M22.2154 7.34082C23.8581 7.34082 25.1897 6.00918 25.1897 4.36652C25.1897 2.72385 23.8581 1.39221 22.2154 1.39221C20.5728 1.39221 19.2411 2.72385 19.2411 4.36652C19.2411 6.00918 20.5728 7.34082 22.2154 7.34082Z" fill="#99E9DF"/>
    <path d="M72.7842 93.6083C74.4268 93.6083 75.7585 92.2766 75.7585 90.634C75.7585 88.9913 74.4268 87.6597 72.7842 87.6597C71.1415 87.6597 69.8099 88.9913 69.8099 90.634C69.8099 92.2766 71.1415 93.6083 72.7842 93.6083Z" fill="#99E9DF"/>
    <path d="M47.4998 60.163C47.924 60.163 48.3277 60.3439 48.6096 60.6597C49.5813 61.749 51.0063 62.3736 52.5198 62.3736C55.1226 62.3736 57.3087 60.5513 57.4961 58.2259C57.5353 57.7414 57.8099 57.3065 58.2296 57.061C59.868 56.1045 60.8862 54.4356 60.8862 52.7057C60.8862 51.4574 60.3661 50.2444 59.4206 49.2902C58.8469 48.7107 58.8469 47.7767 59.4206 47.197C60.3661 46.2428 60.8862 45.0299 60.8862 43.7815C60.8862 41.5353 59.2464 39.5555 56.8061 38.8547C56.0464 38.6369 55.5904 37.8611 55.7676 37.0907C55.8344 36.8001 55.8663 36.5634 55.8663 36.3448C55.8663 34.2945 53.9897 32.6265 51.6831 32.6265C50.4906 32.6265 49.349 33.0848 48.5545 33.8835C47.9937 34.4443 47.0061 34.4443 46.4454 33.8835C45.6508 33.0846 44.5092 32.6265 43.3167 32.6265C41.0102 32.6265 39.1335 34.2947 39.1335 36.3448C39.1335 36.5903 39.1612 36.8372 39.2135 37.0775C39.382 37.8444 38.9274 38.61 38.172 38.827C35.7449 39.5264 34.1138 41.5171 34.1138 43.7815C34.1138 44.8643 34.503 45.9086 35.2395 46.8027C35.6766 47.3351 35.6926 48.0977 35.2758 48.6467C34.5162 49.6503 34.1138 50.7972 34.1138 51.962C34.1138 53.8182 35.1189 55.5969 36.8038 56.7204C37.2135 56.9935 37.4618 57.4524 37.4662 57.9455C37.4866 60.3871 39.7366 62.3734 42.4802 62.3734C43.9937 62.3734 45.4187 61.7489 46.3904 60.6595C46.6719 60.3437 47.0757 60.163 47.4998 60.163Z" fill="#CCF4EF"/>
    <path d="M93.608 46.1085H71.2019V42.9423H77.2471C78.0157 42.9423 78.6387 42.3192 78.6387 41.5507C78.6387 40.7822 78.0157 40.1591 77.2471 40.1591H71.2019V36.9928H75.3989C76.9625 36.9928 78.4326 36.384 79.5381 35.2783L88.6903 26.1261C89.2867 26.4231 89.9478 26.5812 90.6335 26.5812C91.7999 26.5812 92.8963 26.127 93.721 25.3024C94.5458 24.4777 95 23.3813 95 22.2149C95 21.0486 94.5458 19.9522 93.721 19.1275C92.8965 18.3027 91.7999 17.8485 90.6335 17.8485C89.4672 17.8485 88.3708 18.3027 87.5461 19.1273C86.7213 19.952 86.2671 21.0484 86.2671 22.2148C86.2671 22.9005 86.4252 23.5616 86.7222 24.158L77.57 33.3102C76.9901 33.8901 76.219 34.2096 75.3987 34.2096H71.2017V31.1392C71.2017 27.0913 67.9084 23.7982 63.8607 23.7982H60.7903V11.4789C62.5174 10.8964 63.765 9.26234 63.765 7.34119C63.765 4.93355 61.8062 2.97492 59.3987 2.97492C56.9912 2.97492 55.0324 4.93373 55.0324 7.34119C55.0324 9.26234 56.28 10.8963 58.0071 11.4789V23.798H54.8409V17.7527C54.8409 16.9842 54.2179 16.3611 53.4493 16.3611C52.6808 16.3611 52.0578 16.9842 52.0578 17.7527V23.798H48.8914V1.39184C48.8914 0.623308 48.2683 0.000244141 47.4998 0.000244141C46.7313 0.000244141 46.1082 0.623308 46.1082 1.39184V23.798H42.9421V17.7527C42.9421 16.9842 42.319 16.3611 41.5505 16.3611C40.7819 16.3611 40.1589 16.9842 40.1589 17.7527V23.798H36.9927V19.6012C36.9927 18.0376 36.3837 16.5675 35.2781 15.462L26.1227 6.30659C26.9315 4.6736 26.6604 2.63741 25.3024 1.27921C23.5998 -0.423172 20.8298 -0.422987 19.1274 1.27921C17.425 2.9816 17.425 5.75162 19.1274 7.45419C19.9787 8.30529 21.0968 8.73093 22.2149 8.73093C22.8806 8.73093 23.5452 8.57637 24.1548 8.27449L33.3102 17.4301C33.8902 18.0099 34.2095 18.781 34.2095 19.6012V23.798H31.1391C30.5184 23.798 29.9011 23.876 29.3044 24.0294C28.5602 24.2209 28.1121 24.9796 28.3036 25.724C28.4951 26.4684 29.2539 26.9165 29.9982 26.7248C30.3683 26.6296 30.752 26.5812 31.1389 26.5812H63.8607C66.3739 26.5812 68.4185 28.6259 68.4185 31.139V63.861C68.4185 64.2475 68.3702 64.631 68.2752 65.0008C68.0839 65.7452 68.5322 66.5037 69.2764 66.695C69.3926 66.7249 69.5091 66.7392 69.624 66.7392C70.2439 66.7392 70.8092 66.3219 70.9707 65.6936C71.1239 65.0976 71.2017 64.4809 71.2017 63.8608V60.7904H83.5208C84.1032 62.5174 85.7374 63.765 87.6585 63.765C90.0661 63.765 92.0248 61.8064 92.0248 59.3988C92.0248 56.9911 90.066 55.0325 87.6585 55.0325C85.7374 55.0325 84.1034 56.2801 83.5208 58.0072H71.2017V54.8408H77.2469C78.0155 54.8408 78.6385 54.2178 78.6385 53.4492C78.6385 52.6807 78.0155 52.0576 77.2469 52.0576H71.2017V48.8917H93.608C94.3766 48.8917 94.9996 48.2686 94.9996 47.5001C94.9996 46.7315 94.3766 46.1085 93.608 46.1085ZM89.514 21.0955C89.8131 20.7964 90.2105 20.6319 90.6334 20.6319C91.0562 20.6319 91.4537 20.7964 91.7528 21.0955C92.0519 21.3946 92.2164 21.7921 92.2164 22.2149C92.2164 22.6378 92.0519 23.0352 91.7528 23.3343C91.4537 23.6334 91.0562 23.798 90.6334 23.798C90.2105 23.798 89.8131 23.6334 89.514 23.3343C89.2149 23.0352 89.0503 22.6378 89.0503 22.2149C89.0503 21.7921 89.2149 21.3945 89.514 21.0955ZM59.3987 5.75811C60.2717 5.75811 60.9818 6.46838 60.9818 7.34119C60.9818 8.214 60.2715 8.92427 59.3987 8.92427C58.5259 8.92427 57.8156 8.214 57.8156 7.34119C57.8156 6.46838 58.5257 5.75811 59.3987 5.75811ZM21.0951 5.4861C20.4778 4.86879 20.4778 3.86443 21.0951 3.2473C21.4039 2.93855 21.8091 2.78436 22.2147 2.78436C22.6201 2.78436 23.0255 2.93874 23.3341 3.2473C23.9514 3.86461 23.9514 4.86898 23.3341 5.48629C22.717 6.10323 21.7126 6.10341 21.0951 5.4861ZM87.6587 57.8159C88.5317 57.8159 89.2418 58.5261 89.2418 59.399C89.2418 60.2719 88.5315 60.982 87.6587 60.982C86.7859 60.982 86.0756 60.2718 86.0756 59.399C86.0754 58.526 86.7857 57.8159 87.6587 57.8159Z" fill="#424B56"/>
    <path d="M70.845 86.7256L61.6896 77.57C61.1096 76.9902 60.7903 76.2191 60.7903 75.399V71.2021H63.8607C64.4814 71.2021 65.0985 71.1242 65.695 70.9707C66.4392 70.7792 66.8873 70.0205 66.6959 69.2761C66.5044 68.5319 65.746 68.0838 65.0013 68.2753C64.6313 68.3705 64.2476 68.4187 63.8607 68.4187H31.1389C28.6257 68.4187 26.5812 66.374 26.5812 63.861V31.1391C26.5812 30.7523 26.6294 30.3686 26.7246 29.9988C26.9163 29.2546 26.4682 28.4959 25.7239 28.3042C24.9795 28.1125 24.2208 28.5606 24.0293 29.3048C23.8757 29.9012 23.798 30.5183 23.798 31.1391V34.2096H11.4786C10.8962 32.4825 9.26209 31.2349 7.34095 31.2349C4.9333 31.2349 2.97468 33.1935 2.97468 35.6012C2.97468 38.0088 4.93349 39.9674 7.34095 39.9674C9.26209 39.9674 10.896 38.7198 11.4786 36.9928H23.7978V40.1591H17.7525C16.984 40.1591 16.3609 40.7822 16.3609 41.5507C16.3609 42.3192 16.984 42.9423 17.7525 42.9423H23.7978V46.1085H1.3916C0.623064 46.1085 0 46.7315 0 47.5001C0 48.2686 0.623064 48.8917 1.3916 48.8917H23.7978V52.0578H17.7525C16.984 52.0578 16.3609 52.6809 16.3609 53.4494C16.3609 54.2179 16.984 54.841 17.7525 54.841H23.7978V58.0074H19.6007C18.0371 58.0074 16.567 58.6161 15.4616 59.7218L6.30931 68.8741C5.71297 68.577 5.05187 68.4189 4.36609 68.4189C3.19974 68.4189 2.10335 68.8731 1.2786 69.6977C0.454217 70.5224 0 71.619 0 72.7852C0 73.9513 0.454217 75.0479 1.27897 75.8727C2.10354 76.6974 3.20011 77.1515 4.36646 77.1515C5.5328 77.1515 6.62919 76.6972 7.45395 75.8727C8.2787 75.0479 8.73291 73.9515 8.73291 72.7852C8.73291 72.0994 8.57483 71.4383 8.27777 70.842L17.43 61.6897C18.0099 61.1099 18.781 60.7904 19.6013 60.7904H23.7983V63.8608C23.7983 67.9087 27.0916 71.2017 31.1393 71.2017H34.2097V83.5209C32.4826 84.1033 31.235 85.7374 31.235 87.6586C31.235 90.0662 33.1938 92.0248 35.6013 92.0248C38.0088 92.0248 39.9676 90.066 39.9676 87.6586C39.9676 85.7374 38.72 84.1035 36.9929 83.5209V71.2017H40.159V77.247C40.159 78.0155 40.7821 78.6386 41.5506 78.6386C42.3192 78.6386 42.9422 78.0155 42.9422 77.247V71.2017H46.1082V93.6083C46.1082 94.3768 46.7313 94.9999 47.4998 94.9999C48.2683 94.9999 48.8914 94.3768 48.8914 93.6083V71.2021H52.0576V77.2474C52.0576 78.0159 52.6806 78.639 53.4492 78.639C54.2177 78.639 54.8408 78.0159 54.8408 77.2474V71.2021H58.0069V75.399C58.0069 76.9626 58.6159 78.4327 59.7215 79.5381L68.877 88.6936C68.0682 90.3265 68.3392 92.3627 69.6974 93.7209C70.5485 94.5722 71.6668 94.9977 72.7849 94.9977C73.903 94.9977 75.0213 94.5722 75.8724 93.7209C77.5748 92.0185 77.5748 89.2485 75.8724 87.5461C74.5144 86.1879 72.478 85.9169 70.845 86.7256ZM7.34095 37.1842C6.46795 37.1842 5.75787 36.474 5.75787 35.6012C5.75787 34.7282 6.46814 34.0181 7.34095 34.0181C8.21376 34.0181 8.92403 34.7284 8.92403 35.6012C8.92421 36.4742 8.21394 37.1842 7.34095 37.1842ZM5.48567 73.9046C5.18657 74.2037 4.78913 74.3683 4.36627 74.3683C3.94341 74.3683 3.54597 74.2037 3.24687 73.9046C2.94777 73.6055 2.78319 73.208 2.78319 72.7852C2.78319 72.3623 2.94777 71.9649 3.24687 71.6658C3.54597 71.3667 3.94341 71.2021 4.36627 71.2021C4.78913 71.2021 5.18657 71.3667 5.48567 71.6658C5.78477 71.9649 5.94935 72.3623 5.94935 72.7852C5.94935 73.208 5.78477 73.6057 5.48567 73.9046ZM35.6009 89.242C34.7279 89.242 34.0178 88.5318 34.0178 87.6589C34.0178 86.7861 34.7281 86.0759 35.6009 86.0759C36.4737 86.0759 37.184 86.7861 37.184 87.6589C37.184 88.5318 36.4739 89.242 35.6009 89.242ZM73.9045 91.753C73.2872 92.3703 72.2828 92.3701 71.6655 91.753C71.0482 91.1357 71.0482 90.1313 71.6655 89.5142C71.9743 89.2057 72.3797 89.0513 72.7851 89.0513C73.1905 89.0513 73.596 89.2057 73.9045 89.5142C74.5216 90.1313 74.5216 91.1357 73.9045 91.753Z" fill="#424B56"/>
    <path d="M36.0687 57.9082C36.0687 57.9093 36.0687 57.9105 36.0687 57.9116C36.0687 61.1393 38.9448 63.7654 42.4802 63.7654C44.512 63.7654 46.3246 62.8972 47.5 61.5468C48.6754 62.8972 50.488 63.7654 52.5198 63.7654C55.9221 63.7654 58.7126 61.3329 58.9178 58.2728C60.9842 57.0738 62.2776 54.9736 62.2776 52.7059C62.2776 51.0378 61.5664 49.4466 60.3424 48.2439C61.5663 47.0412 62.2776 45.4497 62.2776 43.7819C62.2776 40.8057 60.1008 38.2847 57.1208 37.4655C57.2089 37.1016 57.2579 36.7274 57.2579 36.345C57.2579 33.5273 54.7569 31.2349 51.6831 31.2349C50.018 31.2349 48.5224 31.9082 47.5 32.9725C46.4776 31.9082 44.9818 31.2349 43.3169 31.2349C40.2429 31.2349 37.7421 33.5273 37.7421 36.345C37.7421 36.7274 37.7911 37.1016 37.8792 37.4655C34.8992 38.2845 32.7224 40.8055 32.7224 43.7819C32.7224 45.2364 33.2371 46.6087 34.188 47.742C33.2582 48.9456 32.7224 50.4068 32.7224 51.9624C32.722 54.3285 33.9863 56.5378 36.0687 57.9082ZM39.9355 39.9682C39.9479 39.9685 39.9603 39.9702 39.9726 39.9702C40.2902 39.9702 40.6096 39.862 40.871 39.6407C41.4044 39.189 41.5115 38.4227 41.1534 37.8462C41.1428 37.8292 41.1332 37.8117 41.122 37.7952C41.1163 37.7869 41.1094 37.7789 41.1035 37.7705C41.082 37.7403 41.0599 37.7106 41.0359 37.682C41.0352 37.6811 41.0346 37.6802 41.0339 37.6794C40.8018 37.405 40.5248 36.9508 40.5248 36.3448C40.5248 35.0618 41.7772 34.0179 43.3163 34.0179C44.8554 34.0179 46.1079 35.0618 46.1079 36.3448C46.1079 37.1133 46.7309 37.7364 47.4994 37.7364C48.268 37.7364 48.891 37.1133 48.891 36.3448C48.891 35.0618 50.1435 34.0179 51.6826 34.0179C53.2217 34.0179 54.4741 35.0618 54.4741 36.3448C54.4741 36.6877 54.3843 36.9801 54.2654 37.2206C53.4738 37.2954 52.7083 37.4867 51.9815 37.7932C51.2733 38.0917 50.9413 38.9079 51.2399 39.6162C51.5384 40.3242 52.3546 40.6565 53.0629 40.3578C53.6644 40.1042 54.3116 39.9737 54.9866 39.9685C55 39.9689 55.0131 39.9702 55.0265 39.9702C55.0389 39.9702 55.0512 39.9685 55.0636 39.9682C57.5097 39.9841 59.4939 41.6883 59.4939 43.7815C59.4939 45.0972 58.6934 46.3051 57.3525 47.013C56.8961 47.2538 56.6103 47.7275 56.6103 48.2437C56.6103 48.7599 56.8961 49.2336 57.3525 49.4744C58.6934 50.1821 59.4939 51.3902 59.4939 52.7059C59.4939 53.6869 59.038 54.6226 58.268 55.3223C57.5364 53.9676 56.2433 52.8892 54.6096 52.376C53.8767 52.1457 53.0953 52.5534 52.8649 53.2865C52.6344 54.0197 53.0423 54.8009 53.7754 55.0312C55.194 55.477 56.1474 56.6346 56.1474 57.9118C56.1474 59.6049 54.5198 60.9824 52.519 60.9824C50.5185 60.9824 48.8909 59.6049 48.8909 57.9118V48.9875C48.8909 47.2944 50.5185 45.9171 52.519 45.9171C53.2876 45.9171 53.9106 45.2941 53.9106 44.5255C53.9106 43.757 53.2876 43.1339 52.519 43.1339C51.1731 43.1339 49.9232 43.5154 48.8909 44.165V42.3875C48.8909 41.619 48.2678 40.9959 47.4993 40.9959C46.7307 40.9959 46.1077 41.619 46.1077 42.3875V50.1131C45.6393 49.8192 45.1258 49.5759 44.5702 49.4013C43.8366 49.1709 43.0558 49.5787 42.8255 50.3116C42.5951 51.0449 43.0027 51.826 43.7358 52.0565C45.1545 52.5024 46.1077 53.66 46.1077 54.9369V57.9116C46.1077 59.6047 44.4801 60.9822 42.4795 60.9822C40.4788 60.9822 38.8511 59.6047 38.8511 57.9116C38.8511 57.1859 39.1588 56.4805 39.7173 55.9253C40.2624 55.3835 40.265 54.5024 39.7232 53.9572C39.1814 53.4121 38.3004 53.4095 37.7553 53.9513C37.4219 54.2828 37.1348 54.645 36.8962 55.03C36.0175 54.1988 35.5044 53.1052 35.5044 51.962C35.5044 49.9003 37.1226 48.0889 39.4395 47.5574C40.1886 47.3855 40.6565 46.6389 40.4847 45.8899C40.3129 45.1406 39.5661 44.6729 38.8172 44.8447C37.8844 45.0586 37.0257 45.4158 36.2643 45.8847C35.7705 45.2646 35.5046 44.5383 35.5046 43.7815C35.5052 41.6883 37.4894 39.9843 39.9355 39.9682Z" fill="#424B56"/>
</svg>
