<svg width="22" height="33" viewBox="0 0 22 33" fill="none" xmlns="http://www.w3.org/2000/svg">
    <path d="M8.20766 32.6967C3.84013 32.2587 0.948852 31.1388 0.191127 29.5918C-0.368788 28.4487 0.313912 27.2948 2.07627 26.4055C2.96763 25.9557 5.09471 25.3466 6.25521 25.2089L6.632 25.1642L7.03125 25.757C7.25084 26.0831 7.42039 26.3573 7.40804 26.3665C7.39569 26.3757 7.12354 26.4211 6.80327 26.4675C4.33746 26.8248 2.46211 27.4762 1.6481 28.2582C1.37394 28.5215 1.32269 28.611 1.32269 28.8261C1.32269 29.674 3.50831 30.6573 6.42648 31.1221C8.14084 31.3952 8.71426 31.433 11.0507 31.4271C13.0009 31.4222 13.5104 31.399 14.4418 31.2728C16.528 30.9901 18.1568 30.5774 19.2244 30.0609C20.2574 29.5612 20.6625 29.1075 20.504 28.6278C20.232 27.8048 17.8717 26.8641 15.0755 26.4644C14.7458 26.4173 14.4761 26.3538 14.4761 26.3234C14.4761 26.293 14.6379 26.0227 14.8357 25.7228C15.1026 25.3182 15.2343 25.1771 15.3461 25.1759C15.7576 25.1717 17.5402 25.5767 18.5523 25.9043C19.7527 26.293 20.977 27.017 21.4244 27.603C22.5048 29.0179 21.5926 30.5612 19.1003 31.5348C17.856 32.0209 16.6105 32.3179 14.7501 32.5724C13.8692 32.6929 13.2739 32.7211 11.2562 32.7381C9.91863 32.7494 8.54677 32.7308 8.20766 32.6967ZM10.0086 29.0963C4.50262 21.4165 1.17351 15.1468 0.640912 11.4541C0.326664 9.27535 0.955174 6.71558 2.31271 4.6453C2.88203 3.77707 4.24273 2.38607 5.02208 1.87561C6.78158 0.723162 8.26479 0.208652 10.2509 0.061779C14.6852 -0.26613 18.9382 2.42291 20.5848 6.59556C21.2032 8.16251 21.4489 9.90154 21.2536 11.3294C20.8109 14.5665 18.5093 19.2508 14.2325 25.6192C13.6259 26.5225 12.8793 27.6156 12.5735 28.0485C12.2676 28.4813 11.8772 29.0356 11.706 29.2802C11.5347 29.5248 11.2904 29.8732 11.1631 30.0543L10.9316 30.3837L10.0086 29.0963ZM12.3519 14.1568C13.8722 13.6416 14.907 12.562 15.3688 11.0093C15.583 10.289 15.5836 9.25725 15.3702 8.54582C14.7527 6.48759 13.0442 5.19274 10.946 5.19274C8.295 5.19274 6.19417 7.39588 6.34573 10.0171C6.46063 12.0044 7.84437 13.7093 9.76386 14.2287C10.4447 14.4129 11.6989 14.378 12.3519 14.1568H12.3519Z" fill="#F95C5C"/>
</svg>
