<svg width="217" height="217" viewBox="0 0 217 217" fill="none" xmlns="http://www.w3.org/2000/svg">
    <path d="M180.885 138.14C183.055 129.841 178.069 121.324 169.77 119.154L147.417 113.309C152.144 106.546 156.187 98.1013 158.952 91.6268C161.744 85.091 161.554 77.6865 158.43 71.3111C155.315 64.9546 149.6 60.2817 142.752 58.4911C139.981 57.7667 137.147 59.4256 136.423 62.1963C133.254 74.3161 121.505 90.7913 112.311 92.7415C101.963 94.9357 82.6345 95.3125 78.7902 95.3665C76.552 94.7813 30.7912 82.8167 28.6279 82.2511C25.8572 81.5267 23.0237 83.1857 22.2993 85.9563L3.93533 156.193C3.21059 158.964 4.86952 161.797 7.64019 162.521L22.6909 166.457L21.3792 171.474C20.6548 174.244 22.3137 177.078 25.0844 177.802L45.8209 183.224C51.9486 184.826 58.1916 182.524 61.9145 177.87L94.8124 195.873C95.1844 196.076 95.5799 196.234 95.99 196.341L126.091 204.211C134.39 206.381 142.907 201.395 145.077 193.096C145.589 191.138 145.703 189.169 145.469 187.274C152.309 187.201 158.546 182.581 160.358 175.651C160.87 173.694 160.983 171.725 160.749 169.83C167.589 169.756 173.827 165.137 175.638 158.207C176.645 154.356 176.111 150.458 174.42 147.169C177.505 145.129 179.878 141.991 180.885 138.14ZM25.314 156.423L15.2802 153.799L31.0207 93.5965L41.0545 96.2199L25.314 156.423ZM54.7726 169.485C54.0493 172.251 51.2103 173.913 48.444 173.19L32.7244 169.08L51.0883 98.8433L71.8248 104.265L54.7726 169.485ZM131.798 141.385L161.899 149.255C164.666 149.978 166.328 152.817 165.605 155.584C164.881 158.35 162.042 160.012 159.276 159.289C155.493 158.3 132.266 152.227 129.175 151.419C126.404 150.694 123.57 152.353 122.846 155.124C122.122 157.895 123.781 160.728 126.551 161.453L146.619 166.699C149.385 167.423 151.047 170.262 150.324 173.028C149.601 175.794 146.762 177.456 143.995 176.733C141.869 176.177 126.055 172.042 123.928 171.486C121.157 170.762 118.324 172.421 117.599 175.192C116.875 177.962 118.534 180.796 121.304 181.52L131.338 184.144C134.105 184.867 135.767 187.706 135.043 190.472C134.32 193.239 131.481 194.901 128.715 194.177L99.2311 186.469L65.8309 168.191L82.1759 105.676C89.4528 105.503 104.948 104.905 114.463 102.887C127.495 100.123 139.328 83.6969 144.546 70.5559C146.477 71.8945 148.059 73.7153 149.117 75.8752C150.912 79.538 151.021 83.7942 149.415 87.5525C142.872 102.87 138.18 108.633 134.456 112.883C133.272 114.235 132.872 116.104 133.399 117.822C133.927 119.54 135.306 120.863 137.045 121.317L167.146 129.188C169.913 129.911 171.575 132.75 170.852 135.516C170.128 138.283 167.289 139.945 164.523 139.221L134.421 131.351C131.651 130.627 128.817 132.286 128.093 135.056C127.368 137.827 129.027 140.661 131.798 141.385Z" fill="white"/>
    <path d="M155.814 29.0325C153.043 28.3081 150.209 29.9671 149.485 32.7377L146.687 43.4405C145.962 46.2111 147.621 49.0447 150.392 49.7691C153.163 50.4935 155.996 48.8345 156.721 46.0639L159.519 35.3611C160.243 32.5905 158.584 29.7569 155.814 29.0325Z" fill="white"/>
    <path d="M120.794 47.0092L115.554 38.0593C114.107 35.5878 110.93 34.7572 108.459 36.2042C105.987 37.6512 105.157 40.8276 106.604 43.2991L111.844 52.2491C113.29 54.7205 116.467 55.5512 118.939 54.1041C121.41 52.6571 122.241 49.4807 120.794 47.0092Z" fill="white"/>
    <path d="M96.0575 73.0819L86.0237 70.4584C83.253 69.734 80.4195 71.393 79.6951 74.1636C78.9707 76.9343 80.6296 79.7678 83.4003 80.4922L93.4341 83.1157C96.2048 83.8401 99.0383 82.1811 99.7627 79.4105C100.487 76.6398 98.8282 73.8063 96.0575 73.0819Z" fill="white"/>
    <path d="M196.396 99.3161L186.362 96.6927C183.591 95.9683 180.758 97.6272 180.034 100.398C179.309 103.169 180.968 106.002 183.739 106.726L193.773 109.35C196.543 110.074 199.377 108.415 200.101 105.645C200.826 102.874 199.167 100.041 196.396 99.3161Z" fill="white"/>
    <path d="M193.598 58.4647C192.152 55.9932 188.975 55.1627 186.503 56.6097L177.553 61.8496C175.082 63.2966 174.251 66.4729 175.698 68.9445C177.145 71.4159 180.322 72.2466 182.793 70.7995L191.743 65.5596C194.215 64.1126 195.045 60.9362 193.598 58.4647Z" fill="white"/>
</svg>
