<svg width="352" height="352" viewBox="0 0 352 352" fill="none" xmlns="http://www.w3.org/2000/svg">
    <path d="M84.9212 246.863C81.2649 245.924 77.7536 244.706 74.3983 243.244L58.6735 282.137L90.9203 290.42L95.886 248.763C92.2413 248.427 88.5776 247.803 84.9212 246.863Z" fill="#CBE2FF"/>
    <path d="M167.46 123.414C174.224 97.0799 158.359 70.2485 132.026 63.4842C105.691 56.7198 78.8602 72.5841 72.0958 98.9183L57.567 155.48L66.3759 167.574L139.385 186.328L152.932 179.976L167.46 123.414L167.46 123.414Z" fill="#7BA0B0"/>
    <path d="M54.8765 165.952C48.1121 192.286 63.9769 219.118 90.3106 225.882C116.645 232.646 143.476 216.782 150.24 190.448L152.93 179.976L57.5663 155.48L54.8765 165.952Z" fill="#DCF5FF"/>
    <path d="M132.025 63.4842C128.198 62.5011 124.36 61.9991 120.575 61.9348C140.262 72.3298 151.011 95.1975 145.23 117.704L128.332 183.489L139.384 186.328L152.931 179.976L167.46 123.414C174.224 97.08 158.359 70.2486 132.025 63.4842Z" fill="#688B96"/>
    <path d="M130.701 174.266L128.012 184.737C122.23 207.244 101.791 222.1 79.5316 221.721C82.8789 223.489 86.4832 224.898 90.3107 225.881C116.645 232.646 143.476 216.781 150.241 190.447L152.93 179.976L130.701 174.266Z" fill="#DDEAFB"/>
    <path d="M113.49 281.708L43.0956 263.626C34.2204 261.346 25.177 266.693 22.8973 275.569C22.1183 278.601 23.9453 281.691 26.9779 282.47L118.531 305.987C121.564 306.766 124.654 304.939 125.433 301.907C127.713 293.031 122.366 283.988 113.49 281.708Z" fill="#DCF5FF"/>
    <path d="M113.49 281.708L97.0904 277.496C102.747 278.949 106.154 284.712 104.701 290.368L101.793 301.688L118.531 305.987C121.564 306.766 124.654 304.939 125.433 301.907C127.713 293.031 122.366 283.988 113.49 281.708Z" fill="#DDEAFB"/>
    <path d="M318.038 67.5966L238.362 47.1303C222.667 43.099 206.676 52.5539 202.645 68.2481L193.876 102.387C190.422 115.834 196.868 129.498 208.656 135.671C212.265 137.561 214.035 141.746 213.021 145.692L206.609 170.657C205.965 173.162 208.903 175.028 210.897 173.381L240.946 148.551C243.14 146.739 246.068 146.086 248.823 146.793L294.671 158.57C310.365 162.602 326.356 153.147 330.388 137.452L339.157 103.313C343.188 87.619 333.733 71.628 318.038 67.5966Z" fill="#D5B0EC"/>
    <path d="M212.421 148.025L206.608 170.656C205.964 173.162 208.903 175.028 210.897 173.381L240.946 148.551C243.139 146.739 246.067 146.085 248.823 146.793L229.052 141.715C224.741 140.608 220.161 141.63 216.731 144.464L212.421 148.025Z" fill="#C995E4"/>
    <path d="M318.038 67.5965L309.112 65.3036C317.45 67.4454 322.473 75.9412 320.332 84.2795L304.72 145.057C302.578 153.395 294.082 158.418 285.744 156.276L294.671 158.569C310.365 162.601 326.356 153.146 330.387 137.452L339.156 103.313C343.188 87.6189 333.733 71.6279 318.038 67.5965Z" fill="#C995E4"/>
    <path d="M177.124 167.603C174.859 167.021 172.551 168.386 171.969 170.651L165.529 195.725C156.564 230.626 120.876 251.726 85.9749 242.761C51.0743 233.797 29.9734 198.109 38.9384 163.208L45.3791 138.134C45.9609 135.869 44.5962 133.561 42.3312 132.979C40.0662 132.397 37.7581 133.762 37.1763 136.027L30.7356 161.101C21.9596 195.267 38.6934 230.095 68.9718 245.37L61.452 263.969L44.1493 259.524C33.0271 256.667 21.6531 263.392 18.796 274.515C17.4374 279.804 20.635 285.213 25.9244 286.572L117.478 310.089C122.767 311.447 128.176 308.25 129.535 302.96C132.392 291.837 125.667 280.464 114.544 277.606L97.242 273.162L99.6163 253.242C133.508 254.449 164.955 231.997 173.731 197.832L180.172 172.758C180.754 170.493 179.39 168.185 177.124 167.603ZM121.332 300.853C121.135 301.62 120.351 302.083 119.585 301.886L28.0314 278.369C27.2655 278.172 26.8023 277.389 26.9992 276.622C28.6943 270.023 35.4427 266.033 42.042 267.728L112.437 285.81C119.036 287.505 123.027 294.254 121.332 300.853ZM88.9664 271.037L69.7273 266.095L76.741 248.748C79.0544 249.597 81.4311 250.339 83.8677 250.965C86.3044 251.591 88.7449 252.086 91.1813 252.456L88.9664 271.037Z" fill="#424B56"/>
    <path d="M231.538 79.396L313.571 100.467C315.836 101.049 318.144 99.6846 318.726 97.4196C319.307 95.1546 317.943 92.8466 315.678 92.2647L233.645 71.1933C231.38 70.6113 229.072 71.9762 228.49 74.2412C227.909 76.5062 229.273 78.8142 231.538 79.396Z" fill="#424B56"/>
    <path d="M223.563 110.443L305.596 131.515C307.861 132.097 310.169 130.732 310.751 128.467C311.332 126.202 309.968 123.894 307.703 123.312L225.67 102.241C223.405 101.659 221.097 103.024 220.515 105.289C219.933 107.554 221.298 109.862 223.563 110.443Z" fill="#424B56"/>
    <path d="M55.8251 194.265C58.0934 193.695 59.47 191.394 58.9005 189.126C57.0874 181.912 57.1146 174.262 58.9786 167.005L60.6149 160.635L147.776 183.024L146.14 189.394C139.967 213.424 115.395 227.953 91.3648 221.78C81.5635 219.262 73.1231 213.708 66.9567 205.718C65.5288 203.867 62.8691 203.524 61.0172 204.953C59.1653 206.382 58.8225 209.041 60.252 210.892C67.5815 220.39 77.6118 226.992 89.2577 229.983C117.812 237.318 147.009 220.055 154.343 191.501C156.916 181.485 169.396 132.9 171.562 124.468C178.896 95.9145 161.633 66.7169 133.079 59.3823C104.526 52.0479 75.3289 69.311 67.9944 97.8649L50.7759 164.898C48.5616 173.518 48.5306 182.61 50.6864 191.19C51.2564 193.459 53.5557 194.835 55.8251 194.265ZM130.972 67.5855C152.009 72.9894 165.764 92.4958 164.721 113.395L138.502 106.659C136.236 106.078 133.928 107.442 133.347 109.707C132.765 111.972 134.129 114.28 136.394 114.862L163.482 121.82C163.438 122 163.404 122.18 163.358 122.36L160.703 132.698L133.601 125.736C131.336 125.154 129.028 126.519 128.446 128.784C127.865 131.049 129.229 133.357 131.494 133.939L158.596 140.9L155.802 151.774L128.701 144.813C126.436 144.231 124.128 145.596 123.546 147.861C122.964 150.126 124.329 152.434 126.594 153.016L153.695 159.977L149.883 174.819L62.7225 152.43L66.5347 137.588L93.6355 144.55C95.901 145.132 98.2086 143.767 98.7904 141.502C99.3722 139.237 98.0075 136.929 95.7425 136.347L68.6418 129.386L71.4349 118.512L98.5356 125.473C100.801 126.055 103.109 124.69 103.691 122.425C104.272 120.16 102.908 117.852 100.643 117.27L73.5419 110.309L76.1972 99.9719C76.2434 99.792 76.3004 99.6178 76.3486 99.4391L103.436 106.397C105.701 106.979 108.009 105.614 108.591 103.349C109.172 101.084 107.808 98.7759 105.543 98.194L79.3227 91.459C88.482 72.6447 109.934 62.1816 130.972 67.5855Z" fill="#424B56"/>
    <path d="M319.093 63.4954L239.415 43.0289C221.484 38.4231 203.15 49.2638 198.544 67.1946L196.622 74.6768C196.04 76.9418 197.405 79.2499 199.67 79.8317C201.935 80.4136 204.243 79.0488 204.825 76.7838L206.746 69.3016C210.19 55.8942 223.9 47.7882 237.307 51.2321L316.985 71.6986C330.392 75.1425 338.498 88.852 335.054 102.259L326.285 136.398C322.841 149.806 309.131 157.912 295.724 154.468L249.876 142.691C245.823 141.65 241.476 142.62 238.248 145.286L211.906 167.054L217.122 146.745C218.644 140.818 215.971 134.722 210.621 131.92C200.263 126.495 195.064 114.784 197.978 103.441L199.9 95.9586C200.482 93.6936 199.117 91.3855 196.852 90.8037C194.586 90.2217 192.279 91.5865 191.697 93.8515L189.775 101.334C185.879 116.503 192.835 132.165 206.692 139.423C208.514 140.377 209.451 142.57 208.92 144.638L202.507 169.603C200.847 176.066 208.451 180.895 213.595 176.644L243.645 151.815C244.789 150.869 246.332 150.524 247.771 150.894L293.618 162.671C311.549 167.276 329.884 156.436 334.489 138.505L343.258 104.367C347.863 86.4359 337.023 68.1011 319.093 63.4954V63.4954Z" fill="#424B56"/>
</svg>
