<svg width="23" height="27" viewBox="0 0 23 27" fill="none" xmlns="http://www.w3.org/2000/svg">
    <path d="M11.1612 0C10.1868 0 9.38958 0.664357 8.8581 1.68304C4.56192 2.70172 2.7903 6.55499 2.7903 11.1612V15.3688C2.7903 17.2733 0.9301 19.5764 0 19.5764V20.9937H2.7903H19.5764H22.3667V19.5764C21.4366 19.5764 19.5764 17.2733 19.5764 15.3688V11.1612C19.5764 6.55499 17.8048 2.70172 13.5086 1.68304C12.9328 0.664357 12.1356 0 11.1612 0ZM6.95361 22.3667C6.95361 24.6698 8.81381 26.5743 11.1612 26.5743C13.5086 26.5743 15.3688 24.7141 15.3688 22.3667H6.95361Z" fill="#333333"/>
</svg>
