<svg width="94" height="94" viewBox="0 0 94 94" fill="none" xmlns="http://www.w3.org/2000/svg">
    <path d="M21.688 65.3691L21.6991 59.5897C23.3796 58.2393 24.4564 56.1682 24.4564 53.8446V50.0873C24.4564 46.0183 21.1578 42.7197 17.0888 42.7197C13.0198 42.7197 9.72121 46.0183 9.72121 50.0873V53.8446C9.72121 56.1732 10.8026 58.2481 12.4894 59.5981V65.3689L2.12118 74.2984C1.80097 74.5742 1.61682 74.9757 1.61682 75.3982V80.1834C1.61682 80.8135 2.06812 81.3533 2.68832 81.465C6.95139 82.2319 11.2605 82.6527 15.5743 82.7331L32.8672 81.9961V74.7321L21.688 65.3691Z" fill="#DEECF1"/>
    <path d="M6.55077 81.0157V76.2305C6.55077 75.808 6.73492 75.4063 7.05512 75.1307L16.3915 67.09C17.0466 66.5258 17.4233 65.704 17.4233 64.8394V61.7597C17.4233 60.9981 17.152 60.2541 16.6326 59.6971C15.4061 58.3816 14.655 56.6173 14.655 54.6766V50.9194C14.655 47.2993 17.2665 44.2914 20.708 43.6712C19.6387 43.0667 18.4045 42.7201 17.0886 42.7201C13.0196 42.7201 9.72103 46.0187 9.72103 50.0877V53.8449C9.72103 56.1736 10.8024 58.2484 12.4892 59.5985V65.3693L2.12099 74.2988C1.80079 74.5746 1.61664 74.9761 1.61664 75.3986V80.3938C1.61664 80.9856 2.09639 81.4653 2.68814 81.4653C4.18817 81.7352 5.69408 81.9598 7.20366 82.1441C6.80946 81.9172 6.55077 81.4925 6.55077 81.0157Z" fill="#CBE5E8"/>
    <path d="M73.6337 24.7141L75.8589 29.0262C76.2964 29.8741 77.506 29.8814 77.954 29.039L80.2538 24.7141H80.9765C87.4086 24.7141 92.6231 19.4998 92.6231 13.0677C92.6231 6.63551 87.4088 1.42102 80.9765 1.42102H13.0234C6.59126 1.42102 1.37695 6.63533 1.37695 13.0677C1.37695 19.4998 6.59126 24.7141 13.0236 24.7141H13.7462L16.046 29.039C16.494 29.8814 17.7036 29.8739 18.1411 29.0262L20.3664 24.7141H73.6337Z" fill="#DFF6FD"/>
    <path d="M30.6716 24.5775H29.949C23.5168 24.5775 18.3023 19.3632 18.3023 12.9311C18.3023 7.10645 22.5781 2.28101 28.1618 1.42102H13.0234C6.59126 1.42102 1.37695 6.63533 1.37695 13.0677C1.37695 19.4998 6.59126 24.7141 13.0236 24.7141H13.7462L16.046 29.039C16.494 29.8814 17.7036 29.8739 18.1411 29.0262L20.3664 24.7141H30.7445L30.6716 24.5775Z" fill="#C8EFFE"/>
    <path d="M21.462 12.004C21.2546 13.2585 22.3291 14.3331 23.5836 14.1257C24.3437 13.9999 24.9565 13.3869 25.0823 12.627C25.2898 11.3725 24.2152 10.2981 22.9607 10.5054C22.2008 10.6309 21.5878 11.244 21.462 12.004Z" fill="#333333"/>
    <path d="M37.2151 12.3154C37.2151 13.3278 38.0387 14.1514 39.051 14.1514C40.0634 14.1514 40.887 13.3278 40.887 12.3154C40.887 11.3031 40.0634 10.4795 39.051 10.4795C38.0385 10.4795 37.2151 11.3031 37.2151 12.3154Z" fill="#333333"/>
    <path d="M72.5635 12.3154C72.5635 11.3031 71.7399 10.4795 70.7276 10.4795C69.7152 10.4795 68.8916 11.3031 68.8916 12.3154C68.8916 13.3278 69.7152 14.1514 70.7276 14.1514C71.7399 14.1514 72.5635 13.3278 72.5635 12.3154Z" fill="#333333"/>
    <path d="M53.1129 12.3154C53.1129 13.3278 53.9365 14.1514 54.9488 14.1514C55.9611 14.1514 56.7847 13.3278 56.7847 12.3154C56.7847 11.3031 55.9611 10.4795 54.9488 10.4795C53.9365 10.4795 53.1129 11.3031 53.1129 12.3154Z" fill="#333333"/>
    <path d="M91.3497 72.684L81.5971 64.505L81.6081 58.7256C83.2886 57.3752 84.3655 55.3042 84.3655 52.9807V49.2234C84.3655 45.1544 81.0669 41.8558 76.9979 41.8558C72.9289 41.8558 69.6303 45.1544 69.6303 49.2234V52.9807C69.6303 55.3093 70.7117 57.3842 72.3984 58.7342V64.505L62.0302 73.4345C61.71 73.7103 61.5259 74.1118 61.5259 74.5343V79.5296C61.5259 80.1213 62.0056 80.6011 62.5974 80.6011C66.8604 81.368 71.1696 81.7888 75.4833 81.8692L90.2863 81.2384C91.6783 81.1791 92.7763 80.0334 92.7763 78.64V75.7224C92.7765 74.5479 92.2534 73.4342 91.3497 72.684Z" fill="#DEECF1"/>
    <path d="M67.5715 81.1705C66.9798 81.1705 66.5 80.6908 66.5 80.099V75.1038C66.5 74.6813 66.6842 74.2796 67.0044 74.0038L76.203 66.0817C76.9455 65.4422 77.3726 64.5108 77.3726 63.5308V60.7407C77.3726 59.9098 77.0667 59.1069 76.5089 58.4911C75.3256 57.1844 74.6044 55.4519 74.6044 53.5501V49.7929C74.6044 46.3087 77.0265 43.3911 80.2763 42.6238C79.2894 42.1328 78.1748 41.856 76.9977 41.856C72.9287 41.856 69.6301 45.1546 69.6301 49.2236V52.9808C69.6301 55.3094 70.7115 57.3843 72.3983 58.7343V64.5051L62.0301 73.4346C61.7099 73.7104 61.5257 74.1119 61.5257 74.5344V79.5297C61.5257 80.1214 62.0054 80.6012 62.5972 80.6012C65.1269 81.0563 67.6731 81.3865 70.2264 81.5991C69.3402 81.4696 68.4547 81.3294 67.5715 81.1705Z" fill="#CBE5E8"/>
    <path d="M72.8182 84.5992V91.0549C72.8182 91.8963 72.1359 92.5786 71.2944 92.5786H22.5219C21.6805 92.5786 20.9982 91.8963 20.9982 91.0549V84.5992C20.9982 79.9724 23.1354 75.6064 26.789 72.7697L40.0433 62.4715L41.3504 61.2327L52.1921 60.907L53.7731 62.4715L67.0273 72.7697C70.681 75.6064 72.8182 79.9724 72.8182 84.5992Z" fill="#5F99D7"/>
    <path d="M55.7184 63.9828L53.7729 62.4712L52.1919 60.9067L48.8766 61.0062L41.3502 61.2325L40.0431 62.4712L26.7889 72.7695C23.1352 75.6061 20.998 79.9722 20.998 84.599V91.0546C20.998 91.8961 21.6803 92.5783 22.5218 92.5783H29.007V87.5403C29.007 82.9135 31.1441 78.5474 34.7978 75.7108L36.999 74.0005C38.9802 72.461 41.5812 71.899 43.9915 72.596C44.9178 72.8638 45.8964 73.0074 46.908 73.0074C51.8208 73.0074 55.9583 69.6275 57.1191 65.071L55.7184 63.9828Z" fill="#3C87D0"/>
    <path d="M53.7723 62.4713C53.7723 66.2623 50.6992 69.3354 46.9082 69.3354C43.1171 69.3354 40.044 66.2623 40.044 62.4713V47.0083H53.7725V62.4713H53.7723Z" fill="#FFE5C2"/>
    <path d="M61.3724 35.0126V31.6942C61.3724 26.693 57.3182 22.6389 52.3171 22.6389H39.8039L38.6139 20.3626C38.362 19.8806 37.7473 19.7244 37.2959 20.0275C34.5279 21.8856 32.8674 25.0004 32.8674 28.3341V35.0126L35.9592 43.5516H58.0407L61.3724 35.0126Z" fill="#A79BA7"/>
    <path d="M40.0441 36.1193V29.4406C40.0441 26.8893 41.0192 24.4685 42.7164 22.6389H39.8041L38.6142 20.3626C38.3623 19.8806 37.7476 19.7244 37.2961 20.0275C34.5281 21.8856 32.8676 25.0004 32.8676 28.3341V35.0126L35.9595 43.5516H42.7353L40.0441 36.1193Z" fill="#918291"/>
    <path d="M47.1199 62.1801C49.4694 62.1801 51.7143 61.7249 53.7723 60.8995V47.0087H44.8727H44.0796H40.0436V62.4717C40.0436 66.2627 43.1168 69.3358 46.9078 69.3358C47.7577 69.3358 48.5755 69.1788 49.3268 68.8964C47.7915 68.3192 46.5129 66.0322 45.7272 64.2552C45.2917 63.2705 46.0201 62.1788 47.0967 62.1801C47.1046 62.1799 47.1123 62.1801 47.1199 62.1801Z" fill="#FED2A4"/>
    <path d="M32.8674 35.0126V43.4392L34.9435 43.8718L35.8505 50.5612L46.1115 56.8866L50.4199 57.364L53.7172 56.8881C58.2664 54.5075 61.3724 49.7454 61.3724 44.2553V35.0126C51.8179 33.2651 42.3155 33.2454 32.8674 35.0126Z" fill="#FFE5C2"/>
    <path d="M40.044 42.673V34.0145C37.6484 34.2339 35.2562 34.5661 32.8676 35.0128V44.2555C32.8676 52.1269 39.2487 58.508 47.1201 58.508C49.4845 58.508 51.7652 57.9058 53.7283 56.8868C46.1451 56.5611 40.044 50.336 40.044 42.673Z" fill="#FED2A4"/>
    <path d="M67.8726 71.6814L55.1494 61.7972V57.6585C59.6987 54.9228 62.7496 49.9393 62.7496 44.2553V31.694C62.7496 25.9415 58.0697 21.2617 52.3173 21.2617H40.638L39.8344 19.7244C39.5333 19.1482 38.9992 18.7259 38.3692 18.5658C37.7391 18.4056 37.0684 18.5216 36.5286 18.8838C33.3739 21.0015 31.4906 24.5342 31.4906 28.3337V44.2551C31.4906 45.8317 31.7252 47.389 32.1881 48.8839C32.413 49.6104 33.1841 50.0166 33.9108 49.792C34.6373 49.5669 35.0438 48.7958 34.8189 48.0693C34.4377 46.8384 34.2446 45.5552 34.2446 44.2551V36.1645C42.7048 34.714 51.3565 34.7153 59.9956 36.1687V44.2551C59.9956 51.3547 54.2196 57.1306 47.1201 57.1306C43.3955 57.1306 39.854 55.5147 37.4038 52.6973C36.9048 52.1234 36.0349 52.0628 35.4611 52.562C34.8874 53.0611 34.8266 53.931 35.3258 54.5047C36.3081 55.6341 37.4356 56.6033 38.6672 57.3963V61.797L25.9439 71.6813C21.926 74.8025 19.6216 79.5108 19.6216 84.5986V92.5785C19.6216 93.339 20.2381 93.9555 20.9986 93.9555C21.7591 93.9555 22.3756 93.339 22.3756 92.5785V84.5986C22.3756 80.3675 24.2921 76.452 27.6334 73.8562L39.059 64.9801C40.123 68.301 43.2389 70.7124 46.9084 70.7124C50.5779 70.7124 53.6938 68.3011 54.7577 64.9801L66.1833 73.8562C69.5247 76.452 71.4411 80.3675 71.4411 84.5986V92.5785C71.4411 93.339 72.0577 93.9555 72.8182 93.9555C73.5786 93.9555 74.1952 93.339 74.1952 92.5785V84.5986C74.195 79.5112 71.8906 74.8029 67.8726 71.6814ZM34.2444 33.3728V28.334C34.2444 25.6277 35.5047 23.1003 37.6409 21.4732L38.5837 23.2769C38.8211 23.7311 39.2913 24.0159 39.8039 24.0159H52.3171C56.551 24.0159 59.9954 27.4603 59.9954 31.6941V33.3783C51.3602 31.9752 42.7134 31.9732 34.2444 33.3728ZM46.9082 67.9585C43.8826 67.9585 41.4211 65.497 41.4211 62.4714V58.8071C43.2172 59.5117 45.1474 59.885 47.1201 59.885C48.9708 59.885 50.7466 59.5597 52.3955 58.9666V62.4714C52.3953 65.497 49.9338 67.9585 46.9082 67.9585Z" fill="#333333"/>
    <path d="M31.3698 84.0999C30.6093 84.0999 29.9927 84.7164 29.9927 85.4769V92.579C29.9927 93.3395 30.6093 93.956 31.3698 93.956C32.1302 93.956 32.7468 93.3395 32.7468 92.579V85.4769C32.7468 84.7164 32.1304 84.0999 31.3698 84.0999Z" fill="#333333"/>
    <path d="M62.4465 84.0999C61.686 84.0999 61.0695 84.7164 61.0695 85.4769V92.579C61.0695 93.3395 61.686 93.956 62.4465 93.956C63.207 93.956 63.8235 93.3395 63.8235 92.579V85.4769C63.8235 84.7164 63.207 84.0999 62.4465 84.0999Z" fill="#333333"/>
    <path d="M3.01967 75.3419L13.3879 66.4126C13.6917 66.151 13.8663 65.77 13.8663 65.3692V61.9715C14.8642 62.3686 15.9508 62.5893 17.0886 62.5893C18.2263 62.5893 19.3129 62.3686 20.3108 61.9715V65.3692C20.3108 65.77 20.4854 66.151 20.7893 66.4126L23.4675 68.7192C23.7274 68.9432 24.0471 69.0528 24.3655 69.0528C24.7523 69.0528 25.1371 68.8907 25.4096 68.5744C25.9059 67.9982 25.8411 67.1287 25.2647 66.6324L23.0648 64.7378V60.2197C24.7668 58.6233 25.833 56.3567 25.833 53.8447V50.0874C25.833 45.2657 21.9101 41.343 17.0886 41.343C12.2668 41.343 8.34395 45.2659 8.34395 50.0874V53.8447C8.34395 56.3567 9.41032 58.6233 11.1123 60.2199V64.7378L1.22239 73.2551C0.597954 73.7931 0.239746 74.5743 0.239746 75.3983V80.1835C0.239746 81.4816 1.16712 82.5906 2.44444 82.8202C6.74661 83.5943 11.1555 84.0282 15.5487 84.1099C15.5575 84.11 15.5661 84.11 15.5749 84.11C16.3235 84.11 16.9371 83.5102 16.9512 82.7587C16.9654 81.9983 16.3606 81.3705 15.6001 81.3564C11.3738 81.2776 7.1331 80.8619 2.99396 80.1207V75.3981C2.99396 75.3766 3.00333 75.3561 3.01967 75.3419ZM11.0982 50.0874C11.0982 46.7843 13.7856 44.0971 17.0887 44.0971C20.3919 44.0971 23.0791 46.7844 23.0791 50.0874V53.8447C23.0791 57.1479 20.3918 59.8353 17.0887 59.8353C13.7856 59.8353 11.0982 57.1479 11.0982 53.8447V50.0874Z" fill="#333333"/>
    <path d="M80.3734 65.3692C80.3734 65.77 80.548 66.151 80.8517 66.4126L83.1309 68.3755C83.3911 68.5995 83.7107 68.7091 84.0289 68.7091C84.4158 68.7091 84.8006 68.547 85.0731 68.2308C85.5693 67.6545 85.5045 66.785 84.9282 66.2887L83.1272 64.7378V60.2197C84.8292 58.6233 85.8954 56.3567 85.8954 53.8447V50.0874C85.8954 45.2657 81.9726 41.343 77.1508 41.343C72.329 41.343 68.4064 45.2659 68.4064 50.0874V53.8447C68.4064 56.3567 69.4727 58.6233 71.1745 60.2197V64.7376L68.9746 66.6322C68.3985 67.1285 68.3337 67.998 68.8298 68.5742C69.102 68.8905 69.4869 69.0526 69.8739 69.0526C70.1921 69.0526 70.5119 68.943 70.7719 68.719L73.4501 66.4124C73.754 66.1508 73.9286 65.7698 73.9286 65.369V61.9713C74.9265 62.3684 76.013 62.5891 77.1508 62.5891C78.2886 62.5891 79.3751 62.3684 80.373 61.9713V65.3692H80.3734ZM77.1512 59.8352C73.848 59.8352 71.1608 57.1479 71.1608 53.8447V50.0874C71.1608 46.7842 73.8482 44.0971 77.1514 44.0971C80.4545 44.0971 83.1418 46.7844 83.1418 50.0874V53.8447C83.1416 57.1479 80.4544 59.8352 77.1512 59.8352Z" fill="#333333"/>
    <path d="M93.0174 73.2552L89.457 70.1889C88.8806 69.6926 88.0111 69.7574 87.5148 70.3337C87.0185 70.91 87.0833 71.7796 87.6597 72.2759L91.2203 75.3422C91.2366 75.3564 91.2462 75.3769 91.2462 75.3988V80.1214C87.1072 80.8626 82.8662 81.2783 78.64 81.357C77.8795 81.3712 77.2747 81.9991 77.2889 82.7594C77.3028 83.5111 77.9164 84.1107 78.6652 84.1107C78.6738 84.1107 78.6826 84.1107 78.6914 84.1105C83.0845 84.0288 87.4933 83.5948 91.7955 82.8209C93.073 82.5912 94.0004 81.4823 94.0004 80.1842V75.399C94 74.5742 93.6418 73.793 93.0174 73.2552Z" fill="#333333"/>
    <path d="M80.9763 23.3372H80.2537C79.7445 23.3372 79.2769 23.6181 79.0379 24.0678L76.9123 28.0651L74.8574 24.0828C74.6211 23.6249 74.1491 23.3372 73.6337 23.3372H65.0949C64.3344 23.3372 63.7179 23.9537 63.7179 24.7142C63.7179 25.4747 64.3344 26.0912 65.0949 26.0912H72.7948L74.6353 29.6579C75.0733 30.5067 75.9388 31.0378 76.8939 31.0437H76.9101C77.8589 31.0437 78.7237 30.5245 79.1699 29.6858L81.0814 26.0909C88.2143 26.0341 93.9998 20.2139 93.9998 13.0678C93.9998 10.6387 93.3243 8.26675 92.0463 6.2082C91.6451 5.5621 90.7959 5.36363 90.15 5.76462C89.5039 6.16579 89.3053 7.01477 89.7064 7.66086C90.7133 9.28281 91.2456 11.1524 91.2456 13.0678C91.2459 18.7304 86.639 23.3372 80.9763 23.3372Z" fill="#333333"/>
    <path d="M12.9184 26.0906L14.8301 29.6857C15.2761 30.5244 16.1409 31.0437 17.0899 31.0437H17.106C18.0611 31.0378 18.9268 30.5066 19.3647 29.6578L21.2052 26.0912H27.7875C28.548 26.0912 29.1645 25.4746 29.1645 24.7142C29.1645 23.9537 28.548 23.3371 27.7875 23.3371H20.3663C19.8511 23.3371 19.3789 23.6248 19.1426 24.0828L17.0875 28.0651L14.9621 24.0677C14.7231 23.6181 14.2554 23.3371 13.7463 23.3371H13.0236C7.36099 23.3371 2.75404 18.7302 2.75404 13.0675C2.75404 7.40487 7.36099 2.7981 13.0236 2.7981H80.9763C82.7017 2.7981 84.4086 3.23489 85.9127 4.0611C86.5795 4.42739 87.4164 4.18375 87.7827 3.51727C88.149 2.8508 87.9053 2.01357 87.2388 1.64728C85.3296 0.598547 83.1642 0.0440674 80.9763 0.0440674H13.0236C5.84241 0.0440674 0 5.88648 0 13.0677C0 20.2139 5.78549 26.0341 12.9184 26.0906Z" fill="#333333"/>
</svg>
