<svg width="128" height="128" viewBox="0 0 128 128" fill="none" xmlns="http://www.w3.org/2000/svg">
   <g clip-path="url(#clip0)">
      <rect width="128" height="128" fill="#414A59"/>
      <path d="M102 98L128 128H0L26 98H102Z" fill="#525D6F"/>
      <path d="M64 9V47" stroke="white"/>
      <rect x="53.5" y="46.5" width="21" height="25" rx="10.5" fill="#FD5674" stroke="#273746"/>
      <rect x="58" y="50" width="16" height="20" rx="8" fill="#BF4157"/>
      <path d="M73 98C73 99.1819 72.7672 100.352 72.3149 101.444C71.8626 102.536 71.1997 103.528 70.364 104.364C69.5282 105.2 68.5361 105.863 67.4442 106.315C66.3522 106.767 65.1819 107 64 107C62.8181 107 61.6478 106.767 60.5558 106.315C59.4639 105.863 58.4718 105.2 57.636 104.364C56.8003 103.528 56.1374 102.536 55.6851 101.444C55.2328 100.352 55 99.1819 55 98L64 98H73Z" fill="#FFE06C" stroke="#273746"/>
      <path d="M26 98C26 93.0098 26.9829 88.0684 28.8926 83.458C30.8023 78.8477 33.6013 74.6586 37.1299 71.1299C40.6586 67.6013 44.8477 64.8023 49.458 62.8926C54.0684 60.9829 59.0098 60 64 60C68.9902 60 73.9316 60.9829 78.542 62.8926C83.1523 64.8023 87.3414 67.6013 90.8701 71.1299C94.3987 74.6586 97.1977 78.8477 99.1074 83.458C101.017 88.0684 102 93.0098 102 98L64 98L26 98Z" fill="#FD5674" stroke="#273746"/>
      <path d="M38 97.5C38 92.9694 38.8277 88.4832 40.4359 84.2974C42.044 80.1117 44.4011 76.3084 47.3726 73.1048C50.3441 69.9012 53.8717 67.3599 57.7541 65.6262C61.6366 63.8924 65.7977 63 70 63C74.2023 63 78.3635 63.8924 82.2459 65.6262C86.1283 67.36 89.6559 69.9012 92.6274 73.1048C95.5989 76.3084 97.956 80.1117 99.5641 84.2974C101.172 88.4832 102 92.9694 102 97.5L70 97.5L38 97.5Z" fill="#DB4B66"/>
      <path d="M48 97.5C48 93.232 48.6984 89.0059 50.0553 85.0628C51.4121 81.1197 53.4009 77.5369 55.9081 74.519C58.4153 71.5011 61.3918 69.1072 64.6676 67.4739C67.9433 65.8406 71.4543 65 75 65C78.5457 65 82.0567 65.8406 85.3325 67.4739C88.6082 69.1072 91.5847 71.5011 94.0919 74.519C96.5991 77.5369 98.5879 81.1197 99.9448 85.0628C101.302 89.0059 102 93.232 102 97.5L75 97.5L48 97.5Z" fill="#BF4157"/>
      <path fill-rule="evenodd" clip-rule="evenodd" d="M94.0923 97.5L102 97.5C102 93.232 101.31 89.0059 99.9685 85.0628C98.6273 81.1197 96.6615 77.5369 94.1832 74.519C91.705 71.5011 88.7629 69.1072 85.5249 67.4739C82.2869 65.8406 78.8164 65 75.3117 65C74.8738 65 74.4364 65.0131 74 65.0393C75.2301 65.4331 76.439 65.9375 77.6172 66.55C80.8551 68.2336 83.7973 70.7012 86.2755 73.8119C88.7537 76.9227 90.7196 80.6157 92.0608 84.6801C93.402 88.7445 94.0923 93.1007 94.0923 97.5Z" fill="#B13B51"/>
      <path d="M26 98C26 93.0098 26.9829 88.0684 28.8926 83.458C30.8023 78.8477 33.6013 74.6586 37.1299 71.1299C40.6586 67.6013 44.8477 64.8023 49.458 62.8926C54.0684 60.9829 59.0098 60 64 60C68.9902 60 73.9316 60.9829 78.542 62.8926C83.1523 64.8023 87.3414 67.6013 90.8701 71.1299C94.3987 74.6586 97.1977 78.8477 99.1074 83.458C101.017 88.0684 102 93.0098 102 98L64 98L26 98Z" stroke="#273746"/>
      <path d="M37.3332 41C37.1865 41 37.1132 40.9267 37.1132 40.78V25.82C37.1132 25.6733 37.1865 25.6 37.3332 25.6H39.0052C39.1518 25.6 39.2252 25.6733 39.2252 25.82V39.086C39.2252 39.1447 39.2545 39.174 39.3132 39.174H44.2412C44.3878 39.174 44.4612 39.2473 44.4612 39.394V40.78C44.4612 40.9267 44.3878 41 44.2412 41H37.3332ZM49.3722 41C49.2255 41 49.1522 40.9267 49.1522 40.78V25.82C49.1522 25.6733 49.2255 25.6 49.3722 25.6H51.0442C51.1908 25.6 51.2642 25.6733 51.2642 25.82V40.78C51.2642 40.9267 51.1908 41 51.0442 41H49.3722ZM63.2701 25.82C63.2701 25.6733 63.3435 25.6 63.4901 25.6H65.1401C65.2868 25.6 65.3601 25.6733 65.3601 25.82V40.78C65.3601 40.9267 65.2868 41 65.1401 41H63.2481C63.1308 41 63.0501 40.9413 63.0061 40.824L59.2661 30.77C59.2515 30.7407 59.2295 30.7333 59.2001 30.748C59.1708 30.748 59.1561 30.7627 59.1561 30.792L59.1781 40.78C59.1781 40.9267 59.1048 41 58.9581 41H57.2861C57.1395 41 57.0661 40.9267 57.0661 40.78V25.82C57.0661 25.6733 57.1395 25.6 57.2861 25.6H59.1561C59.2735 25.6 59.3541 25.6587 59.3981 25.776L63.1601 35.83C63.1748 35.874 63.1968 35.896 63.2261 35.896C63.2555 35.8813 63.2701 35.852 63.2701 35.808V25.82ZM75.0396 41.176C73.837 41.176 72.869 40.78 72.1356 39.988C71.417 39.1813 71.0576 38.1253 71.0576 36.82V25.82C71.0576 25.6733 71.131 25.6 71.2776 25.6H72.9496C73.0963 25.6 73.1696 25.6733 73.1696 25.82V37.04C73.1696 37.7293 73.3383 38.2867 73.6756 38.712C74.0276 39.1373 74.4823 39.35 75.0396 39.35C75.6116 39.35 76.0663 39.1373 76.4036 38.712C76.7556 38.2867 76.9316 37.7293 76.9316 37.04V25.82C76.9316 25.6733 77.005 25.6 77.1516 25.6H78.8236C78.9703 25.6 79.0436 25.6733 79.0436 25.82V36.82C79.0436 38.1253 78.677 39.1813 77.9436 39.988C77.2103 40.78 76.2423 41.176 75.0396 41.176ZM84.292 41C84.2187 41 84.16 40.978 84.116 40.934C84.0867 40.8753 84.0867 40.8093 84.116 40.736L87.174 33.366C87.2033 33.322 87.2033 33.278 87.174 33.234L84.116 25.864L84.094 25.776C84.094 25.6587 84.16 25.6 84.292 25.6H86.008C86.1253 25.6 86.206 25.6587 86.25 25.776L88.252 31.078C88.2667 31.122 88.2887 31.144 88.318 31.144C88.3473 31.144 88.3693 31.122 88.384 31.078L90.364 25.776C90.408 25.6587 90.4887 25.6 90.606 25.6H92.322C92.3953 25.6 92.4467 25.6293 92.476 25.688C92.52 25.732 92.5273 25.7907 92.498 25.864L89.44 33.256C89.4253 33.3 89.4253 33.344 89.44 33.388L92.498 40.736L92.52 40.824C92.52 40.9413 92.454 41 92.322 41H90.628C90.5107 41 90.43 40.9413 90.386 40.824L88.384 35.544C88.3693 35.5 88.3473 35.478 88.318 35.478C88.2887 35.478 88.2667 35.5 88.252 35.544L86.25 40.824C86.206 40.9413 86.1253 41 86.008 41H84.292Z" fill="white"/>
      <path d="M73 0C73 1.1819 72.7672 2.35222 72.3149 3.44415C71.8626 4.53608 71.1997 5.52823 70.364 6.36396C69.5282 7.19969 68.5361 7.86262 67.4442 8.31492C66.3522 8.76721 65.1819 9 64 9C62.8181 9 61.6478 8.76721 60.5558 8.31492C59.4639 7.86262 58.4718 7.19969 57.636 6.36396C56.8003 5.52823 56.1374 4.53608 55.6851 3.44415C55.2328 2.35222 55 1.1819 55 -7.86805e-07L64 0H73Z" fill="#FD5674" stroke="#273746"/>
   </g>
   <defs>
      <clipPath id="clip0">
         <rect width="128" height="128" fill="white"/>
      </clipPath>
   </defs>
</svg>
