<svg width="82" height="78" viewBox="0 0 82 78" fill="none" xmlns="http://www.w3.org/2000/svg">
    <path d="M4.71875 76.5381H77.2812C78.7655 76.5381 79.9688 75.3349 79.9688 73.8506V3.97559C79.9688 2.49132 78.7655 1.28809 77.2812 1.28809H4.71875C3.23448 1.28809 2.03125 2.49132 2.03125 3.97559V73.8506C2.03125 75.3349 3.23448 76.5381 4.71875 76.5381Z" fill="#E9EEF2"/>
    <path d="M79.9688 3.97546V12.038H2.03125V3.97546C2.03125 3.26269 2.3144 2.57912 2.8184 2.07511C3.3224 1.57111 4.00598 1.28796 4.71875 1.28796H77.2812C77.994 1.28796 78.6776 1.57111 79.1816 2.07511C79.6856 2.57912 79.9688 3.26269 79.9688 3.97546Z" fill="#C3C6C7"/>
    <path d="M10.0938 20.1875H53.0938V47.0625H10.0938V20.1875Z" fill="#F9605D"/>
    <path d="M58.4688 20.1875H71.9062V30.9375H58.4688V20.1875Z" fill="#F9605D"/>
    <path d="M28.9062 37.6562V29.5938L36.9688 33.625L28.9062 37.6562Z" fill="#E9EEF2"/>
    <path d="M58.4688 36.3125H71.9062V47.0625H58.4688V36.3125Z" fill="#F9605D"/>
    <path d="M58.4688 52.4375H71.9062V63.1875H58.4688V52.4375Z" fill="#F9605D"/>
    <path d="M77.2812 0.03125H4.71875C3.64998 0.0324947 2.62534 0.457614 1.8696 1.21335C1.11386 1.96909 0.688745 2.99373 0.6875 4.0625V73.9375C0.688745 75.0063 1.11386 76.0309 1.8696 76.7867C2.62534 77.5424 3.64998 77.9675 4.71875 77.9688H77.2812C78.35 77.9675 79.3747 77.5424 80.1304 76.7867C80.8861 76.0309 81.3113 75.0063 81.3125 73.9375V4.0625C81.3113 2.99373 80.8861 1.96909 80.1304 1.21335C79.3747 0.457614 78.35 0.0324947 77.2812 0.03125ZM4.71875 2.71875H77.2812C77.6375 2.71915 77.9791 2.86085 78.231 3.11277C78.4829 3.36468 78.6246 3.70624 78.625 4.0625V10.7812H3.375V4.0625C3.3754 3.70624 3.5171 3.36468 3.76902 3.11277C4.02093 2.86085 4.36249 2.71915 4.71875 2.71875ZM77.2812 75.2812H4.71875C4.36249 75.2809 4.02093 75.1392 3.76902 74.8872C3.5171 74.6353 3.3754 74.2938 3.375 73.9375V13.4688H78.625V73.9375C78.6246 74.2938 78.4829 74.6353 78.231 74.8872C77.9791 75.1392 77.6375 75.2809 77.2812 75.2812Z" fill="#424B56"/>
    <path d="M53.0938 18.8438H10.0938C9.73737 18.8438 9.39558 18.9853 9.14358 19.2373C8.89157 19.4893 8.75 19.8311 8.75 20.1875V47.0625C8.75 47.4189 8.89157 47.7607 9.14358 48.0127C9.39558 48.2647 9.73737 48.4062 10.0938 48.4062H53.0938C53.4501 48.4062 53.7919 48.2647 54.0439 48.0127C54.2959 47.7607 54.4375 47.4189 54.4375 47.0625V20.1875C54.4375 19.8311 54.2959 19.4893 54.0439 19.2373C53.7919 18.9853 53.4501 18.8438 53.0938 18.8438ZM51.75 45.7188H11.4375V21.5312H51.75V45.7188Z" fill="#424B56"/>
    <path d="M18.1562 8.09375C18.8984 8.09375 19.5 7.49213 19.5 6.75C19.5 6.00787 18.8984 5.40625 18.1562 5.40625C17.4141 5.40625 16.8125 6.00787 16.8125 6.75C16.8125 7.49213 17.4141 8.09375 18.1562 8.09375Z" fill="#424B56"/>
    <path d="M12.7812 8.09375C13.5234 8.09375 14.125 7.49213 14.125 6.75C14.125 6.00787 13.5234 5.40625 12.7812 5.40625C12.0391 5.40625 11.4375 6.00787 11.4375 6.75C11.4375 7.49213 12.0391 8.09375 12.7812 8.09375Z" fill="#424B56"/>
    <path d="M7.40625 8.09375C8.14838 8.09375 8.75 7.49213 8.75 6.75C8.75 6.00787 8.14838 5.40625 7.40625 5.40625C6.66412 5.40625 6.0625 6.00787 6.0625 6.75C6.0625 7.49213 6.66412 8.09375 7.40625 8.09375Z" fill="#424B56"/>
    <path d="M71.9062 18.8438H58.4688C58.1124 18.8438 57.7706 18.9853 57.5186 19.2373C57.2666 19.4893 57.125 19.8311 57.125 20.1875V30.9375C57.125 31.2939 57.2666 31.6357 57.5186 31.8877C57.7706 32.1397 58.1124 32.2812 58.4688 32.2812H71.9062C72.2626 32.2812 72.6044 32.1397 72.8564 31.8877C73.1084 31.6357 73.25 31.2939 73.25 30.9375V20.1875C73.25 19.8311 73.1084 19.4893 72.8564 19.2373C72.6044 18.9853 72.2626 18.8438 71.9062 18.8438ZM70.5625 29.5938H59.8125V21.5312H70.5625V29.5938Z" fill="#424B56"/>
    <path d="M28.1998 38.7994C28.3946 38.9198 28.6171 38.9884 28.8459 38.9986C29.0747 39.0089 29.3024 38.9605 29.5072 38.858L37.5697 34.8268C37.7929 34.7152 37.9806 34.5436 38.1118 34.3313C38.2429 34.1191 38.3124 33.8745 38.3124 33.625C38.3124 33.3754 38.2429 33.1308 38.1118 32.9186C37.9806 32.7063 37.7929 32.5348 37.5697 32.4231L29.5072 28.3919C29.3024 28.2894 29.0747 28.2411 28.8459 28.2514C28.6171 28.2616 28.3947 28.3303 28.1998 28.4507C28.005 28.5711 27.8442 28.7393 27.7326 28.9393C27.6211 29.1394 27.5625 29.3647 27.5625 29.5937V37.6562C27.5625 37.8853 27.621 38.1105 27.7325 38.3106C27.8441 38.5107 28.0049 38.679 28.1998 38.7994ZM30.25 31.7679L33.964 33.625L30.25 35.482V31.7679Z" fill="#424B56"/>
    <path d="M20.8438 51.0938H10.0938C9.73737 51.0938 9.39558 51.2353 9.14358 51.4873C8.89157 51.7393 8.75 52.0811 8.75 52.4375C8.75 52.7939 8.89157 53.1357 9.14358 53.3877C9.39558 53.6397 9.73737 53.7812 10.0938 53.7812H20.8438C21.2001 53.7812 21.5419 53.6397 21.7939 53.3877C22.0459 53.1357 22.1875 52.7939 22.1875 52.4375C22.1875 52.0811 22.0459 51.7393 21.7939 51.4873C21.5419 51.2353 21.2001 51.0938 20.8438 51.0938Z" fill="#424B56"/>
    <path d="M35.625 57.8125C35.625 57.4561 35.4834 57.1143 35.2314 56.8623C34.9794 56.6103 34.6376 56.4688 34.2812 56.4688H15.4688C15.1124 56.4688 14.7706 56.6103 14.5186 56.8623C14.2666 57.1143 14.125 57.4561 14.125 57.8125C14.125 58.1689 14.2666 58.5107 14.5186 58.7627C14.7706 59.0147 15.1124 59.1562 15.4688 59.1562H34.2812C34.6376 59.1562 34.9794 59.0147 35.2314 58.7627C35.4834 58.5107 35.625 58.1689 35.625 57.8125Z" fill="#424B56"/>
    <path d="M15.4688 61.8438C15.1124 61.8438 14.7706 61.9853 14.5186 62.2373C14.2666 62.4893 14.125 62.8311 14.125 63.1875C14.125 63.5439 14.2666 63.8857 14.5186 64.1377C14.7706 64.3897 15.1124 64.5312 15.4688 64.5312H30.25C30.6064 64.5312 30.9482 64.3897 31.2002 64.1377C31.4522 63.8857 31.5938 63.5439 31.5938 63.1875C31.5938 62.8311 31.4522 62.4893 31.2002 62.2373C30.9482 61.9853 30.6064 61.8438 30.25 61.8438H15.4688Z" fill="#424B56"/>
    <path d="M10.0938 59.1562C10.8359 59.1562 11.4375 58.5546 11.4375 57.8125C11.4375 57.0704 10.8359 56.4688 10.0938 56.4688C9.35162 56.4688 8.75 57.0704 8.75 57.8125C8.75 58.5546 9.35162 59.1562 10.0938 59.1562Z" fill="#424B56"/>
    <path d="M10.0938 64.5312C10.8359 64.5312 11.4375 63.9296 11.4375 63.1875C11.4375 62.4454 10.8359 61.8438 10.0938 61.8438C9.35162 61.8438 8.75 62.4454 8.75 63.1875C8.75 63.9296 9.35162 64.5312 10.0938 64.5312Z" fill="#424B56"/>
    <path d="M42.3438 67.2188H15.4688C15.1124 67.2188 14.7706 67.3603 14.5186 67.6123C14.2666 67.8643 14.125 68.2061 14.125 68.5625C14.125 68.9189 14.2666 69.2607 14.5186 69.5127C14.7706 69.7647 15.1124 69.9062 15.4688 69.9062H42.3438C42.7001 69.9062 43.0419 69.7647 43.2939 69.5127C43.5459 69.2607 43.6875 68.9189 43.6875 68.5625C43.6875 68.2061 43.5459 67.8643 43.2939 67.6123C43.0419 67.3603 42.7001 67.2188 42.3438 67.2188Z" fill="#424B56"/>
    <path d="M10.0938 69.9062C10.8359 69.9062 11.4375 69.3046 11.4375 68.5625C11.4375 67.8204 10.8359 67.2188 10.0938 67.2188C9.35162 67.2188 8.75 67.8204 8.75 68.5625C8.75 69.3046 9.35162 69.9062 10.0938 69.9062Z" fill="#424B56"/>
    <path d="M63.8438 24.2188V26.9062L66.5312 25.5625L63.8438 24.2188Z" fill="#424B56"/>
    <path d="M71.9062 34.9688H58.4688C58.1124 34.9688 57.7706 35.1103 57.5186 35.3623C57.2666 35.6143 57.125 35.9561 57.125 36.3125V47.0625C57.125 47.4189 57.2666 47.7607 57.5186 48.0127C57.7706 48.2647 58.1124 48.4062 58.4688 48.4062H71.9062C72.2626 48.4062 72.6044 48.2647 72.8564 48.0127C73.1084 47.7607 73.25 47.4189 73.25 47.0625V36.3125C73.25 35.9561 73.1084 35.6143 72.8564 35.3623C72.6044 35.1103 72.2626 34.9688 71.9062 34.9688ZM70.5625 45.7188H59.8125V37.6562H70.5625V45.7188Z" fill="#424B56"/>
    <path d="M63.8438 40.3438V43.0312L66.5312 41.6875L63.8438 40.3438Z" fill="#424B56"/>
    <path d="M71.9062 51.0938H58.4688C58.1124 51.0938 57.7706 51.2353 57.5186 51.4873C57.2666 51.7393 57.125 52.0811 57.125 52.4375V63.1875C57.125 63.5439 57.2666 63.8857 57.5186 64.1377C57.7706 64.3897 58.1124 64.5312 58.4688 64.5312H71.9062C72.2626 64.5312 72.6044 64.3897 72.8564 64.1377C73.1084 63.8857 73.25 63.5439 73.25 63.1875V52.4375C73.25 52.0811 73.1084 51.7393 72.8564 51.4873C72.6044 51.2353 72.2626 51.0938 71.9062 51.0938ZM70.5625 61.8438H59.8125V53.7812H70.5625V61.8438Z" fill="#424B56"/>
    <path d="M63.8438 56.4688V59.1562L66.5312 57.8125L63.8438 56.4688Z" fill="#424B56"/>
    <path d="M59.8125 69.9062C60.5546 69.9062 61.1562 69.3046 61.1562 68.5625C61.1562 67.8204 60.5546 67.2188 59.8125 67.2188C59.0704 67.2188 58.4688 67.8204 58.4688 68.5625C58.4688 69.3046 59.0704 69.9062 59.8125 69.9062Z" fill="#424B56"/>
    <path d="M65.1875 69.9062C65.9296 69.9062 66.5312 69.3046 66.5312 68.5625C66.5312 67.8204 65.9296 67.2188 65.1875 67.2188C64.4454 67.2188 63.8438 67.8204 63.8438 68.5625C63.8438 69.3046 64.4454 69.9062 65.1875 69.9062Z" fill="#424B56"/>
    <path d="M70.5625 69.9062C71.3046 69.9062 71.9062 69.3046 71.9062 68.5625C71.9062 67.8204 71.3046 67.2188 70.5625 67.2188C69.8204 67.2188 69.2188 67.8204 69.2188 68.5625C69.2188 69.3046 69.8204 69.9062 70.5625 69.9062Z" fill="#424B56"/>
</svg>
