<svg width="41" height="41" viewBox="0 0 41 41" fill="none" xmlns="http://www.w3.org/2000/svg">
    <circle cx="16" cy="21" r="2" stroke="#36BAFE" stroke-width="2"/>
    <circle cx="10" cy="15" r="2" stroke="#36BAFE" stroke-width="2"/>
    <circle cx="24" cy="13" r="2" stroke="#36BAFE" stroke-width="2"/>
    <circle cx="33" cy="4" r="2" stroke="#36BAFE" stroke-width="2"/>
    <circle cx="17" cy="17" r="16" stroke="#36BAFE" stroke-width="2"/>
    <circle cx="17" cy="17" r="13" stroke="#36BAFE" stroke-width="2"/>
    <line x1="11.7071" y1="16.2929" x2="14.7071" y2="19.2929" stroke="#36BAFE" stroke-width="2"/>
    <line x1="17.2929" y1="19.2929" x2="22.2929" y2="14.2929" stroke="#36BAFE" stroke-width="2"/>
    <line x1="25.2929" y1="11.2929" x2="27.2929" y2="9.29289" stroke="#36BAFE" stroke-width="2"/>
    <line x1="29.2929" y1="7.29289" x2="31.2929" y2="5.29289" stroke="#36BAFE" stroke-width="2"/>
    <line x1="35" y1="4" x2="40" y2="4" stroke="#36BAFE" stroke-width="2"/>
    <line x1="4" y1="15" x2="9" y2="15" stroke="#36BAFE" stroke-width="2"/>
    <path d="M30 26L39 35C39.6667 35.6667 40.1094 36.8359 39 38.5C38 40 36 40 35 39L26 30" stroke="#36BAFE" stroke-width="2"/>
    <line x1="32.7071" y1="29.7071" x2="29.7071" y2="32.7071" stroke="#36BAFE" stroke-width="2"/>
</svg>
