<svg width="27" height="27" viewBox="0 0 27 27" fill="none" xmlns="http://www.w3.org/2000/svg">
    <path d="M25.525 23.1739L19.1657 16.776C20.3219 15.1572 21.0157 13.153 21.0157 10.9947C21.0157 5.44471 16.5063 0.973877 10.9948 0.973877C5.48337 0.973877 0.973999 5.48325 0.973999 10.9947C0.973999 16.5062 5.48337 21.0155 10.9948 21.0155C13.1532 21.0155 15.1573 20.3218 16.7761 19.1655L23.174 25.5249C23.4823 25.8718 23.9448 26.026 24.3302 26.026C24.7157 26.026 25.2167 25.8718 25.4865 25.5249C26.1803 24.8697 26.1803 23.8291 25.525 23.1739ZM10.9948 18.8572C6.67817 18.8572 3.13233 15.3499 3.13233 10.9947C3.13233 6.6395 6.63962 3.13221 10.9948 3.13221C15.35 3.13221 18.8573 6.6395 18.8573 10.9947C18.8573 15.3499 15.3115 18.8572 10.9948 18.8572Z" fill="#333333"/>
</svg>
