<svg width="86" height="89" viewBox="0 0 86 89" fill="none" xmlns="http://www.w3.org/2000/svg">
    <path d="M70.5625 5.26562C72.1041 5.26563 73.5825 5.87801 74.6726 6.96807C75.7626 8.05812 76.375 9.53655 76.375 11.0781V18.3438C76.375 19.1145 76.0688 19.8538 75.5238 20.3988C74.9788 20.9438 74.2395 21.25 73.4688 21.25H67.6562C66.8855 21.25 66.1462 20.9438 65.6012 20.3988C65.0562 19.8538 64.75 19.1145 64.75 18.3438V11.0781C64.75 9.53655 65.3624 8.05812 66.4524 6.96807C67.5425 5.87801 69.0209 5.26563 70.5625 5.26562Z" fill="#8098AB"/>
    <path d="M51.6719 63.3906H83.6406V83.7344H51.6719V63.3906Z" fill="#FFC431"/>
    <path d="M10.9844 79.375L18.25 86.6406H21.1562L24.0625 83.7344L15.3438 75.0156L10.9844 79.375Z" fill="#4976F2"/>
    <path d="M3.71004 75.0092L12.4274 66.2918L19.692 73.5563L10.9746 82.2737L3.71004 75.0092Z" fill="#548AFF"/>
    <path d="M37.1406 64.8438L19.7031 73.5625L12.4375 66.2969L21.1562 48.8594L37.1406 64.8438Z" fill="#4976F2"/>
    <path d="M3.71875 75.0156L2.26562 79.375L6.625 83.7344L10.9844 82.2812L3.71875 75.0156Z" fill="#4F7FF7"/>
    <path d="M12.4375 2.35938H48.7656V34.3281H12.4375V2.35938Z" fill="#F78E00"/>
    <path d="M28.4219 8.17188V19.7969L37.1406 13.9844L28.4219 8.17188Z" fill="#FFC431"/>
    <path d="M61.8438 21.25H79.2812V29.9688H61.8438V21.25Z" fill="#FFC431"/>
    <path d="M67.6562 29.9688H73.4688V44.5H67.6562V29.9688Z" fill="#FFB401"/>
    <path d="M67.6562 79.375C70.8664 79.375 73.4688 76.7727 73.4688 73.5625C73.4688 70.3523 70.8664 67.75 67.6562 67.75C64.4461 67.75 61.8438 70.3523 61.8438 73.5625C61.8438 76.7727 64.4461 79.375 67.6562 79.375Z" fill="#8BE0E8"/>
    <path d="M60.3906 63.3906L63.2969 57.5781H72.0156L74.9219 63.3906H60.3906Z" fill="#FFB401"/>
    <path d="M37.1406 51.7656C38.7457 51.7656 40.0469 50.4645 40.0469 48.8594C40.0469 47.2543 38.7457 45.9531 37.1406 45.9531C35.5355 45.9531 34.2344 47.2543 34.2344 48.8594C34.2344 50.4645 35.5355 51.7656 37.1406 51.7656Z" fill="#FFC431"/>
    <path d="M25.5156 29.9688C27.1207 29.9688 28.4219 28.6676 28.4219 27.0625C28.4219 25.4574 27.1207 24.1562 25.5156 24.1562C23.9105 24.1562 22.6094 25.4574 22.6094 27.0625C22.6094 28.6676 23.9105 29.9688 25.5156 29.9688Z" fill="#FFE28F"/>
    <path d="M10.9844 2.35938V34.3281C10.9844 34.7135 11.1375 35.0831 11.41 35.3556C11.6825 35.6281 12.0521 35.7812 12.4375 35.7812H48.7656C49.151 35.7812 49.5206 35.6281 49.7931 35.3556C50.0656 35.0831 50.2187 34.7135 50.2188 34.3281V2.35938C50.2187 1.97398 50.0656 1.60438 49.7931 1.33186C49.5206 1.05935 49.151 0.906254 48.7656 0.90625H12.4375C12.0521 0.906254 11.6825 1.05935 11.41 1.33186C11.1375 1.60438 10.9844 1.97398 10.9844 2.35938ZM13.8906 3.8125H47.3125V32.875H13.8906V3.8125Z" fill="#333333"/>
    <path d="M25.5156 22.7031C24.6145 22.7043 23.7358 22.9842 23 23.5045C22.2643 24.0249 21.7076 24.7601 21.4062 25.6094H16.7969V28.5156H21.4062C21.7066 29.3655 22.263 30.1014 22.999 30.6219C23.735 31.1424 24.6142 31.4219 25.5156 31.4219C26.417 31.4219 27.2963 31.1424 28.0322 30.6219C28.7682 30.1014 29.3247 29.3655 29.625 28.5156H44.4062V25.6094H29.625C29.3237 24.7601 28.767 24.0249 28.0312 23.5045C27.2955 22.9842 26.4168 22.7043 25.5156 22.7031ZM25.5156 28.5156C25.2282 28.5156 24.9473 28.4304 24.7083 28.2707C24.4693 28.1111 24.2831 27.8841 24.1731 27.6186C24.0631 27.3531 24.0344 27.0609 24.0904 26.779C24.1465 26.4971 24.2849 26.2382 24.4881 26.035C24.6913 25.8318 24.9503 25.6934 25.2321 25.6373C25.514 25.5812 25.8062 25.61 26.0717 25.72C26.3372 25.83 26.5642 26.0162 26.7239 26.2552C26.8835 26.4942 26.9688 26.7751 26.9688 27.0625C26.9683 27.4478 26.8151 27.8171 26.5427 28.0895C26.2702 28.3619 25.9009 28.5152 25.5156 28.5156Z" fill="#333333"/>
    <path d="M27.7363 21.0781C27.9682 21.2022 28.2294 21.2611 28.4921 21.2484C28.7548 21.2357 29.0091 21.1519 29.2279 21.006L37.9467 15.1935C38.1457 15.0608 38.3089 14.881 38.4218 14.6701C38.5347 14.4592 38.5938 14.2237 38.5938 13.9844C38.5938 13.7452 38.5347 13.5097 38.4218 13.2988C38.3089 13.0879 38.1457 12.9081 37.9467 12.7754L29.2279 6.96289C29.0091 6.81701 28.7547 6.73326 28.492 6.72057C28.2293 6.70787 27.9681 6.76671 27.7362 6.89081C27.5043 7.01491 27.3105 7.19962 27.1753 7.42524C27.0402 7.65086 26.9688 7.90893 26.9688 8.17194V19.7969C26.9688 20.06 27.0402 20.318 27.1753 20.5437C27.3105 20.7693 27.5044 20.954 27.7363 21.0781ZM29.875 10.8871L34.521 13.9844L29.875 17.0817V10.8871Z" fill="#333333"/>
    <path d="M83.6406 61.9375H82.1875C82.1875 61.5521 82.0344 61.1825 81.7619 60.91C81.4894 60.6375 81.1198 60.4844 80.7344 60.4844H77.8281C77.4427 60.4844 77.0731 60.6375 76.8006 60.91C76.5281 61.1825 76.375 61.5521 76.375 61.9375H75.82L73.3153 56.9283C73.1947 56.6869 73.0091 56.4839 72.7796 56.342C72.55 56.2001 72.2855 56.125 72.0156 56.125H63.2969C63.027 56.125 62.7625 56.2001 62.5329 56.342C62.3034 56.4839 62.1178 56.6869 61.9972 56.9283L59.4925 61.9375H58.9375C58.9375 61.5521 58.7844 61.1825 58.5119 60.91C58.2394 60.6375 57.8698 60.4844 57.4844 60.4844H54.5781C54.1927 60.4844 53.8231 60.6375 53.5506 60.91C53.2781 61.1825 53.125 61.5521 53.125 61.9375H51.6719C51.2865 61.9375 50.9169 62.0906 50.6444 62.3631C50.3719 62.6356 50.2188 63.0052 50.2188 63.3906V83.7344C50.2188 84.1198 50.3719 84.4894 50.6444 84.7619C50.9169 85.0344 51.2865 85.1875 51.6719 85.1875H83.6406C84.026 85.1875 84.3956 85.0344 84.6681 84.7619C84.9406 84.4894 85.0937 84.1198 85.0938 83.7344V63.3906C85.0937 63.0052 84.9406 62.6356 84.6681 62.3631C84.3956 62.0906 84.026 61.9375 83.6406 61.9375ZM64.195 59.0312H71.1175L72.5707 61.9375H62.7418L64.195 59.0312ZM82.1875 82.2812H53.125V64.8438H82.1875V82.2812Z" fill="#333333"/>
    <path d="M60.8162 55.6994L62.8713 53.6444L57.0588 47.8319C56.7863 47.5594 56.4167 47.4063 56.0312 47.4063H46.4613L59.9651 33.9025L57.9099 31.8475L42.3512 47.4063H41.25C41.032 46.7942 40.6805 46.2383 40.2211 45.7789C39.7617 45.3195 39.2058 44.968 38.5937 44.75V38.6875H35.6875V44.75C35.1111 44.9536 34.5841 45.2761 34.1405 45.6967C33.697 46.1172 33.3469 46.6264 33.1129 47.1911C32.879 47.7558 32.7665 48.3634 32.7828 48.9744C32.799 49.5854 32.9436 50.1862 33.2072 50.7377L29.1484 54.7965L22.1838 47.8319C22.021 47.6691 21.8218 47.5473 21.6027 47.4766C21.3836 47.4058 21.1508 47.3882 20.9235 47.4251C20.6963 47.462 20.481 47.5523 20.2955 47.6887C20.11 47.8251 19.9595 48.0036 19.8566 48.2096L11.2432 65.4361L2.69117 73.9882C2.53178 74.1477 2.41195 74.3424 2.34128 74.5565L2.34013 74.5561L0.887006 78.9155C0.801683 79.1715 0.789329 79.4462 0.85133 79.7089C0.913331 79.9715 1.04724 80.2117 1.23805 80.4025L5.59742 84.7619C5.78826 84.9527 6.02848 85.0867 6.29115 85.1487C6.55382 85.2107 6.82857 85.1983 7.0846 85.1129L11.444 83.6598L11.4436 83.6586C11.6577 83.588 11.8524 83.4681 12.012 83.3088L12.4375 82.8832L17.2224 87.6682C17.495 87.9407 17.8646 88.0938 18.25 88.0938H21.1562C21.5417 88.0938 21.9113 87.9407 22.1838 87.6681L25.0901 84.7619C25.3626 84.4894 25.5157 84.1198 25.5157 83.7344C25.5157 83.349 25.3626 82.9794 25.0901 82.7069L18.852 76.4688L20.564 74.7568L37.7906 66.1435C37.9965 66.0405 38.175 65.89 38.3113 65.7045C38.4477 65.519 38.5381 65.3038 38.5749 65.0765C38.6118 64.8493 38.5942 64.6165 38.5235 64.3974C38.4528 64.1783 38.331 63.9791 38.1682 63.8163L31.2035 56.8516L35.2623 52.7928C35.8138 53.0564 36.4146 53.201 37.0256 53.2172C37.6366 53.2335 38.2442 53.121 38.8089 52.8871C39.3736 52.6532 39.8828 52.3031 40.3034 51.8595C40.7239 51.416 41.0465 50.8889 41.25 50.3125H55.4294L60.8162 55.6994ZM12.4375 68.352L17.648 73.5625L10.9844 80.2262L5.77374 75.0157L12.4375 68.352ZM7.01755 82.0719L3.92824 78.9826L4.35382 77.7058L8.29431 81.6463L7.01755 82.0719ZM22.0075 83.7344L20.5544 85.1875H18.8519L14.4926 80.8282L16.7969 78.5239L22.0075 83.7344ZM19.9901 71.7944L14.2056 66.0099L21.5543 51.3125L34.6876 64.4457L19.9901 71.7944ZM37.1406 50.3125C36.8532 50.3125 36.5723 50.2273 36.3333 50.0676C36.0943 49.908 35.9081 49.681 35.7981 49.4155C35.6881 49.15 35.6593 48.8578 35.7154 48.5759C35.7715 48.294 35.9099 48.0351 36.1131 47.8319C36.3163 47.6287 36.5752 47.4903 36.8571 47.4342C37.139 47.3781 37.4312 47.4069 37.6967 47.5169C37.9622 47.6269 38.1892 47.8131 38.3489 48.0521C38.5085 48.2911 38.5937 48.572 38.5937 48.8594C38.5933 49.2447 38.4401 49.614 38.1676 49.8864C37.8952 50.1588 37.5259 50.3121 37.1406 50.3125Z" fill="#424B56"/>
    <path d="M72.0156 48.8594V45.9531H73.4688C73.8541 45.9531 74.2237 45.8 74.4963 45.5275C74.7688 45.255 74.9219 44.8854 74.9219 44.5V31.4219H79.2812C79.6666 31.4219 80.0362 31.2688 80.3088 30.9963C80.5813 30.7237 80.7344 30.3541 80.7344 29.9688V21.25C80.7344 20.8646 80.5813 20.495 80.3088 20.2225C80.0362 19.95 79.6666 19.7969 79.2812 19.7969H77.5782C77.7438 19.3303 77.8283 18.8388 77.8281 18.3438V11.0781C77.8281 9.15116 77.0626 7.30312 75.7001 5.94055C74.3375 4.57798 72.4895 3.8125 70.5625 3.8125C68.6355 3.8125 66.7875 4.57798 65.4249 5.94055C64.0624 7.30312 63.2969 9.15116 63.2969 11.0781V18.3438C63.2967 18.8388 63.3812 19.3303 63.5468 19.7969H61.8438C61.4584 19.7969 61.0888 19.95 60.8162 20.2225C60.5437 20.495 60.3906 20.8646 60.3906 21.25V29.9688C60.3906 30.3541 60.5437 30.7237 60.8162 30.9963C61.0888 31.2688 61.4584 31.4219 61.8438 31.4219H66.2031V44.5C66.2031 44.8854 66.3562 45.255 66.6287 45.5275C66.9013 45.8 67.2709 45.9531 67.6562 45.9531H69.1094V48.8594H72.0156ZM66.2031 18.3438V11.0781C66.2031 9.92195 66.6624 8.81312 67.48 7.99558C68.2975 7.17804 69.4063 6.71875 70.5625 6.71875C71.7187 6.71875 72.8275 7.17804 73.645 7.99558C74.4626 8.81312 74.9219 9.92195 74.9219 11.0781V18.3438C74.9214 18.729 74.7682 19.0984 74.4958 19.3708C74.2234 19.6432 73.854 19.7964 73.4688 19.7969H67.6562C67.271 19.7964 66.9016 19.6432 66.6292 19.3708C66.3568 19.0984 66.2036 18.729 66.2031 18.3438ZM63.2969 22.7031H77.8281V28.5156H63.2969V22.7031ZM72.0156 31.4219V43.0469H69.1094V31.4219H72.0156Z" fill="#333333"/>
    <path d="M67.6563 80.8281C69.0933 80.8281 70.498 80.402 71.6928 79.6037C72.8877 78.8053 73.8189 77.6706 74.3688 76.3429C74.9187 75.0153 75.0626 73.5544 74.7823 72.1451C74.5019 70.7357 73.8099 69.441 72.7938 68.4249C71.7777 67.4088 70.4831 66.7168 69.0737 66.4365C67.6643 66.1561 66.2034 66.3 64.8758 66.8499C63.5482 67.3999 62.4135 68.3311 61.6151 69.5259C60.8167 70.7208 60.3906 72.1255 60.3906 73.5625C60.3928 75.4888 61.159 77.3356 62.5211 78.6977C63.8832 80.0598 65.73 80.826 67.6563 80.8281ZM67.6563 69.2031C68.5185 69.2031 69.3613 69.4588 70.0782 69.9378C70.7951 70.4168 71.3538 71.0977 71.6838 71.8942C72.0137 72.6908 72.1001 73.5673 71.9319 74.413C71.7637 75.2586 71.3485 76.0354 70.7388 76.6451C70.1291 77.2547 69.3524 77.6699 68.5067 77.8381C67.6611 78.0063 66.7846 77.92 65.988 77.59C65.1914 77.2601 64.5106 76.7013 64.0316 75.9844C63.5526 75.2676 63.2969 74.4247 63.2969 73.5625C63.2982 72.4067 63.7579 71.2987 64.5752 70.4814C65.3924 69.6642 66.5005 69.2045 67.6563 69.2031Z" fill="#333333"/>
    <path d="M58.9375 80.8281C59.74 80.8281 60.3906 80.1775 60.3906 79.375C60.3906 78.5725 59.74 77.9219 58.9375 77.9219C58.135 77.9219 57.4844 78.5725 57.4844 79.375C57.4844 80.1775 58.135 80.8281 58.9375 80.8281Z" fill="#333333"/>
    <path d="M76.375 66.2969H79.2812V69.2031H76.375V66.2969Z" fill="#333333"/>
</svg>
