<svg width="131" height="125" viewBox="0 0 131 125" fill="none" xmlns="http://www.w3.org/2000/svg">
    <path d="M122.57 59.0125C110.844 56.8836 99.1298 56.4406 87.6855 59.9902C81.4342 61.9292 74.5333 61.6119 68.7725 64.2921C62.0658 67.4124 59.3664 71.4234 54.5877 76.611C41.8463 90.4428 35.5696 104.312 35.5696 122.367" stroke="#424B56" stroke-width="5" stroke-linecap="round" stroke-linejoin="round"/>
    <path d="M21.3526 102.104C14.7537 100.655 9.67444 98.4335 3 98.4335" stroke="#424B56" stroke-width="5" stroke-linecap="round" stroke-linejoin="round"/>
    <path d="M36.0346 80.0809C25.1638 77.6946 23.0826 73.9777 16.6624 65.8066C13.0236 61.1754 6.64009 56.1314 4.83521 50.7167" stroke="#424B56" stroke-width="5" stroke-linecap="round" stroke-linejoin="round"/>
    <path d="M48.8814 61.7283C48.0315 57.0069 40.8798 35.7044 41.5403 36.0347" stroke="#424B56" stroke-width="5" stroke-linecap="round" stroke-linejoin="round"/>
    <path d="M94.7629 48.8815C89.3142 34.2382 91.0924 18.4205 91.0924 3" stroke="#424B56" stroke-width="5" stroke-linecap="round" stroke-linejoin="round"/>
    <path d="M76.3905 54.7076C74.9951 51.1442 69.912 43.5088 72.7457 40.3672" stroke="#424B56" stroke-width="5" stroke-linecap="round" stroke-linejoin="round"/>
    <path d="M121.637 51.192C123.682 48.9171 125.727 46.6421 127.771 44.3672" stroke="#424B56" stroke-width="5" stroke-linecap="round" stroke-linejoin="round"/>
</svg>
