<svg width="104" height="104" viewBox="0 0 104 104" fill="none" xmlns="http://www.w3.org/2000/svg">
    <path d="M87.8442 104H80.173C78.5437 104 77.223 102.679 77.223 101.05C77.223 99.4207 78.5437 98.1 80.173 98.1H87.8442C93.499 98.1 98.1 93.4992 98.1 87.8442V16.1558C98.1 10.501 93.4992 5.89997 87.8442 5.89997H43.5432C41.914 5.89997 40.5933 4.57925 40.5933 2.94998C40.5933 1.32072 41.914 0 43.5432 0H87.8442C96.7527 0 104 7.2473 104 16.1558V87.8442C104 96.7527 96.7527 104 87.8442 104Z" fill="#F56A4C"/>
    <path d="M58.8439 104H16.1558C7.2473 104 0 96.7527 0 87.8442V16.1558C0 7.2473 7.2473 0 16.1558 0H22.7947C24.424 0 25.7447 1.32072 25.7447 2.94998C25.7447 4.57925 24.424 5.89997 22.7947 5.89997H16.1558C10.501 5.89997 5.89997 10.5008 5.89997 16.1558V87.8442C5.89997 93.499 10.5008 98.1 16.1558 98.1H58.8439C60.4732 98.1 61.7939 99.4207 61.7939 101.05C61.7939 102.679 60.4732 104 58.8439 104Z" fill="#F56A4C"/>
    <path d="M80.6597 24.5157L20.5164 47.9533C18.5679 48.7126 18.6865 51.508 20.6919 52.0995L34.4299 56.1557L38.7 72.1447C39.2956 74.0354 41.691 74.608 43.0777 73.1922L51.5324 65.1237L69.4629 79.0704C71.3603 80.4631 74.0622 79.4279 74.544 77.1249L84.8124 28.0316C85.3152 25.6266 82.9494 23.6234 80.6597 24.5157Z" fill="white"/>
    <path d="M71.3676 82.6505H71.3674C70.0505 82.6505 68.7881 82.2349 67.7174 81.449C67.6953 81.4328 67.6735 81.4163 67.652 81.3995L51.7292 69.0141L45.1439 75.2988C44.0907 76.3526 42.6969 76.932 41.2122 76.932C38.7617 76.932 36.6214 75.3646 35.8865 73.0315C35.8735 72.9899 35.8611 72.9483 35.85 72.9062L32.0072 58.5166L19.8567 54.9291C17.7147 54.2969 16.2689 52.4463 16.1745 50.2147C16.0798 47.9828 17.364 46.0163 19.4458 45.2051L79.5891 21.7675C80.3004 21.4902 81.0416 21.3499 81.7928 21.3499C83.6138 21.3499 85.3233 22.1684 86.4829 23.5956C87.6308 25.0083 88.0744 26.8456 87.6998 28.6359L77.4311 77.7292C76.8349 80.5807 74.2849 82.6505 71.3676 82.6505ZM71.2262 76.7053C71.2739 76.7368 71.3174 76.7504 71.3676 76.7504C71.3921 76.7504 71.6095 76.7443 71.6564 76.5212L81.9248 27.428C81.9364 27.3727 81.9321 27.3506 81.9039 27.3158C81.8732 27.2781 81.8251 27.2494 81.7925 27.2494C81.7777 27.2494 81.756 27.2547 81.7312 27.2644L23.6517 49.8976L35.2649 53.3268C36.2509 53.6179 37.0143 54.4017 37.2797 55.395L41.377 70.7375L49.4955 62.9899C50.5527 61.9807 52.1897 61.8981 53.3433 62.7955L71.2262 76.7053Z" fill="#F56A4C"/>
    <path d="M44.6219 73.1676C44.7146 73.4674 48.0944 69.2424 48.1303 68.93L46.6144 61.5086C46.4147 60.531 46.769 59.5228 47.5362 58.8852L75.3233 35.7952C75.992 35.2035 75.2152 34.16 74.457 34.6299L41.7808 54.5597C41.0061 55.0324 40.6064 55.9359 40.7776 56.8268L44.6219 73.1676Z" fill="#F56A4C"/>
</svg>
