<svg width="44" height="44" viewBox="0 0 44 44" fill="none" xmlns="http://www.w3.org/2000/svg">
    <path fill-rule="evenodd" clip-rule="evenodd" d="M3 0C1.34315 0 0 1.34315 0 3V41C0 42.6569 1.34315 44 3 44H41C42.6569 44 44 42.6569 44 41V3C44 1.34315 42.6569 0 41 0H3ZM22.5 13.1778L23.6451 14.5311L29.1451 21.0311L26.8549 22.9689L22.5 17.8222L18.1451 22.9689L15.8549 21.0311L21.3549 14.5311L22.5 13.1778ZM22.5 19.6778L23.6451 21.0311L29.1451 27.5311L26.8549 29.4689L22.5 24.3222L18.1451 29.4689L15.8549 27.5311L21.3549 21.0311L22.5 19.6778Z" fill="#498CF8"/>
</svg>
