<svg width="102" height="102" viewBox="0 0 102 102" fill="none" xmlns="http://www.w3.org/2000/svg">
    <path d="M86.1548 102H78.6309C77.0332 102 75.7377 100.705 75.7377 99.1068C75.7377 97.5091 77.0332 96.2136 78.6309 96.2136H86.1548C91.7008 96.2136 96.2133 91.7013 96.2133 86.155V15.8453C96.2133 10.2992 91.701 5.78674 86.1548 5.78674H42.7059C41.1079 5.78674 39.8126 4.49123 39.8126 2.89349C39.8126 1.29576 41.1079 0.000244141 42.7059 0.000244141H86.155C94.8917 0.000244141 102 7.10816 102 15.8453V86.1554C102 94.8922 94.8919 102 86.1548 102Z" fill="#75B998"/>
    <path d="M57.7124 102.001H15.845C7.10791 102.001 0 94.8929 0 86.1558V15.846C0 7.10889 7.10791 0.000976562 15.845 0.000976562H22.3563C23.9542 0.000976562 25.2495 1.29649 25.2495 2.89423C25.2495 4.49196 23.9542 5.78748 22.3563 5.78748H15.845C10.299 5.78748 5.7865 10.2998 5.7865 15.846V86.1562C5.7865 91.7022 10.2988 96.2147 15.845 96.2147H57.7124C59.3101 96.2147 60.6056 97.5102 60.6056 99.108C60.6056 100.706 59.3101 102.001 57.7124 102.001Z" fill="#75B998"/>
    <path d="M81.5977 71.0335C79.2483 71.0335 76.3748 70.9675 75.1478 70.9396C74.7783 70.9313 74.5374 70.9257 74.4717 70.9255C72.5058 70.9167 70.8128 70.2428 69.4402 68.922C68.3266 67.8504 67.2486 66.6786 66.2061 65.5452C65.6158 64.9041 65.006 64.2409 64.3906 63.5969C63.7702 62.9478 63.1861 62.4175 62.604 61.9752C61.8488 61.3995 61.0439 61.0945 60.2787 61.0945C59.0133 61.0945 57.971 61.8902 57.4196 63.2777C56.7858 64.8774 56.2995 68.7845 56.2816 69.0256C56.2035 70.1227 55.5762 70.6866 54.3638 70.7532C53.5687 70.7962 52.7883 70.8185 52.0448 70.8185C47.2542 70.8185 43.2099 69.8995 39.6808 68.0089C36.112 66.0974 32.9119 63.2978 29.8985 59.4503C26.0913 54.5908 22.6627 48.9573 18.7818 41.185C18.5955 40.8121 15.6168 34.4614 15.3309 33.745C15.2496 33.4113 15.2054 32.8668 15.4877 32.6838C15.7026 32.6634 16.3571 32.6288 18.3104 32.6288C21.5676 32.6288 26.361 32.7274 26.6262 32.7367C27.9681 32.8095 28.6994 33.3376 29.2198 34.6206C31.4933 40.2341 34.2003 44.9685 37.4955 49.0934C37.995 49.7215 38.6474 50.3202 39.3817 50.8232C39.8971 51.1768 40.4499 51.3637 40.9801 51.3637H40.9803C41.9895 51.3637 42.821 50.7188 43.2045 49.6374C43.6452 48.4075 43.9996 46.1435 44.0213 44.9429C44.0789 41.9974 44.0138 40.0763 43.855 37.1281C43.7066 34.402 42.41 32.7734 39.8963 32.1626C40.6609 31.3356 41.7028 31.1239 43.2942 31.0388C44.1851 30.9908 45.1595 30.9673 46.2739 30.9673C47.3096 30.9673 48.3687 30.987 49.3928 31.0063C50.1124 31.0199 50.8316 31.0332 51.5506 31.0404C52.7371 31.0512 53.7653 31.155 54.6962 31.3584C55.2622 31.4817 56.0404 31.803 56.2705 33.1718C56.388 33.8665 56.44 34.5403 56.4251 35.176C56.3956 36.4801 56.3515 37.807 56.3093 39.0902C56.2484 40.9352 56.185 42.8431 56.1633 44.7255C56.146 46.1864 56.2703 47.5329 56.5324 48.7278C56.8791 50.297 57.8202 51.2332 59.0508 51.2332C59.5677 51.2332 60.3606 51.0501 61.2017 50.1783C62.5341 48.7947 63.8204 47.1849 65.3728 44.9592C67.398 42.054 69.1473 38.6655 70.8782 34.2948C71.4591 32.8324 71.6079 32.7296 73.1546 32.7262C75.1845 32.721 77.2139 32.718 79.2435 32.718C81.0245 32.718 82.806 32.7206 84.5872 32.7262C85.2663 32.7292 85.8146 32.7993 86.263 32.9417C86.57 33.0396 86.8354 33.1818 86.6883 33.8303C86.146 36.236 84.7557 38.3372 83.4953 40.1174C81.9639 42.2789 80.3528 44.4478 78.7949 46.5454C77.9743 47.6496 77.1541 48.7543 76.3405 49.8633C76.0423 50.2703 75.7558 50.7242 75.4399 51.2909C74.2848 53.3809 74.4681 54.8468 76.0909 56.5226C76.9539 57.4125 77.8506 58.2879 78.7178 59.1338C79.942 60.3287 81.2082 61.564 82.3697 62.8346C83.8383 64.4441 85.1312 66.1255 86.2116 67.8312C86.7118 68.6211 86.8551 69.3861 86.6039 69.9292C86.3616 70.4538 85.7402 70.8119 84.8535 70.9379C84.5983 70.9729 83.8345 71.0335 81.5977 71.0335Z" fill="white"/>
    <path d="M81.5976 73.9266C79.2281 73.9266 76.3362 73.8606 75.1017 73.8325C74.7497 73.8244 74.5279 73.8192 74.455 73.8186C71.7622 73.8064 69.3333 72.8342 67.4342 71.0064C66.2522 69.8687 65.1461 68.6666 64.0767 67.5038L64.0397 67.4633C63.4705 66.8453 62.8824 66.2063 62.2985 65.5951C61.7855 65.0584 61.3126 64.6273 60.853 64.278C60.587 64.0752 60.392 64.0067 60.3099 63.9913C60.2697 64.035 60.1904 64.139 60.1083 64.3462C59.7156 65.3375 59.2574 68.3664 59.165 69.2653C58.9724 71.8164 57.1949 73.4955 54.5218 73.6419C53.6721 73.6879 52.8394 73.7114 52.0445 73.7114C46.7649 73.7114 42.2737 72.6803 38.314 70.559C34.384 68.454 30.8862 65.4038 27.6204 61.2342C23.6892 56.2165 20.1646 50.4315 16.1928 42.4776C16.0241 42.1397 12.981 35.6641 12.6431 34.8164C12.5927 34.6903 12.5515 34.561 12.5192 34.4289C12.0953 32.6878 12.6288 31.0888 13.912 30.2563C14.3034 30.0025 14.7501 29.8469 15.2144 29.8033C15.3921 29.7861 15.9326 29.7353 18.3097 29.7353C21.6456 29.7353 26.4428 29.8352 26.7271 29.8449C26.7452 29.8457 26.7635 29.8463 26.7817 29.8475C29.24 29.9806 30.9621 31.2203 31.8998 33.5326C34.0675 38.8852 36.637 43.384 39.7548 47.2873C39.9908 47.5845 40.2938 47.8821 40.6329 48.1527C40.8951 47.1516 41.1134 45.6535 41.1274 44.8903C41.1836 42.0303 41.1196 40.1588 40.9648 37.2835C40.8764 35.6607 40.3291 35.2455 39.2121 34.9742C38.2156 34.7319 37.4217 33.9803 37.1255 32.9987C36.8292 32.017 37.0749 30.9518 37.7709 30.1987C39.2772 28.5697 41.2409 28.2518 43.1389 28.1504C44.0822 28.0994 45.1078 28.0745 46.2732 28.0745C47.342 28.0745 48.412 28.0944 49.4463 28.1141C50.1577 28.1275 50.869 28.1408 51.5798 28.148C52.9631 28.1603 54.1855 28.2862 55.3127 28.5323C57.3641 28.9787 58.7536 30.495 59.1232 32.6921C59.271 33.5659 59.3361 34.4251 59.317 35.2443C59.2877 36.5385 59.2447 37.8511 59.2025 39.1205L59.2001 39.1863C59.1391 41.0322 59.0767 42.9162 59.0554 44.7592C59.0415 45.936 59.1323 47.009 59.3252 47.9529C60.4753 46.7311 61.619 45.2829 62.9988 43.3043C64.8921 40.5884 66.5407 37.3869 68.1872 33.2298C69.2064 30.6637 70.4115 29.8389 73.1477 29.8332C76.9628 29.8236 80.7796 29.821 84.5952 29.8332C85.5758 29.8371 86.4065 29.9521 87.1378 30.1844C89.0031 30.7791 89.955 32.5007 89.5089 34.4702C88.8505 37.3929 87.2777 39.7807 85.8553 41.7899C84.3092 43.9723 82.6929 46.148 81.1302 48.2525C80.2991 49.3711 79.4823 50.471 78.6719 51.5755C78.4465 51.8831 78.2214 52.2408 77.9652 52.7006C77.4023 53.7194 77.4748 53.7943 78.1678 54.5101C79.004 55.372 79.8849 56.232 80.7372 57.0635C81.9978 58.2941 83.2902 59.5555 84.504 60.8829C86.0884 62.6189 87.4841 64.435 88.6549 66.2835C89.691 67.9199 89.9004 69.6912 89.2294 71.1431C88.8432 71.9798 87.8132 73.4397 85.2596 73.8027C84.8761 73.8554 84.0834 73.9266 81.5976 73.9266ZM60.2786 58.2007C61.6833 58.2007 63.094 58.7103 64.3584 59.6739C65.0603 60.2074 65.7559 60.8373 66.4823 61.5973C67.1033 62.2474 67.7099 62.9062 68.2966 63.5439L68.3344 63.5853C69.3465 64.6856 70.3916 65.8218 71.4464 66.8372C72.2762 67.6356 73.2701 68.0265 74.4843 68.0321C74.5548 68.0323 74.815 68.0379 75.2136 68.0472C76.4482 68.0753 79.2934 68.1401 81.597 68.1401C82.1313 68.1401 82.5712 68.1363 82.9312 68.1309C82.1295 66.9942 81.225 65.873 80.2313 64.7846C79.1307 63.5808 77.8985 62.3777 76.7064 61.2142C75.8155 60.3451 74.9056 59.4571 74.0126 58.5361C71.491 55.9328 71.1297 53.1053 72.9065 49.8907C73.2872 49.2079 73.635 48.6585 74.0056 48.1525C74.8238 47.0375 75.6475 45.9284 76.4713 44.8192C78.029 42.7222 79.6253 40.5726 81.1336 38.4442C81.7508 37.5724 82.4026 36.6177 82.9306 35.6145C79.7771 35.6075 76.6207 35.6105 73.4647 35.6179C71.6827 40.0774 69.8616 43.5778 67.7453 46.6131C66.1016 48.9701 64.7262 50.6883 63.285 52.1847C61.7375 53.7896 60.1282 54.126 59.0501 54.126C56.4447 54.126 54.3473 52.2518 53.7064 49.3516C53.3962 47.9379 53.2496 46.3713 53.2693 44.6911C53.2912 42.7863 53.3546 40.8709 53.416 39.0183L53.4187 38.9293C53.4604 37.6744 53.5032 36.3775 53.5319 35.1107C53.5395 34.7823 53.5215 34.4359 53.4777 34.0751C52.8926 33.9867 52.2483 33.9402 51.5234 33.9339C50.7929 33.9263 50.0649 33.913 49.3372 33.8992C48.2646 33.8793 47.1462 33.8576 46.0787 33.861C46.4557 34.7833 46.6802 35.8241 46.7427 36.971C46.9053 39.9915 46.9722 41.963 46.9127 44.9993C46.8864 46.4528 46.484 49.0583 45.9269 50.613C45.1307 52.857 43.2335 54.2565 40.979 54.2565C39.8619 54.2565 38.7431 53.8944 37.7437 53.2089C36.7759 52.5457 35.9059 51.7448 35.2291 50.8933C31.7615 46.5522 28.9169 41.5825 26.5368 35.7063C26.5249 35.677 26.5137 35.6511 26.5036 35.6278C26.5012 35.6276 26.4986 35.6272 26.4964 35.6272C26.0557 35.6151 22.3182 35.5402 19.3207 35.5248C20.2023 37.4222 21.2251 39.6008 21.3709 39.8963C25.1602 47.4847 28.4927 52.966 32.1749 57.666C34.9357 61.1911 37.8373 63.7397 41.0457 65.4584C44.1441 67.1183 47.7416 67.9251 52.0435 67.9251C52.5163 67.9251 53.0064 67.9155 53.5078 67.8962C53.6973 66.4728 54.1182 63.7517 54.7284 62.2121C55.7281 59.6992 57.8023 58.2007 60.2786 58.2007Z" fill="#75B998"/>
</svg>
