<svg width="278" height="278" viewBox="0 0 278 278" fill="none" xmlns="http://www.w3.org/2000/svg">
    <path d="M249.661 212.403L95.7463 264.645C83.2192 268.896 69.6172 262.188 65.3653 249.661L13.1239 95.7463C8.87201 83.2192 15.5803 69.6173 28.1074 65.3654L182.022 13.1239C194.549 8.87202 208.151 15.5803 212.403 28.1074L264.645 182.022C268.896 194.549 262.188 208.151 249.661 212.403Z" fill="#5DA0D8"/>
    <path d="M60.6433 123.432L78.2191 117.467C80.9548 116.538 83.9734 117.488 85.6857 119.815C89.338 124.779 96.2038 133.506 104.04 140.473C110.403 146.13 117.231 150.371 122.114 153.053C124.563 154.399 127.384 152.025 126.486 149.379L117.877 124.014C116.614 120.293 114.215 117.062 111.019 114.776L108.486 112.965C107.899 112.544 107.458 111.95 107.226 111.267C106.613 109.461 107.58 107.501 109.385 106.888L133.963 98.5463C136.181 97.7934 138.59 98.9813 139.343 101.2L150.38 133.716C151.096 135.827 153.756 136.489 155.379 134.961L156.791 133.631C157.034 133.402 157.231 133.128 157.369 132.824C162.773 120.984 166.109 108.305 167.232 95.3389L167.648 90.5269C167.833 88.3904 169.265 86.5664 171.297 85.8791L188.657 80.0093C191.914 78.908 195.169 81.6737 194.609 85.0653L191.684 102.788C191.306 105.08 190.788 107.348 190.136 109.578L185.291 126.132C184.431 129.071 185.851 132.196 188.629 133.483L197.721 137.694C204.757 140.953 211.339 145.115 217.299 150.076L220.494 152.736C223.477 155.219 222.588 160.011 218.912 161.258L203.93 166.343C200.9 167.372 197.582 167.131 194.732 165.676L174.523 155.356C170.52 153.312 166.005 152.488 161.539 152.987C159.253 153.242 157.789 155.545 158.528 157.723L163.665 172.858C164.867 176.4 162.971 180.245 159.429 181.447C146.863 185.712 133.243 185.723 120.67 181.476C98.3966 173.953 79.1626 159.411 65.8524 140.032L58.6241 129.507C57.1171 127.314 58.1231 124.288 60.6433 123.432Z" fill="white"/>
    <path d="M220.287 165.308L205.305 170.393C201.205 171.785 196.643 171.454 192.787 169.485L172.578 159.166C169.563 157.627 166.219 156.94 162.855 157.163L167.716 171.483C169.674 177.253 166.573 183.54 160.804 185.498C147.426 190.039 132.687 190.05 119.302 185.529C114.239 183.819 109.255 181.73 104.487 179.32C102.379 178.254 101.534 175.681 102.6 173.572C103.666 171.464 106.239 170.62 108.347 171.685C112.753 173.912 117.36 175.844 122.04 177.424C133.655 181.347 146.445 181.337 158.055 177.397C159.358 176.955 160.057 175.535 159.615 174.233L154.478 159.098C153.707 156.827 154.003 154.364 155.29 152.339C156.577 150.315 158.683 149.001 161.065 148.736C166.38 148.143 171.706 149.115 176.468 151.547L196.678 161.866C198.488 162.79 200.63 162.946 202.555 162.292L217.537 157.207C217.632 157.175 217.92 157.077 217.994 156.68C218.067 156.282 217.834 156.087 217.757 156.023L214.562 153.363C208.891 148.643 202.619 144.676 195.923 141.575L186.831 137.364C182.094 135.17 179.72 129.941 181.186 124.929L186.031 108.375C186.632 106.318 187.115 104.204 187.464 102.09L190.39 84.3678C190.399 84.3062 190.415 84.2131 190.295 84.1115C190.176 84.0102 190.086 84.0402 190.027 84.0603L172.667 89.9306L172.665 89.931C172.245 90.0739 171.948 90.4519 171.91 90.8949L171.493 95.7068C170.325 109.196 166.883 122.281 161.261 134.599C160.89 135.411 160.373 136.133 159.722 136.745L158.311 138.074C156.484 139.795 153.94 140.46 151.506 139.853C149.071 139.247 147.136 137.467 146.329 135.09L135.304 102.608L112.284 110.422L113.508 111.297C117.456 114.12 120.367 118.043 121.928 122.639L130.537 148.004C131.518 150.895 130.64 154.031 128.3 155.992C125.963 157.953 122.727 158.269 120.055 156.802C115.178 154.123 107.948 149.669 101.198 143.669C92.972 136.356 85.7897 127.173 82.2408 122.35C81.6311 121.521 80.5676 121.187 79.5943 121.517L62.3457 127.371L69.378 137.61C73.4733 143.572 78.2047 149.124 83.4409 154.111C85.1516 155.74 85.2182 158.448 83.5887 160.158C81.9588 161.869 79.2519 161.935 77.5417 160.306C71.876 154.911 66.7567 148.904 62.3262 142.453L55.0976 131.929C53.6142 129.769 53.2378 127.104 54.0639 124.618C54.8914 122.132 56.7876 120.224 59.2681 119.382L76.8444 113.416C81.3642 111.882 86.3017 113.435 89.1312 117.28C92.4808 121.832 99.2411 130.483 106.882 137.276C111.871 141.711 117.184 145.239 121.41 147.731L113.827 125.389C112.845 122.498 111.014 120.031 108.531 118.255L105.998 116.443C104.675 115.497 103.699 114.182 103.176 112.641C101.806 108.605 103.975 104.208 108.01 102.838L132.589 94.4957C137.036 92.9861 141.884 95.3767 143.394 99.8249L153.771 130.4C158.813 119.162 161.907 107.247 162.97 94.9698L163.387 90.1579C163.718 86.3326 166.28 83.0647 169.916 81.8307C169.92 81.8294 169.923 81.8283 169.927 81.8271L187.287 75.9567C190.252 74.9539 193.448 75.5654 195.833 77.592C198.22 79.6187 199.339 82.673 198.829 85.7614L195.904 103.484C195.499 105.937 194.939 108.391 194.241 110.778L189.396 127.332C189.129 128.247 189.562 129.201 190.426 129.601L199.518 133.812C206.889 137.226 213.792 141.592 220.035 146.789L223.23 149.449C225.798 151.586 227.014 154.955 226.405 158.241C225.796 161.526 223.452 164.234 220.287 165.308Z" fill="#424B56"/>
    <path d="M93.7733 171.081C92.512 171.509 91.0696 171.343 89.9041 170.509L92.3948 167.031L89.8786 170.491C89.8761 170.489 89.8404 170.463 89.8378 170.461C87.9174 169.086 87.4758 166.414 88.851 164.493C90.2267 162.572 92.8983 162.131 94.8192 163.506L94.8854 163.554C96.8058 164.929 97.2475 167.601 95.8722 169.522C95.3312 170.277 94.5899 170.804 93.7733 171.081Z" fill="#424B56"/>
    <path d="M146.767 230.162L113.757 241.367C111.52 242.126 109.091 240.928 108.332 238.691C107.572 236.454 108.771 234.025 111.007 233.266L144.018 222.062C146.255 221.303 148.684 222.5 149.443 224.737C150.202 226.974 149.005 229.403 146.767 230.162Z" fill="#424B56"/>
    <path d="M165.197 223.907L165.149 223.924C162.912 224.683 160.483 223.485 159.723 221.248C158.964 219.011 160.162 216.582 162.399 215.823L162.447 215.806C164.684 215.047 167.113 216.245 167.872 218.482C168.632 220.719 167.434 223.148 165.197 223.907Z" fill="#424B56"/>
    <path d="M251.036 216.453L97.121 268.695C82.3804 273.698 66.3182 265.776 61.3149 251.036L9.07351 97.121C4.07029 82.3804 11.992 66.3181 26.7326 61.3149L180.647 9.07349C195.388 4.07027 211.45 11.992 216.454 26.7326L268.695 180.647C273.698 195.388 265.776 211.45 251.036 216.453ZM29.4821 69.4157C19.2087 72.9027 13.6873 84.098 17.1743 94.3715L69.4157 248.286C72.9027 258.56 84.0981 264.081 94.3715 260.594L248.286 208.353C258.56 204.866 264.081 193.67 260.594 183.397L208.353 29.4821C204.866 19.2087 193.67 13.6873 183.397 17.1743L29.4821 69.4157Z" fill="#424B56"/>
</svg>
