<svg width="360" height="304" viewBox="0 0 360 304" fill="none" xmlns="http://www.w3.org/2000/svg">
    <path d="M293.226 41.134C286.141 29.8567 273.582 23.1621 260.458 23.6675C236.666 24.5688 171.246 45.0734 148.765 52.1194C126.285 59.1655 60.8643 79.67 40.8144 92.5099C29.7502 99.5856 23.2589 112.251 23.8785 125.555C24.987 149.673 39.5553 196.154 39.5553 196.154C39.5553 196.154 54.1235 242.634 66.9798 263.071C74.0646 274.348 86.6238 281.043 99.7474 280.537C123.539 279.636 178.303 262.471 211.44 252.085C244.577 241.699 299.341 224.535 319.391 211.695C330.455 204.619 336.947 191.954 336.327 178.65C335.218 154.531 320.65 108.051 320.65 108.051C320.65 108.051 306.082 61.5703 293.226 41.134Z" fill="#FF5A5A"/>
    <path d="M151.987 57.3868C151.982 57.3884 151.976 57.39 151.971 57.3916L151.557 57.5203C148.403 58.4993 145.054 56.7407 144.068 53.5912C144.066 53.5866 144.065 53.582 144.063 53.5775C143.085 50.4245 144.843 47.0755 147.991 46.0889C147.996 46.0871 148.001 46.0856 148.007 46.0839L148.421 45.9553C151.574 44.9763 154.924 46.735 155.91 49.8845C155.911 49.8891 155.913 49.8936 155.914 49.8982C156.893 53.0512 155.135 56.4001 151.987 57.3868Z" fill="#424B56"/>
    <path d="M213.231 257.799C209.611 258.933 124.286 285.599 99.9736 286.52C84.718 287.108 70.1311 279.343 61.9093 266.256C48.7934 245.405 34.4464 199.873 33.842 197.945C33.2376 196.016 19.0289 150.441 17.8973 125.83C17.1781 110.395 24.7233 95.6929 37.5884 87.466C51.1234 78.7983 92.3054 64.3108 124.469 53.6845C127.608 52.6707 130.996 54.3515 132.033 57.4911C133.07 60.631 131.366 64.0174 128.226 65.0542C83.684 79.7711 53.7875 91.3119 44.0432 97.5522C34.7728 103.481 29.3385 114.103 29.8588 125.277C30.9193 148.341 45.1252 193.905 45.2686 194.363C45.4119 194.82 59.7549 240.342 72.0474 259.882C77.9993 269.357 88.5245 274.977 99.5166 274.554C122.246 273.693 208.778 246.645 209.649 246.372C210.521 246.099 297.011 218.917 316.162 206.652C325.433 200.724 330.867 190.101 330.347 178.928C329.286 155.863 315.08 110.299 314.937 109.841C314.793 109.384 300.45 63.8624 288.158 44.3217C282.206 34.8472 271.681 29.2268 260.689 29.6502C249.374 30.0787 219.119 37.406 175.493 50.2827C172.322 51.219 168.992 49.4065 168.056 46.2352C167.119 43.0638 168.953 39.7377 172.103 38.7974C203.622 29.4939 244.497 18.2796 260.232 17.6841C275.487 17.0965 290.074 24.861 298.296 37.9485C311.412 58.7997 325.759 104.332 326.363 106.26C326.968 108.188 341.177 153.764 342.308 178.375C343.027 193.81 335.482 208.512 322.617 216.739C302.131 229.858 216.851 256.664 213.231 257.799Z" fill="#424B56"/>
    <path d="M140.106 120.416L223.844 139.347L165.892 202.688L140.106 120.416Z" fill="white"/>
    <path d="M80.4134 230.421C77.258 231.41 73.8984 229.654 72.9094 226.498L58.3151 179.935C57.3261 176.779 59.0823 173.42 62.2377 172.431C65.3932 171.442 68.7527 173.198 69.7417 176.353L84.336 222.917C85.325 226.072 83.5689 229.432 80.4134 230.421Z" fill="#424B56"/>
    <path d="M57.6926 157.929C54.5371 158.918 51.1776 157.162 50.1886 154.007L50.1674 153.939C49.1784 150.784 50.9346 147.424 54.09 146.435C57.2455 145.446 60.605 147.202 61.594 150.358L61.6152 150.425C62.6042 153.581 60.848 156.94 57.6926 157.929Z" fill="#424B56"/>
    <path d="M167.683 208.401C166.699 208.71 165.635 208.765 164.594 208.533C162.503 208.069 160.82 206.523 160.179 204.479L134.393 122.207C133.752 120.164 134.252 117.933 135.704 116.358C137.155 114.783 139.337 114.104 141.427 114.576L225.165 133.507C227.246 133.978 228.92 135.52 229.558 137.557C230.197 139.593 229.703 141.814 228.262 143.389L170.31 206.73C169.585 207.523 168.674 208.091 167.683 208.401ZM148.93 128.55L168.495 190.973L212.466 142.914L148.93 128.55Z" fill="#424B56"/>
</svg>
