<svg width="60" height="60" viewBox="0 0 60 60" fill="none" xmlns="http://www.w3.org/2000/svg">
    <path d="M30.0001 60.0001C46.5686 60.0001 60.0001 46.5686 60.0001 30.0001C60.0001 13.4315 46.5686 0 30.0001 0C13.4315 0 0 13.4315 0 30.0001C0 46.5686 13.4315 60.0001 30.0001 60.0001Z" fill="#F0494D"/>
    <path d="M51.2123 8.78357C62.9281 20.5003 62.9291 39.496 51.2123 51.2128C39.4965 62.9285 20.4999 62.929 8.78308 51.2128L51.2123 8.78357Z" fill="#F0494D"/>
    <path d="M59.543 35.1905L39.3529 15.0006L37.7243 16.6291L36.0957 15.0006L34.3108 16.7855L35.5097 17.9844L35.1184 18.3757L32.0095 15.2668L31.8768 15.4004L27.6873 11.2109L25.9024 12.9958L26.3908 13.4843L25.6736 14.2015L22.6537 11.1815L21.4017 12.4335L24.3458 19.5235L23.0199 24.9669L26.6448 28.5927L17.4766 29.234L17.3378 45.1435L32.0915 59.9152C45.9153 58.9333 57.2028 48.5935 59.543 35.1905Z" fill="#F0494D"/>
    <path d="M40.7305 36.956H38.7949L38.8044 35.8324C38.8044 35.3326 39.2142 34.9248 39.7158 34.9248H39.8398C40.3415 34.9248 40.7531 35.3327 40.7531 35.8324L40.7305 36.956ZM33.4737 34.5481C32.9844 34.5481 32.5827 34.8783 32.5827 35.2819V40.7461C32.5827 41.1497 32.9844 41.4779 33.4737 41.4779C33.9668 41.4779 34.3685 41.1497 34.3685 40.7461V35.2813C34.3685 34.8783 33.9668 34.5481 33.4737 34.5481ZM45.2563 31.4922V41.8864C45.2563 44.38 43.0944 46.4198 40.4506 46.4198H20.6921C18.0478 46.4198 15.8864 44.3795 15.8864 41.8864V31.4922C15.8864 28.9985 18.0479 26.9579 20.6921 26.9579H40.4511C43.0942 26.9579 45.2563 28.999 45.2563 31.4922ZM22.0095 43.0153L22.0086 32.0659L24.4577 32.0668V30.4439L17.9285 30.4339V32.0285L19.9669 32.0347V43.0148H22.0095V43.0153ZM29.352 33.6973H27.3098V39.5439C27.3098 40.3899 27.3604 40.8129 27.307 40.9617C27.1403 41.415 26.3937 41.8964 26.1033 41.0109C26.054 40.8556 26.0976 40.3875 26.0967 39.5836L26.0872 33.6968H24.0564L24.064 39.4907C24.0649 40.3789 24.0436 41.0412 24.0706 41.3425C24.1203 41.874 24.1018 42.494 24.596 42.847C25.5141 43.5098 27.2752 42.7485 27.7158 41.8024L27.712 43.0094L29.3515 43.0118V33.6973H29.352ZM35.885 40.3922L35.8812 35.5258C35.8793 33.6707 34.4922 32.5599 32.6078 34.0607L32.6163 30.4424L30.576 30.4457L30.566 42.9332L32.2434 42.9085L32.396 42.1302C34.5405 44.0991 35.8886 42.7509 35.885 40.3922ZM42.2771 39.7476L40.7452 39.7557C40.7452 39.8168 40.7424 39.8864 40.7414 39.9632V40.8177C40.7414 41.2749 40.3638 41.6472 39.9048 41.6472H39.6049C39.1449 41.6472 38.7674 41.2749 38.7674 40.8177V40.723V39.7823V38.5695H42.2739V37.2497C42.2739 36.2858 42.2488 35.3217 42.1692 34.7704C41.9186 33.0257 39.4704 32.7491 38.2331 33.642C37.8447 33.921 37.5486 34.2942 37.3753 34.7965C37.2015 35.2982 37.1153 35.9826 37.1153 36.8533V39.7548C37.1165 44.578 42.9748 43.8963 42.2771 39.7476ZM34.4221 23.9939C34.5268 24.2506 34.6902 24.4576 34.9133 24.6149C35.1317 24.7683 35.4131 24.8465 35.7489 24.8465C36.0431 24.8465 36.304 24.7669 36.5305 24.6026C36.7574 24.4391 36.9488 24.1957 37.1041 23.8698L37.0653 24.6713H39.3414V14.9905H37.5494V22.5249C37.5494 22.9323 37.2126 23.2663 36.8018 23.2663C36.3939 23.2663 36.0561 22.9323 36.0561 22.5249V14.9905H34.1863V21.5197C34.1863 22.3516 34.201 22.9063 34.2261 23.1877C34.2529 23.4671 34.3169 23.7347 34.4221 23.9939ZM27.524 18.5264C27.524 17.597 27.6017 16.8717 27.7552 16.3487C27.9096 15.8271 28.189 15.4079 28.5917 15.0925C28.9943 14.7746 29.5099 14.6159 30.1351 14.6159C30.6614 14.6159 31.1129 14.7196 31.4904 14.9219C31.8679 15.1256 32.1611 15.3895 32.3629 15.7158C32.5704 16.0432 32.7097 16.38 32.785 16.7243C32.8617 17.073 32.8987 17.6003 32.8987 18.3094V20.758C32.8987 21.6561 32.8627 22.3164 32.7931 22.7362C32.7244 23.1569 32.5757 23.5467 32.3455 23.912C32.1181 24.2739 31.8244 24.5443 31.4681 24.7168C31.1091 24.8916 30.6984 24.9768 30.2331 24.9768C29.7149 24.9768 29.2772 24.9053 28.9176 24.7551C28.5567 24.6064 28.2771 24.3818 28.0786 24.0839C27.8768 23.7855 27.7362 23.4222 27.6514 22.9987C27.5651 22.5747 27.5244 21.9385 27.5244 21.0897V18.5264H27.524ZM29.306 22.3724C29.306 22.9199 29.7148 23.3676 30.2117 23.3676C30.7086 23.3676 31.1146 22.9204 31.1146 22.3724V17.2185C31.1146 16.6709 30.7086 16.2233 30.2117 16.2233C29.7148 16.2233 29.306 16.6704 29.306 17.2185V22.3724ZM23.0061 24.9744H25.1544L25.1563 17.5495L27.694 11.189H25.3449L23.9958 15.9142L22.6272 11.1767H20.3032L23.0028 17.5538L23.0061 24.9744Z" fill="white"/>
</svg>
